%TF.GenerationSoftware,KiCad,Pcbnew,9.0.2*%
%TF.CreationDate,2025-09-10T18:20:18+09:00*%
%TF.ProjectId,control-unit,636f6e74-726f-46c2-9d75-6e69742e6b69,rev?*%
%TF.SameCoordinates,Original*%
%TF.FileFunction,Copper,L2,Bot*%
%TF.FilePolarity,Positive*%
%FSLAX46Y46*%
G04 Gerber Fmt 4.6, Leading zero omitted, Abs format (unit mm)*
G04 Created by KiCad (PCBNEW 9.0.2) date 2025-09-10 18:20:18*
%MOMM*%
%LPD*%
G01*
G04 APERTURE LIST*
G04 Aperture macros list*
%AMRoundRect*
0 Rectangle with rounded corners*
0 $1 Rounding radius*
0 $2 $3 $4 $5 $6 $7 $8 $9 X,Y pos of 4 corners*
0 Add a 4 corners polygon primitive as box body*
4,1,4,$2,$3,$4,$5,$6,$7,$8,$9,$2,$3,0*
0 Add four circle primitives for the rounded corners*
1,1,$1+$1,$2,$3*
1,1,$1+$1,$4,$5*
1,1,$1+$1,$6,$7*
1,1,$1+$1,$8,$9*
0 Add four rect primitives between the rounded corners*
20,1,$1+$1,$2,$3,$4,$5,0*
20,1,$1+$1,$4,$5,$6,$7,0*
20,1,$1+$1,$6,$7,$8,$9,0*
20,1,$1+$1,$8,$9,$2,$3,0*%
G04 Aperture macros list end*
%TA.AperFunction,ComponentPad*%
%ADD10R,1.600000X1.500000*%
%TD*%
%TA.AperFunction,ComponentPad*%
%ADD11C,1.600000*%
%TD*%
%TA.AperFunction,ComponentPad*%
%ADD12C,3.000000*%
%TD*%
%TA.AperFunction,ComponentPad*%
%ADD13C,1.600200*%
%TD*%
%TA.AperFunction,ComponentPad*%
%ADD14R,1.700000X1.700000*%
%TD*%
%TA.AperFunction,ComponentPad*%
%ADD15C,1.700000*%
%TD*%
%TA.AperFunction,ComponentPad*%
%ADD16RoundRect,0.250000X-0.750000X0.600000X-0.750000X-0.600000X0.750000X-0.600000X0.750000X0.600000X0*%
%TD*%
%TA.AperFunction,ComponentPad*%
%ADD17O,2.000000X1.700000*%
%TD*%
%TA.AperFunction,ComponentPad*%
%ADD18RoundRect,0.250001X1.099999X1.099999X-1.099999X1.099999X-1.099999X-1.099999X1.099999X-1.099999X0*%
%TD*%
%TA.AperFunction,ComponentPad*%
%ADD19C,2.700000*%
%TD*%
%TA.AperFunction,ComponentPad*%
%ADD20RoundRect,0.250000X-0.725000X0.600000X-0.725000X-0.600000X0.725000X-0.600000X0.725000X0.600000X0*%
%TD*%
%TA.AperFunction,ComponentPad*%
%ADD21O,1.950000X1.700000*%
%TD*%
%TA.AperFunction,SMDPad,CuDef*%
%ADD22RoundRect,0.250000X-0.250000X0.250000X-0.250000X-0.250000X0.250000X-0.250000X0.250000X0.250000X0*%
%TD*%
%TA.AperFunction,ViaPad*%
%ADD23C,0.600000*%
%TD*%
%TA.AperFunction,Conductor*%
%ADD24C,0.200000*%
%TD*%
%TA.AperFunction,Conductor*%
%ADD25C,0.400000*%
%TD*%
%TA.AperFunction,Conductor*%
%ADD26C,0.600000*%
%TD*%
%TA.AperFunction,Conductor*%
%ADD27C,0.800000*%
%TD*%
G04 APERTURE END LIST*
D10*
%TO.P,J7,1,VBUS*%
%TO.N,+5V_Pi*%
X20000000Y-10000000D03*
D11*
%TO.P,J7,2,D-*%
%TO.N,unconnected-(J7-D--Pad2)*%
X17500000Y-10000000D03*
%TO.P,J7,3,D+*%
%TO.N,unconnected-(J7-D+-Pad3)*%
X15500000Y-10000000D03*
%TO.P,J7,4,GND*%
%TO.N,GND_PSU*%
X13000000Y-10000000D03*
D12*
%TO.P,J7,5,Shield*%
%TO.N,Net-(J7-Shield)*%
X23070000Y-7290000D03*
X9930000Y-7290000D03*
%TD*%
D13*
%TO.P,U2,1,GND*%
%TO.N,GND_SYS*%
X45660000Y-71265000D03*
%TO.P,U2,2,VIN*%
%TO.N,Net-(U2-VIN)*%
X48200000Y-71265000D03*
%TO.P,U2,3,0V*%
%TO.N,GND_ISO*%
X50740000Y-71265000D03*
%TO.P,U2,4,+VO*%
%TO.N,+5V_ISO*%
X53280000Y-71265000D03*
%TD*%
D14*
%TO.P,J5,1,Pin_1*%
%TO.N,/Isolated I2C DAC/ISO_DAC1*%
X61411439Y-72275000D03*
D15*
%TO.P,J5,2,Pin_2*%
%TO.N,GND_ISO*%
X61411439Y-74815000D03*
%TO.P,J5,3,Pin_3*%
%TO.N,/Isolated I2C DAC/SCL_ISO*%
X61411439Y-77355000D03*
%TO.P,J5,4,Pin_4*%
%TO.N,/Isolated I2C DAC/SDA_ISO*%
X61411439Y-79895000D03*
%TO.P,J5,5,Pin_5*%
%TO.N,+5V_ISO*%
X61411439Y-82435000D03*
%TO.P,J5,6,Pin_6*%
%TO.N,GND_ISO*%
X61411439Y-84975000D03*
%TD*%
D16*
%TO.P,J9,1,Pin_1*%
%TO.N,GND_AUX*%
X82510000Y-54040000D03*
D17*
%TO.P,J9,2,Pin_2*%
%TO.N,Net-(J9-Pin_2)*%
X82510000Y-56540000D03*
%TD*%
D18*
%TO.P,J10,1,Pin_1*%
%TO.N,GND_PSU*%
X92625000Y-18825000D03*
D19*
%TO.P,J10,2,Pin_2*%
%TO.N,+5V_PSU*%
X88665000Y-18825000D03*
%TD*%
D10*
%TO.P,J8,1,VBUS*%
%TO.N,+5V_Disp*%
X60000000Y-10000000D03*
D11*
%TO.P,J8,2,D-*%
%TO.N,unconnected-(J8-D--Pad2)*%
X57500000Y-10000000D03*
%TO.P,J8,3,D+*%
%TO.N,unconnected-(J8-D+-Pad3)*%
X55500000Y-10000000D03*
%TO.P,J8,4,GND*%
%TO.N,GND_PSU*%
X53000000Y-10000000D03*
D12*
%TO.P,J8,5,Shield*%
%TO.N,Net-(J8-Shield)*%
X63070000Y-7290000D03*
X49930000Y-7290000D03*
%TD*%
D14*
%TO.P,J1,1,Pin_1*%
%TO.N,/1*%
X6500000Y-37000000D03*
D15*
%TO.P,J1,2,Pin_2*%
%TO.N,+5V_SYS*%
X9040000Y-37000000D03*
%TO.P,J1,3,Pin_3*%
%TO.N,/3*%
X6500000Y-39540000D03*
%TO.P,J1,4,Pin_4*%
%TO.N,+5V_SYS*%
X9040000Y-39540000D03*
%TO.P,J1,5,Pin_5*%
%TO.N,/5*%
X6500000Y-42080000D03*
%TO.P,J1,6,Pin_6*%
%TO.N,GND_SYS*%
X9040000Y-42080000D03*
%TO.P,J1,7,Pin_7*%
%TO.N,/7*%
X6500000Y-44620000D03*
%TO.P,J1,8,Pin_8*%
%TO.N,/8*%
X9040000Y-44620000D03*
%TO.P,J1,9,Pin_9*%
%TO.N,GND_SYS*%
X6500000Y-47160000D03*
%TO.P,J1,10,Pin_10*%
%TO.N,/10*%
X9040000Y-47160000D03*
%TO.P,J1,11,Pin_11*%
%TO.N,/11*%
X6500000Y-49700000D03*
%TO.P,J1,12,Pin_12*%
%TO.N,/12*%
X9040000Y-49700000D03*
%TO.P,J1,13,Pin_13*%
%TO.N,/13*%
X6500000Y-52240000D03*
%TO.P,J1,14,Pin_14*%
%TO.N,GND_SYS*%
X9040000Y-52240000D03*
%TO.P,J1,15,Pin_15*%
%TO.N,/15*%
X6500000Y-54780000D03*
%TO.P,J1,16,Pin_16*%
%TO.N,/16*%
X9040000Y-54780000D03*
%TO.P,J1,17,Pin_17*%
%TO.N,/17*%
X6500000Y-57320000D03*
%TO.P,J1,18,Pin_18*%
%TO.N,/18*%
X9040000Y-57320000D03*
%TO.P,J1,19,Pin_19*%
%TO.N,/19*%
X6500000Y-59860000D03*
%TO.P,J1,20,Pin_20*%
%TO.N,GND_SYS*%
X9040000Y-59860000D03*
%TO.P,J1,21,Pin_21*%
%TO.N,/21*%
X6500000Y-62400000D03*
%TO.P,J1,22,Pin_22*%
%TO.N,/22*%
X9040000Y-62400000D03*
%TO.P,J1,23,Pin_23*%
%TO.N,/23*%
X6500000Y-64940000D03*
%TO.P,J1,24,Pin_24*%
%TO.N,/24*%
X9040000Y-64940000D03*
%TO.P,J1,25,Pin_25*%
%TO.N,GND_SYS*%
X6500000Y-67480000D03*
%TO.P,J1,26,Pin_26*%
%TO.N,/26*%
X9040000Y-67480000D03*
%TO.P,J1,27,Pin_27*%
%TO.N,/27*%
X6500000Y-70020000D03*
%TO.P,J1,28,Pin_28*%
%TO.N,/28*%
X9040000Y-70020000D03*
%TO.P,J1,29,Pin_29*%
%TO.N,/29*%
X6500000Y-72560000D03*
%TO.P,J1,30,Pin_30*%
%TO.N,GND_SYS*%
X9040000Y-72560000D03*
%TO.P,J1,31,Pin_31*%
%TO.N,/31*%
X6500000Y-75100000D03*
%TO.P,J1,32,Pin_32*%
%TO.N,/32*%
X9040000Y-75100000D03*
%TO.P,J1,33,Pin_33*%
%TO.N,/33*%
X6500000Y-77640000D03*
%TO.P,J1,34,Pin_34*%
%TO.N,GND_SYS*%
X9040000Y-77640000D03*
%TO.P,J1,35,Pin_35*%
%TO.N,/35*%
X6500000Y-80180000D03*
%TO.P,J1,36,Pin_36*%
%TO.N,/36*%
X9040000Y-80180000D03*
%TO.P,J1,37,Pin_37*%
%TO.N,/37*%
X6500000Y-82720000D03*
%TO.P,J1,38,Pin_38*%
%TO.N,/38*%
X9040000Y-82720000D03*
%TO.P,J1,39,Pin_39*%
%TO.N,GND_SYS*%
X6500000Y-85260000D03*
%TO.P,J1,40,Pin_40*%
%TO.N,/40*%
X9040000Y-85260000D03*
%TD*%
D14*
%TO.P,J6,1,VCC*%
%TO.N,+5V_SYS*%
X47090000Y-80300000D03*
D15*
%TO.P,J6,2,SCL*%
%TO.N,/5*%
X44550000Y-80300000D03*
%TO.P,J6,3,SDA*%
%TO.N,/3*%
X42010000Y-80300000D03*
%TO.P,J6,4,GND*%
%TO.N,GND_SYS*%
X39470000Y-80300000D03*
D14*
%TO.P,J6,5,VCC1*%
%TO.N,+5V_ISO*%
X47090000Y-93000000D03*
D15*
%TO.P,J6,6,SCL1*%
%TO.N,/Isolated I2C DAC/SCL_ISO*%
X44550000Y-93000000D03*
%TO.P,J6,7,SDA1*%
%TO.N,/Isolated I2C DAC/SDA_ISO*%
X42010000Y-93000000D03*
%TO.P,J6,8,GND1*%
%TO.N,GND_ISO*%
X39470000Y-93000000D03*
%TD*%
D20*
%TO.P,J11,1,Pin_1*%
%TO.N,GND_SYS*%
X46100000Y-42280000D03*
D21*
%TO.P,J11,2,Pin_2*%
%TO.N,/8*%
X46100000Y-44780000D03*
%TO.P,J11,3,Pin_3*%
%TO.N,/10*%
X46100000Y-47280000D03*
%TD*%
D16*
%TO.P,J3,1,Pin_1*%
%TO.N,GND_AUX*%
X82510000Y-40452500D03*
D17*
%TO.P,J3,2,Pin_2*%
%TO.N,Net-(J3-Pin_2)*%
X82510000Y-42952500D03*
%TD*%
D16*
%TO.P,J4,1,Pin_1*%
%TO.N,GND_ISO*%
X89875000Y-75075000D03*
D17*
%TO.P,J4,2,Pin_2*%
%TO.N,/Isolated I2C DAC/ISO_DAC1*%
X89875000Y-77575000D03*
%TD*%
D22*
%TO.P,D3,1,A1*%
%TO.N,GND_PSU*%
X60000000Y-5750000D03*
%TO.P,D3,2,A2*%
%TO.N,+5V_Disp*%
X60000000Y-8250000D03*
%TD*%
D14*
%TO.P,J2,1,Pin_1*%
%TO.N,/1*%
X23004567Y-36993153D03*
D15*
%TO.P,J2,2,Pin_2*%
%TO.N,+5V_SYS*%
X20464567Y-36993153D03*
%TO.P,J2,3,Pin_3*%
%TO.N,/3*%
X23004567Y-39533153D03*
%TO.P,J2,4,Pin_4*%
%TO.N,+5V_SYS*%
X20464567Y-39533153D03*
%TO.P,J2,5,Pin_5*%
%TO.N,/5*%
X23004567Y-42073153D03*
%TO.P,J2,6,Pin_6*%
%TO.N,GND_SYS*%
X20464567Y-42073153D03*
%TO.P,J2,7,Pin_7*%
%TO.N,/7*%
X23004567Y-44613153D03*
%TO.P,J2,8,Pin_8*%
%TO.N,/8*%
X20464567Y-44613153D03*
%TO.P,J2,9,Pin_9*%
%TO.N,GND_SYS*%
X23004567Y-47153153D03*
%TO.P,J2,10,Pin_10*%
%TO.N,/10*%
X20464567Y-47153153D03*
%TO.P,J2,11,Pin_11*%
%TO.N,/11*%
X23004567Y-49693153D03*
%TO.P,J2,12,Pin_12*%
%TO.N,/12*%
X20464567Y-49693153D03*
%TO.P,J2,13,Pin_13*%
%TO.N,/13*%
X23004567Y-52233153D03*
%TO.P,J2,14,Pin_14*%
%TO.N,GND_SYS*%
X20464567Y-52233153D03*
%TO.P,J2,15,Pin_15*%
%TO.N,/15*%
X23004567Y-54773153D03*
%TO.P,J2,16,Pin_16*%
%TO.N,/16*%
X20464567Y-54773153D03*
%TO.P,J2,17,Pin_17*%
%TO.N,/17*%
X23004567Y-57313153D03*
%TO.P,J2,18,Pin_18*%
%TO.N,/18*%
X20464567Y-57313153D03*
%TO.P,J2,19,Pin_19*%
%TO.N,/19*%
X23004567Y-59853153D03*
%TO.P,J2,20,Pin_20*%
%TO.N,GND_SYS*%
X20464567Y-59853153D03*
%TO.P,J2,21,Pin_21*%
%TO.N,/21*%
X23004567Y-62393153D03*
%TO.P,J2,22,Pin_22*%
%TO.N,/22*%
X20464567Y-62393153D03*
%TO.P,J2,23,Pin_23*%
%TO.N,/23*%
X23004567Y-64933153D03*
%TO.P,J2,24,Pin_24*%
%TO.N,/24*%
X20464567Y-64933153D03*
%TO.P,J2,25,Pin_25*%
%TO.N,GND_SYS*%
X23004567Y-67473153D03*
%TO.P,J2,26,Pin_26*%
%TO.N,/26*%
X20464567Y-67473153D03*
%TO.P,J2,27,Pin_27*%
%TO.N,/27*%
X23004567Y-70013153D03*
%TO.P,J2,28,Pin_28*%
%TO.N,/28*%
X20464567Y-70013153D03*
%TO.P,J2,29,Pin_29*%
%TO.N,/29*%
X23004567Y-72553153D03*
%TO.P,J2,30,Pin_30*%
%TO.N,GND_SYS*%
X20464567Y-72553153D03*
%TO.P,J2,31,Pin_31*%
%TO.N,/31*%
X23004567Y-75093153D03*
%TO.P,J2,32,Pin_32*%
%TO.N,/32*%
X20464567Y-75093153D03*
%TO.P,J2,33,Pin_33*%
%TO.N,/33*%
X23004567Y-77633153D03*
%TO.P,J2,34,Pin_34*%
%TO.N,GND_SYS*%
X20464567Y-77633153D03*
%TO.P,J2,35,Pin_35*%
%TO.N,/35*%
X23004567Y-80173153D03*
%TO.P,J2,36,Pin_36*%
%TO.N,/36*%
X20464567Y-80173153D03*
%TO.P,J2,37,Pin_37*%
%TO.N,/37*%
X23004567Y-82713153D03*
%TO.P,J2,38,Pin_38*%
%TO.N,/38*%
X20464567Y-82713153D03*
%TO.P,J2,39,Pin_39*%
%TO.N,GND_SYS*%
X23004567Y-85253153D03*
%TO.P,J2,40,Pin_40*%
%TO.N,/40*%
X20464567Y-85253153D03*
%TD*%
D22*
%TO.P,D2,1,A1*%
%TO.N,GND_PSU*%
X20000000Y-5750000D03*
%TO.P,D2,2,A2*%
%TO.N,+5V_Pi*%
X20000000Y-8250000D03*
%TD*%
D23*
%TO.N,GND_SYS*%
X36704982Y-73939370D03*
X33088027Y-70116572D03*
X28491058Y-43539782D03*
X30294635Y-46362771D03*
X30353447Y-50656067D03*
X32500000Y-49500000D03*
X32686334Y-46225542D03*
X30500000Y-42000000D03*
X32000000Y-43000000D03*
X34500000Y-40500000D03*
X33500000Y-37500000D03*
X45000000Y-37500000D03*
%TO.N,GND_PSU*%
X47500000Y-3225000D03*
%TO.N,/32*%
X42070000Y-60320000D03*
X50400000Y-60320000D03*
%TO.N,+5V_SYS*%
X39640000Y-72449998D03*
X31389999Y-39919999D03*
%TO.N,/5*%
X28499998Y-42079999D03*
%TO.N,GND_PSU*%
X15000000Y-21000000D03*
X61872179Y-20632564D03*
X24000000Y-4000000D03*
X50500000Y-22500000D03*
X16000000Y-21000000D03*
X84300000Y-29360000D03*
X83500000Y-12500000D03*
X57000000Y-19000000D03*
X60000000Y-5750000D03*
X16000000Y-19000000D03*
X24000000Y-2000000D03*
X48970000Y-1830000D03*
X82500000Y-13500000D03*
X63000000Y-19757019D03*
X91070000Y-27200000D03*
X70500000Y-20000000D03*
X71500000Y-19000000D03*
X9000000Y-29500000D03*
X22275000Y-15500000D03*
X39500000Y-25000000D03*
X8000000Y-26500000D03*
X90070000Y-28200000D03*
X39500000Y-23000000D03*
X22290000Y-24425000D03*
X8500000Y-10000000D03*
X90260000Y-32310000D03*
X20810000Y-24425000D03*
X40500000Y-23000000D03*
X87775000Y-31000000D03*
X24000000Y-20000000D03*
X19195069Y-19701719D03*
X17700001Y-18700001D03*
X50500000Y-21500000D03*
X23500000Y-15500000D03*
X14000000Y-19000000D03*
X89260000Y-32310000D03*
X8500000Y-1000000D03*
X12000000Y-17000000D03*
X93040000Y-28130000D03*
X63741832Y-17220484D03*
X50500000Y-23500000D03*
X51500000Y-21500000D03*
X49500000Y-22500000D03*
X73000000Y-10000000D03*
X88610000Y-27840000D03*
X57000000Y-20000000D03*
X74000000Y-10000000D03*
X92040000Y-28130000D03*
X40500000Y-25000000D03*
X38392522Y-22973340D03*
X90260000Y-33310000D03*
X16000000Y-20000000D03*
X88725000Y-29300000D03*
X15175000Y-17000000D03*
X92040000Y-27130000D03*
X63741832Y-15220484D03*
X24000000Y-3000000D03*
X49500000Y-21500000D03*
X19204849Y-20523212D03*
X63755023Y-13454796D03*
X84160000Y-33540000D03*
X8500000Y-12500000D03*
X63741832Y-16220484D03*
X71500000Y-20000000D03*
X84160000Y-34540000D03*
X24000000Y-18000000D03*
X22000000Y-20000000D03*
X22275000Y-14000000D03*
X84300000Y-30310000D03*
X63755023Y-14454796D03*
X20025192Y-5696130D03*
X14000000Y-20000000D03*
X23500000Y-14000000D03*
X24000000Y-19000000D03*
X84300000Y-28360000D03*
X89260000Y-33310000D03*
X13500000Y-13500000D03*
X62775000Y-14000000D03*
X38392522Y-24973340D03*
X83300000Y-29360000D03*
X23000000Y-20000000D03*
X12500000Y-13500000D03*
X60000000Y-4500000D03*
X39500000Y-24000000D03*
X7000000Y-3725000D03*
X33000000Y-10000000D03*
X93220000Y-31440000D03*
X62775000Y-15500000D03*
X48500000Y-12500000D03*
X24000000Y-12500000D03*
X14000000Y-21000000D03*
X13000000Y-17000000D03*
X48930000Y-2830000D03*
X92220000Y-30440000D03*
X15000000Y-13500000D03*
X82500000Y-12500000D03*
X20300173Y-19687050D03*
X91070000Y-28200000D03*
X48500000Y-11500000D03*
X93040000Y-27130000D03*
X4957852Y-27494262D03*
X70500000Y-19000000D03*
X62775000Y-17000000D03*
X48980000Y-840000D03*
X83160000Y-33540000D03*
X6000000Y-27500000D03*
X93220000Y-30440000D03*
X82500000Y-11500000D03*
X20000000Y-5000000D03*
X64000000Y-2500000D03*
X92220000Y-31440000D03*
X6050000Y-29620000D03*
X40500000Y-24000000D03*
X1690000Y-29460000D03*
X10000000Y-13500000D03*
X8500000Y-13500000D03*
X34500000Y-10000000D03*
X83300000Y-28360000D03*
X84300000Y-31310000D03*
X38392522Y-23973340D03*
X15000000Y-19000000D03*
X24000000Y-11500000D03*
X15000000Y-20000000D03*
X83160000Y-34540000D03*
X15000000Y-24550000D03*
X7500000Y-16000000D03*
X23000000Y-18000000D03*
X22000000Y-19000000D03*
X23500000Y-17000000D03*
X20295283Y-20493873D03*
X16000000Y-13500000D03*
X8500000Y-11000000D03*
X87780000Y-32540000D03*
X17500000Y-21500000D03*
X4000000Y-14000000D03*
X64000000Y-1500000D03*
X49500000Y-23500000D03*
X57000000Y-21000000D03*
X48500000Y-13500000D03*
X8500000Y-2000000D03*
X51500000Y-23500000D03*
X83300000Y-30310000D03*
X83300000Y-31310000D03*
X23000000Y-19000000D03*
X83500000Y-11500000D03*
X22320000Y-16970000D03*
X11000000Y-13500000D03*
X83500000Y-13500000D03*
X75500000Y-10000000D03*
X51500000Y-22500000D03*
X24000000Y-1000000D03*
X19750000Y-20100000D03*
%TO.N,Net-(U3-EN{slash}UVLO)*%
X9625000Y-25625000D03*
X13430000Y-26040000D03*
%TO.N,+5V_Pi*%
X15060000Y-15500000D03*
X20000000Y-8358514D03*
X10000000Y-17010000D03*
%TO.N,+5V_PSU*%
X88675000Y-23375000D03*
X34550000Y-29500000D03*
X41000000Y-30000000D03*
X86200000Y-25950000D03*
X73000000Y-24500000D03*
X66875000Y-27050000D03*
X44061453Y-31000000D03*
X38000000Y-30000000D03*
X48000000Y-30000000D03*
X29500000Y-25500000D03*
X45061453Y-31000000D03*
X79500000Y-23500000D03*
X24500000Y-23500000D03*
X39000000Y-31000000D03*
X38000000Y-31000000D03*
X88675000Y-24375000D03*
X25500000Y-22500000D03*
X41000000Y-31000000D03*
X38005000Y-13495000D03*
X34550000Y-28500000D03*
X30500000Y-26500000D03*
X29500000Y-26500000D03*
X47000000Y-31000000D03*
X85600000Y-21625000D03*
X47000000Y-30000000D03*
X73000000Y-23500000D03*
X89625000Y-21100000D03*
X33550000Y-29500000D03*
X42000000Y-31000000D03*
X6000000Y-19100000D03*
X30500000Y-25500000D03*
X79500000Y-24500000D03*
X42000000Y-30000000D03*
X66875000Y-26050000D03*
X39000000Y-30000000D03*
X45061453Y-30000000D03*
X82500000Y-23500000D03*
X89625000Y-22100000D03*
X25500000Y-23500000D03*
X85600000Y-20625000D03*
X48000000Y-31000000D03*
X33550000Y-28500000D03*
X44061453Y-30000000D03*
X12260000Y-27225002D03*
X76000000Y-23500000D03*
X82500000Y-24500000D03*
X54010000Y-27000000D03*
X24500000Y-22500000D03*
X76000000Y-24500000D03*
%TO.N,GND_SYS*%
X14760000Y-77640000D03*
X26750000Y-71210000D03*
X59560000Y-49290000D03*
X27460000Y-51040000D03*
X46310000Y-63065000D03*
X2240000Y-72945000D03*
X53240000Y-46170000D03*
X5260000Y-90860000D03*
X32230000Y-86155000D03*
X25000000Y-33500000D03*
X2080000Y-41865000D03*
X2130000Y-58790000D03*
X65130000Y-46680000D03*
X3500000Y-33500000D03*
X53130000Y-38450000D03*
X65130000Y-44550000D03*
X14890000Y-72560000D03*
X2150000Y-51090000D03*
X59560000Y-47160000D03*
X2520000Y-76480000D03*
X31960000Y-89600000D03*
X32230000Y-87220000D03*
X14850000Y-42080000D03*
X32230000Y-85090000D03*
X46650000Y-56940000D03*
X31960000Y-91730000D03*
X12500000Y-34000000D03*
X27020000Y-76430000D03*
X14710000Y-52240000D03*
X31960000Y-90665000D03*
X53240000Y-48300000D03*
X61525000Y-64660000D03*
X7390000Y-90860000D03*
X36310000Y-46143518D03*
X2240000Y-71880000D03*
X46310000Y-64130000D03*
X56170000Y-39250000D03*
X27730000Y-59010000D03*
X9420567Y-33471284D03*
X29000000Y-34500000D03*
X59560000Y-48225000D03*
X46650000Y-54810000D03*
X37840000Y-46190000D03*
X6325000Y-90860000D03*
X2080000Y-42930000D03*
X2450000Y-40890000D03*
X53130000Y-39515000D03*
X36280000Y-43310000D03*
X46650000Y-55875000D03*
X12995000Y-91050000D03*
X46310000Y-62000000D03*
X53130000Y-40580000D03*
X53240000Y-47235000D03*
X66195000Y-40250000D03*
X60460000Y-64660000D03*
X66230000Y-64240000D03*
X11930000Y-91050000D03*
X65130000Y-45615000D03*
X26780000Y-40760000D03*
X66230000Y-62110000D03*
X62590000Y-64660000D03*
X36310000Y-49180000D03*
X17000000Y-34000000D03*
X14740000Y-59860000D03*
X14060000Y-91050000D03*
X60410000Y-42860000D03*
X66230000Y-63175000D03*
%TO.N,+5V_AUX*%
X63760000Y-49550000D03*
X62530000Y-59260000D03*
X71830000Y-49620000D03*
%TO.N,GND_AUX*%
X88600000Y-41120000D03*
X88600000Y-39605000D03*
X96710000Y-53270000D03*
X88600000Y-38090000D03*
X72970000Y-45165000D03*
X96710000Y-51755000D03*
X72970000Y-43650000D03*
X71455000Y-61030000D03*
X72970000Y-61030000D03*
X98410000Y-36950000D03*
X72480000Y-53195000D03*
X73230000Y-38730000D03*
X70200000Y-38730000D03*
X96710000Y-50240000D03*
X95380000Y-36950000D03*
X96780000Y-56710000D03*
X69940000Y-61030000D03*
X72970000Y-46680000D03*
X96895000Y-36950000D03*
X96780000Y-59740000D03*
X72480000Y-51680000D03*
X71715000Y-38730000D03*
X72480000Y-54710000D03*
X96780000Y-58225000D03*
%TO.N,Net-(U3-ILM)*%
X14070000Y-18000000D03*
X9955000Y-21045000D03*
%TO.N,Net-(U5-EN{slash}UVLO)*%
X49000000Y-26000000D03*
X37000000Y-21000000D03*
%TO.N,+5V_Disp*%
X56970000Y-14500000D03*
X48050000Y-14500000D03*
%TO.N,/Isolated I2C DAC/SCL_ISO*%
X57940000Y-79610000D03*
%TO.N,/Isolated I2C DAC/SDA_ISO*%
X58210000Y-81240000D03*
X50270000Y-89670000D03*
%TD*%
D24*
%TO.N,/23*%
X7697847Y-63742153D02*
X21813567Y-63742153D01*
X6500000Y-64940000D02*
X7697847Y-63742153D01*
X21813567Y-63742153D02*
X23004567Y-64933153D01*
D25*
%TO.N,/32*%
X50360000Y-60320000D02*
X42070000Y-60320000D01*
D24*
%TO.N,/29*%
X21813567Y-71362153D02*
X23004567Y-72553153D01*
X6500000Y-72560000D02*
X7697847Y-71362153D01*
X7697847Y-71362153D02*
X21813567Y-71362153D01*
%TO.N,/15*%
X7697847Y-53582153D02*
X21813567Y-53582153D01*
X21813567Y-53582153D02*
X23004567Y-54773153D01*
X6500000Y-54780000D02*
X7697847Y-53582153D01*
%TO.N,/31*%
X6500000Y-75100000D02*
X7697847Y-73902153D01*
X21813567Y-73902153D02*
X23004567Y-75093153D01*
X7697847Y-73902153D02*
X21813567Y-73902153D01*
%TO.N,/13*%
X7697847Y-51042153D02*
X21813567Y-51042153D01*
X21813567Y-51042153D02*
X23004567Y-52233153D01*
X6500000Y-52240000D02*
X7697847Y-51042153D01*
D26*
%TO.N,+5V_SYS*%
X47090000Y-80300000D02*
X34180000Y-67390000D01*
X34180000Y-42710000D02*
X31389999Y-39919999D01*
X34180000Y-67390000D02*
X34180000Y-42710000D01*
D24*
%TO.N,/21*%
X7697847Y-61202153D02*
X21813567Y-61202153D01*
X21813567Y-61202153D02*
X23004567Y-62393153D01*
X6500000Y-62400000D02*
X7697847Y-61202153D01*
%TO.N,/7*%
X6500000Y-44620000D02*
X7697847Y-43422153D01*
X7697847Y-43422153D02*
X21813567Y-43422153D01*
X21813567Y-43422153D02*
X23004567Y-44613153D01*
%TO.N,/5*%
X31310000Y-67060000D02*
X31310000Y-44890000D01*
X6500000Y-42080000D02*
X7697847Y-40882153D01*
X21813567Y-40882153D02*
X23004567Y-42073153D01*
X7697847Y-40882153D02*
X21813567Y-40882153D01*
X44550000Y-80300000D02*
X31310000Y-67060000D01*
X31310000Y-44890000D02*
X28630000Y-42210000D01*
%TO.N,/1*%
X6500000Y-37000000D02*
X7697847Y-35802153D01*
X21813567Y-35802153D02*
X23004567Y-36993153D01*
X7697847Y-35802153D02*
X21813567Y-35802153D01*
%TO.N,/37*%
X7697847Y-81522153D02*
X21813567Y-81522153D01*
X6500000Y-82720000D02*
X7697847Y-81522153D01*
X21813567Y-81522153D02*
X23004567Y-82713153D01*
%TO.N,/19*%
X7697847Y-58662153D02*
X21813567Y-58662153D01*
X6500000Y-59860000D02*
X7697847Y-58662153D01*
X21813567Y-58662153D02*
X23004567Y-59853153D01*
%TO.N,/3*%
X21813567Y-38342153D02*
X23004567Y-39533153D01*
X6500000Y-39540000D02*
X7697847Y-38342153D01*
X7697847Y-38342153D02*
X21813567Y-38342153D01*
X29300000Y-45840000D02*
X23000000Y-39540000D01*
X42010000Y-80300000D02*
X29300000Y-67590000D01*
X29300000Y-67590000D02*
X29300000Y-45840000D01*
%TO.N,/17*%
X21813567Y-56122153D02*
X23004567Y-57313153D01*
X7697847Y-56122153D02*
X21813567Y-56122153D01*
X6500000Y-57320000D02*
X7697847Y-56122153D01*
%TO.N,/35*%
X6500000Y-80180000D02*
X7697847Y-78982153D01*
X7697847Y-78982153D02*
X21813567Y-78982153D01*
X21813567Y-78982153D02*
X23004567Y-80173153D01*
%TO.N,/27*%
X6500000Y-70020000D02*
X7697847Y-68822153D01*
X21813567Y-68822153D02*
X23004567Y-70013153D01*
X7697847Y-68822153D02*
X21813567Y-68822153D01*
%TO.N,/33*%
X6500000Y-77640000D02*
X7697847Y-76442153D01*
X7697847Y-76442153D02*
X21813567Y-76442153D01*
X21813567Y-76442153D02*
X23004567Y-77633153D01*
%TO.N,/11*%
X6500000Y-49700000D02*
X7849000Y-48351000D01*
X21662414Y-48351000D02*
X23004567Y-49693153D01*
X7849000Y-48351000D02*
X21662414Y-48351000D01*
D26*
%TO.N,+5V_ISO*%
X47090000Y-93000000D02*
X50846439Y-93000000D01*
X50846439Y-93000000D02*
X61411439Y-82435000D01*
D24*
%TO.N,Net-(U3-EN{slash}UVLO)*%
X13450000Y-26000000D02*
X13430000Y-26020000D01*
X13430000Y-26020000D02*
X13430000Y-26040000D01*
X10000000Y-26000000D02*
X13450000Y-26000000D01*
X9625000Y-25625000D02*
X10000000Y-26000000D01*
D27*
%TO.N,+5V_Pi*%
X20000000Y-8250000D02*
X20000000Y-10000000D01*
D24*
X11500000Y-15500000D02*
X15000000Y-15500000D01*
X10000000Y-17000000D02*
X11500000Y-15500000D01*
%TO.N,+5V_PSU*%
X38000000Y-13500000D02*
X51500000Y-27000000D01*
X9725002Y-27225002D02*
X12238869Y-27225002D01*
X51500000Y-27000000D02*
X54010000Y-27000000D01*
X6000000Y-19100000D02*
X6000000Y-23500000D01*
X6000000Y-23500000D02*
X9725002Y-27225002D01*
%TO.N,GND_SYS*%
X6500000Y-47160000D02*
X7697847Y-45962153D01*
X21813567Y-66282153D02*
X23004567Y-67473153D01*
X6500000Y-67480000D02*
X7697847Y-66282153D01*
X7697847Y-66282153D02*
X21813567Y-66282153D01*
X21813567Y-45962153D02*
X23004567Y-47153153D01*
X7697847Y-45962153D02*
X21813567Y-45962153D01*
D27*
%TO.N,+5V_AUX*%
X62530000Y-50800000D02*
X62530000Y-59260000D01*
X63770000Y-49560000D02*
X63830000Y-49620000D01*
X63830000Y-49620000D02*
X71780000Y-49620000D01*
X63770000Y-49560000D02*
X62530000Y-50800000D01*
D24*
%TO.N,Net-(U3-ILM)*%
X14000000Y-18000000D02*
X13000000Y-18000000D01*
X13000000Y-18000000D02*
X10000000Y-21000000D01*
%TO.N,Net-(U5-EN{slash}UVLO)*%
X49000000Y-26000000D02*
X45500000Y-26000000D01*
X45500000Y-26000000D02*
X40500000Y-21000000D01*
X40500000Y-21000000D02*
X37000000Y-21000000D01*
D27*
%TO.N,+5V_Disp*%
X60000000Y-8250000D02*
X60000000Y-10000000D01*
D24*
X56970000Y-14500000D02*
X48050000Y-14500000D01*
D25*
%TO.N,/Isolated I2C DAC/SCL_ISO*%
X57940000Y-79610000D02*
X44550000Y-93000000D01*
%TO.N,/Isolated I2C DAC/SDA_ISO*%
X58210000Y-81690000D02*
X50220000Y-89680000D01*
X58210000Y-81240000D02*
X58210000Y-81690000D01*
%TD*%
%TA.AperFunction,Conductor*%
%TO.N,GND_AUX*%
G36*
X99442012Y-35519597D02*
G01*
X99488033Y-35572169D01*
X99499500Y-35624249D01*
X99499500Y-66347737D01*
X99479815Y-66414776D01*
X99427011Y-66460531D01*
X99374523Y-66471733D01*
X68831851Y-66230960D01*
X68764968Y-66210748D01*
X68719631Y-66157585D01*
X68708834Y-66108150D01*
X68616271Y-56433713D01*
X81009500Y-56433713D01*
X81009500Y-56646286D01*
X81042753Y-56856239D01*
X81108444Y-57058414D01*
X81204951Y-57247820D01*
X81329890Y-57419786D01*
X81480213Y-57570109D01*
X81652179Y-57695048D01*
X81652181Y-57695049D01*
X81652184Y-57695051D01*
X81841588Y-57791557D01*
X82043757Y-57857246D01*
X82253713Y-57890500D01*
X82253714Y-57890500D01*
X82766286Y-57890500D01*
X82766287Y-57890500D01*
X82976243Y-57857246D01*
X83178412Y-57791557D01*
X83367816Y-57695051D01*
X83389789Y-57679086D01*
X83539786Y-57570109D01*
X83539788Y-57570106D01*
X83539792Y-57570104D01*
X83690104Y-57419792D01*
X83690106Y-57419788D01*
X83690109Y-57419786D01*
X83815048Y-57247820D01*
X83815047Y-57247820D01*
X83815051Y-57247816D01*
X83911557Y-57058412D01*
X83977246Y-56856243D01*
X84010500Y-56646287D01*
X84010500Y-56433713D01*
X83977246Y-56223757D01*
X83911557Y-56021588D01*
X83815051Y-55832184D01*
X83815049Y-55832181D01*
X83815048Y-55832179D01*
X83690109Y-55660213D01*
X83539786Y-55509890D01*
X83367820Y-55384951D01*
X83178414Y-55288444D01*
X83178413Y-55288443D01*
X83178412Y-55288443D01*
X82976243Y-55222754D01*
X82976241Y-55222753D01*
X82976240Y-55222753D01*
X82814957Y-55197208D01*
X82766287Y-55189500D01*
X82253713Y-55189500D01*
X82205042Y-55197208D01*
X82043760Y-55222753D01*
X81841585Y-55288444D01*
X81652179Y-55384951D01*
X81480213Y-55509890D01*
X81329890Y-55660213D01*
X81204951Y-55832179D01*
X81108444Y-56021585D01*
X81042753Y-56223760D01*
X81009500Y-56433713D01*
X68616271Y-56433713D01*
X68616236Y-56430027D01*
X68560893Y-50645686D01*
X68579935Y-50578462D01*
X68632299Y-50532204D01*
X68684887Y-50520500D01*
X71868693Y-50520500D01*
X71868694Y-50520499D01*
X71926682Y-50508964D01*
X72042658Y-50485896D01*
X72042661Y-50485894D01*
X72042666Y-50485894D01*
X72206547Y-50418013D01*
X72354035Y-50319464D01*
X72479464Y-50194035D01*
X72578013Y-50046547D01*
X72645894Y-49882666D01*
X72680500Y-49708691D01*
X72680500Y-49531309D01*
X72680500Y-49531306D01*
X72680499Y-49531304D01*
X72645896Y-49357341D01*
X72645893Y-49357332D01*
X72578016Y-49193459D01*
X72578009Y-49193446D01*
X72479464Y-49045965D01*
X72479461Y-49045961D01*
X72354038Y-48920538D01*
X72354034Y-48920535D01*
X72206553Y-48821990D01*
X72206540Y-48821983D01*
X72042667Y-48754106D01*
X72042658Y-48754103D01*
X71868694Y-48719500D01*
X71868691Y-48719500D01*
X68665282Y-48719500D01*
X68598243Y-48699815D01*
X68552488Y-48647011D01*
X68541288Y-48596686D01*
X68500207Y-44303000D01*
X68486269Y-42846213D01*
X81009500Y-42846213D01*
X81009500Y-43058786D01*
X81042753Y-43268739D01*
X81108444Y-43470914D01*
X81204951Y-43660320D01*
X81329890Y-43832286D01*
X81480213Y-43982609D01*
X81652179Y-44107548D01*
X81652181Y-44107549D01*
X81652184Y-44107551D01*
X81841588Y-44204057D01*
X82043757Y-44269746D01*
X82253713Y-44303000D01*
X82253714Y-44303000D01*
X82766286Y-44303000D01*
X82766287Y-44303000D01*
X82976243Y-44269746D01*
X83178412Y-44204057D01*
X83367816Y-44107551D01*
X83389789Y-44091586D01*
X83539786Y-43982609D01*
X83539788Y-43982606D01*
X83539792Y-43982604D01*
X83690104Y-43832292D01*
X83690106Y-43832288D01*
X83690109Y-43832286D01*
X83815048Y-43660320D01*
X83815047Y-43660320D01*
X83815051Y-43660316D01*
X83911557Y-43470912D01*
X83977246Y-43268743D01*
X84010500Y-43058787D01*
X84010500Y-42846213D01*
X83977246Y-42636257D01*
X83911557Y-42434088D01*
X83815051Y-42244684D01*
X83815049Y-42244681D01*
X83815048Y-42244679D01*
X83690109Y-42072713D01*
X83539786Y-41922390D01*
X83367820Y-41797451D01*
X83178414Y-41700944D01*
X83178413Y-41700943D01*
X83178412Y-41700943D01*
X82976243Y-41635254D01*
X82976241Y-41635253D01*
X82976240Y-41635253D01*
X82814957Y-41609708D01*
X82766287Y-41602000D01*
X82253713Y-41602000D01*
X82205042Y-41609708D01*
X82043760Y-41635253D01*
X81841585Y-41700944D01*
X81652179Y-41797451D01*
X81480213Y-41922390D01*
X81329890Y-42072713D01*
X81204951Y-42244679D01*
X81108444Y-42434085D01*
X81042753Y-42636260D01*
X81009500Y-42846213D01*
X68486269Y-42846213D01*
X68421175Y-36042848D01*
X68440217Y-35975626D01*
X68492581Y-35929368D01*
X68542832Y-35917686D01*
X87529250Y-35560014D01*
X87530806Y-35559995D01*
X99374879Y-35500252D01*
X99442012Y-35519597D01*
G37*
%TD.AperFunction*%
%TD*%
%TA.AperFunction,Conductor*%
%TO.N,GND_ISO*%
G36*
X99376028Y-67804571D02*
G01*
X99442981Y-67824538D01*
X99488511Y-67877536D01*
X99499500Y-67928569D01*
X99499500Y-96996248D01*
X99499274Y-97003735D01*
X99481728Y-97293794D01*
X99479923Y-97308659D01*
X99428219Y-97590797D01*
X99424635Y-97605335D01*
X99339306Y-97879166D01*
X99333997Y-97893167D01*
X99216275Y-98154735D01*
X99209316Y-98167994D01*
X99060928Y-98413458D01*
X99052422Y-98425781D01*
X98875526Y-98651573D01*
X98865596Y-98662781D01*
X98662781Y-98865595D01*
X98651573Y-98875525D01*
X98425782Y-99052422D01*
X98413459Y-99060928D01*
X98167995Y-99209316D01*
X98154736Y-99216275D01*
X97893168Y-99333997D01*
X97879167Y-99339306D01*
X97605336Y-99424635D01*
X97590798Y-99428219D01*
X97308659Y-99479923D01*
X97293794Y-99481728D01*
X97003753Y-99499273D01*
X96996266Y-99499499D01*
X37852848Y-99499499D01*
X37785809Y-99479814D01*
X37740054Y-99427010D01*
X37728876Y-99372860D01*
X37792669Y-96378711D01*
X94649500Y-96378711D01*
X94649500Y-96621288D01*
X94681161Y-96861785D01*
X94743947Y-97096104D01*
X94836773Y-97320205D01*
X94836776Y-97320212D01*
X94958064Y-97530289D01*
X94958066Y-97530292D01*
X94958067Y-97530293D01*
X95105733Y-97722736D01*
X95105739Y-97722743D01*
X95277256Y-97894260D01*
X95277262Y-97894265D01*
X95469711Y-98041936D01*
X95679788Y-98163224D01*
X95903900Y-98256054D01*
X96138211Y-98318838D01*
X96318586Y-98342584D01*
X96378711Y-98350500D01*
X96378712Y-98350500D01*
X96621289Y-98350500D01*
X96669388Y-98344167D01*
X96861789Y-98318838D01*
X97096100Y-98256054D01*
X97320212Y-98163224D01*
X97530289Y-98041936D01*
X97722738Y-97894265D01*
X97894265Y-97722738D01*
X98041936Y-97530289D01*
X98163224Y-97320212D01*
X98256054Y-97096100D01*
X98318838Y-96861789D01*
X98350500Y-96621288D01*
X98350500Y-96378712D01*
X98318838Y-96138211D01*
X98256054Y-95903900D01*
X98163224Y-95679788D01*
X98041936Y-95469711D01*
X97894265Y-95277262D01*
X97894260Y-95277256D01*
X97722743Y-95105739D01*
X97722736Y-95105733D01*
X97530293Y-94958067D01*
X97530292Y-94958066D01*
X97530289Y-94958064D01*
X97320212Y-94836776D01*
X97320205Y-94836773D01*
X97096104Y-94743947D01*
X96861785Y-94681161D01*
X96621289Y-94649500D01*
X96621288Y-94649500D01*
X96378712Y-94649500D01*
X96378711Y-94649500D01*
X96138214Y-94681161D01*
X95903895Y-94743947D01*
X95679794Y-94836773D01*
X95679785Y-94836777D01*
X95469706Y-94958067D01*
X95277263Y-95105733D01*
X95277256Y-95105739D01*
X95105739Y-95277256D01*
X95105733Y-95277263D01*
X94958067Y-95469706D01*
X94836777Y-95679785D01*
X94836773Y-95679794D01*
X94743947Y-95903895D01*
X94681161Y-96138214D01*
X94649500Y-96378711D01*
X37792669Y-96378711D01*
X37866919Y-92893713D01*
X40659500Y-92893713D01*
X40659500Y-93106286D01*
X40692753Y-93316239D01*
X40758444Y-93518414D01*
X40854951Y-93707820D01*
X40979890Y-93879786D01*
X41130213Y-94030109D01*
X41302179Y-94155048D01*
X41302181Y-94155049D01*
X41302184Y-94155051D01*
X41491588Y-94251557D01*
X41693757Y-94317246D01*
X41903713Y-94350500D01*
X41903714Y-94350500D01*
X42116286Y-94350500D01*
X42116287Y-94350500D01*
X42326243Y-94317246D01*
X42528412Y-94251557D01*
X42717816Y-94155051D01*
X42804138Y-94092335D01*
X42889786Y-94030109D01*
X42889788Y-94030106D01*
X42889792Y-94030104D01*
X43040104Y-93879792D01*
X43040106Y-93879788D01*
X43040109Y-93879786D01*
X43163902Y-93709397D01*
X43165051Y-93707816D01*
X43169514Y-93699054D01*
X43217488Y-93648259D01*
X43285308Y-93631463D01*
X43351444Y-93653999D01*
X43390486Y-93699056D01*
X43394951Y-93707820D01*
X43519890Y-93879786D01*
X43670213Y-94030109D01*
X43842179Y-94155048D01*
X43842181Y-94155049D01*
X43842184Y-94155051D01*
X44031588Y-94251557D01*
X44233757Y-94317246D01*
X44443713Y-94350500D01*
X44443714Y-94350500D01*
X44656286Y-94350500D01*
X44656287Y-94350500D01*
X44866243Y-94317246D01*
X45068412Y-94251557D01*
X45257816Y-94155051D01*
X45429792Y-94030104D01*
X45543329Y-93916566D01*
X45604648Y-93883084D01*
X45674340Y-93888068D01*
X45730274Y-93929939D01*
X45747189Y-93960917D01*
X45796202Y-94092328D01*
X45796206Y-94092335D01*
X45882452Y-94207544D01*
X45882455Y-94207547D01*
X45997664Y-94293793D01*
X45997671Y-94293797D01*
X46132517Y-94344091D01*
X46132516Y-94344091D01*
X46139444Y-94344835D01*
X46192127Y-94350500D01*
X47987872Y-94350499D01*
X48047483Y-94344091D01*
X48182331Y-94293796D01*
X48297546Y-94207546D01*
X48383796Y-94092331D01*
X48434091Y-93957483D01*
X48439062Y-93911242D01*
X48465799Y-93846694D01*
X48523191Y-93806846D01*
X48562351Y-93800500D01*
X50925283Y-93800500D01*
X50925284Y-93800499D01*
X51079936Y-93769737D01*
X51225618Y-93709394D01*
X51356728Y-93621789D01*
X54981325Y-89997191D01*
X69134067Y-89997191D01*
X69134067Y-90249115D01*
X69164259Y-90439737D01*
X69173477Y-90497938D01*
X69251327Y-90737536D01*
X69365699Y-90962001D01*
X69513768Y-91165802D01*
X69513772Y-91165807D01*
X69691912Y-91343947D01*
X69691917Y-91343951D01*
X69869684Y-91473105D01*
X69895722Y-91492023D01*
X70038751Y-91564900D01*
X70120183Y-91606392D01*
X70120185Y-91606392D01*
X70120188Y-91606394D01*
X70359782Y-91684243D01*
X70608605Y-91723653D01*
X70608606Y-91723653D01*
X70860528Y-91723653D01*
X70860529Y-91723653D01*
X71109352Y-91684243D01*
X71348946Y-91606394D01*
X71573412Y-91492023D01*
X71777223Y-91343946D01*
X71955360Y-91165809D01*
X72103437Y-90961998D01*
X72217808Y-90737532D01*
X72295657Y-90497938D01*
X72335067Y-90249115D01*
X72335067Y-89997191D01*
X72295657Y-89748368D01*
X72217808Y-89508774D01*
X72217806Y-89508771D01*
X72217806Y-89508769D01*
X72129896Y-89336237D01*
X72103437Y-89284308D01*
X72084519Y-89258270D01*
X71955365Y-89080503D01*
X71955361Y-89080498D01*
X71777221Y-88902358D01*
X71777216Y-88902354D01*
X71573415Y-88754285D01*
X71573414Y-88754284D01*
X71573412Y-88754283D01*
X71503314Y-88718566D01*
X71348950Y-88639913D01*
X71109352Y-88562063D01*
X70860529Y-88522653D01*
X70608605Y-88522653D01*
X70484193Y-88542358D01*
X70359781Y-88562063D01*
X70120183Y-88639913D01*
X69895718Y-88754285D01*
X69691917Y-88902354D01*
X69691912Y-88902358D01*
X69513772Y-89080498D01*
X69513768Y-89080503D01*
X69365699Y-89284304D01*
X69251327Y-89508769D01*
X69173477Y-89748367D01*
X69173477Y-89748368D01*
X69134067Y-89997191D01*
X54981325Y-89997191D01*
X61163673Y-83814841D01*
X61224994Y-83781358D01*
X61270750Y-83780051D01*
X61305152Y-83785500D01*
X61305153Y-83785500D01*
X61517725Y-83785500D01*
X61517726Y-83785500D01*
X61727682Y-83752246D01*
X61929851Y-83686557D01*
X62119255Y-83590051D01*
X62141228Y-83574086D01*
X62291225Y-83465109D01*
X62291227Y-83465106D01*
X62291231Y-83465104D01*
X62441543Y-83314792D01*
X62441545Y-83314788D01*
X62441548Y-83314786D01*
X62566487Y-83142820D01*
X62566486Y-83142820D01*
X62566490Y-83142816D01*
X62662996Y-82953412D01*
X62728685Y-82751243D01*
X62761939Y-82541287D01*
X62761939Y-82328713D01*
X62728685Y-82118757D01*
X62662996Y-81916588D01*
X62566490Y-81727184D01*
X62566488Y-81727181D01*
X62566487Y-81727179D01*
X62441548Y-81555213D01*
X62291225Y-81404890D01*
X62119259Y-81279951D01*
X62118554Y-81279591D01*
X62110493Y-81275485D01*
X62059698Y-81227512D01*
X62042902Y-81159692D01*
X62065438Y-81093556D01*
X62110493Y-81054515D01*
X62119255Y-81050051D01*
X62177387Y-81007816D01*
X62291225Y-80925109D01*
X62291227Y-80925106D01*
X62291231Y-80925104D01*
X62441543Y-80774792D01*
X62441545Y-80774788D01*
X62441548Y-80774786D01*
X62550525Y-80624789D01*
X62566490Y-80602816D01*
X62662996Y-80413412D01*
X62728685Y-80211243D01*
X62761939Y-80001287D01*
X62761939Y-79788713D01*
X62728685Y-79578757D01*
X62662996Y-79376588D01*
X62566490Y-79187184D01*
X62566488Y-79187181D01*
X62566487Y-79187179D01*
X62441548Y-79015213D01*
X62291225Y-78864890D01*
X62119259Y-78739951D01*
X62118554Y-78739591D01*
X62110493Y-78735485D01*
X62059698Y-78687512D01*
X62042902Y-78619692D01*
X62065438Y-78553556D01*
X62110493Y-78514515D01*
X62119255Y-78510051D01*
X62195313Y-78454792D01*
X62291225Y-78385109D01*
X62291227Y-78385106D01*
X62291231Y-78385104D01*
X62441543Y-78234792D01*
X62441545Y-78234788D01*
X62441548Y-78234786D01*
X62566487Y-78062820D01*
X62566486Y-78062820D01*
X62566490Y-78062816D01*
X62662996Y-77873412D01*
X62728685Y-77671243D01*
X62760763Y-77468713D01*
X88374500Y-77468713D01*
X88374500Y-77681286D01*
X88407753Y-77891239D01*
X88473444Y-78093414D01*
X88569951Y-78282820D01*
X88694890Y-78454786D01*
X88845213Y-78605109D01*
X89017179Y-78730048D01*
X89017181Y-78730049D01*
X89017184Y-78730051D01*
X89206588Y-78826557D01*
X89408757Y-78892246D01*
X89618713Y-78925500D01*
X89618714Y-78925500D01*
X90131286Y-78925500D01*
X90131287Y-78925500D01*
X90341243Y-78892246D01*
X90543412Y-78826557D01*
X90732816Y-78730051D01*
X90779068Y-78696447D01*
X90904786Y-78605109D01*
X90904788Y-78605106D01*
X90904792Y-78605104D01*
X91055104Y-78454792D01*
X91055106Y-78454788D01*
X91055109Y-78454786D01*
X91180048Y-78282820D01*
X91180047Y-78282820D01*
X91180051Y-78282816D01*
X91276557Y-78093412D01*
X91342246Y-77891243D01*
X91375500Y-77681287D01*
X91375500Y-77468713D01*
X91342246Y-77258757D01*
X91276557Y-77056588D01*
X91180051Y-76867184D01*
X91180049Y-76867181D01*
X91180048Y-76867179D01*
X91055109Y-76695213D01*
X90904786Y-76544890D01*
X90732820Y-76419951D01*
X90543414Y-76323444D01*
X90543413Y-76323443D01*
X90543412Y-76323443D01*
X90341243Y-76257754D01*
X90341241Y-76257753D01*
X90341240Y-76257753D01*
X90179957Y-76232208D01*
X90131287Y-76224500D01*
X89618713Y-76224500D01*
X89570042Y-76232208D01*
X89408760Y-76257753D01*
X89206585Y-76323444D01*
X89017179Y-76419951D01*
X88845213Y-76544890D01*
X88694890Y-76695213D01*
X88569951Y-76867179D01*
X88473444Y-77056585D01*
X88407753Y-77258760D01*
X88374500Y-77468713D01*
X62760763Y-77468713D01*
X62761939Y-77461287D01*
X62761939Y-77248713D01*
X62728685Y-77038757D01*
X62662996Y-76836588D01*
X62566490Y-76647184D01*
X62566488Y-76647181D01*
X62566487Y-76647179D01*
X62441548Y-76475213D01*
X62291225Y-76324890D01*
X62119259Y-76199951D01*
X61929853Y-76103444D01*
X61929852Y-76103443D01*
X61929851Y-76103443D01*
X61727682Y-76037754D01*
X61727680Y-76037753D01*
X61727679Y-76037753D01*
X61566396Y-76012208D01*
X61517726Y-76004500D01*
X61305152Y-76004500D01*
X61256481Y-76012208D01*
X61095199Y-76037753D01*
X60893024Y-76103444D01*
X60703618Y-76199951D01*
X60531652Y-76324890D01*
X60381329Y-76475213D01*
X60256390Y-76647179D01*
X60159883Y-76836585D01*
X60094192Y-77038760D01*
X60060939Y-77248713D01*
X60060939Y-77461286D01*
X60094192Y-77671239D01*
X60159883Y-77873414D01*
X60256390Y-78062820D01*
X60381329Y-78234786D01*
X60531652Y-78385109D01*
X60703621Y-78510050D01*
X60712385Y-78514516D01*
X60763181Y-78562491D01*
X60779975Y-78630312D01*
X60757437Y-78696447D01*
X60712385Y-78735484D01*
X60703621Y-78739949D01*
X60531652Y-78864890D01*
X60381329Y-79015213D01*
X60256390Y-79187179D01*
X60159883Y-79376585D01*
X60094192Y-79578760D01*
X60060939Y-79788713D01*
X60060939Y-80001286D01*
X60091416Y-80193713D01*
X60094193Y-80211243D01*
X60148940Y-80379737D01*
X60159883Y-80413414D01*
X60256390Y-80602820D01*
X60381329Y-80774786D01*
X60531652Y-80925109D01*
X60703621Y-81050050D01*
X60712385Y-81054516D01*
X60763181Y-81102491D01*
X60779975Y-81170312D01*
X60757437Y-81236447D01*
X60712385Y-81275484D01*
X60703621Y-81279949D01*
X60531652Y-81404890D01*
X60381329Y-81555213D01*
X60256390Y-81727179D01*
X60159883Y-81916585D01*
X60159882Y-81916587D01*
X60159882Y-81916588D01*
X60094194Y-82118756D01*
X60094193Y-82118758D01*
X60060939Y-82328713D01*
X60060939Y-82541288D01*
X60066387Y-82575689D01*
X60057431Y-82644982D01*
X60031594Y-82682766D01*
X50551180Y-92163181D01*
X50489857Y-92196666D01*
X50463499Y-92199500D01*
X48562351Y-92199500D01*
X48495312Y-92179815D01*
X48449557Y-92127011D01*
X48439061Y-92088752D01*
X48434091Y-92042516D01*
X48383797Y-91907671D01*
X48383793Y-91907664D01*
X48297547Y-91792455D01*
X48297544Y-91792452D01*
X48182335Y-91706206D01*
X48182328Y-91706202D01*
X48047482Y-91655908D01*
X48047483Y-91655908D01*
X47987883Y-91649501D01*
X47987881Y-91649500D01*
X47987873Y-91649500D01*
X47987865Y-91649500D01*
X47190518Y-91649500D01*
X47123479Y-91629815D01*
X47077724Y-91577011D01*
X47067780Y-91507853D01*
X47096805Y-91444297D01*
X47102837Y-91437819D01*
X48161266Y-90379390D01*
X49339553Y-89201102D01*
X49400874Y-89167619D01*
X49470566Y-89172603D01*
X49526499Y-89214475D01*
X49550916Y-89279939D01*
X49541793Y-89336237D01*
X49500263Y-89436503D01*
X49500262Y-89436506D01*
X49500262Y-89436507D01*
X49500261Y-89436510D01*
X49469500Y-89591153D01*
X49469500Y-89748846D01*
X49500261Y-89903489D01*
X49500264Y-89903501D01*
X49560602Y-90049172D01*
X49560609Y-90049185D01*
X49648210Y-90180288D01*
X49648213Y-90180292D01*
X49759707Y-90291786D01*
X49759711Y-90291789D01*
X49890814Y-90379390D01*
X49890827Y-90379397D01*
X50036498Y-90439735D01*
X50036503Y-90439737D01*
X50191153Y-90470499D01*
X50191156Y-90470500D01*
X50191158Y-90470500D01*
X50348844Y-90470500D01*
X50348845Y-90470499D01*
X50503497Y-90439737D01*
X50649179Y-90379394D01*
X50780289Y-90291789D01*
X50891789Y-90180289D01*
X50979394Y-90049179D01*
X51039737Y-89903497D01*
X51045454Y-89874755D01*
X51077837Y-89812845D01*
X51079332Y-89811323D01*
X58754113Y-82136543D01*
X58765998Y-82118757D01*
X58830775Y-82021811D01*
X58883580Y-81894328D01*
X58884342Y-81890500D01*
X58899715Y-81813212D01*
X58910500Y-81758993D01*
X58910500Y-81660572D01*
X58910861Y-81655855D01*
X58914065Y-81647393D01*
X58919939Y-81617864D01*
X58948478Y-81548963D01*
X58979737Y-81473497D01*
X59010500Y-81318842D01*
X59010500Y-81161158D01*
X59010500Y-81161155D01*
X59010499Y-81161153D01*
X58988399Y-81050050D01*
X58979737Y-81006503D01*
X58979735Y-81006498D01*
X58919397Y-80860827D01*
X58919390Y-80860814D01*
X58831789Y-80729711D01*
X58831786Y-80729707D01*
X58720292Y-80618213D01*
X58720288Y-80618210D01*
X58589185Y-80530609D01*
X58589176Y-80530604D01*
X58441697Y-80469517D01*
X58387294Y-80425676D01*
X58365229Y-80359382D01*
X58382508Y-80291683D01*
X58420261Y-80251853D01*
X58450289Y-80231789D01*
X58561789Y-80120289D01*
X58649394Y-79989179D01*
X58709737Y-79843497D01*
X58740500Y-79688842D01*
X58740500Y-79531158D01*
X58740500Y-79531155D01*
X58740499Y-79531153D01*
X58709737Y-79376503D01*
X58695660Y-79342517D01*
X58649397Y-79230827D01*
X58649390Y-79230814D01*
X58561789Y-79099711D01*
X58561786Y-79099707D01*
X58450292Y-78988213D01*
X58450288Y-78988210D01*
X58319185Y-78900609D01*
X58319172Y-78900602D01*
X58173501Y-78840264D01*
X58173489Y-78840261D01*
X58018845Y-78809500D01*
X58018842Y-78809500D01*
X57861158Y-78809500D01*
X57861155Y-78809500D01*
X57706510Y-78840261D01*
X57706498Y-78840264D01*
X57560827Y-78900602D01*
X57560814Y-78900609D01*
X57429711Y-78988210D01*
X57429707Y-78988213D01*
X57318213Y-79099707D01*
X57318210Y-79099711D01*
X57230609Y-79230814D01*
X57230604Y-79230823D01*
X57170809Y-79375184D01*
X57143929Y-79415412D01*
X44919849Y-91639492D01*
X44858526Y-91672977D01*
X44812771Y-91674284D01*
X44656287Y-91649500D01*
X44443713Y-91649500D01*
X44395042Y-91657208D01*
X44233760Y-91682753D01*
X44031585Y-91748444D01*
X43842179Y-91844951D01*
X43670213Y-91969890D01*
X43519890Y-92120213D01*
X43394949Y-92292182D01*
X43390484Y-92300946D01*
X43342509Y-92351742D01*
X43274688Y-92368536D01*
X43208553Y-92345998D01*
X43169516Y-92300946D01*
X43165050Y-92292182D01*
X43040109Y-92120213D01*
X42889786Y-91969890D01*
X42717820Y-91844951D01*
X42528414Y-91748444D01*
X42528413Y-91748443D01*
X42528412Y-91748443D01*
X42326243Y-91682754D01*
X42326241Y-91682753D01*
X42326240Y-91682753D01*
X42164957Y-91657208D01*
X42116287Y-91649500D01*
X41903713Y-91649500D01*
X41855042Y-91657208D01*
X41693760Y-91682753D01*
X41491585Y-91748444D01*
X41302179Y-91844951D01*
X41130213Y-91969890D01*
X40979890Y-92120213D01*
X40854951Y-92292179D01*
X40758444Y-92481585D01*
X40692753Y-92683760D01*
X40659500Y-92893713D01*
X37866919Y-92893713D01*
X38037410Y-84891545D01*
X38058518Y-84824942D01*
X38112285Y-84780322D01*
X38161573Y-84770188D01*
X50960000Y-84790000D01*
X50740744Y-83142820D01*
X50168033Y-78840264D01*
X49771053Y-75857917D01*
X49769971Y-75842006D01*
X49761764Y-73568797D01*
X49760000Y-73080000D01*
X49733146Y-71162635D01*
X51979400Y-71162635D01*
X51979400Y-71367364D01*
X52011425Y-71569559D01*
X52074684Y-71764254D01*
X52074685Y-71764257D01*
X52107271Y-71828209D01*
X52167627Y-71946663D01*
X52287958Y-72112284D01*
X52432716Y-72257042D01*
X52598337Y-72377373D01*
X52687801Y-72422957D01*
X52780742Y-72470314D01*
X52780745Y-72470315D01*
X52878092Y-72501944D01*
X52975442Y-72533575D01*
X53069089Y-72548407D01*
X53177636Y-72565600D01*
X53177641Y-72565600D01*
X53382364Y-72565600D01*
X53480385Y-72550074D01*
X53584558Y-72533575D01*
X53779257Y-72470314D01*
X53961663Y-72377373D01*
X54127284Y-72257042D01*
X54272042Y-72112284D01*
X54392373Y-71946663D01*
X54485314Y-71764257D01*
X54548575Y-71569558D01*
X54579052Y-71377135D01*
X60060939Y-71377135D01*
X60060939Y-73172870D01*
X60060940Y-73172876D01*
X60067347Y-73232483D01*
X60117641Y-73367328D01*
X60117645Y-73367335D01*
X60203891Y-73482544D01*
X60203894Y-73482547D01*
X60319103Y-73568793D01*
X60319110Y-73568797D01*
X60453956Y-73619091D01*
X60453955Y-73619091D01*
X60460883Y-73619835D01*
X60513566Y-73625500D01*
X62309311Y-73625499D01*
X62368922Y-73619091D01*
X62503770Y-73568796D01*
X62618985Y-73482546D01*
X62705235Y-73367331D01*
X62755530Y-73232483D01*
X62761939Y-73172873D01*
X62761938Y-71377128D01*
X62755530Y-71317517D01*
X62705235Y-71182669D01*
X62705234Y-71182668D01*
X62705232Y-71182664D01*
X62618986Y-71067455D01*
X62618983Y-71067452D01*
X62503774Y-70981206D01*
X62503767Y-70981202D01*
X62368921Y-70930908D01*
X62368922Y-70930908D01*
X62309322Y-70924501D01*
X62309320Y-70924500D01*
X62309312Y-70924500D01*
X62309303Y-70924500D01*
X60513568Y-70924500D01*
X60513562Y-70924501D01*
X60453955Y-70930908D01*
X60319110Y-70981202D01*
X60319103Y-70981206D01*
X60203894Y-71067452D01*
X60203891Y-71067455D01*
X60117645Y-71182664D01*
X60117641Y-71182671D01*
X60067347Y-71317517D01*
X60060940Y-71377116D01*
X60060940Y-71377123D01*
X60060939Y-71377135D01*
X54579052Y-71377135D01*
X54579053Y-71377128D01*
X54580600Y-71367364D01*
X54580600Y-71162635D01*
X54561969Y-71045008D01*
X54548575Y-70960442D01*
X54485314Y-70765743D01*
X54485314Y-70765742D01*
X54392372Y-70583336D01*
X54272042Y-70417716D01*
X54127284Y-70272958D01*
X53961663Y-70152627D01*
X53779257Y-70059685D01*
X53779254Y-70059684D01*
X53584559Y-69996425D01*
X53382364Y-69964400D01*
X53382359Y-69964400D01*
X53177641Y-69964400D01*
X53177636Y-69964400D01*
X52975440Y-69996425D01*
X52780745Y-70059684D01*
X52780742Y-70059685D01*
X52598336Y-70152627D01*
X52503843Y-70221280D01*
X52432716Y-70272958D01*
X52432714Y-70272960D01*
X52432713Y-70272960D01*
X52287960Y-70417713D01*
X52287960Y-70417714D01*
X52287958Y-70417716D01*
X52236280Y-70488843D01*
X52167627Y-70583336D01*
X52074685Y-70765742D01*
X52074684Y-70765745D01*
X52011425Y-70960440D01*
X51979400Y-71162635D01*
X49733146Y-71162635D01*
X49710565Y-69550351D01*
X49729309Y-69483043D01*
X49733285Y-69477055D01*
X51022751Y-67652699D01*
X51077519Y-67609317D01*
X51124533Y-67600273D01*
X99376028Y-67804571D01*
G37*
%TD.AperFunction*%
%TD*%
%TA.AperFunction,Conductor*%
%TO.N,+5V_PSU*%
G36*
X90638223Y-16571037D02*
G01*
X90685120Y-16622830D01*
X90697453Y-16679234D01*
X90502405Y-26577870D01*
X90481403Y-26644509D01*
X90427708Y-26689214D01*
X90377847Y-26699426D01*
X85314359Y-26675654D01*
X85175000Y-26675000D01*
X85174999Y-26675000D01*
X85174997Y-26675000D01*
X83021249Y-27491940D01*
X82977272Y-27500000D01*
X71500000Y-27500000D01*
X69345679Y-28500000D01*
X62798063Y-31539294D01*
X62749583Y-31550764D01*
X36215231Y-32348790D01*
X36147630Y-32331130D01*
X36141735Y-32327355D01*
X34754985Y-31383363D01*
X32026238Y-29525842D01*
X32023806Y-29524144D01*
X28508273Y-27005926D01*
X28492801Y-26992801D01*
X26000000Y-24500000D01*
X23152120Y-24241101D01*
X23087138Y-24215428D01*
X23048785Y-24165062D01*
X22999397Y-24045827D01*
X22999390Y-24045814D01*
X22911789Y-23914711D01*
X22911786Y-23914707D01*
X22800292Y-23803213D01*
X22800288Y-23803210D01*
X22669185Y-23715609D01*
X22669172Y-23715602D01*
X22523501Y-23655264D01*
X22523489Y-23655261D01*
X22368845Y-23624500D01*
X22368842Y-23624500D01*
X22211158Y-23624500D01*
X22211155Y-23624500D01*
X22056510Y-23655261D01*
X22056498Y-23655264D01*
X21910827Y-23715602D01*
X21910814Y-23715609D01*
X21779711Y-23803210D01*
X21779707Y-23803213D01*
X21668213Y-23914707D01*
X21668208Y-23914713D01*
X21653101Y-23937323D01*
X21599489Y-23982127D01*
X21530164Y-23990834D01*
X21467136Y-23960679D01*
X21446899Y-23937323D01*
X21431791Y-23914713D01*
X21431786Y-23914707D01*
X21320292Y-23803213D01*
X21320288Y-23803210D01*
X21189185Y-23715609D01*
X21189172Y-23715602D01*
X21043501Y-23655264D01*
X21043489Y-23655261D01*
X20888845Y-23624500D01*
X20888842Y-23624500D01*
X20731158Y-23624500D01*
X20731155Y-23624500D01*
X20576510Y-23655261D01*
X20576498Y-23655264D01*
X20430827Y-23715602D01*
X20430814Y-23715609D01*
X20299711Y-23803210D01*
X20299707Y-23803213D01*
X20188213Y-23914707D01*
X20188210Y-23914711D01*
X20100609Y-24045814D01*
X20100603Y-24045825D01*
X20099538Y-24048398D01*
X20098620Y-24049536D01*
X20097736Y-24051191D01*
X20097422Y-24051023D01*
X20055693Y-24102798D01*
X20015055Y-24121235D01*
X18654075Y-24461481D01*
X18584262Y-24458643D01*
X18527067Y-24418513D01*
X18500647Y-24353831D01*
X18500000Y-24341183D01*
X18500000Y-21246988D01*
X18519685Y-21179949D01*
X18572489Y-21134194D01*
X18641647Y-21124250D01*
X18692891Y-21143886D01*
X18825663Y-21232602D01*
X18825676Y-21232609D01*
X18900523Y-21263611D01*
X18971352Y-21292949D01*
X19126002Y-21323711D01*
X19126005Y-21323712D01*
X19126007Y-21323712D01*
X19283693Y-21323712D01*
X19283694Y-21323711D01*
X19438346Y-21292949D01*
X19584028Y-21232606D01*
X19584033Y-21232602D01*
X19584036Y-21232601D01*
X19650938Y-21187898D01*
X19703130Y-21153024D01*
X19769805Y-21132146D01*
X19837186Y-21150630D01*
X19840912Y-21153025D01*
X19916095Y-21203262D01*
X19916110Y-21203270D01*
X20039437Y-21254353D01*
X20061786Y-21263610D01*
X20209272Y-21292947D01*
X20216436Y-21294372D01*
X20216439Y-21294373D01*
X20216441Y-21294373D01*
X20374127Y-21294373D01*
X20374128Y-21294372D01*
X20528780Y-21263610D01*
X20618103Y-21226611D01*
X20677885Y-21217788D01*
X23500000Y-21500000D01*
X29951858Y-21500000D01*
X30018897Y-21519685D01*
X30035529Y-21532484D01*
X35249998Y-26299999D01*
X35249999Y-26299999D01*
X35250000Y-26300000D01*
X52500000Y-28500000D01*
X59075000Y-27975000D01*
X64000000Y-24500000D01*
X63999999Y-24500000D01*
X60500000Y-24500000D01*
X59526181Y-24986909D01*
X59470728Y-25000000D01*
X59124000Y-25000000D01*
X59056961Y-24980315D01*
X59011206Y-24927511D01*
X59000000Y-24876000D01*
X59000000Y-24030539D01*
X59014182Y-23972954D01*
X59044725Y-23914707D01*
X59601767Y-22852393D01*
X59626208Y-21275839D01*
X59646929Y-21209117D01*
X59700436Y-21164186D01*
X59753196Y-21153801D01*
X60690752Y-21176529D01*
X60739691Y-21187898D01*
X60867774Y-21246988D01*
X62174858Y-21849999D01*
X62499998Y-21999999D01*
X62500000Y-22000000D01*
X82950000Y-21850000D01*
X84944878Y-16751976D01*
X84987637Y-16696723D01*
X85053484Y-16673355D01*
X85057611Y-16673196D01*
X90570772Y-16552821D01*
X90638223Y-16571037D01*
G37*
%TD.AperFunction*%
%TD*%
%TA.AperFunction,Conductor*%
%TO.N,GND_SYS*%
G36*
X21542910Y-77051297D02*
G01*
X21572897Y-77057821D01*
X21577912Y-77061575D01*
X21580509Y-77062338D01*
X21601150Y-77078971D01*
X21670808Y-77148629D01*
X21704293Y-77209952D01*
X21701059Y-77274626D01*
X21687320Y-77316910D01*
X21654067Y-77526866D01*
X21654067Y-77739440D01*
X21687321Y-77949396D01*
X21689544Y-77956239D01*
X21753011Y-78151567D01*
X21778381Y-78201358D01*
X21791277Y-78270027D01*
X21765001Y-78334767D01*
X21707895Y-78375025D01*
X21667896Y-78381653D01*
X7840160Y-78381653D01*
X7773121Y-78361968D01*
X7727366Y-78309164D01*
X7717422Y-78240006D01*
X7729675Y-78201358D01*
X7730615Y-78199511D01*
X7751557Y-78158412D01*
X7817246Y-77956243D01*
X7850500Y-77746287D01*
X7850500Y-77533713D01*
X7817246Y-77323757D01*
X7803507Y-77281476D01*
X7801511Y-77211637D01*
X7833758Y-77155476D01*
X7910265Y-77078971D01*
X7971588Y-77045486D01*
X7997945Y-77042653D01*
X21513470Y-77042653D01*
X21542910Y-77051297D01*
G37*
%TD.AperFunction*%
%TA.AperFunction,Conductor*%
G36*
X21542910Y-71971297D02*
G01*
X21572897Y-71977821D01*
X21577912Y-71981575D01*
X21580509Y-71982338D01*
X21601150Y-71998971D01*
X21670808Y-72068629D01*
X21704293Y-72129952D01*
X21701059Y-72194626D01*
X21687320Y-72236910D01*
X21657965Y-72422255D01*
X21654067Y-72446866D01*
X21654067Y-72659440D01*
X21687321Y-72869396D01*
X21689544Y-72876239D01*
X21753011Y-73071567D01*
X21778381Y-73121358D01*
X21791277Y-73190027D01*
X21765001Y-73254767D01*
X21707895Y-73295025D01*
X21667896Y-73301653D01*
X7840160Y-73301653D01*
X7773121Y-73281968D01*
X7727366Y-73229164D01*
X7717422Y-73160006D01*
X7729675Y-73121358D01*
X7730615Y-73119511D01*
X7751557Y-73078412D01*
X7817246Y-72876243D01*
X7850500Y-72666287D01*
X7850500Y-72453713D01*
X7817246Y-72243757D01*
X7803507Y-72201476D01*
X7801511Y-72131637D01*
X7833758Y-72075476D01*
X7910265Y-71998971D01*
X7971588Y-71965486D01*
X7997945Y-71962653D01*
X21513470Y-71962653D01*
X21542910Y-71971297D01*
G37*
%TD.AperFunction*%
%TA.AperFunction,Conductor*%
G36*
X19132801Y-64362338D02*
G01*
X19178556Y-64415142D01*
X19188500Y-64484300D01*
X19183695Y-64504961D01*
X19147321Y-64616910D01*
X19147320Y-64616913D01*
X19147320Y-64616915D01*
X19146236Y-64623759D01*
X19114067Y-64826866D01*
X19114067Y-65039440D01*
X19147321Y-65249396D01*
X19149544Y-65256239D01*
X19213011Y-65451567D01*
X19309518Y-65640973D01*
X19434457Y-65812939D01*
X19584780Y-65963262D01*
X19756749Y-66088203D01*
X19765513Y-66092669D01*
X19816309Y-66140644D01*
X19833103Y-66208465D01*
X19810565Y-66274600D01*
X19765513Y-66313637D01*
X19756749Y-66318102D01*
X19584780Y-66443043D01*
X19434457Y-66593366D01*
X19309518Y-66765332D01*
X19213011Y-66954738D01*
X19147320Y-67156913D01*
X19146236Y-67163760D01*
X19114067Y-67366866D01*
X19114067Y-67579440D01*
X19121044Y-67623489D01*
X19144117Y-67769172D01*
X19147321Y-67789396D01*
X19183353Y-67900292D01*
X19213011Y-67991567D01*
X19238381Y-68041358D01*
X19251277Y-68110027D01*
X19225001Y-68174767D01*
X19167895Y-68215025D01*
X19127896Y-68221653D01*
X10380160Y-68221653D01*
X10313121Y-68201968D01*
X10267366Y-68149164D01*
X10257422Y-68080006D01*
X10269675Y-68041358D01*
X10270615Y-68039511D01*
X10291557Y-67998412D01*
X10357246Y-67796243D01*
X10390500Y-67586287D01*
X10390500Y-67373713D01*
X10357246Y-67163757D01*
X10291557Y-66961588D01*
X10195051Y-66772184D01*
X10195049Y-66772181D01*
X10195048Y-66772179D01*
X10070109Y-66600213D01*
X9919786Y-66449890D01*
X9747820Y-66324951D01*
X9747115Y-66324591D01*
X9739054Y-66320485D01*
X9688259Y-66272512D01*
X9671463Y-66204692D01*
X9693999Y-66138556D01*
X9739054Y-66099515D01*
X9747816Y-66095051D01*
X9779492Y-66072037D01*
X9919786Y-65970109D01*
X9919788Y-65970106D01*
X9919792Y-65970104D01*
X10070104Y-65819792D01*
X10070106Y-65819788D01*
X10070109Y-65819786D01*
X10195048Y-65647820D01*
X10195047Y-65647820D01*
X10195051Y-65647816D01*
X10291557Y-65458412D01*
X10357246Y-65256243D01*
X10390500Y-65046287D01*
X10390500Y-64833713D01*
X10357246Y-64623757D01*
X10318650Y-64504971D01*
X10316655Y-64435130D01*
X10352735Y-64375297D01*
X10415436Y-64344469D01*
X10436581Y-64342653D01*
X19065762Y-64342653D01*
X19132801Y-64362338D01*
G37*
%TD.AperFunction*%
%TA.AperFunction,Conductor*%
G36*
X21542910Y-59271297D02*
G01*
X21572897Y-59277821D01*
X21577912Y-59281575D01*
X21580509Y-59282338D01*
X21601150Y-59298971D01*
X21670808Y-59368629D01*
X21704293Y-59429952D01*
X21701059Y-59494626D01*
X21687320Y-59536910D01*
X21661773Y-59698210D01*
X21654067Y-59746866D01*
X21654067Y-59959440D01*
X21664101Y-60022797D01*
X21685911Y-60160499D01*
X21687321Y-60169396D01*
X21710636Y-60241153D01*
X21753011Y-60371567D01*
X21778381Y-60421358D01*
X21791277Y-60490027D01*
X21765001Y-60554767D01*
X21707895Y-60595025D01*
X21667896Y-60601653D01*
X7840160Y-60601653D01*
X7773121Y-60581968D01*
X7727366Y-60529164D01*
X7717422Y-60460006D01*
X7729675Y-60421358D01*
X7741147Y-60398842D01*
X7751557Y-60378412D01*
X7817246Y-60176243D01*
X7850500Y-59966287D01*
X7850500Y-59753713D01*
X7817246Y-59543757D01*
X7803507Y-59501476D01*
X7801511Y-59431637D01*
X7833758Y-59375476D01*
X7910265Y-59298971D01*
X7971588Y-59265486D01*
X7997945Y-59262653D01*
X21513470Y-59262653D01*
X21542910Y-59271297D01*
G37*
%TD.AperFunction*%
%TA.AperFunction,Conductor*%
G36*
X21542910Y-51651297D02*
G01*
X21572897Y-51657821D01*
X21577912Y-51661575D01*
X21580509Y-51662338D01*
X21601150Y-51678971D01*
X21670808Y-51748629D01*
X21704293Y-51809952D01*
X21701059Y-51874626D01*
X21687320Y-51916910D01*
X21654067Y-52126866D01*
X21654067Y-52339440D01*
X21687321Y-52549396D01*
X21689544Y-52556239D01*
X21753011Y-52751567D01*
X21778381Y-52801358D01*
X21791277Y-52870027D01*
X21765001Y-52934767D01*
X21707895Y-52975025D01*
X21667896Y-52981653D01*
X7840160Y-52981653D01*
X7773121Y-52961968D01*
X7727366Y-52909164D01*
X7717422Y-52840006D01*
X7729675Y-52801358D01*
X7730615Y-52799511D01*
X7751557Y-52758412D01*
X7817246Y-52556243D01*
X7850500Y-52346287D01*
X7850500Y-52133713D01*
X7817246Y-51923757D01*
X7803507Y-51881476D01*
X7801511Y-51811637D01*
X7833758Y-51755476D01*
X7910265Y-51678971D01*
X7971588Y-51645486D01*
X7997945Y-51642653D01*
X21513470Y-51642653D01*
X21542910Y-51651297D01*
G37*
%TD.AperFunction*%
%TA.AperFunction,Conductor*%
G36*
X19132801Y-44042338D02*
G01*
X19178556Y-44095142D01*
X19188500Y-44164300D01*
X19183695Y-44184961D01*
X19147321Y-44296910D01*
X19147320Y-44296913D01*
X19147320Y-44296915D01*
X19120895Y-44463757D01*
X19114067Y-44506866D01*
X19114067Y-44719440D01*
X19147321Y-44929396D01*
X19149544Y-44936239D01*
X19213011Y-45131567D01*
X19309518Y-45320973D01*
X19434457Y-45492939D01*
X19584780Y-45643262D01*
X19756749Y-45768203D01*
X19765513Y-45772669D01*
X19816309Y-45820644D01*
X19833103Y-45888465D01*
X19810565Y-45954600D01*
X19765513Y-45993637D01*
X19756749Y-45998102D01*
X19584780Y-46123043D01*
X19434457Y-46273366D01*
X19309518Y-46445332D01*
X19213011Y-46634738D01*
X19147320Y-46836913D01*
X19146236Y-46843760D01*
X19114067Y-47046866D01*
X19114067Y-47259440D01*
X19121775Y-47308110D01*
X19147320Y-47469393D01*
X19185917Y-47588182D01*
X19187912Y-47658023D01*
X19151832Y-47717856D01*
X19089131Y-47748684D01*
X19067986Y-47750500D01*
X10438805Y-47750500D01*
X10371766Y-47730815D01*
X10326011Y-47678011D01*
X10316067Y-47608853D01*
X10320871Y-47588191D01*
X10357246Y-47476243D01*
X10390500Y-47266287D01*
X10390500Y-47053713D01*
X10357246Y-46843757D01*
X10291557Y-46641588D01*
X10195051Y-46452184D01*
X10195049Y-46452181D01*
X10195048Y-46452179D01*
X10070109Y-46280213D01*
X9919786Y-46129890D01*
X9747820Y-46004951D01*
X9747115Y-46004591D01*
X9739054Y-46000485D01*
X9688259Y-45952512D01*
X9671463Y-45884692D01*
X9693999Y-45818556D01*
X9739054Y-45779515D01*
X9747816Y-45775051D01*
X9906458Y-45659792D01*
X9919786Y-45650109D01*
X9919788Y-45650106D01*
X9919792Y-45650104D01*
X10070104Y-45499792D01*
X10070106Y-45499788D01*
X10070109Y-45499786D01*
X10195048Y-45327820D01*
X10195047Y-45327820D01*
X10195051Y-45327816D01*
X10291557Y-45138412D01*
X10357246Y-44936243D01*
X10390500Y-44726287D01*
X10390500Y-44513713D01*
X10357246Y-44303757D01*
X10318650Y-44184971D01*
X10316655Y-44115130D01*
X10352735Y-44055297D01*
X10415436Y-44024469D01*
X10436581Y-44022653D01*
X19065762Y-44022653D01*
X19132801Y-44042338D01*
G37*
%TD.AperFunction*%
%TA.AperFunction,Conductor*%
G36*
X21542910Y-41491297D02*
G01*
X21572897Y-41497821D01*
X21577912Y-41501575D01*
X21580509Y-41502338D01*
X21601150Y-41518971D01*
X21670808Y-41588629D01*
X21704293Y-41649952D01*
X21701059Y-41714626D01*
X21687320Y-41756910D01*
X21661343Y-41920926D01*
X21654067Y-41966866D01*
X21654067Y-42179440D01*
X21657278Y-42199711D01*
X21678043Y-42330821D01*
X21687321Y-42389396D01*
X21715626Y-42476510D01*
X21753011Y-42591567D01*
X21778381Y-42641358D01*
X21791277Y-42710027D01*
X21765001Y-42774767D01*
X21707895Y-42815025D01*
X21667896Y-42821653D01*
X7840160Y-42821653D01*
X7773121Y-42801968D01*
X7727366Y-42749164D01*
X7717422Y-42680006D01*
X7729675Y-42641358D01*
X7734872Y-42631158D01*
X7751557Y-42598412D01*
X7817246Y-42396243D01*
X7850500Y-42186287D01*
X7850500Y-41973713D01*
X7817246Y-41763757D01*
X7803507Y-41721476D01*
X7801511Y-41651637D01*
X7833758Y-41595476D01*
X7910265Y-41518971D01*
X7971588Y-41485486D01*
X7997945Y-41482653D01*
X21513470Y-41482653D01*
X21542910Y-41491297D01*
G37*
%TD.AperFunction*%
%TA.AperFunction,Conductor*%
G36*
X25525491Y-32011587D02*
G01*
X26732946Y-32560430D01*
X30992934Y-34496788D01*
X31006603Y-34504063D01*
X34250000Y-36500000D01*
X34250000Y-36499999D01*
X34250001Y-36500000D01*
X34913963Y-36490128D01*
X67753571Y-36001879D01*
X67820893Y-36020564D01*
X67867428Y-36072682D01*
X67879411Y-36126442D01*
X67821374Y-48596077D01*
X67801377Y-48663024D01*
X67748361Y-48708533D01*
X67697375Y-48719500D01*
X64118640Y-48719500D01*
X64071188Y-48710061D01*
X64032670Y-48694106D01*
X64032658Y-48694103D01*
X63858696Y-48659500D01*
X63858692Y-48659500D01*
X63681308Y-48659500D01*
X63681303Y-48659500D01*
X63507341Y-48694103D01*
X63507333Y-48694105D01*
X63343455Y-48761985D01*
X63195961Y-48860537D01*
X63195960Y-48860538D01*
X61830535Y-50225964D01*
X61830533Y-50225966D01*
X61815040Y-50249154D01*
X61815031Y-50249168D01*
X61812652Y-50252730D01*
X61731987Y-50373453D01*
X61703738Y-50441653D01*
X61700721Y-50448935D01*
X61700720Y-50448938D01*
X61664106Y-50537331D01*
X61664103Y-50537341D01*
X61640659Y-50655205D01*
X61629500Y-50711304D01*
X61629500Y-59348695D01*
X61664103Y-59522658D01*
X61664106Y-59522667D01*
X61731983Y-59686540D01*
X61731990Y-59686553D01*
X61830535Y-59834034D01*
X61830538Y-59834038D01*
X61955961Y-59959461D01*
X61955965Y-59959464D01*
X62103446Y-60058009D01*
X62103459Y-60058016D01*
X62226363Y-60108923D01*
X62267334Y-60125894D01*
X62267336Y-60125894D01*
X62267341Y-60125896D01*
X62441304Y-60160499D01*
X62441307Y-60160500D01*
X62441309Y-60160500D01*
X62618693Y-60160500D01*
X62618694Y-60160499D01*
X62676682Y-60148964D01*
X62792658Y-60125896D01*
X62792661Y-60125894D01*
X62792666Y-60125894D01*
X62956547Y-60058013D01*
X63104035Y-59959464D01*
X63229464Y-59834035D01*
X63328013Y-59686547D01*
X63395894Y-59522666D01*
X63430500Y-59348691D01*
X63430500Y-51224362D01*
X63450185Y-51157323D01*
X63466819Y-51136681D01*
X64046681Y-50556819D01*
X64108004Y-50523334D01*
X64134362Y-50520500D01*
X67687839Y-50520500D01*
X67754878Y-50540185D01*
X67800633Y-50592989D01*
X67811838Y-50645077D01*
X67740560Y-65959581D01*
X67720563Y-66026528D01*
X67667547Y-66072037D01*
X67619615Y-66082966D01*
X49070001Y-66539999D01*
X49070000Y-66540000D01*
X49119621Y-70080421D01*
X49100878Y-70147730D01*
X49048720Y-70194220D01*
X48979708Y-70205132D01*
X48922747Y-70182476D01*
X48881667Y-70152629D01*
X48699257Y-70059685D01*
X48699254Y-70059684D01*
X48504559Y-69996425D01*
X48302364Y-69964400D01*
X48302359Y-69964400D01*
X48097641Y-69964400D01*
X48097636Y-69964400D01*
X47895440Y-69996425D01*
X47700745Y-70059684D01*
X47700742Y-70059685D01*
X47518336Y-70152627D01*
X47477253Y-70182476D01*
X47352716Y-70272958D01*
X47352714Y-70272960D01*
X47352713Y-70272960D01*
X47207960Y-70417713D01*
X47207960Y-70417714D01*
X47207958Y-70417716D01*
X47166482Y-70474803D01*
X47087627Y-70583336D01*
X46994685Y-70765742D01*
X46994684Y-70765745D01*
X46931425Y-70960440D01*
X46899400Y-71162635D01*
X46899400Y-71367364D01*
X46931425Y-71569559D01*
X46994684Y-71764254D01*
X46994685Y-71764257D01*
X47039487Y-71852184D01*
X47087627Y-71946663D01*
X47207958Y-72112284D01*
X47352716Y-72257042D01*
X47518337Y-72377373D01*
X47606422Y-72422255D01*
X47700742Y-72470314D01*
X47700745Y-72470315D01*
X47771850Y-72493418D01*
X47895442Y-72533575D01*
X47989089Y-72548407D01*
X48097636Y-72565600D01*
X48097641Y-72565600D01*
X48302364Y-72565600D01*
X48400385Y-72550074D01*
X48504558Y-72533575D01*
X48699257Y-72470314D01*
X48881663Y-72377373D01*
X48955571Y-72323675D01*
X49021376Y-72300195D01*
X49089430Y-72316020D01*
X49138125Y-72366125D01*
X49152444Y-72422255D01*
X49298222Y-82823184D01*
X49279479Y-82890493D01*
X49227321Y-82936983D01*
X49173176Y-82948917D01*
X34650000Y-82824999D01*
X34649999Y-82825000D01*
X34417377Y-95469705D01*
X34351467Y-99052421D01*
X34345481Y-99377780D01*
X34324567Y-99444446D01*
X34270930Y-99489222D01*
X34221502Y-99499499D01*
X3003752Y-99499499D01*
X2996265Y-99499273D01*
X2706205Y-99481727D01*
X2691340Y-99479922D01*
X2409202Y-99428218D01*
X2394664Y-99424634D01*
X2120833Y-99339305D01*
X2106832Y-99333996D01*
X1845264Y-99216274D01*
X1832005Y-99209315D01*
X1586541Y-99060927D01*
X1574218Y-99052421D01*
X1348426Y-98875525D01*
X1337218Y-98865595D01*
X1134404Y-98662780D01*
X1124474Y-98651572D01*
X1004518Y-98498460D01*
X947573Y-98425775D01*
X939071Y-98413457D01*
X790680Y-98167986D01*
X783722Y-98154728D01*
X666009Y-97893182D01*
X660699Y-97879181D01*
X575363Y-97605326D01*
X571781Y-97590796D01*
X520076Y-97308656D01*
X518272Y-97293793D01*
X506314Y-97096099D01*
X500725Y-97003711D01*
X500500Y-96996237D01*
X500500Y-96378710D01*
X1649500Y-96378710D01*
X1649500Y-96621287D01*
X1681161Y-96861784D01*
X1743947Y-97096103D01*
X1836773Y-97320204D01*
X1836776Y-97320211D01*
X1958064Y-97530288D01*
X1958066Y-97530291D01*
X1958067Y-97530292D01*
X2105733Y-97722735D01*
X2105739Y-97722742D01*
X2277256Y-97894259D01*
X2277262Y-97894264D01*
X2469711Y-98041935D01*
X2679788Y-98163223D01*
X2903900Y-98256053D01*
X3138211Y-98318837D01*
X3318586Y-98342583D01*
X3378711Y-98350499D01*
X3378712Y-98350499D01*
X3621289Y-98350499D01*
X3669388Y-98344166D01*
X3861789Y-98318837D01*
X4096100Y-98256053D01*
X4320212Y-98163223D01*
X4530289Y-98041935D01*
X4722738Y-97894264D01*
X4894265Y-97722737D01*
X5041936Y-97530288D01*
X5163224Y-97320211D01*
X5256054Y-97096099D01*
X5318838Y-96861788D01*
X5350500Y-96621287D01*
X5350500Y-96378711D01*
X5318838Y-96138210D01*
X5256054Y-95903899D01*
X5163224Y-95679787D01*
X5041936Y-95469710D01*
X4894265Y-95277261D01*
X4894260Y-95277255D01*
X4722743Y-95105738D01*
X4722736Y-95105732D01*
X4530293Y-94958066D01*
X4530292Y-94958065D01*
X4530289Y-94958063D01*
X4320212Y-94836775D01*
X4320205Y-94836772D01*
X4096104Y-94743946D01*
X3861785Y-94681160D01*
X3621289Y-94649499D01*
X3621288Y-94649499D01*
X3378712Y-94649499D01*
X3378711Y-94649499D01*
X3138214Y-94681160D01*
X2903895Y-94743946D01*
X2679794Y-94836772D01*
X2679785Y-94836776D01*
X2469706Y-94958066D01*
X2277263Y-95105732D01*
X2277256Y-95105738D01*
X2105739Y-95277255D01*
X2105733Y-95277262D01*
X1958067Y-95469705D01*
X1836777Y-95679784D01*
X1836773Y-95679793D01*
X1743947Y-95903894D01*
X1681161Y-96138213D01*
X1649500Y-96378710D01*
X500500Y-96378710D01*
X500500Y-89997191D01*
X20134067Y-89997191D01*
X20134067Y-90249114D01*
X20173477Y-90497938D01*
X20251327Y-90737536D01*
X20365699Y-90962001D01*
X20513768Y-91165802D01*
X20513772Y-91165807D01*
X20691912Y-91343947D01*
X20691917Y-91343951D01*
X20869684Y-91473105D01*
X20895722Y-91492023D01*
X21038751Y-91564900D01*
X21120183Y-91606392D01*
X21120185Y-91606392D01*
X21120188Y-91606394D01*
X21359782Y-91684243D01*
X21608605Y-91723653D01*
X21608606Y-91723653D01*
X21860528Y-91723653D01*
X21860529Y-91723653D01*
X22109352Y-91684243D01*
X22348946Y-91606394D01*
X22573412Y-91492023D01*
X22777223Y-91343946D01*
X22955360Y-91165809D01*
X23103437Y-90961998D01*
X23217808Y-90737532D01*
X23295657Y-90497938D01*
X23335067Y-90249115D01*
X23335067Y-89997191D01*
X23295657Y-89748368D01*
X23217808Y-89508774D01*
X23217806Y-89508771D01*
X23217806Y-89508769D01*
X23176314Y-89427337D01*
X23103437Y-89284308D01*
X23084519Y-89258270D01*
X22955365Y-89080503D01*
X22955361Y-89080498D01*
X22777221Y-88902358D01*
X22777216Y-88902354D01*
X22573415Y-88754285D01*
X22573414Y-88754284D01*
X22573412Y-88754283D01*
X22503314Y-88718566D01*
X22348950Y-88639913D01*
X22109352Y-88562063D01*
X21860529Y-88522653D01*
X21608605Y-88522653D01*
X21484193Y-88542358D01*
X21359781Y-88562063D01*
X21120183Y-88639913D01*
X20895718Y-88754285D01*
X20691917Y-88902354D01*
X20691912Y-88902358D01*
X20513772Y-89080498D01*
X20513768Y-89080503D01*
X20365699Y-89284304D01*
X20251327Y-89508769D01*
X20173477Y-89748367D01*
X20134067Y-89997191D01*
X500500Y-89997191D01*
X500500Y-36102135D01*
X5149500Y-36102135D01*
X5149500Y-37897870D01*
X5149501Y-37897876D01*
X5155908Y-37957483D01*
X5206202Y-38092328D01*
X5206206Y-38092335D01*
X5292452Y-38207544D01*
X5292455Y-38207547D01*
X5407664Y-38293793D01*
X5407671Y-38293797D01*
X5539082Y-38342810D01*
X5595016Y-38384681D01*
X5619433Y-38450145D01*
X5604582Y-38518418D01*
X5583431Y-38546673D01*
X5469889Y-38660215D01*
X5344951Y-38832179D01*
X5248444Y-39021585D01*
X5182753Y-39223760D01*
X5170961Y-39298212D01*
X5149500Y-39433713D01*
X5149500Y-39646287D01*
X5155871Y-39686509D01*
X5181669Y-39849396D01*
X5182754Y-39856243D01*
X5246218Y-40051565D01*
X5248444Y-40058414D01*
X5344951Y-40247820D01*
X5469890Y-40419786D01*
X5620213Y-40570109D01*
X5792182Y-40695050D01*
X5800946Y-40699516D01*
X5851742Y-40747491D01*
X5868536Y-40815312D01*
X5845998Y-40881447D01*
X5800946Y-40920484D01*
X5792182Y-40924949D01*
X5620213Y-41049890D01*
X5469890Y-41200213D01*
X5344951Y-41372179D01*
X5248444Y-41561585D01*
X5182753Y-41763760D01*
X5149500Y-41973713D01*
X5149500Y-42186286D01*
X5181669Y-42389396D01*
X5182754Y-42396243D01*
X5248442Y-42598410D01*
X5248444Y-42598414D01*
X5344951Y-42787820D01*
X5469890Y-42959786D01*
X5620213Y-43110109D01*
X5792182Y-43235050D01*
X5800946Y-43239516D01*
X5851742Y-43287491D01*
X5868536Y-43355312D01*
X5845998Y-43421447D01*
X5800946Y-43460484D01*
X5792182Y-43464949D01*
X5620213Y-43589890D01*
X5469890Y-43740213D01*
X5344951Y-43912179D01*
X5248444Y-44101585D01*
X5182753Y-44303760D01*
X5149500Y-44513713D01*
X5149500Y-44726286D01*
X5181669Y-44929396D01*
X5182754Y-44936243D01*
X5246218Y-45131565D01*
X5248444Y-45138414D01*
X5344951Y-45327820D01*
X5469890Y-45499786D01*
X5620213Y-45650109D01*
X5792179Y-45775048D01*
X5792181Y-45775049D01*
X5792184Y-45775051D01*
X5981588Y-45871557D01*
X6183757Y-45937246D01*
X6393713Y-45970500D01*
X6393714Y-45970500D01*
X6606286Y-45970500D01*
X6606287Y-45970500D01*
X6816243Y-45937246D01*
X7018412Y-45871557D01*
X7207816Y-45775051D01*
X7366458Y-45659792D01*
X7379786Y-45650109D01*
X7379788Y-45650106D01*
X7379792Y-45650104D01*
X7530104Y-45499792D01*
X7530106Y-45499788D01*
X7530109Y-45499786D01*
X7655048Y-45327820D01*
X7655047Y-45327820D01*
X7655051Y-45327816D01*
X7659514Y-45319054D01*
X7707488Y-45268259D01*
X7775308Y-45251463D01*
X7841444Y-45273999D01*
X7880484Y-45319054D01*
X7884591Y-45327115D01*
X7884951Y-45327820D01*
X8009890Y-45499786D01*
X8160213Y-45650109D01*
X8332182Y-45775050D01*
X8340946Y-45779516D01*
X8391742Y-45827491D01*
X8408536Y-45895312D01*
X8385998Y-45961447D01*
X8340946Y-46000484D01*
X8332182Y-46004949D01*
X8160213Y-46129890D01*
X8009890Y-46280213D01*
X7884951Y-46452179D01*
X7788444Y-46641585D01*
X7722753Y-46843760D01*
X7689500Y-47053713D01*
X7689500Y-47266286D01*
X7722753Y-47476240D01*
X7768129Y-47615893D01*
X7768260Y-47620508D01*
X7770585Y-47624497D01*
X7769249Y-47655108D01*
X7770124Y-47685734D01*
X7767740Y-47689686D01*
X7767539Y-47694300D01*
X7749862Y-47719333D01*
X7734043Y-47745567D01*
X7729158Y-47748654D01*
X7727237Y-47751376D01*
X7715555Y-47757252D01*
X7696742Y-47769144D01*
X7689662Y-47772010D01*
X7617215Y-47791423D01*
X7567095Y-47820360D01*
X7559632Y-47824669D01*
X7480285Y-47870479D01*
X7480282Y-47870481D01*
X7368478Y-47982286D01*
X6984522Y-48366241D01*
X6923199Y-48399726D01*
X6858523Y-48396491D01*
X6816245Y-48382754D01*
X6668755Y-48359394D01*
X6606287Y-48349500D01*
X6393713Y-48349500D01*
X6345042Y-48357208D01*
X6183760Y-48382753D01*
X5981585Y-48448444D01*
X5792179Y-48544951D01*
X5620213Y-48669890D01*
X5469890Y-48820213D01*
X5344951Y-48992179D01*
X5248444Y-49181585D01*
X5182753Y-49383760D01*
X5149500Y-49593713D01*
X5149500Y-49806286D01*
X5181669Y-50009396D01*
X5182754Y-50016243D01*
X5246218Y-50211565D01*
X5248444Y-50218414D01*
X5344951Y-50407820D01*
X5469890Y-50579786D01*
X5620213Y-50730109D01*
X5792182Y-50855050D01*
X5800946Y-50859516D01*
X5851742Y-50907491D01*
X5868536Y-50975312D01*
X5845998Y-51041447D01*
X5800946Y-51080484D01*
X5792182Y-51084949D01*
X5620213Y-51209890D01*
X5469890Y-51360213D01*
X5344951Y-51532179D01*
X5248444Y-51721585D01*
X5182753Y-51923760D01*
X5149500Y-52133713D01*
X5149500Y-52346286D01*
X5181669Y-52549396D01*
X5182754Y-52556243D01*
X5246218Y-52751565D01*
X5248444Y-52758414D01*
X5344951Y-52947820D01*
X5469890Y-53119786D01*
X5620213Y-53270109D01*
X5792182Y-53395050D01*
X5800946Y-53399516D01*
X5851742Y-53447491D01*
X5868536Y-53515312D01*
X5845998Y-53581447D01*
X5800946Y-53620484D01*
X5792182Y-53624949D01*
X5620213Y-53749890D01*
X5469890Y-53900213D01*
X5344951Y-54072179D01*
X5248444Y-54261585D01*
X5182753Y-54463760D01*
X5149500Y-54673713D01*
X5149500Y-54886286D01*
X5181669Y-55089396D01*
X5182754Y-55096243D01*
X5246218Y-55291565D01*
X5248444Y-55298414D01*
X5344951Y-55487820D01*
X5469890Y-55659786D01*
X5620213Y-55810109D01*
X5792182Y-55935050D01*
X5800946Y-55939516D01*
X5851742Y-55987491D01*
X5868536Y-56055312D01*
X5845998Y-56121447D01*
X5800946Y-56160484D01*
X5792182Y-56164949D01*
X5620213Y-56289890D01*
X5469890Y-56440213D01*
X5344951Y-56612179D01*
X5248444Y-56801585D01*
X5182753Y-57003760D01*
X5149500Y-57213713D01*
X5149500Y-57426286D01*
X5181669Y-57629396D01*
X5182754Y-57636243D01*
X5246218Y-57831565D01*
X5248444Y-57838414D01*
X5344951Y-58027820D01*
X5469890Y-58199786D01*
X5620213Y-58350109D01*
X5792182Y-58475050D01*
X5800946Y-58479516D01*
X5851742Y-58527491D01*
X5868536Y-58595312D01*
X5845998Y-58661447D01*
X5800946Y-58700484D01*
X5792182Y-58704949D01*
X5620213Y-58829890D01*
X5469890Y-58980213D01*
X5344951Y-59152179D01*
X5248444Y-59341585D01*
X5182753Y-59543760D01*
X5149500Y-59753713D01*
X5149500Y-59966286D01*
X5181669Y-60169396D01*
X5182754Y-60176243D01*
X5246218Y-60371565D01*
X5248444Y-60378414D01*
X5344951Y-60567820D01*
X5469890Y-60739786D01*
X5620213Y-60890109D01*
X5792182Y-61015050D01*
X5800946Y-61019516D01*
X5851742Y-61067491D01*
X5868536Y-61135312D01*
X5845998Y-61201447D01*
X5800946Y-61240484D01*
X5792182Y-61244949D01*
X5620213Y-61369890D01*
X5469890Y-61520213D01*
X5344951Y-61692179D01*
X5248444Y-61881585D01*
X5182753Y-62083760D01*
X5149500Y-62293713D01*
X5149500Y-62506286D01*
X5181669Y-62709396D01*
X5182754Y-62716243D01*
X5246218Y-62911565D01*
X5248444Y-62918414D01*
X5344951Y-63107820D01*
X5469890Y-63279786D01*
X5620213Y-63430109D01*
X5792182Y-63555050D01*
X5800946Y-63559516D01*
X5851742Y-63607491D01*
X5868536Y-63675312D01*
X5845998Y-63741447D01*
X5800946Y-63780484D01*
X5792182Y-63784949D01*
X5620213Y-63909890D01*
X5469890Y-64060213D01*
X5344951Y-64232179D01*
X5248444Y-64421585D01*
X5182753Y-64623760D01*
X5149500Y-64833713D01*
X5149500Y-65046286D01*
X5181669Y-65249396D01*
X5182754Y-65256243D01*
X5246218Y-65451565D01*
X5248444Y-65458414D01*
X5344951Y-65647820D01*
X5469890Y-65819786D01*
X5620213Y-65970109D01*
X5792179Y-66095048D01*
X5792181Y-66095049D01*
X5792184Y-66095051D01*
X5981588Y-66191557D01*
X6183757Y-66257246D01*
X6393713Y-66290500D01*
X6393714Y-66290500D01*
X6606286Y-66290500D01*
X6606287Y-66290500D01*
X6816243Y-66257246D01*
X7018412Y-66191557D01*
X7207816Y-66095051D01*
X7239492Y-66072037D01*
X7379786Y-65970109D01*
X7379788Y-65970106D01*
X7379792Y-65970104D01*
X7530104Y-65819792D01*
X7530106Y-65819788D01*
X7530109Y-65819786D01*
X7655048Y-65647820D01*
X7655047Y-65647820D01*
X7655051Y-65647816D01*
X7659514Y-65639054D01*
X7707488Y-65588259D01*
X7775308Y-65571463D01*
X7841444Y-65593999D01*
X7880484Y-65639054D01*
X7884591Y-65647115D01*
X7884951Y-65647820D01*
X8009890Y-65819786D01*
X8160213Y-65970109D01*
X8332182Y-66095050D01*
X8340946Y-66099516D01*
X8391742Y-66147491D01*
X8408536Y-66215312D01*
X8385998Y-66281447D01*
X8340946Y-66320484D01*
X8332182Y-66324949D01*
X8160213Y-66449890D01*
X8009890Y-66600213D01*
X7884951Y-66772179D01*
X7788444Y-66961585D01*
X7722753Y-67163760D01*
X7689500Y-67373713D01*
X7689500Y-67586286D01*
X7721669Y-67789396D01*
X7722754Y-67796243D01*
X7786218Y-67991565D01*
X7788444Y-67998414D01*
X7810325Y-68041358D01*
X7823221Y-68110027D01*
X7796945Y-68174768D01*
X7739838Y-68215025D01*
X7699840Y-68221653D01*
X7618787Y-68221653D01*
X7577866Y-68232617D01*
X7577866Y-68232618D01*
X7540598Y-68242604D01*
X7466061Y-68262576D01*
X7466056Y-68262579D01*
X7329137Y-68341628D01*
X7329129Y-68341634D01*
X7217325Y-68453439D01*
X6984522Y-68686241D01*
X6923199Y-68719726D01*
X6858523Y-68716491D01*
X6816245Y-68702754D01*
X6668755Y-68679394D01*
X6606287Y-68669500D01*
X6393713Y-68669500D01*
X6345042Y-68677208D01*
X6183760Y-68702753D01*
X5981585Y-68768444D01*
X5792179Y-68864951D01*
X5620213Y-68989890D01*
X5469890Y-69140213D01*
X5344951Y-69312179D01*
X5248444Y-69501585D01*
X5182753Y-69703760D01*
X5149500Y-69913713D01*
X5149500Y-70126286D01*
X5181669Y-70329396D01*
X5182754Y-70336243D01*
X5246218Y-70531565D01*
X5248444Y-70538414D01*
X5344951Y-70727820D01*
X5469890Y-70899786D01*
X5620213Y-71050109D01*
X5792182Y-71175050D01*
X5800946Y-71179516D01*
X5851742Y-71227491D01*
X5868536Y-71295312D01*
X5845998Y-71361447D01*
X5800946Y-71400484D01*
X5792182Y-71404949D01*
X5620213Y-71529890D01*
X5469890Y-71680213D01*
X5344951Y-71852179D01*
X5248444Y-72041585D01*
X5182753Y-72243760D01*
X5149500Y-72453713D01*
X5149500Y-72666286D01*
X5181669Y-72869396D01*
X5182754Y-72876243D01*
X5246218Y-73071565D01*
X5248444Y-73078414D01*
X5344951Y-73267820D01*
X5469890Y-73439786D01*
X5620213Y-73590109D01*
X5792182Y-73715050D01*
X5800946Y-73719516D01*
X5851742Y-73767491D01*
X5868536Y-73835312D01*
X5845998Y-73901447D01*
X5800946Y-73940484D01*
X5792182Y-73944949D01*
X5620213Y-74069890D01*
X5469890Y-74220213D01*
X5344951Y-74392179D01*
X5248444Y-74581585D01*
X5182753Y-74783760D01*
X5149500Y-74993713D01*
X5149500Y-75206286D01*
X5181669Y-75409396D01*
X5182754Y-75416243D01*
X5246218Y-75611565D01*
X5248444Y-75618414D01*
X5344951Y-75807820D01*
X5469890Y-75979786D01*
X5620213Y-76130109D01*
X5792182Y-76255050D01*
X5800946Y-76259516D01*
X5851742Y-76307491D01*
X5868536Y-76375312D01*
X5845998Y-76441447D01*
X5800946Y-76480484D01*
X5792182Y-76484949D01*
X5620213Y-76609890D01*
X5469890Y-76760213D01*
X5344951Y-76932179D01*
X5248444Y-77121585D01*
X5182753Y-77323760D01*
X5149500Y-77533713D01*
X5149500Y-77746286D01*
X5181669Y-77949396D01*
X5182754Y-77956243D01*
X5246218Y-78151565D01*
X5248444Y-78158414D01*
X5344951Y-78347820D01*
X5469890Y-78519786D01*
X5620213Y-78670109D01*
X5792182Y-78795050D01*
X5800946Y-78799516D01*
X5851742Y-78847491D01*
X5868536Y-78915312D01*
X5845998Y-78981447D01*
X5800946Y-79020484D01*
X5792182Y-79024949D01*
X5620213Y-79149890D01*
X5469890Y-79300213D01*
X5344951Y-79472179D01*
X5248444Y-79661585D01*
X5182753Y-79863760D01*
X5149500Y-80073713D01*
X5149500Y-80286286D01*
X5181669Y-80489396D01*
X5182754Y-80496243D01*
X5246218Y-80691565D01*
X5248444Y-80698414D01*
X5344951Y-80887820D01*
X5469890Y-81059786D01*
X5620213Y-81210109D01*
X5792182Y-81335050D01*
X5800946Y-81339516D01*
X5851742Y-81387491D01*
X5868536Y-81455312D01*
X5845998Y-81521447D01*
X5800946Y-81560484D01*
X5792182Y-81564949D01*
X5620213Y-81689890D01*
X5469890Y-81840213D01*
X5344951Y-82012179D01*
X5248444Y-82201585D01*
X5182753Y-82403760D01*
X5149500Y-82613713D01*
X5149500Y-82826286D01*
X5181669Y-83029396D01*
X5182754Y-83036243D01*
X5246218Y-83231565D01*
X5248444Y-83238414D01*
X5344951Y-83427820D01*
X5469890Y-83599786D01*
X5620213Y-83750109D01*
X5792179Y-83875048D01*
X5792181Y-83875049D01*
X5792184Y-83875051D01*
X5981588Y-83971557D01*
X6183757Y-84037246D01*
X6393713Y-84070500D01*
X6393714Y-84070500D01*
X6606286Y-84070500D01*
X6606287Y-84070500D01*
X6816243Y-84037246D01*
X7018412Y-83971557D01*
X7207816Y-83875051D01*
X7283658Y-83819949D01*
X7379786Y-83750109D01*
X7379788Y-83750106D01*
X7379792Y-83750104D01*
X7530104Y-83599792D01*
X7530106Y-83599788D01*
X7530109Y-83599786D01*
X7655048Y-83427820D01*
X7655047Y-83427820D01*
X7655051Y-83427816D01*
X7659514Y-83419054D01*
X7707488Y-83368259D01*
X7775308Y-83351463D01*
X7841444Y-83373999D01*
X7880484Y-83419054D01*
X7884591Y-83427115D01*
X7884951Y-83427820D01*
X8009890Y-83599786D01*
X8160213Y-83750109D01*
X8332182Y-83875050D01*
X8340946Y-83879516D01*
X8391742Y-83927491D01*
X8408536Y-83995312D01*
X8385998Y-84061447D01*
X8340946Y-84100484D01*
X8332182Y-84104949D01*
X8160213Y-84229890D01*
X8009890Y-84380213D01*
X7884951Y-84552179D01*
X7788444Y-84741585D01*
X7722753Y-84943760D01*
X7689500Y-85153713D01*
X7689500Y-85366286D01*
X7721669Y-85569396D01*
X7722754Y-85576243D01*
X7786218Y-85771565D01*
X7788444Y-85778414D01*
X7884951Y-85967820D01*
X8009890Y-86139786D01*
X8160213Y-86290109D01*
X8332179Y-86415048D01*
X8332181Y-86415049D01*
X8332184Y-86415051D01*
X8521588Y-86511557D01*
X8723757Y-86577246D01*
X8933713Y-86610500D01*
X8933714Y-86610500D01*
X9146286Y-86610500D01*
X9146287Y-86610500D01*
X9356243Y-86577246D01*
X9558412Y-86511557D01*
X9747816Y-86415051D01*
X9769789Y-86399086D01*
X9919786Y-86290109D01*
X9919788Y-86290106D01*
X9919792Y-86290104D01*
X10070104Y-86139792D01*
X10070106Y-86139788D01*
X10070109Y-86139786D01*
X10195048Y-85967820D01*
X10195047Y-85967820D01*
X10195051Y-85967816D01*
X10291557Y-85778412D01*
X10357246Y-85576243D01*
X10390500Y-85366287D01*
X10390500Y-85153713D01*
X10357246Y-84943757D01*
X10291557Y-84741588D01*
X10195051Y-84552184D01*
X10195049Y-84552181D01*
X10195048Y-84552179D01*
X10070109Y-84380213D01*
X9919786Y-84229890D01*
X9747820Y-84104951D01*
X9747115Y-84104591D01*
X9739054Y-84100485D01*
X9688259Y-84052512D01*
X9671463Y-83984692D01*
X9693999Y-83918556D01*
X9739054Y-83879515D01*
X9747816Y-83875051D01*
X9823658Y-83819949D01*
X9919786Y-83750109D01*
X9919788Y-83750106D01*
X9919792Y-83750104D01*
X10070104Y-83599792D01*
X10070106Y-83599788D01*
X10070109Y-83599786D01*
X10195048Y-83427820D01*
X10195047Y-83427820D01*
X10195051Y-83427816D01*
X10291557Y-83238412D01*
X10357246Y-83036243D01*
X10390500Y-82826287D01*
X10390500Y-82613713D01*
X10357246Y-82403757D01*
X10318650Y-82284971D01*
X10316655Y-82215130D01*
X10352735Y-82155297D01*
X10415436Y-82124469D01*
X10436581Y-82122653D01*
X19065762Y-82122653D01*
X19132801Y-82142338D01*
X19178556Y-82195142D01*
X19188500Y-82264300D01*
X19183695Y-82284961D01*
X19147321Y-82396910D01*
X19147320Y-82396913D01*
X19147320Y-82396915D01*
X19146236Y-82403759D01*
X19114067Y-82606866D01*
X19114067Y-82819440D01*
X19147321Y-83029396D01*
X19149544Y-83036239D01*
X19213011Y-83231567D01*
X19309518Y-83420973D01*
X19434457Y-83592939D01*
X19584780Y-83743262D01*
X19756749Y-83868203D01*
X19765513Y-83872669D01*
X19816309Y-83920644D01*
X19833103Y-83988465D01*
X19810565Y-84054600D01*
X19765513Y-84093637D01*
X19756749Y-84098102D01*
X19584780Y-84223043D01*
X19434457Y-84373366D01*
X19309518Y-84545332D01*
X19213011Y-84734738D01*
X19147320Y-84936913D01*
X19146236Y-84943760D01*
X19114067Y-85146866D01*
X19114067Y-85359440D01*
X19147321Y-85569396D01*
X19149544Y-85576239D01*
X19213011Y-85771567D01*
X19309518Y-85960973D01*
X19434457Y-86132939D01*
X19584780Y-86283262D01*
X19756746Y-86408201D01*
X19756748Y-86408202D01*
X19756751Y-86408204D01*
X19946155Y-86504710D01*
X20148324Y-86570399D01*
X20358280Y-86603653D01*
X20358281Y-86603653D01*
X20570853Y-86603653D01*
X20570854Y-86603653D01*
X20780810Y-86570399D01*
X20982979Y-86504710D01*
X21172383Y-86408204D01*
X21194356Y-86392239D01*
X21344353Y-86283262D01*
X21344355Y-86283259D01*
X21344359Y-86283257D01*
X21494671Y-86132945D01*
X21494673Y-86132941D01*
X21494676Y-86132939D01*
X21619615Y-85960973D01*
X21619614Y-85960973D01*
X21619618Y-85960969D01*
X21716124Y-85771565D01*
X21781813Y-85569396D01*
X21815067Y-85359440D01*
X21815067Y-85146866D01*
X21781813Y-84936910D01*
X21716124Y-84734741D01*
X21619618Y-84545337D01*
X21619616Y-84545334D01*
X21619615Y-84545332D01*
X21494676Y-84373366D01*
X21344353Y-84223043D01*
X21172387Y-84098104D01*
X21166703Y-84095208D01*
X21163621Y-84093638D01*
X21112826Y-84045665D01*
X21096030Y-83977845D01*
X21118566Y-83911709D01*
X21163621Y-83872668D01*
X21172383Y-83868204D01*
X21238801Y-83819949D01*
X21344353Y-83743262D01*
X21344355Y-83743259D01*
X21344359Y-83743257D01*
X21494671Y-83592945D01*
X21494673Y-83592941D01*
X21494676Y-83592939D01*
X21619615Y-83420973D01*
X21619614Y-83420973D01*
X21619618Y-83420969D01*
X21624081Y-83412207D01*
X21672055Y-83361412D01*
X21739875Y-83344616D01*
X21806011Y-83367152D01*
X21845053Y-83412209D01*
X21849518Y-83420973D01*
X21974457Y-83592939D01*
X22124780Y-83743262D01*
X22296746Y-83868201D01*
X22296748Y-83868202D01*
X22296751Y-83868204D01*
X22486155Y-83964710D01*
X22688324Y-84030399D01*
X22898280Y-84063653D01*
X22898281Y-84063653D01*
X23110853Y-84063653D01*
X23110854Y-84063653D01*
X23320810Y-84030399D01*
X23522979Y-83964710D01*
X23712383Y-83868204D01*
X23778801Y-83819949D01*
X23884353Y-83743262D01*
X23884355Y-83743259D01*
X23884359Y-83743257D01*
X24034671Y-83592945D01*
X24034673Y-83592941D01*
X24034676Y-83592939D01*
X24159615Y-83420973D01*
X24159614Y-83420973D01*
X24159618Y-83420969D01*
X24256124Y-83231565D01*
X24321813Y-83029396D01*
X24355067Y-82819440D01*
X24355067Y-82606866D01*
X24321813Y-82396910D01*
X24256124Y-82194741D01*
X24159618Y-82005337D01*
X24159616Y-82005334D01*
X24159615Y-82005332D01*
X24034676Y-81833366D01*
X23884353Y-81683043D01*
X23712387Y-81558104D01*
X23706703Y-81555208D01*
X23703621Y-81553638D01*
X23652826Y-81505665D01*
X23636030Y-81437845D01*
X23658566Y-81371709D01*
X23703621Y-81332668D01*
X23712383Y-81328204D01*
X23778801Y-81279949D01*
X23884353Y-81203262D01*
X23884355Y-81203259D01*
X23884359Y-81203257D01*
X24034671Y-81052945D01*
X24034673Y-81052941D01*
X24034676Y-81052939D01*
X24159615Y-80880973D01*
X24159614Y-80880973D01*
X24159618Y-80880969D01*
X24256124Y-80691565D01*
X24321813Y-80489396D01*
X24355067Y-80279440D01*
X24355067Y-80066866D01*
X24321813Y-79856910D01*
X24256124Y-79654741D01*
X24159618Y-79465337D01*
X24159616Y-79465334D01*
X24159615Y-79465332D01*
X24034676Y-79293366D01*
X23884353Y-79143043D01*
X23712387Y-79018104D01*
X23706703Y-79015208D01*
X23703621Y-79013638D01*
X23652826Y-78965665D01*
X23636030Y-78897845D01*
X23658566Y-78831709D01*
X23703621Y-78792668D01*
X23712383Y-78788204D01*
X23738423Y-78769285D01*
X23884353Y-78663262D01*
X23884355Y-78663259D01*
X23884359Y-78663257D01*
X24034671Y-78512945D01*
X24034673Y-78512941D01*
X24034676Y-78512939D01*
X24159615Y-78340973D01*
X24159614Y-78340973D01*
X24159618Y-78340969D01*
X24256124Y-78151565D01*
X24321813Y-77949396D01*
X24355067Y-77739440D01*
X24355067Y-77526866D01*
X24321813Y-77316910D01*
X24256124Y-77114741D01*
X24159618Y-76925337D01*
X24159616Y-76925334D01*
X24159615Y-76925332D01*
X24034676Y-76753366D01*
X23884353Y-76603043D01*
X23712387Y-76478104D01*
X23706703Y-76475208D01*
X23703621Y-76473638D01*
X23652826Y-76425665D01*
X23636030Y-76357845D01*
X23658566Y-76291709D01*
X23703621Y-76252668D01*
X23712383Y-76248204D01*
X23778801Y-76199949D01*
X23884353Y-76123262D01*
X23884355Y-76123259D01*
X23884359Y-76123257D01*
X24034671Y-75972945D01*
X24034673Y-75972941D01*
X24034676Y-75972939D01*
X24159615Y-75800973D01*
X24159614Y-75800973D01*
X24159618Y-75800969D01*
X24256124Y-75611565D01*
X24321813Y-75409396D01*
X24355067Y-75199440D01*
X24355067Y-74986866D01*
X24321813Y-74776910D01*
X24256124Y-74574741D01*
X24159618Y-74385337D01*
X24159616Y-74385334D01*
X24159615Y-74385332D01*
X24034676Y-74213366D01*
X23884353Y-74063043D01*
X23712387Y-73938104D01*
X23706703Y-73935208D01*
X23703621Y-73933638D01*
X23652826Y-73885665D01*
X23636030Y-73817845D01*
X23658566Y-73751709D01*
X23703621Y-73712668D01*
X23712383Y-73708204D01*
X23778801Y-73659949D01*
X23884353Y-73583262D01*
X23884355Y-73583259D01*
X23884359Y-73583257D01*
X24034671Y-73432945D01*
X24034673Y-73432941D01*
X24034676Y-73432939D01*
X24159615Y-73260973D01*
X24159614Y-73260973D01*
X24159618Y-73260969D01*
X24256124Y-73071565D01*
X24321813Y-72869396D01*
X24355067Y-72659440D01*
X24355067Y-72446866D01*
X24321813Y-72236910D01*
X24256124Y-72034741D01*
X24159618Y-71845337D01*
X24159616Y-71845334D01*
X24159615Y-71845332D01*
X24034676Y-71673366D01*
X23884353Y-71523043D01*
X23712387Y-71398104D01*
X23711682Y-71397744D01*
X23703621Y-71393638D01*
X23652826Y-71345665D01*
X23636030Y-71277845D01*
X23658566Y-71211709D01*
X23703621Y-71172668D01*
X23712383Y-71168204D01*
X23734356Y-71152239D01*
X23884353Y-71043262D01*
X23884355Y-71043259D01*
X23884359Y-71043257D01*
X24034671Y-70892945D01*
X24034673Y-70892941D01*
X24034676Y-70892939D01*
X24159615Y-70720973D01*
X24159614Y-70720973D01*
X24159618Y-70720969D01*
X24256124Y-70531565D01*
X24321813Y-70329396D01*
X24355067Y-70119440D01*
X24355067Y-69906866D01*
X24321813Y-69696910D01*
X24256124Y-69494741D01*
X24159618Y-69305337D01*
X24159616Y-69305334D01*
X24159615Y-69305332D01*
X24034676Y-69133366D01*
X23884353Y-68983043D01*
X23712387Y-68858104D01*
X23522981Y-68761597D01*
X23522980Y-68761596D01*
X23522979Y-68761596D01*
X23320810Y-68695907D01*
X23320808Y-68695906D01*
X23320807Y-68695906D01*
X23154084Y-68669500D01*
X23110854Y-68662653D01*
X22898280Y-68662653D01*
X22869573Y-68667199D01*
X22688324Y-68695906D01*
X22646040Y-68709645D01*
X22576199Y-68711639D01*
X22520043Y-68679394D01*
X22301157Y-68460508D01*
X22301155Y-68460505D01*
X22182284Y-68341634D01*
X22182283Y-68341633D01*
X22095471Y-68291513D01*
X22095471Y-68291512D01*
X22095467Y-68291511D01*
X22045352Y-68262576D01*
X21892624Y-68221652D01*
X21801239Y-68221652D01*
X21734200Y-68201967D01*
X21688445Y-68149163D01*
X21678501Y-68080005D01*
X21690754Y-68041357D01*
X21695899Y-68031258D01*
X21716124Y-67991565D01*
X21781813Y-67789396D01*
X21815067Y-67579440D01*
X21815067Y-67366866D01*
X21781813Y-67156910D01*
X21716124Y-66954741D01*
X21619618Y-66765337D01*
X21619616Y-66765334D01*
X21619615Y-66765332D01*
X21494676Y-66593366D01*
X21344353Y-66443043D01*
X21172387Y-66318104D01*
X21171682Y-66317744D01*
X21163621Y-66313638D01*
X21112826Y-66265665D01*
X21096030Y-66197845D01*
X21118566Y-66131709D01*
X21163621Y-66092668D01*
X21172383Y-66088204D01*
X21194635Y-66072037D01*
X21344353Y-65963262D01*
X21344355Y-65963259D01*
X21344359Y-65963257D01*
X21494671Y-65812945D01*
X21494673Y-65812941D01*
X21494676Y-65812939D01*
X21619615Y-65640973D01*
X21619614Y-65640973D01*
X21619618Y-65640969D01*
X21624081Y-65632207D01*
X21672055Y-65581412D01*
X21739875Y-65564616D01*
X21806011Y-65587152D01*
X21845053Y-65632209D01*
X21849518Y-65640973D01*
X21974457Y-65812939D01*
X22124780Y-65963262D01*
X22296746Y-66088201D01*
X22296748Y-66088202D01*
X22296751Y-66088204D01*
X22486155Y-66184710D01*
X22688324Y-66250399D01*
X22898280Y-66283653D01*
X22898281Y-66283653D01*
X23110853Y-66283653D01*
X23110854Y-66283653D01*
X23320810Y-66250399D01*
X23522979Y-66184710D01*
X23712383Y-66088204D01*
X23734635Y-66072037D01*
X23884353Y-65963262D01*
X23884355Y-65963259D01*
X23884359Y-65963257D01*
X24034671Y-65812945D01*
X24034673Y-65812941D01*
X24034676Y-65812939D01*
X24159615Y-65640973D01*
X24159614Y-65640973D01*
X24159618Y-65640969D01*
X24256124Y-65451565D01*
X24321813Y-65249396D01*
X24355067Y-65039440D01*
X24355067Y-64826866D01*
X24321813Y-64616910D01*
X24256124Y-64414741D01*
X24159618Y-64225337D01*
X24159616Y-64225334D01*
X24159615Y-64225332D01*
X24034676Y-64053366D01*
X23884353Y-63903043D01*
X23712387Y-63778104D01*
X23711682Y-63777744D01*
X23703621Y-63773638D01*
X23652826Y-63725665D01*
X23636030Y-63657845D01*
X23658566Y-63591709D01*
X23703621Y-63552668D01*
X23712383Y-63548204D01*
X23734356Y-63532239D01*
X23884353Y-63423262D01*
X23884355Y-63423259D01*
X23884359Y-63423257D01*
X24034671Y-63272945D01*
X24034673Y-63272941D01*
X24034676Y-63272939D01*
X24159615Y-63100973D01*
X24159614Y-63100973D01*
X24159618Y-63100969D01*
X24256124Y-62911565D01*
X24321813Y-62709396D01*
X24355067Y-62499440D01*
X24355067Y-62286866D01*
X24321813Y-62076910D01*
X24256124Y-61874741D01*
X24159618Y-61685337D01*
X24159616Y-61685334D01*
X24159615Y-61685332D01*
X24034676Y-61513366D01*
X23884353Y-61363043D01*
X23712387Y-61238104D01*
X23711682Y-61237744D01*
X23703621Y-61233638D01*
X23652826Y-61185665D01*
X23636030Y-61117845D01*
X23658566Y-61051709D01*
X23703621Y-61012668D01*
X23712383Y-61008204D01*
X23803796Y-60941789D01*
X23884353Y-60883262D01*
X23884355Y-60883259D01*
X23884359Y-60883257D01*
X24034671Y-60732945D01*
X24034673Y-60732941D01*
X24034676Y-60732939D01*
X24159615Y-60560973D01*
X24159614Y-60560973D01*
X24159618Y-60560969D01*
X24256124Y-60371565D01*
X24321813Y-60169396D01*
X24355067Y-59959440D01*
X24355067Y-59746866D01*
X24321813Y-59536910D01*
X24256124Y-59334741D01*
X24159618Y-59145337D01*
X24159616Y-59145334D01*
X24159615Y-59145332D01*
X24034676Y-58973366D01*
X23884353Y-58823043D01*
X23712387Y-58698104D01*
X23711682Y-58697744D01*
X23703621Y-58693638D01*
X23652826Y-58645665D01*
X23636030Y-58577845D01*
X23658566Y-58511709D01*
X23703621Y-58472668D01*
X23712383Y-58468204D01*
X23734356Y-58452239D01*
X23884353Y-58343262D01*
X23884355Y-58343259D01*
X23884359Y-58343257D01*
X24034671Y-58192945D01*
X24034673Y-58192941D01*
X24034676Y-58192939D01*
X24159615Y-58020973D01*
X24159614Y-58020973D01*
X24159618Y-58020969D01*
X24256124Y-57831565D01*
X24321813Y-57629396D01*
X24355067Y-57419440D01*
X24355067Y-57206866D01*
X24321813Y-56996910D01*
X24256124Y-56794741D01*
X24159618Y-56605337D01*
X24159616Y-56605334D01*
X24159615Y-56605332D01*
X24034676Y-56433366D01*
X23884353Y-56283043D01*
X23712387Y-56158104D01*
X23711682Y-56157744D01*
X23703621Y-56153638D01*
X23652826Y-56105665D01*
X23636030Y-56037845D01*
X23658566Y-55971709D01*
X23703621Y-55932668D01*
X23712383Y-55928204D01*
X23734356Y-55912239D01*
X23884353Y-55803262D01*
X23884355Y-55803259D01*
X23884359Y-55803257D01*
X24034671Y-55652945D01*
X24034673Y-55652941D01*
X24034676Y-55652939D01*
X24159615Y-55480973D01*
X24159614Y-55480973D01*
X24159618Y-55480969D01*
X24256124Y-55291565D01*
X24321813Y-55089396D01*
X24355067Y-54879440D01*
X24355067Y-54666866D01*
X24321813Y-54456910D01*
X24256124Y-54254741D01*
X24159618Y-54065337D01*
X24159616Y-54065334D01*
X24159615Y-54065332D01*
X24034676Y-53893366D01*
X23884353Y-53743043D01*
X23712387Y-53618104D01*
X23711682Y-53617744D01*
X23703621Y-53613638D01*
X23652826Y-53565665D01*
X23636030Y-53497845D01*
X23658566Y-53431709D01*
X23703621Y-53392668D01*
X23712383Y-53388204D01*
X23734356Y-53372239D01*
X23884353Y-53263262D01*
X23884355Y-53263259D01*
X23884359Y-53263257D01*
X24034671Y-53112945D01*
X24034673Y-53112941D01*
X24034676Y-53112939D01*
X24159615Y-52940973D01*
X24159614Y-52940973D01*
X24159618Y-52940969D01*
X24256124Y-52751565D01*
X24321813Y-52549396D01*
X24355067Y-52339440D01*
X24355067Y-52126866D01*
X24321813Y-51916910D01*
X24256124Y-51714741D01*
X24159618Y-51525337D01*
X24159616Y-51525334D01*
X24159615Y-51525332D01*
X24034676Y-51353366D01*
X23884353Y-51203043D01*
X23712387Y-51078104D01*
X23711682Y-51077744D01*
X23703621Y-51073638D01*
X23652826Y-51025665D01*
X23636030Y-50957845D01*
X23658566Y-50891709D01*
X23703621Y-50852668D01*
X23712383Y-50848204D01*
X23734356Y-50832239D01*
X23884353Y-50723262D01*
X23884355Y-50723259D01*
X23884359Y-50723257D01*
X24034671Y-50572945D01*
X24034673Y-50572941D01*
X24034676Y-50572939D01*
X24159615Y-50400973D01*
X24159614Y-50400973D01*
X24159618Y-50400969D01*
X24256124Y-50211565D01*
X24321813Y-50009396D01*
X24355067Y-49799440D01*
X24355067Y-49586866D01*
X24321813Y-49376910D01*
X24256124Y-49174741D01*
X24159618Y-48985337D01*
X24159616Y-48985334D01*
X24159615Y-48985332D01*
X24034676Y-48813366D01*
X23884353Y-48663043D01*
X23712387Y-48538104D01*
X23522981Y-48441597D01*
X23522980Y-48441596D01*
X23522979Y-48441596D01*
X23320810Y-48375907D01*
X23320808Y-48375906D01*
X23320807Y-48375906D01*
X23154084Y-48349500D01*
X23110854Y-48342653D01*
X22898280Y-48342653D01*
X22869573Y-48347199D01*
X22688324Y-48375906D01*
X22646040Y-48389645D01*
X22576199Y-48391639D01*
X22520043Y-48359394D01*
X22150004Y-47989355D01*
X22150002Y-47989352D01*
X22031131Y-47870481D01*
X22031130Y-47870480D01*
X22010732Y-47858703D01*
X21952127Y-47824868D01*
X21952124Y-47824867D01*
X21944318Y-47820360D01*
X21894199Y-47791423D01*
X21813793Y-47769878D01*
X21807064Y-47767203D01*
X21785022Y-47749956D01*
X21761115Y-47735383D01*
X21757875Y-47728713D01*
X21752038Y-47724146D01*
X21742818Y-47697716D01*
X21730587Y-47672536D01*
X21731189Y-47664380D01*
X21729025Y-47658175D01*
X21732815Y-47642381D01*
X21734938Y-47613659D01*
X21781813Y-47469396D01*
X21815067Y-47259440D01*
X21815067Y-47046866D01*
X21781813Y-46836910D01*
X21716124Y-46634741D01*
X21619618Y-46445337D01*
X21619616Y-46445334D01*
X21619615Y-46445332D01*
X21494676Y-46273366D01*
X21344353Y-46123043D01*
X21172387Y-45998104D01*
X21171682Y-45997744D01*
X21163621Y-45993638D01*
X21112826Y-45945665D01*
X21096030Y-45877845D01*
X21118566Y-45811709D01*
X21163621Y-45772668D01*
X21172383Y-45768204D01*
X21194356Y-45752239D01*
X21344353Y-45643262D01*
X21344355Y-45643259D01*
X21344359Y-45643257D01*
X21494671Y-45492945D01*
X21494673Y-45492941D01*
X21494676Y-45492939D01*
X21619615Y-45320973D01*
X21619614Y-45320973D01*
X21619618Y-45320969D01*
X21624081Y-45312207D01*
X21672055Y-45261412D01*
X21739875Y-45244616D01*
X21806011Y-45267152D01*
X21845053Y-45312209D01*
X21849518Y-45320973D01*
X21974457Y-45492939D01*
X22124780Y-45643262D01*
X22296746Y-45768201D01*
X22296748Y-45768202D01*
X22296751Y-45768204D01*
X22486155Y-45864710D01*
X22688324Y-45930399D01*
X22898280Y-45963653D01*
X22898281Y-45963653D01*
X23110853Y-45963653D01*
X23110854Y-45963653D01*
X23320810Y-45930399D01*
X23522979Y-45864710D01*
X23712383Y-45768204D01*
X23734356Y-45752239D01*
X23884353Y-45643262D01*
X23884355Y-45643259D01*
X23884359Y-45643257D01*
X24034671Y-45492945D01*
X24034673Y-45492941D01*
X24034676Y-45492939D01*
X24159615Y-45320973D01*
X24159614Y-45320973D01*
X24159618Y-45320969D01*
X24256124Y-45131565D01*
X24321813Y-44929396D01*
X24355067Y-44719440D01*
X24355067Y-44506866D01*
X24321813Y-44296910D01*
X24256124Y-44094741D01*
X24159618Y-43905337D01*
X24159616Y-43905334D01*
X24159615Y-43905332D01*
X24034676Y-43733366D01*
X23884353Y-43583043D01*
X23712387Y-43458104D01*
X23711682Y-43457744D01*
X23703621Y-43453638D01*
X23652826Y-43405665D01*
X23636030Y-43337845D01*
X23658566Y-43271709D01*
X23703621Y-43232668D01*
X23712383Y-43228204D01*
X23734356Y-43212239D01*
X23884353Y-43103262D01*
X23884355Y-43103259D01*
X23884359Y-43103257D01*
X24034671Y-42952945D01*
X24034673Y-42952941D01*
X24034676Y-42952939D01*
X24153498Y-42789393D01*
X24159618Y-42780969D01*
X24256124Y-42591565D01*
X24321813Y-42389396D01*
X24355067Y-42179440D01*
X24355067Y-42043664D01*
X24374752Y-41976625D01*
X24427556Y-41930870D01*
X24496714Y-41920926D01*
X24560270Y-41949951D01*
X24566748Y-41955983D01*
X28663181Y-46052416D01*
X28696666Y-46113739D01*
X28699500Y-46140097D01*
X28699500Y-67503330D01*
X28699499Y-67503348D01*
X28699499Y-67669054D01*
X28699498Y-67669054D01*
X28740423Y-67821785D01*
X28769358Y-67871900D01*
X28769359Y-67871904D01*
X28769360Y-67871904D01*
X28819479Y-67958714D01*
X28819481Y-67958717D01*
X28938349Y-68077585D01*
X28938355Y-68077590D01*
X40676241Y-79815476D01*
X40709726Y-79876799D01*
X40706492Y-79941473D01*
X40692753Y-79983757D01*
X40678506Y-80073713D01*
X40659500Y-80193713D01*
X40659500Y-80406287D01*
X40692754Y-80616243D01*
X40719452Y-80698412D01*
X40758444Y-80818414D01*
X40854951Y-81007820D01*
X40979890Y-81179786D01*
X41130213Y-81330109D01*
X41302179Y-81455048D01*
X41302181Y-81455049D01*
X41302184Y-81455051D01*
X41491588Y-81551557D01*
X41693757Y-81617246D01*
X41903713Y-81650500D01*
X41903714Y-81650500D01*
X42116286Y-81650500D01*
X42116287Y-81650500D01*
X42326243Y-81617246D01*
X42528412Y-81551557D01*
X42717816Y-81455051D01*
X42804138Y-81392335D01*
X42889786Y-81330109D01*
X42889788Y-81330106D01*
X42889792Y-81330104D01*
X43040104Y-81179792D01*
X43040106Y-81179788D01*
X43040109Y-81179786D01*
X43165048Y-81007820D01*
X43165047Y-81007820D01*
X43165051Y-81007816D01*
X43169514Y-80999054D01*
X43217488Y-80948259D01*
X43285308Y-80931463D01*
X43351444Y-80953999D01*
X43390486Y-80999056D01*
X43394951Y-81007820D01*
X43519890Y-81179786D01*
X43670213Y-81330109D01*
X43842179Y-81455048D01*
X43842181Y-81455049D01*
X43842184Y-81455051D01*
X44031588Y-81551557D01*
X44233757Y-81617246D01*
X44443713Y-81650500D01*
X44443714Y-81650500D01*
X44656286Y-81650500D01*
X44656287Y-81650500D01*
X44866243Y-81617246D01*
X45068412Y-81551557D01*
X45257816Y-81455051D01*
X45372527Y-81371709D01*
X45429784Y-81330110D01*
X45429784Y-81330109D01*
X45429792Y-81330104D01*
X45543329Y-81216566D01*
X45604648Y-81183084D01*
X45674340Y-81188068D01*
X45730274Y-81229939D01*
X45747189Y-81260917D01*
X45796202Y-81392328D01*
X45796206Y-81392335D01*
X45882452Y-81507544D01*
X45882455Y-81507547D01*
X45997664Y-81593793D01*
X45997671Y-81593797D01*
X46132517Y-81644091D01*
X46132516Y-81644091D01*
X46139444Y-81644835D01*
X46192127Y-81650500D01*
X47987872Y-81650499D01*
X48047483Y-81644091D01*
X48182331Y-81593796D01*
X48297546Y-81507546D01*
X48383796Y-81392331D01*
X48434091Y-81257483D01*
X48440500Y-81197873D01*
X48440499Y-79402128D01*
X48434091Y-79342517D01*
X48383796Y-79207669D01*
X48383795Y-79207668D01*
X48383793Y-79207664D01*
X48297547Y-79092455D01*
X48297544Y-79092452D01*
X48182335Y-79006206D01*
X48182328Y-79006202D01*
X48047482Y-78955908D01*
X48047483Y-78955908D01*
X47987883Y-78949501D01*
X47987881Y-78949500D01*
X47987873Y-78949500D01*
X47987865Y-78949500D01*
X46922940Y-78949500D01*
X46855901Y-78929815D01*
X46835259Y-78913181D01*
X40476819Y-72554741D01*
X40443334Y-72493418D01*
X40440500Y-72467060D01*
X40440500Y-72371153D01*
X40440499Y-72371151D01*
X40439499Y-72366125D01*
X40409737Y-72216501D01*
X40400676Y-72194626D01*
X40349397Y-72070825D01*
X40349390Y-72070812D01*
X40261789Y-71939709D01*
X40261786Y-71939705D01*
X40150292Y-71828211D01*
X40150288Y-71828208D01*
X40019185Y-71740607D01*
X40019172Y-71740600D01*
X39873501Y-71680262D01*
X39873489Y-71680259D01*
X39718845Y-71649498D01*
X39718842Y-71649498D01*
X39622938Y-71649498D01*
X39555899Y-71629813D01*
X39535257Y-71613179D01*
X35016819Y-67094741D01*
X34983334Y-67033418D01*
X34980500Y-67007060D01*
X34980500Y-60241153D01*
X41269500Y-60241153D01*
X41269500Y-60398846D01*
X41300261Y-60553489D01*
X41300264Y-60553501D01*
X41360602Y-60699172D01*
X41360609Y-60699185D01*
X41448210Y-60830288D01*
X41448213Y-60830292D01*
X41559707Y-60941786D01*
X41559711Y-60941789D01*
X41690814Y-61029390D01*
X41690827Y-61029397D01*
X41836498Y-61089735D01*
X41836503Y-61089737D01*
X41946199Y-61111557D01*
X41991153Y-61120499D01*
X41991156Y-61120500D01*
X41991158Y-61120500D01*
X42148844Y-61120500D01*
X42148845Y-61120499D01*
X42303497Y-61089737D01*
X42378963Y-61058478D01*
X42447864Y-61029939D01*
X42495316Y-61020500D01*
X49974684Y-61020500D01*
X50022136Y-61029939D01*
X50112796Y-61067491D01*
X50166503Y-61089737D01*
X50276199Y-61111557D01*
X50321153Y-61120499D01*
X50321156Y-61120500D01*
X50321158Y-61120500D01*
X50478844Y-61120500D01*
X50478845Y-61120499D01*
X50633497Y-61089737D01*
X50779179Y-61029394D01*
X50910289Y-60941789D01*
X51021789Y-60830289D01*
X51109394Y-60699179D01*
X51169737Y-60553497D01*
X51200500Y-60398842D01*
X51200500Y-60241158D01*
X51200500Y-60241155D01*
X51200499Y-60241153D01*
X51169737Y-60086503D01*
X51169735Y-60086498D01*
X51109397Y-59940827D01*
X51109390Y-59940814D01*
X51021789Y-59809711D01*
X51021786Y-59809707D01*
X50910292Y-59698213D01*
X50910288Y-59698210D01*
X50779185Y-59610609D01*
X50779172Y-59610602D01*
X50633501Y-59550264D01*
X50633489Y-59550261D01*
X50478845Y-59519500D01*
X50478842Y-59519500D01*
X50321158Y-59519500D01*
X50321155Y-59519500D01*
X50166510Y-59550261D01*
X50166498Y-59550264D01*
X50022136Y-59610061D01*
X49974684Y-59619500D01*
X42495316Y-59619500D01*
X42447864Y-59610061D01*
X42303501Y-59550264D01*
X42303489Y-59550261D01*
X42148845Y-59519500D01*
X42148842Y-59519500D01*
X41991158Y-59519500D01*
X41991155Y-59519500D01*
X41836510Y-59550261D01*
X41836498Y-59550264D01*
X41690827Y-59610602D01*
X41690814Y-59610609D01*
X41559711Y-59698210D01*
X41559707Y-59698213D01*
X41448213Y-59809707D01*
X41448210Y-59809711D01*
X41360609Y-59940814D01*
X41360602Y-59940827D01*
X41300264Y-60086498D01*
X41300261Y-60086510D01*
X41269500Y-60241153D01*
X34980500Y-60241153D01*
X34980500Y-44673713D01*
X44624500Y-44673713D01*
X44624500Y-44886286D01*
X44655442Y-45081650D01*
X44657754Y-45096243D01*
X44708188Y-45251463D01*
X44723444Y-45298414D01*
X44819951Y-45487820D01*
X44944890Y-45659786D01*
X45095209Y-45810105D01*
X45095214Y-45810109D01*
X45259793Y-45929682D01*
X45302459Y-45985011D01*
X45308438Y-46054625D01*
X45275833Y-46116420D01*
X45259793Y-46130318D01*
X45095214Y-46249890D01*
X45095209Y-46249894D01*
X44944890Y-46400213D01*
X44819951Y-46572179D01*
X44723444Y-46761585D01*
X44657753Y-46963760D01*
X44643506Y-47053713D01*
X44624500Y-47173713D01*
X44624500Y-47386287D01*
X44657754Y-47596243D01*
X44713933Y-47769144D01*
X44723444Y-47798414D01*
X44819951Y-47987820D01*
X44944890Y-48159786D01*
X45095213Y-48310109D01*
X45267179Y-48435048D01*
X45267181Y-48435049D01*
X45267184Y-48435051D01*
X45456588Y-48531557D01*
X45658757Y-48597246D01*
X45868713Y-48630500D01*
X45868714Y-48630500D01*
X46331286Y-48630500D01*
X46331287Y-48630500D01*
X46541243Y-48597246D01*
X46743412Y-48531557D01*
X46932816Y-48435051D01*
X46992568Y-48391639D01*
X47104786Y-48310109D01*
X47104788Y-48310106D01*
X47104792Y-48310104D01*
X47255104Y-48159792D01*
X47255106Y-48159788D01*
X47255109Y-48159786D01*
X47380048Y-47987820D01*
X47380047Y-47987820D01*
X47380051Y-47987816D01*
X47476557Y-47798412D01*
X47542246Y-47596243D01*
X47575500Y-47386287D01*
X47575500Y-47173713D01*
X47542246Y-46963757D01*
X47476557Y-46761588D01*
X47380051Y-46572184D01*
X47380049Y-46572181D01*
X47380048Y-46572179D01*
X47255109Y-46400213D01*
X47104792Y-46249896D01*
X47104784Y-46249890D01*
X46940204Y-46130316D01*
X46897540Y-46074989D01*
X46891561Y-46005376D01*
X46924166Y-45943580D01*
X46940199Y-45929686D01*
X47104792Y-45810104D01*
X47255104Y-45659792D01*
X47255106Y-45659788D01*
X47255109Y-45659786D01*
X47380048Y-45487820D01*
X47380047Y-45487820D01*
X47380051Y-45487816D01*
X47476557Y-45298412D01*
X47542246Y-45096243D01*
X47575500Y-44886287D01*
X47575500Y-44673713D01*
X47542246Y-44463757D01*
X47476557Y-44261588D01*
X47380051Y-44072184D01*
X47380049Y-44072181D01*
X47380048Y-44072179D01*
X47255109Y-43900213D01*
X47104786Y-43749890D01*
X46932820Y-43624951D01*
X46743414Y-43528444D01*
X46743413Y-43528443D01*
X46743412Y-43528443D01*
X46541243Y-43462754D01*
X46541241Y-43462753D01*
X46541240Y-43462753D01*
X46379957Y-43437208D01*
X46331287Y-43429500D01*
X45868713Y-43429500D01*
X45820042Y-43437208D01*
X45658760Y-43462753D01*
X45456585Y-43528444D01*
X45267179Y-43624951D01*
X45095213Y-43749890D01*
X44944890Y-43900213D01*
X44819951Y-44072179D01*
X44723444Y-44261585D01*
X44657753Y-44463760D01*
X44624500Y-44673713D01*
X34980500Y-44673713D01*
X34980500Y-42631157D01*
X34973986Y-42598413D01*
X34973986Y-42598410D01*
X34949738Y-42476510D01*
X34949737Y-42476503D01*
X34903546Y-42364988D01*
X34889394Y-42330821D01*
X34889390Y-42330815D01*
X34801790Y-42199712D01*
X34760919Y-42158841D01*
X34690289Y-42088211D01*
X33297128Y-40695050D01*
X31900291Y-39298212D01*
X31900287Y-39298209D01*
X31769184Y-39210608D01*
X31769171Y-39210601D01*
X31623500Y-39150263D01*
X31623488Y-39150260D01*
X31468844Y-39119499D01*
X31468841Y-39119499D01*
X31311157Y-39119499D01*
X31311154Y-39119499D01*
X31156509Y-39150260D01*
X31156497Y-39150263D01*
X31010826Y-39210601D01*
X31010813Y-39210608D01*
X30879710Y-39298209D01*
X30879706Y-39298212D01*
X30768212Y-39409706D01*
X30768209Y-39409710D01*
X30680608Y-39540813D01*
X30680601Y-39540826D01*
X30620263Y-39686497D01*
X30620260Y-39686509D01*
X30589499Y-39841152D01*
X30589499Y-39998845D01*
X30620260Y-40153488D01*
X30620263Y-40153500D01*
X30680601Y-40299171D01*
X30680608Y-40299184D01*
X30768209Y-40430287D01*
X30768212Y-40430291D01*
X33343181Y-43005259D01*
X33376666Y-43066582D01*
X33379500Y-43092940D01*
X33379500Y-67468846D01*
X33410261Y-67623489D01*
X33410264Y-67623501D01*
X33470602Y-67769172D01*
X33470609Y-67769185D01*
X33558210Y-67900288D01*
X33558213Y-67900292D01*
X44412954Y-78755032D01*
X44417556Y-78763460D01*
X44425195Y-78769285D01*
X44434030Y-78793630D01*
X44446439Y-78816355D01*
X44445753Y-78825933D01*
X44449031Y-78834963D01*
X44443302Y-78860217D01*
X44441455Y-78886047D01*
X44435698Y-78893736D01*
X44433574Y-78903102D01*
X44415101Y-78921250D01*
X44399583Y-78941980D01*
X44389257Y-78946640D01*
X44383733Y-78952068D01*
X44358330Y-78960598D01*
X44350556Y-78964108D01*
X44347614Y-78964720D01*
X44233757Y-78982754D01*
X44185061Y-78998576D01*
X44178441Y-78999955D01*
X44150077Y-78997673D01*
X44121634Y-78998486D01*
X44115354Y-78994880D01*
X44108797Y-78994353D01*
X44091601Y-78981241D01*
X44065477Y-78966241D01*
X31946819Y-66847583D01*
X31913334Y-66786260D01*
X31910500Y-66759902D01*
X31910500Y-44810945D01*
X31910500Y-44810943D01*
X31869577Y-44658216D01*
X31869573Y-44658209D01*
X31790524Y-44521290D01*
X31790521Y-44521286D01*
X31790520Y-44521284D01*
X31678716Y-44409480D01*
X31678715Y-44409479D01*
X31674385Y-44405149D01*
X31674374Y-44405139D01*
X29334571Y-42065336D01*
X29301086Y-42004013D01*
X29300635Y-42001846D01*
X29269736Y-41846509D01*
X29269735Y-41846502D01*
X29269733Y-41846497D01*
X29209395Y-41700826D01*
X29209388Y-41700813D01*
X29121787Y-41569710D01*
X29121784Y-41569706D01*
X29010290Y-41458212D01*
X29010286Y-41458209D01*
X28879183Y-41370608D01*
X28879170Y-41370601D01*
X28733499Y-41310263D01*
X28733487Y-41310260D01*
X28578843Y-41279499D01*
X28578840Y-41279499D01*
X28421156Y-41279499D01*
X28421153Y-41279499D01*
X28266508Y-41310260D01*
X28266496Y-41310263D01*
X28120825Y-41370601D01*
X28120812Y-41370608D01*
X27989709Y-41458209D01*
X27989705Y-41458212D01*
X27878211Y-41569706D01*
X27878208Y-41569710D01*
X27790607Y-41700813D01*
X27790600Y-41700826D01*
X27730262Y-41846497D01*
X27730259Y-41846509D01*
X27699498Y-42001152D01*
X27699498Y-42158845D01*
X27730259Y-42313488D01*
X27730262Y-42313500D01*
X27790600Y-42459171D01*
X27790607Y-42459184D01*
X27878208Y-42590287D01*
X27878211Y-42590291D01*
X27989705Y-42701785D01*
X27989709Y-42701788D01*
X28120812Y-42789389D01*
X28120825Y-42789396D01*
X28266496Y-42849734D01*
X28266501Y-42849736D01*
X28348424Y-42866031D01*
X28421848Y-42880637D01*
X28483759Y-42913022D01*
X28485338Y-42914573D01*
X30673181Y-45102416D01*
X30706666Y-45163739D01*
X30709500Y-45190097D01*
X30709500Y-66973330D01*
X30709499Y-66973348D01*
X30709499Y-67139054D01*
X30709498Y-67139054D01*
X30750424Y-67291787D01*
X30761607Y-67311156D01*
X30761608Y-67311158D01*
X30829477Y-67428712D01*
X30829481Y-67428717D01*
X30948349Y-67547585D01*
X30948355Y-67547590D01*
X42138583Y-78737819D01*
X42172068Y-78799142D01*
X42167084Y-78868834D01*
X42125212Y-78924767D01*
X42059748Y-78949184D01*
X42050902Y-78949500D01*
X41903713Y-78949500D01*
X41875006Y-78954046D01*
X41693757Y-78982753D01*
X41651473Y-78996492D01*
X41581632Y-78998486D01*
X41525476Y-78966241D01*
X29936819Y-67377584D01*
X29903334Y-67316261D01*
X29900500Y-67289903D01*
X29900500Y-45760945D01*
X29900500Y-45760943D01*
X29859577Y-45608216D01*
X29796979Y-45499792D01*
X29780524Y-45471290D01*
X29780521Y-45471286D01*
X29780520Y-45471284D01*
X29668716Y-45359480D01*
X29668715Y-45359479D01*
X29664385Y-45355149D01*
X29664374Y-45355139D01*
X24335525Y-40026290D01*
X24302040Y-39964967D01*
X24305276Y-39900289D01*
X24321813Y-39849396D01*
X24355067Y-39639440D01*
X24355067Y-39426866D01*
X24321813Y-39216910D01*
X24256124Y-39014741D01*
X24159618Y-38825337D01*
X24159616Y-38825334D01*
X24159615Y-38825332D01*
X24034676Y-38653366D01*
X23921136Y-38539826D01*
X23887651Y-38478503D01*
X23892635Y-38408811D01*
X23934507Y-38352878D01*
X23965482Y-38335963D01*
X24096898Y-38286949D01*
X24212113Y-38200699D01*
X24298363Y-38085484D01*
X24348658Y-37950636D01*
X24355067Y-37891026D01*
X24355066Y-36095281D01*
X24348658Y-36035670D01*
X24298363Y-35900822D01*
X24298362Y-35900821D01*
X24298360Y-35900817D01*
X24212114Y-35785608D01*
X24212111Y-35785605D01*
X24096902Y-35699359D01*
X24096895Y-35699355D01*
X23962049Y-35649061D01*
X23962050Y-35649061D01*
X23902450Y-35642654D01*
X23902448Y-35642653D01*
X23902440Y-35642653D01*
X23902432Y-35642653D01*
X22554664Y-35642653D01*
X22525223Y-35634008D01*
X22495237Y-35627485D01*
X22490221Y-35623730D01*
X22487625Y-35622968D01*
X22466983Y-35606334D01*
X22301157Y-35440508D01*
X22301155Y-35440505D01*
X22182284Y-35321634D01*
X22182283Y-35321633D01*
X22095471Y-35271513D01*
X22095471Y-35271512D01*
X22095467Y-35271511D01*
X22045352Y-35242576D01*
X21892624Y-35201652D01*
X21734510Y-35201652D01*
X21726914Y-35201652D01*
X21726898Y-35201653D01*
X7618787Y-35201653D01*
X7577866Y-35212617D01*
X7577866Y-35212618D01*
X7540598Y-35222604D01*
X7466061Y-35242576D01*
X7466056Y-35242579D01*
X7329137Y-35321628D01*
X7329129Y-35321634D01*
X7217325Y-35433439D01*
X7037582Y-35613181D01*
X6976259Y-35646666D01*
X6949901Y-35649500D01*
X5602129Y-35649500D01*
X5602123Y-35649501D01*
X5542516Y-35655908D01*
X5407671Y-35706202D01*
X5407664Y-35706206D01*
X5292455Y-35792452D01*
X5292452Y-35792455D01*
X5206206Y-35907664D01*
X5206202Y-35907671D01*
X5155908Y-36042517D01*
X5149501Y-36102116D01*
X5149500Y-36102135D01*
X500500Y-36102135D01*
X500500Y-32560430D01*
X520185Y-32493391D01*
X572989Y-32447636D01*
X622320Y-32436450D01*
X20007894Y-32096352D01*
X20075266Y-32114858D01*
X20121940Y-32166851D01*
X20134067Y-32220333D01*
X20134067Y-32249114D01*
X20173477Y-32497938D01*
X20251327Y-32737536D01*
X20365699Y-32962001D01*
X20513768Y-33165802D01*
X20513772Y-33165807D01*
X20691912Y-33343947D01*
X20691917Y-33343951D01*
X20869684Y-33473105D01*
X20895722Y-33492023D01*
X21038751Y-33564900D01*
X21120183Y-33606392D01*
X21120185Y-33606392D01*
X21120188Y-33606394D01*
X21359782Y-33684243D01*
X21608605Y-33723653D01*
X21608606Y-33723653D01*
X21860528Y-33723653D01*
X21860529Y-33723653D01*
X22109352Y-33684243D01*
X22348946Y-33606394D01*
X22573412Y-33492023D01*
X22777223Y-33343946D01*
X22955360Y-33165809D01*
X23103437Y-32961998D01*
X23217808Y-32737532D01*
X23295657Y-32497938D01*
X23335067Y-32249115D01*
X23335067Y-32159824D01*
X23354752Y-32092785D01*
X23407556Y-32047030D01*
X23456887Y-32035844D01*
X25472004Y-32000491D01*
X25525491Y-32011587D01*
G37*
%TD.AperFunction*%
%TD*%
%TA.AperFunction,Conductor*%
%TO.N,GND_PSU*%
G36*
X97003736Y-500725D02*
G01*
X97293796Y-518270D01*
X97308659Y-520075D01*
X97590798Y-571779D01*
X97605335Y-575362D01*
X97879172Y-660694D01*
X97893163Y-665999D01*
X98154743Y-783726D01*
X98167989Y-790679D01*
X98413460Y-939071D01*
X98425776Y-947572D01*
X98425783Y-947577D01*
X98651573Y-1124472D01*
X98662781Y-1134402D01*
X98865596Y-1337217D01*
X98875526Y-1348425D01*
X99052425Y-1574219D01*
X99060927Y-1586536D01*
X99156085Y-1743946D01*
X99209317Y-1832003D01*
X99216276Y-1845262D01*
X99333998Y-2106830D01*
X99339307Y-2120831D01*
X99424636Y-2394663D01*
X99428220Y-2409201D01*
X99479924Y-2691339D01*
X99481729Y-2706204D01*
X99499274Y-2996245D01*
X99499500Y-3003732D01*
X99499500Y-34745036D01*
X99479815Y-34812075D01*
X99427011Y-34857830D01*
X99376986Y-34869027D01*
X34261468Y-35649562D01*
X34194198Y-35630682D01*
X34194102Y-35630623D01*
X31274997Y-33799998D01*
X25675000Y-31500000D01*
X25674998Y-31499999D01*
X25547496Y-31502215D01*
X25533764Y-31501692D01*
X25463145Y-31495069D01*
X25463138Y-31495069D01*
X25463137Y-31495069D01*
X23897521Y-31522536D01*
X23448018Y-31530422D01*
X23374377Y-31539320D01*
X23361658Y-31540196D01*
X23312406Y-31541052D01*
X23245034Y-31522536D01*
X23199766Y-31473365D01*
X23103436Y-31284306D01*
X22955365Y-31080503D01*
X22955361Y-31080498D01*
X22777221Y-30902358D01*
X22777216Y-30902354D01*
X22573415Y-30754285D01*
X22573414Y-30754284D01*
X22573412Y-30754283D01*
X22503314Y-30718566D01*
X22348950Y-30639913D01*
X22109352Y-30562063D01*
X21860529Y-30522653D01*
X21608605Y-30522653D01*
X21484193Y-30542358D01*
X21359781Y-30562063D01*
X21120183Y-30639913D01*
X20895718Y-30754285D01*
X20691917Y-30902354D01*
X20691912Y-30902358D01*
X20513772Y-31080498D01*
X20513768Y-31080503D01*
X20365699Y-31284303D01*
X20251323Y-31508780D01*
X20250730Y-31510607D01*
X20250315Y-31511212D01*
X20249459Y-31513281D01*
X20249024Y-31513100D01*
X20237367Y-31530146D01*
X20227910Y-31551846D01*
X20218010Y-31558454D01*
X20211290Y-31568281D01*
X20189485Y-31577493D01*
X20169797Y-31590636D01*
X20151318Y-31593620D01*
X20146930Y-31595475D01*
X20134954Y-31596264D01*
X20061598Y-31597538D01*
X20043957Y-31596586D01*
X19999025Y-31590929D01*
X626675Y-31930796D01*
X559301Y-31912290D01*
X512627Y-31860297D01*
X500500Y-31806815D01*
X500500Y-19021153D01*
X5199500Y-19021153D01*
X5199500Y-19178846D01*
X5230261Y-19333489D01*
X5230264Y-19333501D01*
X5290602Y-19479172D01*
X5290609Y-19479185D01*
X5378602Y-19610874D01*
X5399480Y-19677551D01*
X5399500Y-19679765D01*
X5399500Y-23413330D01*
X5399499Y-23413348D01*
X5399499Y-23579054D01*
X5399498Y-23579054D01*
X5399499Y-23579057D01*
X5440423Y-23731785D01*
X5444124Y-23738196D01*
X5469358Y-23781900D01*
X5469359Y-23781904D01*
X5469360Y-23781904D01*
X5519479Y-23868714D01*
X5519481Y-23868717D01*
X5638349Y-23987585D01*
X5638355Y-23987590D01*
X9240141Y-27589376D01*
X9240151Y-27589387D01*
X9244481Y-27593717D01*
X9244482Y-27593718D01*
X9356286Y-27705522D01*
X9356288Y-27705523D01*
X9356292Y-27705526D01*
X9493211Y-27784575D01*
X9493218Y-27784579D01*
X9605021Y-27814536D01*
X9645944Y-27825502D01*
X9645945Y-27825502D01*
X11680234Y-27825502D01*
X11747273Y-27845187D01*
X11749125Y-27846400D01*
X11880814Y-27934392D01*
X11880827Y-27934399D01*
X12017261Y-27990911D01*
X12026503Y-27994739D01*
X12138547Y-28017026D01*
X12181153Y-28025501D01*
X12181156Y-28025502D01*
X12181158Y-28025502D01*
X12338844Y-28025502D01*
X12338845Y-28025501D01*
X12493497Y-27994739D01*
X12639179Y-27934396D01*
X12770289Y-27846791D01*
X12881789Y-27735291D01*
X12969394Y-27604181D01*
X13029737Y-27458499D01*
X13060500Y-27303844D01*
X13060500Y-27146160D01*
X13060500Y-27146157D01*
X13060499Y-27146155D01*
X13047110Y-27078844D01*
X13029737Y-26991505D01*
X13018874Y-26965280D01*
X13011406Y-26895814D01*
X13042680Y-26833335D01*
X13102769Y-26797682D01*
X13172594Y-26800175D01*
X13180867Y-26803260D01*
X13196503Y-26809737D01*
X13351153Y-26840499D01*
X13351156Y-26840500D01*
X13351158Y-26840500D01*
X13508844Y-26840500D01*
X13508845Y-26840499D01*
X13663497Y-26809737D01*
X13809179Y-26749394D01*
X13940289Y-26661789D01*
X14051789Y-26550289D01*
X14139394Y-26419179D01*
X14199737Y-26273497D01*
X14230500Y-26118842D01*
X14230500Y-25961158D01*
X14230500Y-25961155D01*
X14230499Y-25961153D01*
X14199737Y-25806503D01*
X14193859Y-25792312D01*
X14139397Y-25660827D01*
X14139390Y-25660814D01*
X14051789Y-25529711D01*
X14051786Y-25529707D01*
X13940292Y-25418213D01*
X13940288Y-25418210D01*
X13809185Y-25330609D01*
X13809172Y-25330602D01*
X13663501Y-25270264D01*
X13663489Y-25270261D01*
X13508845Y-25239500D01*
X13508842Y-25239500D01*
X13351158Y-25239500D01*
X13351155Y-25239500D01*
X13196510Y-25270261D01*
X13196498Y-25270264D01*
X13050827Y-25330602D01*
X13050815Y-25330609D01*
X12978990Y-25378602D01*
X12912313Y-25399480D01*
X12910099Y-25399500D01*
X10480904Y-25399500D01*
X10413865Y-25379815D01*
X10368110Y-25327011D01*
X10366343Y-25322952D01*
X10334397Y-25245827D01*
X10334390Y-25245814D01*
X10246789Y-25114711D01*
X10246786Y-25114707D01*
X10135292Y-25003213D01*
X10135288Y-25003210D01*
X10004185Y-24915609D01*
X10004172Y-24915602D01*
X9858501Y-24855264D01*
X9858489Y-24855261D01*
X9703845Y-24824500D01*
X9703842Y-24824500D01*
X9546158Y-24824500D01*
X9546155Y-24824500D01*
X9391510Y-24855261D01*
X9391498Y-24855264D01*
X9245827Y-24915602D01*
X9245814Y-24915609D01*
X9114711Y-25003210D01*
X9114707Y-25003213D01*
X9003213Y-25114707D01*
X9003210Y-25114711D01*
X8915609Y-25245814D01*
X8915601Y-25245829D01*
X8892735Y-25301032D01*
X8848893Y-25355435D01*
X8782599Y-25377499D01*
X8714900Y-25360219D01*
X8690494Y-25341259D01*
X6636819Y-23287584D01*
X6603334Y-23226261D01*
X6600500Y-23199903D01*
X6600500Y-20966153D01*
X9154500Y-20966153D01*
X9154500Y-21123846D01*
X9185261Y-21278489D01*
X9185264Y-21278501D01*
X9245602Y-21424172D01*
X9245609Y-21424185D01*
X9333210Y-21555288D01*
X9333213Y-21555292D01*
X9444707Y-21666786D01*
X9444711Y-21666789D01*
X9575814Y-21754390D01*
X9575827Y-21754397D01*
X9721498Y-21814735D01*
X9721503Y-21814737D01*
X9876153Y-21845499D01*
X9876156Y-21845500D01*
X9876158Y-21845500D01*
X10033844Y-21845500D01*
X10033845Y-21845499D01*
X10188497Y-21814737D01*
X10334179Y-21754394D01*
X10465289Y-21666789D01*
X10576789Y-21555289D01*
X10664394Y-21424179D01*
X10724737Y-21278497D01*
X10731004Y-21246989D01*
X17994500Y-21246989D01*
X17994500Y-24341164D01*
X17995160Y-24367026D01*
X17995806Y-24379649D01*
X17997783Y-24405388D01*
X17997784Y-24405393D01*
X18032680Y-24544978D01*
X18032681Y-24544981D01*
X18059097Y-24609654D01*
X18059100Y-24609659D01*
X18103634Y-24685567D01*
X18131908Y-24733758D01*
X18131910Y-24733761D01*
X18227084Y-24823249D01*
X18236728Y-24832317D01*
X18293923Y-24872447D01*
X18422263Y-24937482D01*
X18563730Y-24963726D01*
X18633543Y-24966564D01*
X18633547Y-24966564D01*
X18720994Y-24957597D01*
X18776669Y-24951889D01*
X18776670Y-24951888D01*
X18776677Y-24951888D01*
X20137657Y-24611642D01*
X20137667Y-24611638D01*
X20137669Y-24611638D01*
X20137669Y-24611637D01*
X20223905Y-24581574D01*
X20264543Y-24563137D01*
X20343962Y-24518047D01*
X20343965Y-24518044D01*
X20343967Y-24518043D01*
X20343968Y-24518042D01*
X20380872Y-24483687D01*
X20449274Y-24420012D01*
X20449282Y-24420001D01*
X20449285Y-24419999D01*
X20496969Y-24360835D01*
X20496971Y-24360831D01*
X20506935Y-24348469D01*
X20506936Y-24348467D01*
X20509444Y-24345356D01*
X20516293Y-24333573D01*
X20520915Y-24326655D01*
X20520916Y-24326656D01*
X20574076Y-24247095D01*
X20589488Y-24228316D01*
X20613314Y-24204489D01*
X20632098Y-24189074D01*
X20660111Y-24170356D01*
X20681545Y-24158900D01*
X20712668Y-24146008D01*
X20735918Y-24138955D01*
X20768970Y-24132381D01*
X20793154Y-24130000D01*
X20826842Y-24130000D01*
X20851024Y-24132381D01*
X20884084Y-24138957D01*
X20907329Y-24146008D01*
X20938455Y-24158900D01*
X20959888Y-24170357D01*
X20987897Y-24189072D01*
X21006682Y-24204488D01*
X21040744Y-24238550D01*
X21051650Y-24251024D01*
X21064859Y-24268345D01*
X21064872Y-24268360D01*
X21064883Y-24268374D01*
X21085089Y-24291694D01*
X21085102Y-24291707D01*
X21129335Y-24336740D01*
X21129337Y-24336741D01*
X21248969Y-24416676D01*
X21248970Y-24416676D01*
X21248971Y-24416677D01*
X21255942Y-24420012D01*
X21311997Y-24446831D01*
X21449301Y-24489824D01*
X21449298Y-24489824D01*
X21457293Y-24489966D01*
X21593158Y-24492394D01*
X21662483Y-24483687D01*
X21801236Y-24445623D01*
X21923646Y-24370009D01*
X21977258Y-24325205D01*
X21977268Y-24325197D01*
X22016984Y-24280979D01*
X22017736Y-24280174D01*
X22017864Y-24280098D01*
X22020725Y-24277079D01*
X22025650Y-24272152D01*
X22025652Y-24272154D01*
X22093316Y-24204487D01*
X22112100Y-24189073D01*
X22116447Y-24186168D01*
X22140108Y-24170358D01*
X22161545Y-24158900D01*
X22192668Y-24146008D01*
X22215918Y-24138955D01*
X22248970Y-24132381D01*
X22273154Y-24130000D01*
X22306842Y-24130000D01*
X22331027Y-24132381D01*
X22364079Y-24138956D01*
X22387325Y-24146006D01*
X22418458Y-24158902D01*
X22439890Y-24170359D01*
X22467898Y-24189074D01*
X22486685Y-24204492D01*
X22510502Y-24228308D01*
X22525924Y-24247099D01*
X22544639Y-24275107D01*
X22556097Y-24296542D01*
X22567699Y-24324552D01*
X22581761Y-24358503D01*
X22646610Y-24471305D01*
X22646618Y-24471317D01*
X22684962Y-24521672D01*
X22776462Y-24614189D01*
X22776467Y-24614193D01*
X22901390Y-24685564D01*
X22901392Y-24685564D01*
X22901396Y-24685567D01*
X22966378Y-24711240D01*
X22966383Y-24711241D01*
X22966385Y-24711242D01*
X23106349Y-24744524D01*
X23106350Y-24744524D01*
X23106354Y-24744525D01*
X25727261Y-24982789D01*
X25792242Y-25008462D01*
X25803715Y-25018599D01*
X28135359Y-27350243D01*
X28165794Y-27378283D01*
X28181266Y-27391408D01*
X28213906Y-27416874D01*
X31729439Y-29935092D01*
X31734424Y-29938618D01*
X31736856Y-29940316D01*
X31741784Y-29943713D01*
X35857281Y-32745226D01*
X35869131Y-32753051D01*
X35875026Y-32756826D01*
X35887246Y-32764408D01*
X36019862Y-32820216D01*
X36087463Y-32837876D01*
X36230427Y-32854062D01*
X59915454Y-32141729D01*
X62764783Y-32056036D01*
X62865967Y-32042684D01*
X62914447Y-32031214D01*
X63010896Y-31997805D01*
X63012219Y-31997191D01*
X69134067Y-31997191D01*
X69134067Y-32249114D01*
X69173477Y-32497938D01*
X69251327Y-32737536D01*
X69365699Y-32962001D01*
X69513768Y-33165802D01*
X69513772Y-33165807D01*
X69691912Y-33343947D01*
X69691917Y-33343951D01*
X69869684Y-33473105D01*
X69895722Y-33492023D01*
X70038751Y-33564900D01*
X70120183Y-33606392D01*
X70120185Y-33606392D01*
X70120188Y-33606394D01*
X70359782Y-33684243D01*
X70608605Y-33723653D01*
X70608606Y-33723653D01*
X70860528Y-33723653D01*
X70860529Y-33723653D01*
X71109352Y-33684243D01*
X71348946Y-33606394D01*
X71573412Y-33492023D01*
X71777223Y-33343946D01*
X71955360Y-33165809D01*
X72103437Y-32961998D01*
X72217808Y-32737532D01*
X72295657Y-32497938D01*
X72335067Y-32249115D01*
X72335067Y-31997191D01*
X72295657Y-31748368D01*
X72217808Y-31508774D01*
X72217806Y-31508771D01*
X72217806Y-31508769D01*
X72176314Y-31427337D01*
X72103437Y-31284308D01*
X72084519Y-31258270D01*
X71955365Y-31080503D01*
X71955361Y-31080498D01*
X71777221Y-30902358D01*
X71777216Y-30902354D01*
X71573415Y-30754285D01*
X71573414Y-30754284D01*
X71573412Y-30754283D01*
X71503314Y-30718566D01*
X71348950Y-30639913D01*
X71109352Y-30562063D01*
X70860529Y-30522653D01*
X70608605Y-30522653D01*
X70484193Y-30542358D01*
X70359781Y-30562063D01*
X70120183Y-30639913D01*
X69895718Y-30754285D01*
X69691917Y-30902354D01*
X69691912Y-30902358D01*
X69513772Y-31080498D01*
X69513768Y-31080503D01*
X69365699Y-31284304D01*
X69251327Y-31508769D01*
X69173477Y-31748367D01*
X69134067Y-31997191D01*
X63012219Y-31997191D01*
X71586773Y-28017025D01*
X71638981Y-28005500D01*
X82977270Y-28005500D01*
X82977272Y-28005500D01*
X83022793Y-28001362D01*
X83068392Y-27997219D01*
X83068394Y-27997218D01*
X83068401Y-27997218D01*
X83097232Y-27991934D01*
X83112364Y-27989161D01*
X83112368Y-27989159D01*
X83112378Y-27989158D01*
X83200527Y-27964581D01*
X85244969Y-27189100D01*
X85289526Y-27181042D01*
X90375474Y-27204920D01*
X90479273Y-27194646D01*
X90529134Y-27184434D01*
X90628598Y-27153082D01*
X90751147Y-27077695D01*
X90804842Y-27032990D01*
X90901188Y-26926130D01*
X90963526Y-26796455D01*
X90971946Y-26769738D01*
X90984228Y-26730770D01*
X90984501Y-26729924D01*
X90984528Y-26729816D01*
X90984529Y-26729813D01*
X91007807Y-26587829D01*
X91041946Y-24855261D01*
X91202855Y-16689199D01*
X91202854Y-16689197D01*
X91202855Y-16689193D01*
X91191286Y-16571255D01*
X91178953Y-16514851D01*
X91140246Y-16402850D01*
X91059834Y-16283537D01*
X91012937Y-16231744D01*
X90935822Y-16167816D01*
X90902169Y-16139918D01*
X90902165Y-16139916D01*
X90770019Y-16083020D01*
X90702563Y-16064803D01*
X90696258Y-16063967D01*
X90695113Y-16063898D01*
X90559738Y-16047441D01*
X90559725Y-16047440D01*
X85046586Y-16167815D01*
X85038207Y-16168068D01*
X85033971Y-16168232D01*
X85025484Y-16168630D01*
X84884420Y-16196964D01*
X84884418Y-16196964D01*
X84818574Y-16220332D01*
X84818566Y-16220335D01*
X84691219Y-16287251D01*
X84691219Y-16287252D01*
X84587868Y-16387345D01*
X84547389Y-16439650D01*
X84546017Y-16441316D01*
X84545096Y-16442613D01*
X84474137Y-16567766D01*
X84474136Y-16567769D01*
X82634591Y-21268828D01*
X82591831Y-21324085D01*
X82525984Y-21347452D01*
X82520027Y-21347639D01*
X62636917Y-21493481D01*
X62584062Y-21482079D01*
X60951447Y-20728888D01*
X60854080Y-20695510D01*
X60805135Y-20684140D01*
X60805123Y-20684138D01*
X60708352Y-20671856D01*
X60703003Y-20671177D01*
X59765447Y-20648449D01*
X59765446Y-20648449D01*
X59765445Y-20648449D01*
X59655574Y-20657817D01*
X59655552Y-20657820D01*
X59602819Y-20668200D01*
X59602805Y-20668204D01*
X59497598Y-20701166D01*
X59497596Y-20701167D01*
X59375371Y-20777065D01*
X59375366Y-20777068D01*
X59375366Y-20777069D01*
X59371973Y-20779918D01*
X59321860Y-20821998D01*
X59321851Y-20822007D01*
X59225966Y-20929257D01*
X59164173Y-21059191D01*
X59143832Y-21124689D01*
X59143498Y-21125725D01*
X59143452Y-21125916D01*
X59143450Y-21125922D01*
X59126279Y-21233489D01*
X59120769Y-21268002D01*
X59098650Y-22694705D01*
X59084483Y-22750368D01*
X58566500Y-23738196D01*
X58523348Y-23852071D01*
X58523346Y-23852076D01*
X58509168Y-23909644D01*
X58509165Y-23909660D01*
X58494500Y-24030534D01*
X58494500Y-24030539D01*
X58494500Y-24876000D01*
X58494501Y-24876009D01*
X58506052Y-24983450D01*
X58506054Y-24983462D01*
X58517260Y-25034972D01*
X58551383Y-25137497D01*
X58551386Y-25137503D01*
X58629171Y-25258537D01*
X58629179Y-25258548D01*
X58674923Y-25311340D01*
X58674926Y-25311343D01*
X58674930Y-25311347D01*
X58783664Y-25405567D01*
X58783667Y-25405568D01*
X58783668Y-25405569D01*
X58811349Y-25418211D01*
X58914541Y-25465338D01*
X58981580Y-25485023D01*
X58981584Y-25485024D01*
X59124000Y-25505500D01*
X59124003Y-25505500D01*
X59470730Y-25505500D01*
X59497776Y-25502350D01*
X59586871Y-25491977D01*
X59642324Y-25478886D01*
X59752247Y-25439042D01*
X60593150Y-25018591D01*
X60648604Y-25005500D01*
X62015935Y-25005500D01*
X62082974Y-25025185D01*
X62128729Y-25077989D01*
X62138673Y-25147147D01*
X62109648Y-25210703D01*
X62087423Y-25230818D01*
X58924477Y-27462540D01*
X58862859Y-27484829D01*
X54627938Y-27822979D01*
X54559544Y-27808692D01*
X54509732Y-27759698D01*
X54494315Y-27691550D01*
X54518189Y-27625886D01*
X54530380Y-27611697D01*
X54631789Y-27510289D01*
X54719394Y-27379179D01*
X54779737Y-27233497D01*
X54810500Y-27078842D01*
X54810500Y-26921158D01*
X54810500Y-26921155D01*
X54810499Y-26921153D01*
X54785695Y-26796455D01*
X54779737Y-26766503D01*
X54756080Y-26709390D01*
X54719397Y-26620827D01*
X54719390Y-26620814D01*
X54631789Y-26489711D01*
X54631786Y-26489707D01*
X54520292Y-26378213D01*
X54520288Y-26378210D01*
X54389185Y-26290609D01*
X54389172Y-26290602D01*
X54243501Y-26230264D01*
X54243489Y-26230261D01*
X54088845Y-26199500D01*
X54088842Y-26199500D01*
X53931158Y-26199500D01*
X53931155Y-26199500D01*
X53776510Y-26230261D01*
X53776498Y-26230264D01*
X53630827Y-26290602D01*
X53630814Y-26290609D01*
X53499125Y-26378602D01*
X53432447Y-26399480D01*
X53430234Y-26399500D01*
X51800097Y-26399500D01*
X51733058Y-26379815D01*
X51712416Y-26363181D01*
X39770388Y-14421153D01*
X47249500Y-14421153D01*
X47249500Y-14578846D01*
X47280261Y-14733489D01*
X47280264Y-14733501D01*
X47340602Y-14879172D01*
X47340609Y-14879185D01*
X47428210Y-15010288D01*
X47428213Y-15010292D01*
X47539707Y-15121786D01*
X47539711Y-15121789D01*
X47670814Y-15209390D01*
X47670827Y-15209397D01*
X47808683Y-15266498D01*
X47816503Y-15269737D01*
X47971153Y-15300499D01*
X47971156Y-15300500D01*
X47971158Y-15300500D01*
X48128844Y-15300500D01*
X48128845Y-15300499D01*
X48283497Y-15269737D01*
X48429179Y-15209394D01*
X48546079Y-15131284D01*
X48560875Y-15121398D01*
X48627553Y-15100520D01*
X48629766Y-15100500D01*
X56390234Y-15100500D01*
X56457273Y-15120185D01*
X56459125Y-15121398D01*
X56590814Y-15209390D01*
X56590827Y-15209397D01*
X56728683Y-15266498D01*
X56736503Y-15269737D01*
X56891153Y-15300499D01*
X56891156Y-15300500D01*
X56891158Y-15300500D01*
X57048844Y-15300500D01*
X57048845Y-15300499D01*
X57203497Y-15269737D01*
X57349179Y-15209394D01*
X57480289Y-15121789D01*
X57591789Y-15010289D01*
X57679394Y-14879179D01*
X57739737Y-14733497D01*
X57770500Y-14578842D01*
X57770500Y-14421158D01*
X57770500Y-14421155D01*
X57770499Y-14421153D01*
X57739738Y-14266506D01*
X57739735Y-14266498D01*
X57679397Y-14120827D01*
X57679390Y-14120814D01*
X57591789Y-13989711D01*
X57591786Y-13989707D01*
X57480292Y-13878213D01*
X57480288Y-13878210D01*
X57349185Y-13790609D01*
X57349172Y-13790602D01*
X57203501Y-13730264D01*
X57203489Y-13730261D01*
X57048845Y-13699500D01*
X57048842Y-13699500D01*
X56891158Y-13699500D01*
X56891155Y-13699500D01*
X56736510Y-13730261D01*
X56736498Y-13730264D01*
X56590827Y-13790602D01*
X56590814Y-13790609D01*
X56459125Y-13878602D01*
X56392447Y-13899480D01*
X56390234Y-13899500D01*
X48629766Y-13899500D01*
X48562727Y-13879815D01*
X48560875Y-13878602D01*
X48429185Y-13790609D01*
X48429172Y-13790602D01*
X48283501Y-13730264D01*
X48283489Y-13730261D01*
X48128845Y-13699500D01*
X48128842Y-13699500D01*
X47971158Y-13699500D01*
X47971155Y-13699500D01*
X47816510Y-13730261D01*
X47816498Y-13730264D01*
X47670827Y-13790602D01*
X47670814Y-13790609D01*
X47539711Y-13878210D01*
X47539707Y-13878213D01*
X47428213Y-13989707D01*
X47428210Y-13989711D01*
X47340609Y-14120814D01*
X47340602Y-14120827D01*
X47280264Y-14266498D01*
X47280262Y-14266506D01*
X47249500Y-14421153D01*
X39770388Y-14421153D01*
X38841255Y-13492020D01*
X38807770Y-13430697D01*
X38805533Y-13416490D01*
X38805500Y-13416163D01*
X38805500Y-13416158D01*
X38774737Y-13261503D01*
X38774735Y-13261498D01*
X38714397Y-13115827D01*
X38714390Y-13115814D01*
X38626789Y-12984711D01*
X38626786Y-12984707D01*
X38515292Y-12873213D01*
X38515288Y-12873210D01*
X38384185Y-12785609D01*
X38384172Y-12785602D01*
X38238501Y-12725264D01*
X38238489Y-12725261D01*
X38083845Y-12694500D01*
X38083842Y-12694500D01*
X37926158Y-12694500D01*
X37926155Y-12694500D01*
X37771510Y-12725261D01*
X37771498Y-12725264D01*
X37625827Y-12785602D01*
X37625814Y-12785609D01*
X37494711Y-12873210D01*
X37494707Y-12873213D01*
X37383213Y-12984707D01*
X37383210Y-12984711D01*
X37295609Y-13115814D01*
X37295602Y-13115827D01*
X37235264Y-13261498D01*
X37235261Y-13261510D01*
X37204500Y-13416153D01*
X37204500Y-13573846D01*
X37229495Y-13699500D01*
X37235263Y-13728497D01*
X37235995Y-13730264D01*
X37295602Y-13874172D01*
X37295609Y-13874185D01*
X37383210Y-14005288D01*
X37383213Y-14005292D01*
X37494707Y-14116786D01*
X37494711Y-14116789D01*
X37625814Y-14204390D01*
X37625827Y-14204397D01*
X37771498Y-14264735D01*
X37771503Y-14264737D01*
X37828542Y-14276082D01*
X37914366Y-14293155D01*
X37976277Y-14325540D01*
X37977856Y-14327091D01*
X48716259Y-25065494D01*
X48728030Y-25087051D01*
X48743356Y-25106249D01*
X48744480Y-25117176D01*
X48749744Y-25126817D01*
X48747991Y-25151318D01*
X48750505Y-25175752D01*
X48745543Y-25185550D01*
X48744760Y-25196509D01*
X48730039Y-25216172D01*
X48718944Y-25238087D01*
X48707945Y-25245685D01*
X48702888Y-25252442D01*
X48691361Y-25260106D01*
X48683949Y-25264457D01*
X48620821Y-25290606D01*
X48489711Y-25378211D01*
X48489009Y-25378912D01*
X48483017Y-25382431D01*
X48452485Y-25390074D01*
X48422447Y-25399480D01*
X48420234Y-25399500D01*
X45800097Y-25399500D01*
X45733058Y-25379815D01*
X45712416Y-25363181D01*
X40987590Y-20638355D01*
X40987588Y-20638352D01*
X40868717Y-20519481D01*
X40868716Y-20519480D01*
X40780476Y-20468535D01*
X40780475Y-20468534D01*
X40731790Y-20440425D01*
X40731789Y-20440424D01*
X40719263Y-20437067D01*
X40579057Y-20399499D01*
X40420943Y-20399499D01*
X40413347Y-20399499D01*
X40413331Y-20399500D01*
X37579766Y-20399500D01*
X37512727Y-20379815D01*
X37510875Y-20378602D01*
X37379185Y-20290609D01*
X37379172Y-20290602D01*
X37233501Y-20230264D01*
X37233489Y-20230261D01*
X37078845Y-20199500D01*
X37078842Y-20199500D01*
X36921158Y-20199500D01*
X36921155Y-20199500D01*
X36766510Y-20230261D01*
X36766498Y-20230264D01*
X36620827Y-20290602D01*
X36620814Y-20290609D01*
X36489711Y-20378210D01*
X36489707Y-20378213D01*
X36378213Y-20489707D01*
X36378210Y-20489711D01*
X36290609Y-20620814D01*
X36290602Y-20620827D01*
X36230264Y-20766498D01*
X36230261Y-20766510D01*
X36199500Y-20921153D01*
X36199500Y-21078846D01*
X36230261Y-21233489D01*
X36230264Y-21233501D01*
X36290602Y-21379172D01*
X36290609Y-21379185D01*
X36378210Y-21510288D01*
X36378213Y-21510292D01*
X36489707Y-21621786D01*
X36489711Y-21621789D01*
X36620814Y-21709390D01*
X36620827Y-21709397D01*
X36766498Y-21769735D01*
X36766503Y-21769737D01*
X36921153Y-21800499D01*
X36921156Y-21800500D01*
X36921158Y-21800500D01*
X37078844Y-21800500D01*
X37078845Y-21800499D01*
X37233497Y-21769737D01*
X37379179Y-21709394D01*
X37442942Y-21666789D01*
X37510875Y-21621398D01*
X37577553Y-21600520D01*
X37579766Y-21600500D01*
X40199903Y-21600500D01*
X40266942Y-21620185D01*
X40287584Y-21636819D01*
X45015139Y-26364374D01*
X45015149Y-26364385D01*
X45019479Y-26368715D01*
X45019480Y-26368716D01*
X45131284Y-26480520D01*
X45131286Y-26480521D01*
X45131290Y-26480524D01*
X45200562Y-26520518D01*
X45200566Y-26520519D01*
X45200567Y-26520520D01*
X45268213Y-26559576D01*
X45268214Y-26559576D01*
X45268215Y-26559577D01*
X45420943Y-26600501D01*
X45420946Y-26600501D01*
X45586653Y-26600501D01*
X45586669Y-26600500D01*
X48420234Y-26600500D01*
X48487273Y-26620185D01*
X48489125Y-26621398D01*
X48620814Y-26709390D01*
X48620827Y-26709397D01*
X48758683Y-26766498D01*
X48766503Y-26769737D01*
X48900823Y-26796455D01*
X48921153Y-26800499D01*
X48921156Y-26800500D01*
X48921158Y-26800500D01*
X49078844Y-26800500D01*
X49078845Y-26800499D01*
X49233497Y-26769737D01*
X49379179Y-26709394D01*
X49510289Y-26621789D01*
X49621789Y-26510289D01*
X49709394Y-26379179D01*
X49715522Y-26364385D01*
X49732263Y-26323969D01*
X49776104Y-26269565D01*
X49842398Y-26247500D01*
X49910097Y-26264779D01*
X49934505Y-26283740D01*
X51015139Y-27364374D01*
X51015149Y-27364385D01*
X51019479Y-27368715D01*
X51019480Y-27368716D01*
X51131284Y-27480520D01*
X51182847Y-27510289D01*
X51218095Y-27530639D01*
X51218097Y-27530641D01*
X51256151Y-27552611D01*
X51268215Y-27559577D01*
X51420943Y-27600500D01*
X53430234Y-27600500D01*
X53448377Y-27605827D01*
X53467287Y-27606165D01*
X53495504Y-27619665D01*
X53497273Y-27620185D01*
X53499125Y-27621398D01*
X53592328Y-27683674D01*
X53637133Y-27737286D01*
X53645840Y-27806611D01*
X53615686Y-27869638D01*
X53556243Y-27906358D01*
X53533307Y-27910383D01*
X52524794Y-27990911D01*
X52499237Y-27990308D01*
X35511846Y-25823800D01*
X35447835Y-25795792D01*
X35443862Y-25792312D01*
X35020860Y-25405567D01*
X30376625Y-21159410D01*
X30343816Y-21131873D01*
X30327184Y-21119074D01*
X30327183Y-21119073D01*
X30327171Y-21119064D01*
X30292199Y-21094435D01*
X30292195Y-21094434D01*
X30292196Y-21094434D01*
X30292194Y-21094433D01*
X30167595Y-21037529D01*
X30161320Y-21034663D01*
X30094275Y-21014976D01*
X30046802Y-21008150D01*
X29951858Y-20994500D01*
X29951856Y-20994500D01*
X23531397Y-20994500D01*
X23519059Y-20993885D01*
X20728184Y-20714797D01*
X20728179Y-20714797D01*
X20604087Y-20717704D01*
X20604070Y-20717705D01*
X20544300Y-20726527D01*
X20544292Y-20726529D01*
X20424668Y-20759585D01*
X20424654Y-20759590D01*
X20392611Y-20772863D01*
X20369357Y-20779917D01*
X20369354Y-20779918D01*
X20357976Y-20782181D01*
X20336313Y-20786490D01*
X20312124Y-20788873D01*
X20278442Y-20788873D01*
X20254251Y-20786490D01*
X20221207Y-20779917D01*
X20197948Y-20772861D01*
X20166831Y-20759972D01*
X20145391Y-20748512D01*
X20121766Y-20732726D01*
X20114304Y-20727834D01*
X20114242Y-20727794D01*
X20110516Y-20725399D01*
X20102840Y-20720562D01*
X19970915Y-20663140D01*
X19970912Y-20663139D01*
X19970907Y-20663137D01*
X19903532Y-20644655D01*
X19903529Y-20644654D01*
X19760780Y-20626726D01*
X19760777Y-20626726D01*
X19618750Y-20649742D01*
X19552076Y-20670620D01*
X19552066Y-20670624D01*
X19422288Y-20732717D01*
X19422287Y-20732717D01*
X19354741Y-20777850D01*
X19333304Y-20789308D01*
X19302175Y-20802202D01*
X19278915Y-20809258D01*
X19262399Y-20812543D01*
X19245880Y-20815829D01*
X19221690Y-20818212D01*
X19188008Y-20818212D01*
X19163819Y-20815829D01*
X19130773Y-20809256D01*
X19107516Y-20802200D01*
X19076396Y-20789310D01*
X19054960Y-20777853D01*
X18973733Y-20723579D01*
X18973730Y-20723577D01*
X18973728Y-20723576D01*
X18873771Y-20671856D01*
X18873770Y-20671855D01*
X18873767Y-20671854D01*
X18858023Y-20665821D01*
X18822521Y-20652217D01*
X18822515Y-20652215D01*
X18713583Y-20623895D01*
X18569706Y-20623895D01*
X18538846Y-20628332D01*
X18500545Y-20633840D01*
X18500540Y-20633841D01*
X18500536Y-20633842D01*
X18362498Y-20674374D01*
X18362492Y-20674377D01*
X18241462Y-20752159D01*
X18241451Y-20752167D01*
X18188659Y-20797911D01*
X18094433Y-20906652D01*
X18094430Y-20906656D01*
X18034664Y-21037522D01*
X18014976Y-21104570D01*
X17994500Y-21246989D01*
X10731004Y-21246989D01*
X10731116Y-21246426D01*
X10736698Y-21218368D01*
X10755638Y-21123150D01*
X10788023Y-21061239D01*
X10789517Y-21059717D01*
X13212417Y-18636819D01*
X13273740Y-18603334D01*
X13300098Y-18600500D01*
X13490234Y-18600500D01*
X13557273Y-18620185D01*
X13559125Y-18621398D01*
X13690814Y-18709390D01*
X13690827Y-18709397D01*
X13836498Y-18769735D01*
X13836503Y-18769737D01*
X13991153Y-18800499D01*
X13991156Y-18800500D01*
X13991158Y-18800500D01*
X14148844Y-18800500D01*
X14148845Y-18800499D01*
X14303497Y-18769737D01*
X14421592Y-18720821D01*
X14449172Y-18709397D01*
X14449172Y-18709396D01*
X14449179Y-18709394D01*
X14580289Y-18621789D01*
X14691789Y-18510289D01*
X14779394Y-18379179D01*
X14839737Y-18233497D01*
X14870500Y-18078842D01*
X14870500Y-17921158D01*
X14870500Y-17921155D01*
X14870499Y-17921153D01*
X14839737Y-17766503D01*
X14820224Y-17719394D01*
X14779397Y-17620827D01*
X14779390Y-17620814D01*
X14691789Y-17489711D01*
X14691786Y-17489707D01*
X14580292Y-17378213D01*
X14580288Y-17378210D01*
X14449185Y-17290609D01*
X14449172Y-17290602D01*
X14303501Y-17230264D01*
X14303489Y-17230261D01*
X14148845Y-17199500D01*
X14148842Y-17199500D01*
X13991158Y-17199500D01*
X13991155Y-17199500D01*
X13836510Y-17230261D01*
X13836498Y-17230264D01*
X13690827Y-17290602D01*
X13690814Y-17290609D01*
X13559125Y-17378602D01*
X13492447Y-17399480D01*
X13490234Y-17399500D01*
X13086670Y-17399500D01*
X13086654Y-17399499D01*
X13079058Y-17399499D01*
X12920943Y-17399499D01*
X12844579Y-17419961D01*
X12768214Y-17440423D01*
X12768209Y-17440426D01*
X12631290Y-17519475D01*
X12631282Y-17519481D01*
X9940339Y-20210425D01*
X9879016Y-20243910D01*
X9876850Y-20244361D01*
X9721508Y-20275261D01*
X9721498Y-20275264D01*
X9575827Y-20335602D01*
X9575814Y-20335609D01*
X9444711Y-20423210D01*
X9444707Y-20423213D01*
X9333213Y-20534707D01*
X9333210Y-20534711D01*
X9245609Y-20665814D01*
X9245602Y-20665827D01*
X9185264Y-20811498D01*
X9185261Y-20811510D01*
X9154500Y-20966153D01*
X6600500Y-20966153D01*
X6600500Y-19679765D01*
X6620185Y-19612726D01*
X6621398Y-19610874D01*
X6709390Y-19479185D01*
X6709390Y-19479184D01*
X6709394Y-19479179D01*
X6769737Y-19333497D01*
X6800500Y-19178842D01*
X6800500Y-19021158D01*
X6800500Y-19021155D01*
X6800499Y-19021153D01*
X6769738Y-18866510D01*
X6769737Y-18866503D01*
X6742398Y-18800500D01*
X6709397Y-18720827D01*
X6709390Y-18720814D01*
X6621789Y-18589711D01*
X6621786Y-18589707D01*
X6510292Y-18478213D01*
X6510288Y-18478210D01*
X6379185Y-18390609D01*
X6379172Y-18390602D01*
X6233501Y-18330264D01*
X6233489Y-18330261D01*
X6078845Y-18299500D01*
X6078842Y-18299500D01*
X5921158Y-18299500D01*
X5921155Y-18299500D01*
X5766510Y-18330261D01*
X5766498Y-18330264D01*
X5620827Y-18390602D01*
X5620814Y-18390609D01*
X5489711Y-18478210D01*
X5489707Y-18478213D01*
X5378213Y-18589707D01*
X5378210Y-18589711D01*
X5290609Y-18720814D01*
X5290602Y-18720827D01*
X5230264Y-18866498D01*
X5230261Y-18866510D01*
X5199500Y-19021153D01*
X500500Y-19021153D01*
X500500Y-16931153D01*
X9199500Y-16931153D01*
X9199500Y-17088846D01*
X9230261Y-17243489D01*
X9230264Y-17243501D01*
X9290602Y-17389172D01*
X9290609Y-17389185D01*
X9378210Y-17520288D01*
X9378213Y-17520292D01*
X9489707Y-17631786D01*
X9489711Y-17631789D01*
X9620814Y-17719390D01*
X9620827Y-17719397D01*
X9734541Y-17766498D01*
X9766503Y-17779737D01*
X9921153Y-17810499D01*
X9921156Y-17810500D01*
X9921158Y-17810500D01*
X10078844Y-17810500D01*
X10078845Y-17810499D01*
X10233497Y-17779737D01*
X10379179Y-17719394D01*
X10510289Y-17631789D01*
X10621789Y-17520289D01*
X10709394Y-17389179D01*
X10713938Y-17378210D01*
X10750224Y-17290606D01*
X10769737Y-17243497D01*
X10788127Y-17151041D01*
X10800500Y-17088844D01*
X10800533Y-17088511D01*
X10800599Y-17088347D01*
X10801689Y-17082868D01*
X10802727Y-17083074D01*
X10826691Y-17023722D01*
X10836246Y-17012988D01*
X11712416Y-16136819D01*
X11773739Y-16103334D01*
X11800097Y-16100500D01*
X14480234Y-16100500D01*
X14547273Y-16120185D01*
X14549125Y-16121398D01*
X14680814Y-16209390D01*
X14680827Y-16209397D01*
X14755348Y-16240264D01*
X14826503Y-16269737D01*
X14981153Y-16300499D01*
X14981156Y-16300500D01*
X14981158Y-16300500D01*
X15138844Y-16300500D01*
X15138845Y-16300499D01*
X15293497Y-16269737D01*
X15439179Y-16209394D01*
X15570289Y-16121789D01*
X15681789Y-16010289D01*
X15769394Y-15879179D01*
X15829737Y-15733497D01*
X15860500Y-15578842D01*
X15860500Y-15421158D01*
X15860500Y-15421155D01*
X15860499Y-15421153D01*
X15829738Y-15266510D01*
X15829737Y-15266503D01*
X15769794Y-15121786D01*
X15769397Y-15120827D01*
X15769390Y-15120814D01*
X15681789Y-14989711D01*
X15681786Y-14989707D01*
X15570292Y-14878213D01*
X15570288Y-14878210D01*
X15439185Y-14790609D01*
X15439172Y-14790602D01*
X15293501Y-14730264D01*
X15293489Y-14730261D01*
X15138845Y-14699500D01*
X15138842Y-14699500D01*
X14981158Y-14699500D01*
X14981155Y-14699500D01*
X14826510Y-14730261D01*
X14826498Y-14730264D01*
X14680827Y-14790602D01*
X14680814Y-14790609D01*
X14549125Y-14878602D01*
X14482447Y-14899480D01*
X14480234Y-14899500D01*
X11420940Y-14899500D01*
X11380019Y-14910464D01*
X11380019Y-14910465D01*
X11342751Y-14920451D01*
X11268214Y-14940423D01*
X11268209Y-14940426D01*
X11131290Y-15019475D01*
X11131282Y-15019481D01*
X9972856Y-16177908D01*
X9911533Y-16211393D01*
X9909367Y-16211844D01*
X9766508Y-16240261D01*
X9766498Y-16240264D01*
X9620827Y-16300602D01*
X9620814Y-16300609D01*
X9489711Y-16388210D01*
X9489707Y-16388213D01*
X9378213Y-16499707D01*
X9378210Y-16499711D01*
X9290609Y-16630814D01*
X9290602Y-16630827D01*
X9230264Y-16776498D01*
X9230261Y-16776510D01*
X9199500Y-16931153D01*
X500500Y-16931153D01*
X500500Y-9897648D01*
X14199500Y-9897648D01*
X14199500Y-10102351D01*
X14231522Y-10304534D01*
X14294781Y-10499223D01*
X14387715Y-10681613D01*
X14508028Y-10847213D01*
X14652786Y-10991971D01*
X14807749Y-11104556D01*
X14818390Y-11112287D01*
X14934607Y-11171503D01*
X15000776Y-11205218D01*
X15000778Y-11205218D01*
X15000781Y-11205220D01*
X15105137Y-11239127D01*
X15195465Y-11268477D01*
X15296557Y-11284488D01*
X15397648Y-11300500D01*
X15397649Y-11300500D01*
X15602351Y-11300500D01*
X15602352Y-11300500D01*
X15804534Y-11268477D01*
X15999219Y-11205220D01*
X16181610Y-11112287D01*
X16274590Y-11044732D01*
X16347213Y-10991971D01*
X16347215Y-10991968D01*
X16347219Y-10991966D01*
X16412319Y-10926866D01*
X16473642Y-10893381D01*
X16543334Y-10898365D01*
X16587681Y-10926866D01*
X16652786Y-10991971D01*
X16807749Y-11104556D01*
X16818390Y-11112287D01*
X16934607Y-11171503D01*
X17000776Y-11205218D01*
X17000778Y-11205218D01*
X17000781Y-11205220D01*
X17105137Y-11239127D01*
X17195465Y-11268477D01*
X17296557Y-11284488D01*
X17397648Y-11300500D01*
X17397649Y-11300500D01*
X17602351Y-11300500D01*
X17602352Y-11300500D01*
X17804534Y-11268477D01*
X17999219Y-11205220D01*
X18181610Y-11112287D01*
X18274590Y-11044732D01*
X18347213Y-10991971D01*
X18347215Y-10991968D01*
X18347219Y-10991966D01*
X18491966Y-10847219D01*
X18495025Y-10843009D01*
X18550352Y-10800339D01*
X18619965Y-10794355D01*
X18681762Y-10826957D01*
X18711530Y-10872554D01*
X18756202Y-10992328D01*
X18756206Y-10992335D01*
X18842452Y-11107544D01*
X18842455Y-11107547D01*
X18957664Y-11193793D01*
X18957671Y-11193797D01*
X19092517Y-11244091D01*
X19092516Y-11244091D01*
X19099444Y-11244835D01*
X19152127Y-11250500D01*
X20847872Y-11250499D01*
X20907483Y-11244091D01*
X21042331Y-11193796D01*
X21157546Y-11107546D01*
X21243796Y-10992331D01*
X21294091Y-10857483D01*
X21300500Y-10797873D01*
X21300499Y-9897648D01*
X54199500Y-9897648D01*
X54199500Y-10102351D01*
X54231522Y-10304534D01*
X54294781Y-10499223D01*
X54387715Y-10681613D01*
X54508028Y-10847213D01*
X54652786Y-10991971D01*
X54807749Y-11104556D01*
X54818390Y-11112287D01*
X54934607Y-11171503D01*
X55000776Y-11205218D01*
X55000778Y-11205218D01*
X55000781Y-11205220D01*
X55105137Y-11239127D01*
X55195465Y-11268477D01*
X55296557Y-11284488D01*
X55397648Y-11300500D01*
X55397649Y-11300500D01*
X55602351Y-11300500D01*
X55602352Y-11300500D01*
X55804534Y-11268477D01*
X55999219Y-11205220D01*
X56181610Y-11112287D01*
X56274590Y-11044732D01*
X56347213Y-10991971D01*
X56347215Y-10991968D01*
X56347219Y-10991966D01*
X56412319Y-10926866D01*
X56473642Y-10893381D01*
X56543334Y-10898365D01*
X56587681Y-10926866D01*
X56652786Y-10991971D01*
X56807749Y-11104556D01*
X56818390Y-11112287D01*
X56934607Y-11171503D01*
X57000776Y-11205218D01*
X57000778Y-11205218D01*
X57000781Y-11205220D01*
X57105137Y-11239127D01*
X57195465Y-11268477D01*
X57296557Y-11284488D01*
X57397648Y-11300500D01*
X57397649Y-11300500D01*
X57602351Y-11300500D01*
X57602352Y-11300500D01*
X57804534Y-11268477D01*
X57999219Y-11205220D01*
X58181610Y-11112287D01*
X58274590Y-11044732D01*
X58347213Y-10991971D01*
X58347215Y-10991968D01*
X58347219Y-10991966D01*
X58491966Y-10847219D01*
X58495025Y-10843009D01*
X58550352Y-10800339D01*
X58619965Y-10794355D01*
X58681762Y-10826957D01*
X58711530Y-10872554D01*
X58756202Y-10992328D01*
X58756206Y-10992335D01*
X58842452Y-11107544D01*
X58842455Y-11107547D01*
X58957664Y-11193793D01*
X58957671Y-11193797D01*
X59092517Y-11244091D01*
X59092516Y-11244091D01*
X59099444Y-11244835D01*
X59152127Y-11250500D01*
X60847872Y-11250499D01*
X60907483Y-11244091D01*
X61042331Y-11193796D01*
X61157546Y-11107546D01*
X61243796Y-10992331D01*
X61294091Y-10857483D01*
X61300500Y-10797873D01*
X61300499Y-9202128D01*
X61294091Y-9142517D01*
X61243931Y-9008032D01*
X61243797Y-9007671D01*
X61243793Y-9007664D01*
X61157547Y-8892455D01*
X61157544Y-8892452D01*
X61035231Y-8800888D01*
X61036668Y-8798967D01*
X60996393Y-8758685D01*
X60981547Y-8690411D01*
X60987525Y-8660262D01*
X60989999Y-8652797D01*
X61000500Y-8550009D01*
X61000499Y-8144729D01*
X61020183Y-8077692D01*
X61072987Y-8031937D01*
X61142146Y-8021993D01*
X61205702Y-8051018D01*
X61239060Y-8097278D01*
X61271953Y-8176690D01*
X61271958Y-8176700D01*
X61403075Y-8403803D01*
X61562718Y-8611851D01*
X61562726Y-8611860D01*
X61748140Y-8797274D01*
X61748148Y-8797281D01*
X61748149Y-8797282D01*
X61796554Y-8834424D01*
X61956196Y-8956924D01*
X62183299Y-9088041D01*
X62183309Y-9088046D01*
X62413464Y-9183379D01*
X62425581Y-9188398D01*
X62678884Y-9256270D01*
X62938880Y-9290500D01*
X62938887Y-9290500D01*
X63201113Y-9290500D01*
X63201120Y-9290500D01*
X63461116Y-9256270D01*
X63714419Y-9188398D01*
X63956697Y-9088043D01*
X64183803Y-8956924D01*
X64391851Y-8797282D01*
X64391855Y-8797277D01*
X64391860Y-8797274D01*
X64577274Y-8611860D01*
X64577277Y-8611855D01*
X64577282Y-8611851D01*
X64736924Y-8403803D01*
X64868043Y-8176697D01*
X64968398Y-7934419D01*
X65036270Y-7681116D01*
X65070500Y-7421120D01*
X65070500Y-7158880D01*
X65036270Y-6898884D01*
X64968398Y-6645581D01*
X64968394Y-6645571D01*
X64868046Y-6403309D01*
X64868041Y-6403299D01*
X64736924Y-6176196D01*
X64577281Y-5968148D01*
X64577274Y-5968140D01*
X64391860Y-5782726D01*
X64391851Y-5782718D01*
X64183803Y-5623075D01*
X63956700Y-5491958D01*
X63956690Y-5491953D01*
X63714428Y-5391605D01*
X63714421Y-5391603D01*
X63714419Y-5391602D01*
X63461116Y-5323730D01*
X63403339Y-5316123D01*
X63201127Y-5289500D01*
X63201120Y-5289500D01*
X62938880Y-5289500D01*
X62938872Y-5289500D01*
X62716041Y-5318838D01*
X62678884Y-5323730D01*
X62590912Y-5347302D01*
X62425581Y-5391602D01*
X62425571Y-5391605D01*
X62183309Y-5491953D01*
X62183299Y-5491958D01*
X61956196Y-5623075D01*
X61748148Y-5782718D01*
X61562718Y-5968148D01*
X61403075Y-6176196D01*
X61271958Y-6403299D01*
X61271953Y-6403309D01*
X61171605Y-6645571D01*
X61171602Y-6645581D01*
X61143624Y-6749999D01*
X61103730Y-6898885D01*
X61069500Y-7158872D01*
X61069500Y-7421113D01*
X61069501Y-7421132D01*
X61073885Y-7454434D01*
X61063119Y-7523470D01*
X61016738Y-7575725D01*
X60949469Y-7594609D01*
X60882669Y-7574127D01*
X60845406Y-7535712D01*
X60842712Y-7531344D01*
X60718656Y-7407288D01*
X60569334Y-7315186D01*
X60402797Y-7260001D01*
X60402795Y-7260000D01*
X60300010Y-7249500D01*
X59699998Y-7249500D01*
X59699980Y-7249501D01*
X59597203Y-7260000D01*
X59597200Y-7260001D01*
X59430668Y-7315185D01*
X59430663Y-7315187D01*
X59281342Y-7407289D01*
X59157289Y-7531342D01*
X59065187Y-7680663D01*
X59065185Y-7680668D01*
X59065037Y-7681116D01*
X59010001Y-7847203D01*
X59010001Y-7847204D01*
X59010000Y-7847204D01*
X58999500Y-7949983D01*
X58999500Y-8550001D01*
X58999501Y-8550019D01*
X59010000Y-8652796D01*
X59010002Y-8652801D01*
X59012474Y-8660261D01*
X59014877Y-8730089D01*
X58979147Y-8790132D01*
X58964574Y-8800627D01*
X58964769Y-8800888D01*
X58842455Y-8892452D01*
X58842452Y-8892455D01*
X58756206Y-9007664D01*
X58756202Y-9007671D01*
X58711530Y-9127445D01*
X58669659Y-9183379D01*
X58604195Y-9207796D01*
X58535922Y-9192944D01*
X58495029Y-9156996D01*
X58491969Y-9152784D01*
X58347213Y-9008028D01*
X58181613Y-8887715D01*
X58181612Y-8887714D01*
X58181610Y-8887713D01*
X58124653Y-8858691D01*
X57999223Y-8794781D01*
X57804534Y-8731522D01*
X57629995Y-8703878D01*
X57602352Y-8699500D01*
X57397648Y-8699500D01*
X57373329Y-8703351D01*
X57195465Y-8731522D01*
X57000776Y-8794781D01*
X56818386Y-8887715D01*
X56652786Y-9008028D01*
X56652782Y-9008032D01*
X56587681Y-9073134D01*
X56526358Y-9106619D01*
X56456666Y-9101635D01*
X56412319Y-9073134D01*
X56347213Y-9008028D01*
X56181613Y-8887715D01*
X56181612Y-8887714D01*
X56181610Y-8887713D01*
X56124653Y-8858691D01*
X55999223Y-8794781D01*
X55804534Y-8731522D01*
X55629995Y-8703878D01*
X55602352Y-8699500D01*
X55397648Y-8699500D01*
X55373329Y-8703351D01*
X55195465Y-8731522D01*
X55000776Y-8794781D01*
X54818386Y-8887715D01*
X54652786Y-9008028D01*
X54508028Y-9152786D01*
X54387715Y-9318386D01*
X54294781Y-9500776D01*
X54231522Y-9695465D01*
X54199500Y-9897648D01*
X21300499Y-9897648D01*
X21300499Y-9202128D01*
X21294091Y-9142517D01*
X21243931Y-9008032D01*
X21243797Y-9007671D01*
X21243793Y-9007664D01*
X21157547Y-8892455D01*
X21157544Y-8892452D01*
X21035231Y-8800888D01*
X21036668Y-8798967D01*
X20996393Y-8758685D01*
X20981547Y-8690411D01*
X20987525Y-8660262D01*
X20989999Y-8652797D01*
X21000500Y-8550009D01*
X21000499Y-8144729D01*
X21020183Y-8077692D01*
X21072987Y-8031937D01*
X21142146Y-8021993D01*
X21205702Y-8051018D01*
X21239060Y-8097278D01*
X21271953Y-8176690D01*
X21271958Y-8176700D01*
X21403075Y-8403803D01*
X21562718Y-8611851D01*
X21562726Y-8611860D01*
X21748140Y-8797274D01*
X21748148Y-8797281D01*
X21748149Y-8797282D01*
X21796554Y-8834424D01*
X21956196Y-8956924D01*
X22183299Y-9088041D01*
X22183309Y-9088046D01*
X22413464Y-9183379D01*
X22425581Y-9188398D01*
X22678884Y-9256270D01*
X22938880Y-9290500D01*
X22938887Y-9290500D01*
X23201113Y-9290500D01*
X23201120Y-9290500D01*
X23461116Y-9256270D01*
X23714419Y-9188398D01*
X23956697Y-9088043D01*
X24183803Y-8956924D01*
X24391851Y-8797282D01*
X24391855Y-8797277D01*
X24391860Y-8797274D01*
X24577274Y-8611860D01*
X24577277Y-8611855D01*
X24577282Y-8611851D01*
X24736924Y-8403803D01*
X24868043Y-8176697D01*
X24968398Y-7934419D01*
X25036270Y-7681116D01*
X25070500Y-7421120D01*
X25070500Y-7158880D01*
X25070499Y-7158872D01*
X47929500Y-7158872D01*
X47929500Y-7421127D01*
X47952341Y-7594609D01*
X47963730Y-7681116D01*
X48008233Y-7847203D01*
X48031602Y-7934418D01*
X48031605Y-7934428D01*
X48131953Y-8176690D01*
X48131958Y-8176700D01*
X48263075Y-8403803D01*
X48422718Y-8611851D01*
X48422726Y-8611860D01*
X48608140Y-8797274D01*
X48608148Y-8797281D01*
X48608149Y-8797282D01*
X48656554Y-8834424D01*
X48816196Y-8956924D01*
X49043299Y-9088041D01*
X49043309Y-9088046D01*
X49273464Y-9183379D01*
X49285581Y-9188398D01*
X49538884Y-9256270D01*
X49798880Y-9290500D01*
X49798887Y-9290500D01*
X50061113Y-9290500D01*
X50061120Y-9290500D01*
X50321116Y-9256270D01*
X50574419Y-9188398D01*
X50816697Y-9088043D01*
X51043803Y-8956924D01*
X51251851Y-8797282D01*
X51251855Y-8797277D01*
X51251860Y-8797274D01*
X51437274Y-8611860D01*
X51437277Y-8611855D01*
X51437282Y-8611851D01*
X51596924Y-8403803D01*
X51728043Y-8176697D01*
X51828398Y-7934419D01*
X51896270Y-7681116D01*
X51930500Y-7421120D01*
X51930500Y-7158880D01*
X51896270Y-6898884D01*
X51828398Y-6645581D01*
X51828394Y-6645571D01*
X51728046Y-6403309D01*
X51728041Y-6403299D01*
X51596924Y-6176196D01*
X51437281Y-5968148D01*
X51437274Y-5968140D01*
X51251860Y-5782726D01*
X51251851Y-5782718D01*
X51043803Y-5623075D01*
X50816700Y-5491958D01*
X50816690Y-5491953D01*
X50574428Y-5391605D01*
X50574421Y-5391603D01*
X50574419Y-5391602D01*
X50321116Y-5323730D01*
X50263339Y-5316123D01*
X50061127Y-5289500D01*
X50061120Y-5289500D01*
X49798880Y-5289500D01*
X49798872Y-5289500D01*
X49576041Y-5318838D01*
X49538884Y-5323730D01*
X49450912Y-5347302D01*
X49285581Y-5391602D01*
X49285571Y-5391605D01*
X49043309Y-5491953D01*
X49043299Y-5491958D01*
X48816196Y-5623075D01*
X48608148Y-5782718D01*
X48422718Y-5968148D01*
X48263075Y-6176196D01*
X48131958Y-6403299D01*
X48131953Y-6403309D01*
X48031605Y-6645571D01*
X48031602Y-6645581D01*
X48003624Y-6749999D01*
X47963730Y-6898885D01*
X47929500Y-7158872D01*
X25070499Y-7158872D01*
X25036270Y-6898884D01*
X24968398Y-6645581D01*
X24968394Y-6645571D01*
X24868046Y-6403309D01*
X24868041Y-6403299D01*
X24736924Y-6176196D01*
X24577281Y-5968148D01*
X24577274Y-5968140D01*
X24391860Y-5782726D01*
X24391851Y-5782718D01*
X24183803Y-5623075D01*
X23956700Y-5491958D01*
X23956690Y-5491953D01*
X23714428Y-5391605D01*
X23714421Y-5391603D01*
X23714419Y-5391602D01*
X23461116Y-5323730D01*
X23403339Y-5316123D01*
X23201127Y-5289500D01*
X23201120Y-5289500D01*
X22938880Y-5289500D01*
X22938872Y-5289500D01*
X22716041Y-5318838D01*
X22678884Y-5323730D01*
X22590912Y-5347302D01*
X22425581Y-5391602D01*
X22425571Y-5391605D01*
X22183309Y-5491953D01*
X22183299Y-5491958D01*
X21956196Y-5623075D01*
X21748148Y-5782718D01*
X21562718Y-5968148D01*
X21403075Y-6176196D01*
X21271958Y-6403299D01*
X21271953Y-6403309D01*
X21171605Y-6645571D01*
X21171602Y-6645581D01*
X21143624Y-6749999D01*
X21103730Y-6898885D01*
X21069500Y-7158872D01*
X21069500Y-7421113D01*
X21069501Y-7421132D01*
X21073885Y-7454434D01*
X21063119Y-7523470D01*
X21016738Y-7575725D01*
X20949469Y-7594609D01*
X20882669Y-7574127D01*
X20845406Y-7535712D01*
X20842712Y-7531344D01*
X20718656Y-7407288D01*
X20569334Y-7315186D01*
X20402797Y-7260001D01*
X20402795Y-7260000D01*
X20300010Y-7249500D01*
X19699998Y-7249500D01*
X19699980Y-7249501D01*
X19597203Y-7260000D01*
X19597200Y-7260001D01*
X19430668Y-7315185D01*
X19430663Y-7315187D01*
X19281342Y-7407289D01*
X19157289Y-7531342D01*
X19065187Y-7680663D01*
X19065185Y-7680668D01*
X19065037Y-7681116D01*
X19010001Y-7847203D01*
X19010001Y-7847204D01*
X19010000Y-7847204D01*
X18999500Y-7949983D01*
X18999500Y-8550001D01*
X18999501Y-8550019D01*
X19010000Y-8652796D01*
X19010002Y-8652801D01*
X19012474Y-8660261D01*
X19014877Y-8730089D01*
X18979147Y-8790132D01*
X18964574Y-8800627D01*
X18964769Y-8800888D01*
X18842455Y-8892452D01*
X18842452Y-8892455D01*
X18756206Y-9007664D01*
X18756202Y-9007671D01*
X18711530Y-9127445D01*
X18669659Y-9183379D01*
X18604195Y-9207796D01*
X18535922Y-9192944D01*
X18495029Y-9156996D01*
X18491969Y-9152784D01*
X18347213Y-9008028D01*
X18181613Y-8887715D01*
X18181612Y-8887714D01*
X18181610Y-8887713D01*
X18124653Y-8858691D01*
X17999223Y-8794781D01*
X17804534Y-8731522D01*
X17629995Y-8703878D01*
X17602352Y-8699500D01*
X17397648Y-8699500D01*
X17373329Y-8703351D01*
X17195465Y-8731522D01*
X17000776Y-8794781D01*
X16818386Y-8887715D01*
X16652786Y-9008028D01*
X16652782Y-9008032D01*
X16587681Y-9073134D01*
X16526358Y-9106619D01*
X16456666Y-9101635D01*
X16412319Y-9073134D01*
X16347213Y-9008028D01*
X16181613Y-8887715D01*
X16181612Y-8887714D01*
X16181610Y-8887713D01*
X16124653Y-8858691D01*
X15999223Y-8794781D01*
X15804534Y-8731522D01*
X15629995Y-8703878D01*
X15602352Y-8699500D01*
X15397648Y-8699500D01*
X15373329Y-8703351D01*
X15195465Y-8731522D01*
X15000776Y-8794781D01*
X14818386Y-8887715D01*
X14652786Y-9008028D01*
X14508028Y-9152786D01*
X14387715Y-9318386D01*
X14294781Y-9500776D01*
X14231522Y-9695465D01*
X14199500Y-9897648D01*
X500500Y-9897648D01*
X500500Y-7158872D01*
X7929500Y-7158872D01*
X7929500Y-7421127D01*
X7952341Y-7594609D01*
X7963730Y-7681116D01*
X8008233Y-7847203D01*
X8031602Y-7934418D01*
X8031605Y-7934428D01*
X8131953Y-8176690D01*
X8131958Y-8176700D01*
X8263075Y-8403803D01*
X8422718Y-8611851D01*
X8422726Y-8611860D01*
X8608140Y-8797274D01*
X8608148Y-8797281D01*
X8608149Y-8797282D01*
X8656554Y-8834424D01*
X8816196Y-8956924D01*
X9043299Y-9088041D01*
X9043309Y-9088046D01*
X9273464Y-9183379D01*
X9285581Y-9188398D01*
X9538884Y-9256270D01*
X9798880Y-9290500D01*
X9798887Y-9290500D01*
X10061113Y-9290500D01*
X10061120Y-9290500D01*
X10321116Y-9256270D01*
X10574419Y-9188398D01*
X10816697Y-9088043D01*
X11043803Y-8956924D01*
X11251851Y-8797282D01*
X11251855Y-8797277D01*
X11251860Y-8797274D01*
X11437274Y-8611860D01*
X11437277Y-8611855D01*
X11437282Y-8611851D01*
X11596924Y-8403803D01*
X11728043Y-8176697D01*
X11828398Y-7934419D01*
X11896270Y-7681116D01*
X11930500Y-7421120D01*
X11930500Y-7158880D01*
X11896270Y-6898884D01*
X11828398Y-6645581D01*
X11828394Y-6645571D01*
X11728046Y-6403309D01*
X11728041Y-6403299D01*
X11596924Y-6176196D01*
X11500078Y-6049986D01*
X19000001Y-6049986D01*
X19010494Y-6152697D01*
X19065641Y-6319119D01*
X19065643Y-6319124D01*
X19157684Y-6468345D01*
X19281654Y-6592315D01*
X19430875Y-6684356D01*
X19430880Y-6684358D01*
X19597302Y-6739505D01*
X19597309Y-6739506D01*
X19700019Y-6749999D01*
X20250000Y-6749999D01*
X20299972Y-6749999D01*
X20299986Y-6749998D01*
X20402697Y-6739505D01*
X20569119Y-6684358D01*
X20569124Y-6684356D01*
X20718345Y-6592315D01*
X20842315Y-6468345D01*
X20934356Y-6319124D01*
X20934358Y-6319119D01*
X20989505Y-6152697D01*
X20989506Y-6152690D01*
X20999999Y-6049986D01*
X21000000Y-6049973D01*
X21000000Y-6000000D01*
X20250000Y-6000000D01*
X20250000Y-6749999D01*
X19700019Y-6749999D01*
X19749999Y-6749998D01*
X19750000Y-6749998D01*
X19750000Y-6000000D01*
X19000001Y-6000000D01*
X19000001Y-6049986D01*
X11500078Y-6049986D01*
X11500068Y-6049973D01*
X11437282Y-5968149D01*
X11437276Y-5968143D01*
X11437273Y-5968139D01*
X11251860Y-5782726D01*
X11251851Y-5782718D01*
X11043803Y-5623075D01*
X10924594Y-5554251D01*
X10816700Y-5491958D01*
X10816690Y-5491953D01*
X10715438Y-5450013D01*
X19000000Y-5450013D01*
X19000000Y-5500000D01*
X19750000Y-5500000D01*
X20250000Y-5500000D01*
X20999999Y-5500000D01*
X20999999Y-5450028D01*
X20999998Y-5450013D01*
X20989505Y-5347302D01*
X20934358Y-5180880D01*
X20934356Y-5180875D01*
X20842315Y-5031654D01*
X20718345Y-4907684D01*
X20569124Y-4815643D01*
X20569119Y-4815641D01*
X20402697Y-4760494D01*
X20402690Y-4760493D01*
X20299986Y-4750000D01*
X20250000Y-4750000D01*
X20250000Y-5500000D01*
X19750000Y-5500000D01*
X19750000Y-4750000D01*
X19749999Y-4749999D01*
X19700029Y-4750000D01*
X19700011Y-4750001D01*
X19597302Y-4760494D01*
X19430880Y-4815641D01*
X19430875Y-4815643D01*
X19281654Y-4907684D01*
X19157684Y-5031654D01*
X19065643Y-5180875D01*
X19065641Y-5180880D01*
X19010494Y-5347302D01*
X19010493Y-5347309D01*
X19000000Y-5450013D01*
X10715438Y-5450013D01*
X10574428Y-5391605D01*
X10574421Y-5391603D01*
X10574419Y-5391602D01*
X10321116Y-5323730D01*
X10263339Y-5316123D01*
X10061127Y-5289500D01*
X10061120Y-5289500D01*
X9798880Y-5289500D01*
X9798872Y-5289500D01*
X9576041Y-5318838D01*
X9538884Y-5323730D01*
X9450912Y-5347302D01*
X9285581Y-5391602D01*
X9285571Y-5391605D01*
X9043309Y-5491953D01*
X9043299Y-5491958D01*
X8816196Y-5623075D01*
X8608148Y-5782718D01*
X8422718Y-5968148D01*
X8263075Y-6176196D01*
X8131958Y-6403299D01*
X8131953Y-6403309D01*
X8031605Y-6645571D01*
X8031602Y-6645581D01*
X8003624Y-6749999D01*
X7963730Y-6898885D01*
X7929500Y-7158872D01*
X500500Y-7158872D01*
X500500Y-3378711D01*
X1649500Y-3378711D01*
X1649500Y-3621288D01*
X1681161Y-3861785D01*
X1743947Y-4096104D01*
X1836773Y-4320205D01*
X1836776Y-4320212D01*
X1958064Y-4530289D01*
X1958066Y-4530292D01*
X1958067Y-4530293D01*
X2105733Y-4722736D01*
X2105739Y-4722743D01*
X2277256Y-4894260D01*
X2277262Y-4894265D01*
X2469711Y-5041936D01*
X2679788Y-5163224D01*
X2903900Y-5256054D01*
X3138211Y-5318838D01*
X3318586Y-5342584D01*
X3378711Y-5350500D01*
X3378712Y-5350500D01*
X3621289Y-5350500D01*
X3669388Y-5344167D01*
X3861789Y-5318838D01*
X4096100Y-5256054D01*
X4320212Y-5163224D01*
X4530289Y-5041936D01*
X4722738Y-4894265D01*
X4894265Y-4722738D01*
X5041936Y-4530289D01*
X5163224Y-4320212D01*
X5256054Y-4096100D01*
X5318838Y-3861789D01*
X5350500Y-3621288D01*
X5350500Y-3378712D01*
X5350500Y-3378711D01*
X94649500Y-3378711D01*
X94649500Y-3621288D01*
X94681161Y-3861785D01*
X94743947Y-4096104D01*
X94836773Y-4320205D01*
X94836776Y-4320212D01*
X94958064Y-4530289D01*
X94958066Y-4530292D01*
X94958067Y-4530293D01*
X95105733Y-4722736D01*
X95105739Y-4722743D01*
X95277256Y-4894260D01*
X95277262Y-4894265D01*
X95469711Y-5041936D01*
X95679788Y-5163224D01*
X95903900Y-5256054D01*
X96138211Y-5318838D01*
X96318586Y-5342584D01*
X96378711Y-5350500D01*
X96378712Y-5350500D01*
X96621289Y-5350500D01*
X96669388Y-5344167D01*
X96861789Y-5318838D01*
X97096100Y-5256054D01*
X97320212Y-5163224D01*
X97530289Y-5041936D01*
X97722738Y-4894265D01*
X97894265Y-4722738D01*
X98041936Y-4530289D01*
X98163224Y-4320212D01*
X98256054Y-4096100D01*
X98318838Y-3861789D01*
X98350500Y-3621288D01*
X98350500Y-3378712D01*
X98318838Y-3138211D01*
X98256054Y-2903900D01*
X98163224Y-2679788D01*
X98041936Y-2469711D01*
X97894265Y-2277262D01*
X97894260Y-2277256D01*
X97722743Y-2105739D01*
X97722736Y-2105733D01*
X97530293Y-1958067D01*
X97530292Y-1958066D01*
X97530289Y-1958064D01*
X97334910Y-1845262D01*
X97320214Y-1836777D01*
X97320205Y-1836773D01*
X97096104Y-1743947D01*
X96861785Y-1681161D01*
X96621289Y-1649500D01*
X96621288Y-1649500D01*
X96378712Y-1649500D01*
X96378711Y-1649500D01*
X96138214Y-1681161D01*
X95903895Y-1743947D01*
X95679794Y-1836773D01*
X95679785Y-1836777D01*
X95469706Y-1958067D01*
X95277263Y-2105733D01*
X95277256Y-2105739D01*
X95105739Y-2277256D01*
X95105733Y-2277263D01*
X94958067Y-2469706D01*
X94958064Y-2469710D01*
X94958064Y-2469711D01*
X94948804Y-2485750D01*
X94836777Y-2679785D01*
X94836773Y-2679794D01*
X94743947Y-2903895D01*
X94681161Y-3138214D01*
X94649500Y-3378711D01*
X5350500Y-3378711D01*
X5318838Y-3138211D01*
X5256054Y-2903900D01*
X5163224Y-2679788D01*
X5041936Y-2469711D01*
X4894265Y-2277262D01*
X4894260Y-2277256D01*
X4722743Y-2105739D01*
X4722736Y-2105733D01*
X4530293Y-1958067D01*
X4530292Y-1958066D01*
X4530289Y-1958064D01*
X4334910Y-1845262D01*
X4320214Y-1836777D01*
X4320205Y-1836773D01*
X4096104Y-1743947D01*
X3861785Y-1681161D01*
X3621289Y-1649500D01*
X3621288Y-1649500D01*
X3378712Y-1649500D01*
X3378711Y-1649500D01*
X3138214Y-1681161D01*
X2903895Y-1743947D01*
X2679794Y-1836773D01*
X2679785Y-1836777D01*
X2469706Y-1958067D01*
X2277263Y-2105733D01*
X2277256Y-2105739D01*
X2105739Y-2277256D01*
X2105733Y-2277263D01*
X1958067Y-2469706D01*
X1958064Y-2469710D01*
X1958064Y-2469711D01*
X1948804Y-2485750D01*
X1836777Y-2679785D01*
X1836773Y-2679794D01*
X1743947Y-2903895D01*
X1681161Y-3138214D01*
X1649500Y-3378711D01*
X500500Y-3378711D01*
X500500Y-3003749D01*
X500726Y-2996262D01*
X518271Y-2706205D01*
X520076Y-2691340D01*
X571780Y-2409201D01*
X575364Y-2394663D01*
X660696Y-2120822D01*
X665998Y-2106841D01*
X783731Y-1845249D01*
X790676Y-1832016D01*
X939080Y-1586526D01*
X947567Y-1574230D01*
X1124481Y-1348417D01*
X1134396Y-1337226D01*
X1337226Y-1134395D01*
X1348417Y-1124480D01*
X1574231Y-947567D01*
X1586527Y-939080D01*
X1832005Y-790682D01*
X1845264Y-783724D01*
X1845266Y-783723D01*
X2106842Y-665998D01*
X2120823Y-660696D01*
X2394669Y-575362D01*
X2409198Y-571780D01*
X2691344Y-520075D01*
X2706201Y-518271D01*
X2996288Y-500724D01*
X3003761Y-500499D01*
X3065893Y-500499D01*
X96934108Y-500499D01*
X96996249Y-500499D01*
X97003736Y-500725D01*
G37*
%TD.AperFunction*%
%TD*%
M02*
