%TF.GenerationSoftware,KiCad,Pcbnew,9.0.2*%
%TF.CreationDate,2025-09-10T18:20:18+09:00*%
%TF.ProjectId,control-unit,636f6e74-726f-46c2-9d75-6e69742e6b69,rev?*%
%TF.SameCoordinates,Original*%
%TF.FileFunction,Soldermask,Bot*%
%TF.FilePolarity,Negative*%
%FSLAX46Y46*%
G04 Gerber Fmt 4.6, Leading zero omitted, Abs format (unit mm)*
G04 Created by KiCad (PCBNEW 9.0.2) date 2025-09-10 18:20:18*
%MOMM*%
%LPD*%
G01*
G04 APERTURE LIST*
G04 Aperture macros list*
%AMRoundRect*
0 Rectangle with rounded corners*
0 $1 Rounding radius*
0 $2 $3 $4 $5 $6 $7 $8 $9 X,Y pos of 4 corners*
0 Add a 4 corners polygon primitive as box body*
4,1,4,$2,$3,$4,$5,$6,$7,$8,$9,$2,$3,0*
0 Add four circle primitives for the rounded corners*
1,1,$1+$1,$2,$3*
1,1,$1+$1,$4,$5*
1,1,$1+$1,$6,$7*
1,1,$1+$1,$8,$9*
0 Add four rect primitives between the rounded corners*
20,1,$1+$1,$2,$3,$4,$5,0*
20,1,$1+$1,$4,$5,$6,$7,0*
20,1,$1+$1,$6,$7,$8,$9,0*
20,1,$1+$1,$8,$9,$2,$3,0*%
G04 Aperture macros list end*
%ADD10R,1.600000X1.500000*%
%ADD11C,1.600000*%
%ADD12C,3.000000*%
%ADD13C,2.700000*%
%ADD14C,1.600200*%
%ADD15C,3.200000*%
%ADD16R,1.700000X1.700000*%
%ADD17C,1.700000*%
%ADD18RoundRect,0.250000X-0.750000X0.600000X-0.750000X-0.600000X0.750000X-0.600000X0.750000X0.600000X0*%
%ADD19O,2.000000X1.700000*%
%ADD20RoundRect,0.250001X1.099999X1.099999X-1.099999X1.099999X-1.099999X-1.099999X1.099999X-1.099999X0*%
%ADD21RoundRect,0.250000X-0.725000X0.600000X-0.725000X-0.600000X0.725000X-0.600000X0.725000X0.600000X0*%
%ADD22O,1.950000X1.700000*%
%ADD23RoundRect,0.250000X-0.250000X0.250000X-0.250000X-0.250000X0.250000X-0.250000X0.250000X0.250000X0*%
G04 APERTURE END LIST*
D10*
%TO.C,J7*%
X20000000Y-10000000D03*
D11*
X17500000Y-10000000D03*
X15500000Y-10000000D03*
X13000000Y-10000000D03*
D12*
X23070000Y-7290000D03*
X9930000Y-7290000D03*
%TD*%
D13*
%TO.C,H1*%
X21734567Y-32123153D03*
%TD*%
D14*
%TO.C,U2*%
X45660000Y-71265000D03*
X48200000Y-71265000D03*
X50740000Y-71265000D03*
X53280000Y-71265000D03*
%TD*%
D15*
%TO.C,H6*%
X3500000Y-3500000D03*
%TD*%
%TO.C,H8*%
X96500000Y-96500000D03*
%TD*%
D13*
%TO.C,H2*%
X70734567Y-32123153D03*
%TD*%
D16*
%TO.C,J5*%
X61411439Y-72275000D03*
D17*
X61411439Y-74815000D03*
X61411439Y-77355000D03*
X61411439Y-79895000D03*
X61411439Y-82435000D03*
X61411439Y-84975000D03*
%TD*%
D15*
%TO.C,H7*%
X96500000Y-3500000D03*
%TD*%
D13*
%TO.C,H4*%
X21734567Y-90123153D03*
%TD*%
D18*
%TO.C,J9*%
X82510000Y-54040000D03*
D19*
X82510000Y-56540000D03*
%TD*%
D20*
%TO.C,J10*%
X92625000Y-18825000D03*
D13*
X88665000Y-18825000D03*
%TD*%
%TO.C,H3*%
X70734567Y-90123153D03*
%TD*%
D10*
%TO.C,J8*%
X60000000Y-10000000D03*
D11*
X57500000Y-10000000D03*
X55500000Y-10000000D03*
X53000000Y-10000000D03*
D12*
X63070000Y-7290000D03*
X49930000Y-7290000D03*
%TD*%
D16*
%TO.C,J1*%
X6500000Y-37000000D03*
D17*
X9040000Y-37000000D03*
X6500000Y-39540000D03*
X9040000Y-39540000D03*
X6500000Y-42080000D03*
X9040000Y-42080000D03*
X6500000Y-44620000D03*
X9040000Y-44620000D03*
X6500000Y-47160000D03*
X9040000Y-47160000D03*
X6500000Y-49700000D03*
X9040000Y-49700000D03*
X6500000Y-52240000D03*
X9040000Y-52240000D03*
X6500000Y-54780000D03*
X9040000Y-54780000D03*
X6500000Y-57320000D03*
X9040000Y-57320000D03*
X6500000Y-59860000D03*
X9040000Y-59860000D03*
X6500000Y-62400000D03*
X9040000Y-62400000D03*
X6500000Y-64940000D03*
X9040000Y-64940000D03*
X6500000Y-67480000D03*
X9040000Y-67480000D03*
X6500000Y-70020000D03*
X9040000Y-70020000D03*
X6500000Y-72560000D03*
X9040000Y-72560000D03*
X6500000Y-75100000D03*
X9040000Y-75100000D03*
X6500000Y-77640000D03*
X9040000Y-77640000D03*
X6500000Y-80180000D03*
X9040000Y-80180000D03*
X6500000Y-82720000D03*
X9040000Y-82720000D03*
X6500000Y-85260000D03*
X9040000Y-85260000D03*
%TD*%
D15*
%TO.C,H5*%
X3500000Y-96499999D03*
%TD*%
D16*
%TO.C,J6*%
X47090000Y-80300000D03*
D17*
X44550000Y-80300000D03*
X42010000Y-80300000D03*
X39470000Y-80300000D03*
D16*
X47090000Y-93000000D03*
D17*
X44550000Y-93000000D03*
X42010000Y-93000000D03*
X39470000Y-93000000D03*
%TD*%
D21*
%TO.C,J11*%
X46100000Y-42280000D03*
D22*
X46100000Y-44780000D03*
X46100000Y-47280000D03*
%TD*%
D18*
%TO.C,J3*%
X82510000Y-40452500D03*
D19*
X82510000Y-42952500D03*
%TD*%
D18*
%TO.C,J4*%
X89875000Y-75075000D03*
D19*
X89875000Y-77575000D03*
%TD*%
D23*
%TO.C,D3*%
X60000000Y-5750000D03*
X60000000Y-8250000D03*
%TD*%
D16*
%TO.C,J2*%
X23004567Y-36993153D03*
D17*
X20464567Y-36993153D03*
X23004567Y-39533153D03*
X20464567Y-39533153D03*
X23004567Y-42073153D03*
X20464567Y-42073153D03*
X23004567Y-44613153D03*
X20464567Y-44613153D03*
X23004567Y-47153153D03*
X20464567Y-47153153D03*
X23004567Y-49693153D03*
X20464567Y-49693153D03*
X23004567Y-52233153D03*
X20464567Y-52233153D03*
X23004567Y-54773153D03*
X20464567Y-54773153D03*
X23004567Y-57313153D03*
X20464567Y-57313153D03*
X23004567Y-59853153D03*
X20464567Y-59853153D03*
X23004567Y-62393153D03*
X20464567Y-62393153D03*
X23004567Y-64933153D03*
X20464567Y-64933153D03*
X23004567Y-67473153D03*
X20464567Y-67473153D03*
X23004567Y-70013153D03*
X20464567Y-70013153D03*
X23004567Y-72553153D03*
X20464567Y-72553153D03*
X23004567Y-75093153D03*
X20464567Y-75093153D03*
X23004567Y-77633153D03*
X20464567Y-77633153D03*
X23004567Y-80173153D03*
X20464567Y-80173153D03*
X23004567Y-82713153D03*
X20464567Y-82713153D03*
X23004567Y-85253153D03*
X20464567Y-85253153D03*
%TD*%
D23*
%TO.C,D2*%
X20000000Y-5750000D03*
X20000000Y-8250000D03*
%TD*%
M02*
