M48
; DRILL file {KiCad 9.0.2} date 2025-09-10T18:21:17+0900
; FORMAT={-:-/ absolute / metric / decimal}
; #@! TF.CreationDate,2025-09-10T18:21:17+09:00
; #@! TF.GenerationSoftware,Kicad,Pcbnew,9.0.2
; #@! TF.FileFunction,MixedPlating,1,2
FMAT,2
METRIC
; #@! TA.AperFunction,Plated,PTH,ViaDrill
T1C0.300
; #@! TA.AperFunction,Plated,PTH,ComponentDrill
T2C0.950
; #@! TA.AperFunction,Plated,PTH,ComponentDrill
T3C1.000
; #@! TA.AperFunction,Plated,PTH,ComponentDrill
T4C1.092
; #@! TA.AperFunction,Plated,PTH,ComponentDrill
T5C1.700
; #@! TA.AperFunction,Plated,PTH,ComponentDrill
T6C2.300
; #@! TA.AperFunction,NonPlated,NPTH,ComponentDrill
T7C2.700
; #@! TA.AperFunction,NonPlated,NPTH,ComponentDrill
T8C3.200
%
G90
G05
T1
X1.69Y-29.46
X2.08Y-41.865
X2.08Y-42.93
X2.13Y-58.79
X2.15Y-51.09
X2.24Y-71.88
X2.24Y-72.945
X2.45Y-40.89
X2.52Y-76.48
X3.5Y-33.5
X4.0Y-14.0
X4.958Y-27.494
X5.26Y-90.86
X6.0Y-19.1
X6.0Y-27.5
X6.05Y-29.62
X6.325Y-90.86
X7.0Y-3.725
X7.39Y-90.86
X7.5Y-16.0
X8.0Y-26.5
X8.5Y-1.0
X8.5Y-2.0
X8.5Y-10.0
X8.5Y-11.0
X8.5Y-12.5
X8.5Y-13.5
X9.0Y-29.5
X9.421Y-33.471
X9.625Y-25.625
X9.955Y-21.045
X10.0Y-13.5
X10.0Y-17.01
X11.0Y-13.5
X11.93Y-91.05
X12.0Y-17.0
X12.26Y-27.225
X12.5Y-13.5
X12.5Y-34.0
X12.995Y-91.05
X13.0Y-17.0
X13.43Y-26.04
X13.5Y-13.5
X14.0Y-19.0
X14.0Y-20.0
X14.0Y-21.0
X14.06Y-91.05
X14.07Y-18.0
X14.71Y-52.24
X14.74Y-59.86
X14.76Y-77.64
X14.85Y-42.08
X14.89Y-72.56
X15.0Y-13.5
X15.0Y-19.0
X15.0Y-20.0
X15.0Y-21.0
X15.0Y-24.55
X15.06Y-15.5
X15.175Y-17.0
X16.0Y-13.5
X16.0Y-19.0
X16.0Y-20.0
X16.0Y-21.0
X17.0Y-34.0
X17.5Y-21.5
X17.7Y-18.7
X19.195Y-19.702
X19.205Y-20.523
X19.75Y-20.1
X20.0Y-5.0
X20.0Y-8.359
X20.025Y-5.696
X20.295Y-20.494
X20.3Y-19.687
X20.81Y-24.425
X22.0Y-19.0
X22.0Y-20.0
X22.275Y-14.0
X22.275Y-15.5
X22.29Y-24.425
X22.32Y-16.97
X23.0Y-18.0
X23.0Y-19.0
X23.0Y-20.0
X23.5Y-14.0
X23.5Y-15.5
X23.5Y-17.0
X24.0Y-1.0
X24.0Y-2.0
X24.0Y-3.0
X24.0Y-4.0
X24.0Y-11.5
X24.0Y-12.5
X24.0Y-18.0
X24.0Y-19.0
X24.0Y-20.0
X24.5Y-22.5
X24.5Y-23.5
X25.0Y-33.5
X25.5Y-22.5
X25.5Y-23.5
X26.75Y-71.21
X26.78Y-40.76
X27.02Y-76.43
X27.46Y-51.04
X27.73Y-59.01
X28.491Y-43.54
X28.5Y-42.08
X29.0Y-34.5
X29.5Y-25.5
X29.5Y-26.5
X30.295Y-46.363
X30.353Y-50.656
X30.5Y-25.5
X30.5Y-26.5
X30.5Y-42.0
X31.39Y-39.92
X31.96Y-89.6
X31.96Y-90.665
X31.96Y-91.73
X32.0Y-43.0
X32.23Y-85.09
X32.23Y-86.155
X32.23Y-87.22
X32.5Y-49.5
X32.686Y-46.226
X33.0Y-10.0
X33.088Y-70.117
X33.5Y-37.5
X33.55Y-28.5
X33.55Y-29.5
X34.5Y-10.0
X34.5Y-40.5
X34.55Y-28.5
X34.55Y-29.5
X36.28Y-43.31
X36.31Y-46.144
X36.31Y-49.18
X36.705Y-73.939
X37.0Y-21.0
X37.84Y-46.19
X38.0Y-30.0
X38.0Y-31.0
X38.005Y-13.495
X38.393Y-22.973
X38.393Y-23.973
X38.393Y-24.973
X39.0Y-30.0
X39.0Y-31.0
X39.5Y-23.0
X39.5Y-24.0
X39.5Y-25.0
X39.64Y-72.45
X40.5Y-23.0
X40.5Y-24.0
X40.5Y-25.0
X41.0Y-30.0
X41.0Y-31.0
X42.0Y-30.0
X42.0Y-31.0
X42.07Y-60.32
X44.061Y-30.0
X44.061Y-31.0
X45.0Y-37.5
X45.061Y-30.0
X45.061Y-31.0
X46.31Y-62.0
X46.31Y-63.065
X46.31Y-64.13
X46.65Y-54.81
X46.65Y-55.875
X46.65Y-56.94
X47.0Y-30.0
X47.0Y-31.0
X47.5Y-3.225
X48.0Y-30.0
X48.0Y-31.0
X48.05Y-14.5
X48.5Y-11.5
X48.5Y-12.5
X48.5Y-13.5
X48.93Y-2.83
X48.97Y-1.83
X48.98Y-0.84
X49.0Y-26.0
X49.5Y-21.5
X49.5Y-22.5
X49.5Y-23.5
X50.27Y-89.67
X50.4Y-60.32
X50.5Y-21.5
X50.5Y-22.5
X50.5Y-23.5
X51.5Y-21.5
X51.5Y-22.5
X51.5Y-23.5
X53.13Y-38.45
X53.13Y-39.515
X53.13Y-40.58
X53.24Y-46.17
X53.24Y-47.235
X53.24Y-48.3
X54.01Y-27.0
X56.17Y-39.25
X56.97Y-14.5
X57.0Y-19.0
X57.0Y-20.0
X57.0Y-21.0
X57.94Y-79.61
X58.21Y-81.24
X59.56Y-47.16
X59.56Y-48.225
X59.56Y-49.29
X60.0Y-4.5
X60.0Y-5.75
X60.41Y-42.86
X60.46Y-64.66
X61.525Y-64.66
X61.872Y-20.633
X62.53Y-59.26
X62.59Y-64.66
X62.775Y-14.0
X62.775Y-15.5
X62.775Y-17.0
X63.0Y-19.757
X63.742Y-15.22
X63.742Y-16.22
X63.742Y-17.22
X63.755Y-13.455
X63.755Y-14.455
X63.76Y-49.55
X64.0Y-1.5
X64.0Y-2.5
X65.13Y-44.55
X65.13Y-45.615
X65.13Y-46.68
X66.195Y-40.25
X66.23Y-62.11
X66.23Y-63.175
X66.23Y-64.24
X66.875Y-26.05
X66.875Y-27.05
X69.94Y-61.03
X70.2Y-38.73
X70.5Y-19.0
X70.5Y-20.0
X71.455Y-61.03
X71.5Y-19.0
X71.5Y-20.0
X71.715Y-38.73
X71.83Y-49.62
X72.48Y-51.68
X72.48Y-53.195
X72.48Y-54.71
X72.97Y-43.65
X72.97Y-45.165
X72.97Y-46.68
X72.97Y-61.03
X73.0Y-10.0
X73.0Y-23.5
X73.0Y-24.5
X73.23Y-38.73
X74.0Y-10.0
X75.5Y-10.0
X76.0Y-23.5
X76.0Y-24.5
X79.5Y-23.5
X79.5Y-24.5
X82.5Y-11.5
X82.5Y-12.5
X82.5Y-13.5
X82.5Y-23.5
X82.5Y-24.5
X83.16Y-33.54
X83.16Y-34.54
X83.3Y-28.36
X83.3Y-29.36
X83.3Y-30.31
X83.3Y-31.31
X83.5Y-11.5
X83.5Y-12.5
X83.5Y-13.5
X84.16Y-33.54
X84.16Y-34.54
X84.3Y-28.36
X84.3Y-29.36
X84.3Y-30.31
X84.3Y-31.31
X85.6Y-20.625
X85.6Y-21.625
X86.2Y-25.95
X87.775Y-31.0
X87.78Y-32.54
X88.6Y-38.09
X88.6Y-39.605
X88.6Y-41.12
X88.61Y-27.84
X88.675Y-23.375
X88.675Y-24.375
X88.725Y-29.3
X89.26Y-32.31
X89.26Y-33.31
X89.625Y-21.1
X89.625Y-22.1
X90.07Y-28.2
X90.26Y-32.31
X90.26Y-33.31
X91.07Y-27.2
X91.07Y-28.2
X92.04Y-27.13
X92.04Y-28.13
X92.22Y-30.44
X92.22Y-31.44
X93.04Y-27.13
X93.04Y-28.13
X93.22Y-30.44
X93.22Y-31.44
X95.38Y-36.95
X96.71Y-50.24
X96.71Y-51.755
X96.71Y-53.27
X96.78Y-56.71
X96.78Y-58.225
X96.78Y-59.74
X96.895Y-36.95
X98.41Y-36.95
T2
X13.0Y-10.0
X15.5Y-10.0
X17.5Y-10.0
X20.0Y-10.0
X46.1Y-42.28
X46.1Y-44.78
X46.1Y-47.28
X53.0Y-10.0
X55.5Y-10.0
X57.5Y-10.0
X60.0Y-10.0
T3
X6.5Y-37.0
X6.5Y-39.54
X6.5Y-42.08
X6.5Y-44.62
X6.5Y-47.16
X6.5Y-49.7
X6.5Y-52.24
X6.5Y-54.78
X6.5Y-57.32
X6.5Y-59.86
X6.5Y-62.4
X6.5Y-64.94
X6.5Y-67.48
X6.5Y-70.02
X6.5Y-72.56
X6.5Y-75.1
X6.5Y-77.64
X6.5Y-80.18
X6.5Y-82.72
X6.5Y-85.26
X9.04Y-37.0
X9.04Y-39.54
X9.04Y-42.08
X9.04Y-44.62
X9.04Y-47.16
X9.04Y-49.7
X9.04Y-52.24
X9.04Y-54.78
X9.04Y-57.32
X9.04Y-59.86
X9.04Y-62.4
X9.04Y-64.94
X9.04Y-67.48
X9.04Y-70.02
X9.04Y-72.56
X9.04Y-75.1
X9.04Y-77.64
X9.04Y-80.18
X9.04Y-82.72
X9.04Y-85.26
X20.465Y-36.993
X20.465Y-39.533
X20.465Y-42.073
X20.465Y-44.613
X20.465Y-47.153
X20.465Y-49.693
X20.465Y-52.233
X20.465Y-54.773
X20.465Y-57.313
X20.465Y-59.853
X20.465Y-62.393
X20.465Y-64.933
X20.465Y-67.473
X20.465Y-70.013
X20.465Y-72.553
X20.465Y-75.093
X20.465Y-77.633
X20.465Y-80.173
X20.465Y-82.713
X20.465Y-85.253
X23.005Y-36.993
X23.005Y-39.533
X23.005Y-42.073
X23.005Y-44.613
X23.005Y-47.153
X23.005Y-49.693
X23.005Y-52.233
X23.005Y-54.773
X23.005Y-57.313
X23.005Y-59.853
X23.005Y-62.393
X23.005Y-64.933
X23.005Y-67.473
X23.005Y-70.013
X23.005Y-72.553
X23.005Y-75.093
X23.005Y-77.633
X23.005Y-80.173
X23.005Y-82.713
X23.005Y-85.253
X39.47Y-80.3
X39.47Y-93.0
X42.01Y-80.3
X42.01Y-93.0
X44.55Y-80.3
X44.55Y-93.0
X47.09Y-80.3
X47.09Y-93.0
X61.411Y-72.275
X61.411Y-74.815
X61.411Y-77.355
X61.411Y-79.895
X61.411Y-82.435
X61.411Y-84.975
X82.51Y-40.453
X82.51Y-42.953
X82.51Y-54.04
X82.51Y-56.54
X89.875Y-75.075
X89.875Y-77.575
T4
X45.66Y-71.265
X48.2Y-71.265
X50.74Y-71.265
X53.28Y-71.265
T5
X88.665Y-18.825
X92.625Y-18.825
T6
X9.93Y-7.29
X23.07Y-7.29
X49.93Y-7.29
X63.07Y-7.29
T7
X21.735Y-32.123
X21.735Y-90.123
X70.735Y-32.123
X70.735Y-90.123
T8
X3.5Y-3.5
X3.5Y-96.5
X96.5Y-3.5
X96.5Y-96.5
M30
