M48
; DRILL file {KiCad 9.0.2} date 2025-09-04T19:20:54+0900
; FORMAT={-:-/ absolute / metric / decimal}
; #@! TF.CreationDate,2025-09-04T19:20:54+09:00
; #@! TF.GenerationSoftware,Kicad,Pcbnew,9.0.2
; #@! TF.FileFunction,MixedPlating,1,2
FMAT,2
METRIC
; #@! TA.AperFunction,Plated,PTH,ViaDrill
T1C0.300
; #@! TA.AperFunction,Plated,PTH,ComponentDrill
T2C1.000
; #@! TA.AperFunction,Plated,PTH,ComponentDrill
T3C1.100
; #@! TA.AperFunction,Plated,PTH,ComponentDrill
T4C1.270
; #@! TA.AperFunction,Plated,PTH,ComponentDrill
T5C1.524
; #@! TA.AperFunction,NonPlated,NPTH,ComponentDrill
T6C3.200
%
G90
G05
T1
X80.0Y-94.0
X80.0Y-95.5
X80.0Y-97.0
X80.0Y-98.5
X80.0Y-100.0
X80.0Y-101.5
X80.0Y-103.0
X81.0Y-46.5
X81.0Y-48.0
X81.0Y-49.5
X81.0Y-51.0
X81.0Y-52.5
X81.0Y-54.0
X81.0Y-55.5
X81.0Y-65.5
X81.0Y-67.0
X81.0Y-68.5
X81.0Y-70.0
X81.0Y-71.5
X81.0Y-73.0
X81.0Y-74.5
X81.5Y-85.0
X81.5Y-86.5
X81.5Y-88.0
X81.5Y-89.5
X81.5Y-91.0
X81.5Y-92.5
X81.5Y-94.0
X81.5Y-104.5
X81.5Y-106.0
X81.5Y-107.5
X81.5Y-109.0
X81.5Y-110.5
X81.5Y-112.0
X81.5Y-113.5
X83.0Y-46.5
X83.0Y-48.0
X83.0Y-49.5
X83.0Y-51.0
X83.0Y-52.5
X83.0Y-54.0
X83.5Y-65.5
X83.5Y-67.0
X83.5Y-68.5
X83.5Y-70.0
X83.5Y-71.5
X83.5Y-73.0
X83.5Y-74.5
X83.5Y-85.0
X83.5Y-86.5
X83.5Y-88.0
X83.5Y-89.5
X83.5Y-91.0
X83.5Y-92.5
X83.5Y-94.0
X83.5Y-104.5
X83.5Y-106.0
X83.5Y-107.5
X83.5Y-109.0
X83.5Y-110.5
X83.5Y-112.0
X83.5Y-113.5
X84.5Y-60.5
X84.5Y-80.5
X84.5Y-101.0
X86.0Y-60.5
X86.0Y-80.5
X86.0Y-101.0
X87.0Y-42.0
X87.5Y-60.5
X87.5Y-80.5
X87.5Y-101.0
X88.5Y-42.0
X89.0Y-60.5
X89.0Y-80.5
X89.0Y-101.0
X90.0Y-42.0
X90.5Y-60.5
X90.5Y-80.5
X90.5Y-101.0
X91.5Y-42.0
X92.0Y-60.5
X92.0Y-80.5
X92.0Y-101.0
X93.0Y-42.0
X93.5Y-60.5
X93.5Y-80.5
X93.5Y-101.0
X94.5Y-42.0
X95.0Y-60.5
X95.0Y-80.5
X95.0Y-101.0
X96.0Y-42.0
X96.5Y-60.5
X96.5Y-80.5
X96.5Y-101.0
X97.5Y-42.0
X98.0Y-45.25
X98.4Y-94.85
X98.75Y-65.25
X98.75Y-105.5
X102.0Y-85.0
X102.0Y-86.5
X102.0Y-88.0
X102.0Y-89.5
X102.0Y-91.0
X102.0Y-92.5
X102.0Y-94.0
X102.5Y-42.0
X102.5Y-65.0
X102.5Y-66.5
X102.5Y-68.0
X102.5Y-69.5
X102.5Y-71.0
X102.5Y-72.5
X102.5Y-74.0
X102.5Y-80.0
X104.0Y-42.0
X104.0Y-80.0
X105.5Y-42.0
X105.5Y-80.0
X106.0Y-101.0
X107.0Y-42.0
X107.0Y-80.0
X107.5Y-101.0
X108.0Y-61.5
X108.5Y-42.0
X108.5Y-80.0
X109.0Y-101.0
X109.5Y-61.5
X110.0Y-42.0
X110.0Y-80.0
X110.5Y-101.0
X111.0Y-61.5
X111.5Y-42.0
X111.5Y-80.0
X112.0Y-101.0
X112.5Y-61.5
X113.0Y-42.0
X113.0Y-80.0
X113.5Y-101.0
X114.0Y-61.5
X114.5Y-42.0
X114.5Y-80.0
X115.0Y-101.0
X115.5Y-61.5
X116.5Y-101.0
X117.0Y-61.5
X118.0Y-65.5
X118.0Y-101.0
X118.0Y-105.75
X118.25Y-45.75
X118.25Y-85.75
X118.5Y-61.5
X120.0Y-61.5
X122.6Y-76.6
X122.6Y-80.4
X122.6Y-95.6
X123.025Y-90.0
X123.025Y-100.4
X123.5Y-50.0
X123.5Y-52.0
X124.15Y-64.2
X124.15Y-76.6
X124.15Y-80.4
X124.15Y-95.6
X124.575Y-57.6
X124.575Y-70.0
X124.575Y-100.4
X124.6Y-90.0
X125.0Y-50.0
X125.0Y-52.0
X126.0Y-107.0
X126.0Y-109.0
X126.5Y-50.0
X126.5Y-52.0
X127.5Y-107.0
X127.5Y-109.0
X128.0Y-50.0
X128.0Y-52.0
X129.0Y-107.0
X129.0Y-109.0
X129.5Y-50.0
X129.5Y-52.0
X130.5Y-107.0
X130.5Y-109.0
X131.0Y-50.0
X131.0Y-52.0
X132.0Y-107.0
X132.0Y-109.0
X132.5Y-50.0
X132.5Y-52.0
X133.5Y-107.0
X133.5Y-109.0
X134.0Y-50.0
X134.0Y-52.0
X135.0Y-107.0
X135.0Y-109.0
X135.5Y-50.0
X135.5Y-52.0
X137.6Y-64.56
X137.6Y-67.1
X137.75Y-86.07
X137.75Y-88.5
X137.75Y-101.25
X137.8Y-56.74
X137.8Y-61.8
X137.8Y-69.44
X137.8Y-72.0
X137.85Y-91.25
X137.88Y-59.2
X138.0Y-53.6
X138.06Y-94.0
X138.4Y-104.5
X138.59Y-97.0
X141.5Y-73.5
X141.5Y-75.0
X141.5Y-76.5
X141.5Y-78.0
X141.5Y-79.5
X141.5Y-81.0
X141.5Y-82.5
X141.5Y-84.0
X141.5Y-85.5
X143.5Y-73.5
X143.5Y-75.0
X143.5Y-76.5
X143.5Y-78.0
X143.5Y-79.5
X143.5Y-81.0
X143.5Y-82.5
X143.5Y-84.0
X143.5Y-85.5
X145.5Y-73.5
X145.5Y-75.0
X145.5Y-76.5
X145.5Y-78.0
X145.5Y-79.5
X145.5Y-81.0
X145.5Y-82.5
X145.5Y-84.0
X145.5Y-85.5
X147.5Y-73.5
X147.5Y-75.0
X147.5Y-76.5
X147.5Y-78.0
X147.5Y-79.5
X147.5Y-81.0
X147.5Y-82.5
X147.5Y-84.0
X147.5Y-85.5
T2
X129.46Y-60.0
X129.46Y-62.54
X129.46Y-65.08
X129.46Y-67.62
X129.46Y-70.16
X129.46Y-72.7
X129.46Y-75.24
X129.46Y-77.78
X129.46Y-80.32
X129.46Y-82.86
X129.46Y-85.4
X129.46Y-87.94
X129.46Y-90.48
X129.46Y-93.02
X129.46Y-95.56
X129.46Y-98.1
X129.46Y-100.64
X132.0Y-60.0
X132.0Y-62.54
X132.0Y-65.08
X132.0Y-67.62
X132.0Y-70.16
X132.0Y-72.7
X132.0Y-75.24
X132.0Y-77.78
X132.0Y-80.32
X132.0Y-82.86
X132.0Y-85.4
X132.0Y-87.94
X132.0Y-90.48
X132.0Y-93.02
X132.0Y-95.56
X132.0Y-98.1
X132.0Y-100.64
T3
X145.0Y-50.0
X145.0Y-52.54
X145.0Y-55.08
X145.0Y-57.62
X145.0Y-60.16
X145.0Y-62.7
X145.0Y-65.24
X145.0Y-67.78
X145.0Y-90.0
X145.0Y-92.54
X145.0Y-95.08
X145.0Y-97.62
X145.0Y-100.16
X145.0Y-102.7
X145.0Y-105.24
X145.0Y-107.78
T4
X90.0Y-50.0
X90.0Y-70.0
X90.0Y-90.0
X90.0Y-110.0
X110.0Y-50.0
X110.0Y-70.0
X110.0Y-90.0
X110.0Y-110.0
T5
X86.825Y-46.825
X86.825Y-53.175
X86.825Y-66.825
X86.825Y-73.175
X86.825Y-86.825
X86.825Y-93.175
X86.825Y-106.825
X86.825Y-113.175
X93.175Y-46.825
X93.175Y-53.175
X93.175Y-66.825
X93.175Y-73.175
X93.175Y-86.825
X93.175Y-93.175
X93.175Y-106.825
X93.175Y-113.175
X106.825Y-46.825
X106.825Y-53.175
X106.825Y-66.825
X106.825Y-73.175
X106.825Y-86.825
X106.825Y-93.175
X106.825Y-106.825
X106.825Y-113.175
X113.175Y-46.825
X113.175Y-53.175
X113.175Y-66.825
X113.175Y-73.175
X113.175Y-86.825
X113.175Y-93.175
X113.175Y-106.825
X113.175Y-113.175
T6
X80.495Y-43.088
X80.495Y-118.088
X147.495Y-43.088
X147.495Y-118.088
M30
