G04 #@! TF.GenerationSoftware,KiCad,Pcbnew,9.0.2*
G04 #@! TF.CreationDate,2025-09-04T19:20:52+09:00*
G04 #@! TF.ProjectId,panel-bncs,70616e65-6c2d-4626-9e63-732e6b696361,rev?*
G04 #@! TF.SameCoordinates,Original*
G04 #@! TF.FileFunction,Copper,L1,Top*
G04 #@! TF.FilePolarity,Positive*
%FSLAX46Y46*%
G04 Gerber Fmt 4.6, Leading zero omitted, Abs format (unit mm)*
G04 Created by KiCad (PCBNEW 9.0.2) date 2025-09-04 19:20:52*
%MOMM*%
%LPD*%
G01*
G04 APERTURE LIST*
G04 Aperture macros list*
%AMRoundRect*
0 Rectangle with rounded corners*
0 $1 Rounding radius*
0 $2 $3 $4 $5 $6 $7 $8 $9 X,Y pos of 4 corners*
0 Add a 4 corners polygon primitive as box body*
4,1,4,$2,$3,$4,$5,$6,$7,$8,$9,$2,$3,0*
0 Add four circle primitives for the rounded corners*
1,1,$1+$1,$2,$3*
1,1,$1+$1,$4,$5*
1,1,$1+$1,$6,$7*
1,1,$1+$1,$8,$9*
0 Add four rect primitives between the rounded corners*
20,1,$1+$1,$2,$3,$4,$5,0*
20,1,$1+$1,$4,$5,$6,$7,0*
20,1,$1+$1,$6,$7,$8,$9,0*
20,1,$1+$1,$8,$9,$2,$3,0*%
G04 Aperture macros list end*
G04 #@! TA.AperFunction,SMDPad,CuDef*
%ADD10RoundRect,0.225000X-0.225000X-0.250000X0.225000X-0.250000X0.225000X0.250000X-0.225000X0.250000X0*%
G04 #@! TD*
G04 #@! TA.AperFunction,ComponentPad*
%ADD11C,3.556000*%
G04 #@! TD*
G04 #@! TA.AperFunction,ComponentPad*
%ADD12C,3.810000*%
G04 #@! TD*
G04 #@! TA.AperFunction,ComponentPad*
%ADD13RoundRect,0.249999X-0.850001X0.850001X-0.850001X-0.850001X0.850001X-0.850001X0.850001X0.850001X0*%
G04 #@! TD*
G04 #@! TA.AperFunction,ComponentPad*
%ADD14C,2.200000*%
G04 #@! TD*
G04 #@! TA.AperFunction,ComponentPad*
%ADD15RoundRect,0.250000X0.600000X0.600000X-0.600000X0.600000X-0.600000X-0.600000X0.600000X-0.600000X0*%
G04 #@! TD*
G04 #@! TA.AperFunction,ComponentPad*
%ADD16C,1.700000*%
G04 #@! TD*
G04 #@! TA.AperFunction,ViaPad*
%ADD17C,0.600000*%
G04 #@! TD*
G04 #@! TA.AperFunction,Conductor*
%ADD18C,0.200000*%
G04 #@! TD*
G04 #@! TA.AperFunction,Conductor*
%ADD19C,0.400000*%
G04 #@! TD*
G04 APERTURE END LIST*
D10*
X123025000Y-90000000D03*
X124575000Y-90000000D03*
X123025000Y-70000000D03*
X124575000Y-70000000D03*
X123025000Y-100400000D03*
X124575000Y-100400000D03*
X123025000Y-57600000D03*
X124575000Y-57600000D03*
D11*
X110000000Y-70000000D03*
D12*
X106825000Y-66825000D03*
X106825000Y-73175000D03*
X113175000Y-66825000D03*
X113175000Y-73175000D03*
D11*
X90000000Y-50000000D03*
D12*
X86825000Y-46825000D03*
X86825000Y-53175000D03*
X93175000Y-46825000D03*
X93175000Y-53175000D03*
D10*
X122600000Y-64200000D03*
X124150000Y-64200000D03*
D11*
X90000000Y-70000000D03*
D12*
X86825000Y-66825000D03*
X86825000Y-73175000D03*
X93175000Y-66825000D03*
X93175000Y-73175000D03*
D11*
X90000000Y-110000000D03*
D12*
X86825000Y-106825000D03*
X86825000Y-113175000D03*
X93175000Y-106825000D03*
X93175000Y-113175000D03*
D11*
X110000000Y-110000000D03*
D12*
X106825000Y-106825000D03*
X106825000Y-113175000D03*
X113175000Y-106825000D03*
X113175000Y-113175000D03*
D10*
X122600000Y-80400000D03*
X124150000Y-80400000D03*
D11*
X90000000Y-90000000D03*
D12*
X86825000Y-86825000D03*
X86825000Y-93175000D03*
X93175000Y-86825000D03*
X93175000Y-93175000D03*
D11*
X110000000Y-50000000D03*
D12*
X106825000Y-46825000D03*
X106825000Y-53175000D03*
X113175000Y-46825000D03*
X113175000Y-53175000D03*
D11*
X110000000Y-90000000D03*
D12*
X106825000Y-86825000D03*
X106825000Y-93175000D03*
X113175000Y-86825000D03*
X113175000Y-93175000D03*
D10*
X122600000Y-95600000D03*
X124150000Y-95600000D03*
X122600000Y-76600000D03*
X124150000Y-76600000D03*
D13*
X145000000Y-90000000D03*
D14*
X145000000Y-92540000D03*
X145000000Y-95080000D03*
X145000000Y-97620000D03*
X145000000Y-100160000D03*
X145000000Y-102700000D03*
X145000000Y-105240000D03*
X145000000Y-107780000D03*
D15*
X132000000Y-60000000D03*
D16*
X129460000Y-60000000D03*
X132000000Y-62540000D03*
X129460000Y-62540000D03*
X132000000Y-65080000D03*
X129460000Y-65080000D03*
X132000000Y-67620000D03*
X129460000Y-67620000D03*
X132000000Y-70160000D03*
X129460000Y-70160000D03*
X132000000Y-72700000D03*
X129460000Y-72700000D03*
X132000000Y-75240000D03*
X129460000Y-75240000D03*
X132000000Y-77780000D03*
X129460000Y-77780000D03*
X132000000Y-80320000D03*
X129460000Y-80320000D03*
X132000000Y-82860000D03*
X129460000Y-82860000D03*
X132000000Y-85400000D03*
X129460000Y-85400000D03*
X132000000Y-87940000D03*
X129460000Y-87940000D03*
X132000000Y-90480000D03*
X129460000Y-90480000D03*
X132000000Y-93020000D03*
X129460000Y-93020000D03*
X132000000Y-95560000D03*
X129460000Y-95560000D03*
X132000000Y-98100000D03*
X129460000Y-98100000D03*
X132000000Y-100640000D03*
X129460000Y-100640000D03*
D13*
X145000000Y-50000000D03*
D14*
X145000000Y-52540000D03*
X145000000Y-55080000D03*
X145000000Y-57620000D03*
X145000000Y-60160000D03*
X145000000Y-62700000D03*
X145000000Y-65240000D03*
X145000000Y-67780000D03*
D17*
X80000000Y-98500000D03*
X80000000Y-101500000D03*
X80000000Y-97000000D03*
X80000000Y-103000000D03*
X80000000Y-95500000D03*
X80000000Y-94000000D03*
X80000000Y-100000000D03*
X81500000Y-113500000D03*
X81500000Y-107500000D03*
X81500000Y-104500000D03*
X81500000Y-110500000D03*
X81500000Y-112000000D03*
X81500000Y-109000000D03*
X81500000Y-106000000D03*
X81500000Y-94000000D03*
X81500000Y-88000000D03*
X81500000Y-85000000D03*
X81500000Y-91000000D03*
X81500000Y-92500000D03*
X81500000Y-89500000D03*
X81500000Y-86500000D03*
X81000000Y-55500000D03*
X81000000Y-49500000D03*
X81000000Y-46500000D03*
X81000000Y-52500000D03*
X81000000Y-54000000D03*
X81000000Y-51000000D03*
X81000000Y-48000000D03*
X81000000Y-74500000D03*
X81000000Y-68500000D03*
X81000000Y-65500000D03*
X81000000Y-71500000D03*
X81000000Y-73000000D03*
X81000000Y-70000000D03*
X81000000Y-67000000D03*
X83500000Y-67000000D03*
X98750000Y-105500000D03*
X125000000Y-52000000D03*
X141500000Y-78000000D03*
X147500000Y-78000000D03*
X102500000Y-66500000D03*
X83500000Y-86500000D03*
X135500000Y-52000000D03*
X90500000Y-101000000D03*
X110500000Y-101000000D03*
X117000000Y-61500000D03*
X98400000Y-94850000D03*
X83500000Y-113500000D03*
X106000000Y-101000000D03*
X143500000Y-75000000D03*
X135500000Y-50000000D03*
X83500000Y-89500000D03*
X115500000Y-61500000D03*
X114500000Y-42000000D03*
X147500000Y-73500000D03*
X123025000Y-100400000D03*
X95000000Y-80500000D03*
X102000000Y-91000000D03*
X86000000Y-60500000D03*
X134000000Y-52000000D03*
X145500000Y-78000000D03*
X98000000Y-45250000D03*
X130500000Y-109000000D03*
X90500000Y-80500000D03*
X133500000Y-107000000D03*
X84500000Y-80500000D03*
X87500000Y-101000000D03*
X108000000Y-61500000D03*
X102500000Y-65000000D03*
X145500000Y-75000000D03*
X83500000Y-112000000D03*
X83500000Y-85000000D03*
X131000000Y-50000000D03*
X83500000Y-70000000D03*
X129000000Y-107000000D03*
X110000000Y-42000000D03*
X109000000Y-101000000D03*
X84500000Y-60500000D03*
X83000000Y-48000000D03*
X143500000Y-85500000D03*
X130500000Y-107000000D03*
X87500000Y-80500000D03*
X113000000Y-80000000D03*
X141500000Y-82500000D03*
X147500000Y-76500000D03*
X147500000Y-85500000D03*
X92000000Y-60500000D03*
X91500000Y-42000000D03*
X83500000Y-92500000D03*
X143500000Y-76500000D03*
X147500000Y-81000000D03*
X89000000Y-101000000D03*
X83500000Y-107500000D03*
X109500000Y-61500000D03*
X135000000Y-109000000D03*
X102500000Y-42000000D03*
X108500000Y-42000000D03*
X114000000Y-61500000D03*
X141500000Y-75000000D03*
X111500000Y-80000000D03*
X83500000Y-104500000D03*
X125000000Y-50000000D03*
X141500000Y-76500000D03*
X108500000Y-80000000D03*
X104000000Y-42000000D03*
X143500000Y-82500000D03*
X126500000Y-52000000D03*
X84500000Y-101000000D03*
X143500000Y-81000000D03*
X118000000Y-101000000D03*
X120000000Y-61500000D03*
X87000000Y-42000000D03*
X110000000Y-80000000D03*
X122600000Y-76600000D03*
X83500000Y-106000000D03*
X102500000Y-68000000D03*
X92000000Y-101000000D03*
X102500000Y-69500000D03*
X132000000Y-109000000D03*
X123500000Y-50000000D03*
X129500000Y-50000000D03*
X83000000Y-54000000D03*
X83500000Y-73000000D03*
X131000000Y-52000000D03*
X93500000Y-60500000D03*
X83000000Y-52500000D03*
X145500000Y-81000000D03*
X129500000Y-52000000D03*
X132000000Y-107000000D03*
X107000000Y-80000000D03*
X132500000Y-50000000D03*
X122600000Y-80400000D03*
X145500000Y-82500000D03*
X83500000Y-88000000D03*
X114500000Y-80000000D03*
X123025000Y-90000000D03*
X102000000Y-94000000D03*
X118500000Y-61500000D03*
X129000000Y-109000000D03*
X96500000Y-60500000D03*
X118250000Y-45750000D03*
X102000000Y-89500000D03*
X134000000Y-50000000D03*
X127500000Y-107000000D03*
X141500000Y-73500000D03*
X96500000Y-80500000D03*
X122600000Y-95600000D03*
X105500000Y-42000000D03*
X111000000Y-61500000D03*
X107000000Y-42000000D03*
X143500000Y-79500000D03*
X133500000Y-109000000D03*
X126000000Y-107000000D03*
X112000000Y-101000000D03*
X123500000Y-52000000D03*
X115000000Y-101000000D03*
X83500000Y-71500000D03*
X116500000Y-101000000D03*
X147500000Y-79500000D03*
X147500000Y-82500000D03*
X145500000Y-73500000D03*
X105500000Y-80000000D03*
X83000000Y-51000000D03*
X113500000Y-101000000D03*
X102000000Y-92500000D03*
X118250000Y-85750000D03*
X89000000Y-80500000D03*
X92000000Y-80500000D03*
X83500000Y-91000000D03*
X118000000Y-65500000D03*
X83500000Y-110500000D03*
X83500000Y-74500000D03*
X102500000Y-71000000D03*
X88500000Y-42000000D03*
X147500000Y-75000000D03*
X128000000Y-52000000D03*
X89000000Y-60500000D03*
X83000000Y-49500000D03*
X102000000Y-85000000D03*
X128000000Y-50000000D03*
X107500000Y-101000000D03*
X83500000Y-65500000D03*
X83500000Y-109000000D03*
X96500000Y-101000000D03*
X102500000Y-72500000D03*
X113000000Y-42000000D03*
X83000000Y-46500000D03*
X118000000Y-105750000D03*
X83500000Y-68500000D03*
X141500000Y-85500000D03*
X127500000Y-109000000D03*
X93500000Y-101000000D03*
X95000000Y-101000000D03*
X86000000Y-80500000D03*
X90000000Y-42000000D03*
X135000000Y-107000000D03*
X86000000Y-101000000D03*
X94500000Y-42000000D03*
X145500000Y-85500000D03*
X102500000Y-80000000D03*
X98750000Y-65250000D03*
X93500000Y-80500000D03*
X141500000Y-79500000D03*
X102000000Y-88000000D03*
X145500000Y-79500000D03*
X145500000Y-76500000D03*
X104000000Y-80000000D03*
X102000000Y-86500000D03*
X83500000Y-94000000D03*
X90500000Y-60500000D03*
X95000000Y-60500000D03*
X111500000Y-42000000D03*
X141500000Y-84000000D03*
X143500000Y-78000000D03*
X96000000Y-42000000D03*
X126500000Y-50000000D03*
X143500000Y-73500000D03*
X87500000Y-60500000D03*
X93000000Y-42000000D03*
X141500000Y-81000000D03*
X97500000Y-42000000D03*
X126000000Y-109000000D03*
X147500000Y-84000000D03*
X102500000Y-74000000D03*
X143500000Y-84000000D03*
X145500000Y-84000000D03*
X112500000Y-61500000D03*
X132500000Y-52000000D03*
X137800000Y-56740000D03*
X137880000Y-59200000D03*
X137800000Y-61800000D03*
X137600000Y-64560000D03*
X137600000Y-67100000D03*
X137800000Y-69440000D03*
X137800000Y-72000000D03*
X137750000Y-86070000D03*
X137750000Y-101250000D03*
X124150000Y-95600000D03*
X138060000Y-94000000D03*
X124150000Y-76600000D03*
X137750000Y-88500000D03*
X124575000Y-70000000D03*
X137850000Y-91250000D03*
X124600000Y-90000000D03*
X124575000Y-57600000D03*
X124575000Y-100400000D03*
X124150000Y-80400000D03*
X138590000Y-97000000D03*
X138400000Y-104500000D03*
X124150000Y-64200000D03*
X138000000Y-53600000D03*
D18*
X137800000Y-56740000D02*
X137860000Y-56740000D01*
D19*
X142060000Y-52540000D02*
X145000000Y-52540000D01*
X137860000Y-56740000D02*
X142060000Y-52540000D01*
X137880000Y-59200000D02*
X132000000Y-65080000D01*
X141980000Y-57620000D02*
X137800000Y-61800000D01*
D18*
X142200000Y-57620000D02*
X141980000Y-57620000D01*
D19*
X142200000Y-57620000D02*
X145000000Y-57620000D01*
X137600000Y-64560000D02*
X132000000Y-70160000D01*
X137600000Y-67100000D02*
X142000000Y-62700000D01*
X142000000Y-62700000D02*
X145000000Y-62700000D01*
X137800000Y-69440000D02*
X132000000Y-75240000D01*
X142000000Y-67780000D02*
X145000000Y-67780000D01*
X142000000Y-67780000D02*
X137800000Y-71980000D01*
D18*
X137800000Y-71980000D02*
X137800000Y-72000000D01*
D19*
X145000000Y-90000000D02*
X141680000Y-90000000D01*
X141680000Y-90000000D02*
X137750000Y-86070000D01*
X137760000Y-101250000D02*
X141750000Y-105240000D01*
X141750000Y-105240000D02*
X145000000Y-105240000D01*
D18*
X137750000Y-101250000D02*
X137760000Y-101250000D01*
D19*
X138060000Y-94000000D02*
X132000000Y-87940000D01*
D18*
X137750000Y-88500000D02*
X137640000Y-88500000D01*
D19*
X137640000Y-88500000D02*
X132000000Y-82860000D01*
X141680000Y-95080000D02*
X145000000Y-95080000D01*
X141680000Y-95080000D02*
X137850000Y-91250000D01*
X141750000Y-100160000D02*
X138590000Y-97000000D01*
X141750000Y-100160000D02*
X145000000Y-100160000D01*
X138400000Y-104500000D02*
X132000000Y-98100000D01*
X132000000Y-59600000D02*
X132000000Y-60000000D01*
X138000000Y-53600000D02*
X132000000Y-59600000D01*
G04 #@! TA.AperFunction,Conductor*
G36*
X147928792Y-40088446D02*
G01*
X147990934Y-40088445D01*
X147998420Y-40088670D01*
X148288479Y-40106214D01*
X148303341Y-40108018D01*
X148585483Y-40159722D01*
X148600009Y-40163303D01*
X148873853Y-40248636D01*
X148887845Y-40253941D01*
X149149422Y-40371667D01*
X149162668Y-40378620D01*
X149408143Y-40527015D01*
X149420454Y-40535513D01*
X149646245Y-40712409D01*
X149657454Y-40722339D01*
X149860274Y-40925161D01*
X149870203Y-40936369D01*
X150047097Y-41162160D01*
X150055603Y-41174484D01*
X150203985Y-41419943D01*
X150210944Y-41433202D01*
X150328660Y-41694763D01*
X150333970Y-41708764D01*
X150419301Y-41982611D01*
X150422884Y-41997150D01*
X150474582Y-42279277D01*
X150476387Y-42294142D01*
X150493954Y-42584627D01*
X150494180Y-42592110D01*
X150494180Y-42624275D01*
X150494180Y-42653830D01*
X150494180Y-42653832D01*
X150494181Y-42663824D01*
X150494181Y-118584183D01*
X150493955Y-118591672D01*
X150476405Y-118881734D01*
X150474599Y-118896599D01*
X150422894Y-119178716D01*
X150419311Y-119193254D01*
X150333975Y-119467097D01*
X150328665Y-119481098D01*
X150210943Y-119742657D01*
X150203984Y-119755915D01*
X150055596Y-120001371D01*
X150047090Y-120013694D01*
X149870194Y-120239480D01*
X149860264Y-120250688D01*
X149657450Y-120453498D01*
X149646242Y-120463428D01*
X149420446Y-120640323D01*
X149408123Y-120648828D01*
X149162667Y-120797209D01*
X149149408Y-120804168D01*
X148887850Y-120921883D01*
X148873849Y-120927193D01*
X148600005Y-121012524D01*
X148585467Y-121016107D01*
X148303341Y-121067806D01*
X148288476Y-121069611D01*
X147997360Y-121087218D01*
X147989876Y-121087444D01*
X147958698Y-121087444D01*
X147928792Y-121087444D01*
X147928788Y-121087444D01*
X147921184Y-121087445D01*
X147921183Y-121087444D01*
X147921182Y-121087445D01*
X79998437Y-121087445D01*
X79990949Y-121087219D01*
X79990932Y-121087218D01*
X79988122Y-121087048D01*
X79700887Y-121069671D01*
X79686023Y-121067866D01*
X79403887Y-121016162D01*
X79389348Y-121012578D01*
X79115510Y-120927246D01*
X79101510Y-120921937D01*
X78839943Y-120804216D01*
X78826684Y-120797257D01*
X78581219Y-120648868D01*
X78568896Y-120640362D01*
X78568846Y-120640323D01*
X78343107Y-120463468D01*
X78331899Y-120453539D01*
X78129073Y-120250716D01*
X78119144Y-120239508D01*
X77942249Y-120013720D01*
X77933743Y-120001397D01*
X77876546Y-119906783D01*
X77785348Y-119755927D01*
X77778396Y-119742681D01*
X77660673Y-119481115D01*
X77655363Y-119467115D01*
X77570026Y-119193271D01*
X77566442Y-119178732D01*
X77555355Y-119118238D01*
X77514732Y-118896582D01*
X77512930Y-118881744D01*
X77495407Y-118592101D01*
X77495181Y-118584613D01*
X77495181Y-117966656D01*
X78644181Y-117966656D01*
X78644181Y-118209233D01*
X78675842Y-118449730D01*
X78738628Y-118684049D01*
X78831454Y-118908150D01*
X78831457Y-118908157D01*
X78952745Y-119118234D01*
X78952747Y-119118237D01*
X78952748Y-119118238D01*
X79100414Y-119310681D01*
X79100420Y-119310688D01*
X79271937Y-119482205D01*
X79271943Y-119482210D01*
X79464392Y-119629881D01*
X79674469Y-119751169D01*
X79898581Y-119843999D01*
X80132892Y-119906783D01*
X80313267Y-119930529D01*
X80373392Y-119938445D01*
X80373393Y-119938445D01*
X80615970Y-119938445D01*
X80664069Y-119932112D01*
X80856470Y-119906783D01*
X81090781Y-119843999D01*
X81314893Y-119751169D01*
X81524970Y-119629881D01*
X81717419Y-119482210D01*
X81888946Y-119310683D01*
X82036617Y-119118234D01*
X82157905Y-118908157D01*
X82250735Y-118684045D01*
X82313519Y-118449734D01*
X82345181Y-118209233D01*
X82345181Y-117966657D01*
X82345181Y-117966656D01*
X145644181Y-117966656D01*
X145644181Y-118209233D01*
X145675842Y-118449730D01*
X145738628Y-118684049D01*
X145831454Y-118908150D01*
X145831457Y-118908157D01*
X145952745Y-119118234D01*
X145952747Y-119118237D01*
X145952748Y-119118238D01*
X146100414Y-119310681D01*
X146100420Y-119310688D01*
X146271937Y-119482205D01*
X146271943Y-119482210D01*
X146464392Y-119629881D01*
X146674469Y-119751169D01*
X146898581Y-119843999D01*
X147132892Y-119906783D01*
X147313267Y-119930529D01*
X147373392Y-119938445D01*
X147373393Y-119938445D01*
X147615970Y-119938445D01*
X147664069Y-119932112D01*
X147856470Y-119906783D01*
X148090781Y-119843999D01*
X148314893Y-119751169D01*
X148524970Y-119629881D01*
X148717419Y-119482210D01*
X148888946Y-119310683D01*
X149036617Y-119118234D01*
X149157905Y-118908157D01*
X149250735Y-118684045D01*
X149313519Y-118449734D01*
X149345181Y-118209233D01*
X149345181Y-117966657D01*
X149313519Y-117726156D01*
X149250735Y-117491845D01*
X149157905Y-117267733D01*
X149036617Y-117057656D01*
X148888946Y-116865207D01*
X148888941Y-116865201D01*
X148717424Y-116693684D01*
X148717417Y-116693678D01*
X148524974Y-116546012D01*
X148524973Y-116546011D01*
X148524970Y-116546009D01*
X148314893Y-116424721D01*
X148314886Y-116424718D01*
X148090785Y-116331892D01*
X147856466Y-116269106D01*
X147615970Y-116237445D01*
X147615969Y-116237445D01*
X147373393Y-116237445D01*
X147373392Y-116237445D01*
X147132895Y-116269106D01*
X146898576Y-116331892D01*
X146674475Y-116424718D01*
X146674466Y-116424722D01*
X146464387Y-116546012D01*
X146271944Y-116693678D01*
X146271937Y-116693684D01*
X146100420Y-116865201D01*
X146100414Y-116865208D01*
X145952748Y-117057651D01*
X145831458Y-117267730D01*
X145831454Y-117267739D01*
X145738628Y-117491840D01*
X145675842Y-117726159D01*
X145644181Y-117966656D01*
X82345181Y-117966656D01*
X82313519Y-117726156D01*
X82250735Y-117491845D01*
X82157905Y-117267733D01*
X82036617Y-117057656D01*
X81888946Y-116865207D01*
X81888941Y-116865201D01*
X81717424Y-116693684D01*
X81717417Y-116693678D01*
X81524974Y-116546012D01*
X81524973Y-116546011D01*
X81524970Y-116546009D01*
X81314893Y-116424721D01*
X81314886Y-116424718D01*
X81090785Y-116331892D01*
X80856466Y-116269106D01*
X80615970Y-116237445D01*
X80615969Y-116237445D01*
X80373393Y-116237445D01*
X80373392Y-116237445D01*
X80132895Y-116269106D01*
X79898576Y-116331892D01*
X79674475Y-116424718D01*
X79674466Y-116424722D01*
X79464387Y-116546012D01*
X79271944Y-116693678D01*
X79271937Y-116693684D01*
X79100420Y-116865201D01*
X79100414Y-116865208D01*
X78952748Y-117057651D01*
X78831458Y-117267730D01*
X78831454Y-117267739D01*
X78738628Y-117491840D01*
X78675842Y-117726159D01*
X78644181Y-117966656D01*
X77495181Y-117966656D01*
X77495181Y-109850665D01*
X87721500Y-109850665D01*
X87721500Y-110149334D01*
X87721501Y-110149350D01*
X87760484Y-110445456D01*
X87760485Y-110445461D01*
X87760486Y-110445467D01*
X87837790Y-110733971D01*
X87942283Y-110986240D01*
X87952088Y-111009910D01*
X87952092Y-111009920D01*
X88101430Y-111268582D01*
X88283255Y-111505541D01*
X88283261Y-111505548D01*
X88494451Y-111716738D01*
X88494458Y-111716744D01*
X88731417Y-111898569D01*
X88990079Y-112047907D01*
X88990080Y-112047907D01*
X88990083Y-112047909D01*
X89266029Y-112162210D01*
X89554533Y-112239514D01*
X89850659Y-112278500D01*
X89850666Y-112278500D01*
X90149334Y-112278500D01*
X90149341Y-112278500D01*
X90445467Y-112239514D01*
X90733971Y-112162210D01*
X91009917Y-112047909D01*
X91268583Y-111898569D01*
X91505543Y-111716743D01*
X91716743Y-111505543D01*
X91898569Y-111268583D01*
X92047909Y-111009917D01*
X92162210Y-110733971D01*
X92239514Y-110445467D01*
X92278500Y-110149341D01*
X92278500Y-109850665D01*
X107721500Y-109850665D01*
X107721500Y-110149334D01*
X107721501Y-110149350D01*
X107760484Y-110445456D01*
X107760485Y-110445461D01*
X107760486Y-110445467D01*
X107837790Y-110733971D01*
X107942283Y-110986240D01*
X107952088Y-111009910D01*
X107952092Y-111009920D01*
X108101430Y-111268582D01*
X108283255Y-111505541D01*
X108283261Y-111505548D01*
X108494451Y-111716738D01*
X108494458Y-111716744D01*
X108731417Y-111898569D01*
X108990079Y-112047907D01*
X108990080Y-112047907D01*
X108990083Y-112047909D01*
X109266029Y-112162210D01*
X109554533Y-112239514D01*
X109850659Y-112278500D01*
X109850666Y-112278500D01*
X110149334Y-112278500D01*
X110149341Y-112278500D01*
X110445467Y-112239514D01*
X110733971Y-112162210D01*
X111009917Y-112047909D01*
X111268583Y-111898569D01*
X111505543Y-111716743D01*
X111716743Y-111505543D01*
X111898569Y-111268583D01*
X112047909Y-111009917D01*
X112162210Y-110733971D01*
X112239514Y-110445467D01*
X112278500Y-110149341D01*
X112278500Y-109850659D01*
X112239514Y-109554533D01*
X112162210Y-109266029D01*
X112047909Y-108990083D01*
X111951244Y-108822654D01*
X111898569Y-108731417D01*
X111716744Y-108494458D01*
X111716738Y-108494451D01*
X111505548Y-108283261D01*
X111505541Y-108283255D01*
X111268582Y-108101430D01*
X111009920Y-107952092D01*
X111009910Y-107952088D01*
X110986240Y-107942283D01*
X110733971Y-107837790D01*
X110445467Y-107760486D01*
X110445461Y-107760485D01*
X110445456Y-107760484D01*
X110149350Y-107721501D01*
X110149347Y-107721500D01*
X110149341Y-107721500D01*
X109850659Y-107721500D01*
X109850653Y-107721500D01*
X109850649Y-107721501D01*
X109554543Y-107760484D01*
X109554536Y-107760485D01*
X109554533Y-107760486D01*
X109266029Y-107837790D01*
X109111320Y-107901872D01*
X108990089Y-107952088D01*
X108990079Y-107952092D01*
X108731417Y-108101430D01*
X108494458Y-108283255D01*
X108494451Y-108283261D01*
X108283261Y-108494451D01*
X108283255Y-108494458D01*
X108101430Y-108731417D01*
X107952092Y-108990079D01*
X107952088Y-108990089D01*
X107901872Y-109111320D01*
X107837790Y-109266029D01*
X107837789Y-109266033D01*
X107760487Y-109554530D01*
X107760484Y-109554543D01*
X107721501Y-109850649D01*
X107721500Y-109850665D01*
X92278500Y-109850665D01*
X92278500Y-109850659D01*
X92239514Y-109554533D01*
X92162210Y-109266029D01*
X92047909Y-108990083D01*
X91951244Y-108822654D01*
X91898569Y-108731417D01*
X91716744Y-108494458D01*
X91716738Y-108494451D01*
X91505548Y-108283261D01*
X91505541Y-108283255D01*
X91268582Y-108101430D01*
X91009920Y-107952092D01*
X91009910Y-107952088D01*
X90986240Y-107942283D01*
X90733971Y-107837790D01*
X90445467Y-107760486D01*
X90445461Y-107760485D01*
X90445456Y-107760484D01*
X90149350Y-107721501D01*
X90149347Y-107721500D01*
X90149341Y-107721500D01*
X89850659Y-107721500D01*
X89850653Y-107721500D01*
X89850649Y-107721501D01*
X89554543Y-107760484D01*
X89554536Y-107760485D01*
X89554533Y-107760486D01*
X89266029Y-107837790D01*
X89111320Y-107901872D01*
X88990089Y-107952088D01*
X88990079Y-107952092D01*
X88731417Y-108101430D01*
X88494458Y-108283255D01*
X88494451Y-108283261D01*
X88283261Y-108494451D01*
X88283255Y-108494458D01*
X88101430Y-108731417D01*
X87952092Y-108990079D01*
X87952088Y-108990089D01*
X87901872Y-109111320D01*
X87837790Y-109266029D01*
X87837789Y-109266033D01*
X87760487Y-109554530D01*
X87760484Y-109554543D01*
X87721501Y-109850649D01*
X87721500Y-109850665D01*
X77495181Y-109850665D01*
X77495181Y-100698322D01*
X122075001Y-100698322D01*
X122085144Y-100797607D01*
X122138452Y-100958481D01*
X122138457Y-100958492D01*
X122227424Y-101102728D01*
X122227427Y-101102732D01*
X122347267Y-101222572D01*
X122347271Y-101222575D01*
X122491507Y-101311542D01*
X122491518Y-101311547D01*
X122652393Y-101364855D01*
X122751683Y-101374999D01*
X122775000Y-101374998D01*
X122775000Y-100650000D01*
X122075001Y-100650000D01*
X122075001Y-100698322D01*
X77495181Y-100698322D01*
X77495181Y-100101677D01*
X122075000Y-100101677D01*
X122075000Y-100150000D01*
X122775000Y-100150000D01*
X122775000Y-99425000D01*
X123275000Y-99425000D01*
X123275000Y-101374999D01*
X123298308Y-101374999D01*
X123298322Y-101374998D01*
X123397607Y-101364855D01*
X123558481Y-101311547D01*
X123558492Y-101311542D01*
X123702731Y-101222573D01*
X123711959Y-101213345D01*
X123773279Y-101179856D01*
X123842971Y-101184835D01*
X123887327Y-101213339D01*
X123896955Y-101222967D01*
X123896959Y-101222970D01*
X124041294Y-101311998D01*
X124041297Y-101311999D01*
X124041303Y-101312003D01*
X124202292Y-101365349D01*
X124301655Y-101375500D01*
X124848344Y-101375499D01*
X124848352Y-101375498D01*
X124848355Y-101375498D01*
X124902760Y-101369940D01*
X124947708Y-101365349D01*
X125108697Y-101312003D01*
X125253044Y-101222968D01*
X125372968Y-101103044D01*
X125462003Y-100958697D01*
X125515349Y-100797708D01*
X125525500Y-100698345D01*
X125525499Y-100101656D01*
X125515349Y-100002292D01*
X125462003Y-99841303D01*
X125461999Y-99841297D01*
X125461998Y-99841294D01*
X125372970Y-99696959D01*
X125372967Y-99696955D01*
X125253044Y-99577032D01*
X125253040Y-99577029D01*
X125108705Y-99488001D01*
X125108699Y-99487998D01*
X125108697Y-99487997D01*
X125025737Y-99460507D01*
X124947709Y-99434651D01*
X124848346Y-99424500D01*
X124301662Y-99424500D01*
X124301644Y-99424501D01*
X124202292Y-99434650D01*
X124202289Y-99434651D01*
X124041305Y-99487996D01*
X124041294Y-99488001D01*
X123896959Y-99577029D01*
X123896953Y-99577033D01*
X123887324Y-99586663D01*
X123826000Y-99620146D01*
X123756308Y-99615159D01*
X123711965Y-99586660D01*
X123702732Y-99577427D01*
X123702728Y-99577424D01*
X123558492Y-99488457D01*
X123558481Y-99488452D01*
X123397606Y-99435144D01*
X123298322Y-99425000D01*
X123275000Y-99425000D01*
X122775000Y-99425000D01*
X122775000Y-99424999D01*
X122751693Y-99425000D01*
X122751674Y-99425001D01*
X122652392Y-99435144D01*
X122491518Y-99488452D01*
X122491507Y-99488457D01*
X122347271Y-99577424D01*
X122347267Y-99577427D01*
X122227427Y-99697267D01*
X122227424Y-99697271D01*
X122138457Y-99841507D01*
X122138452Y-99841518D01*
X122085144Y-100002393D01*
X122075000Y-100101677D01*
X77495181Y-100101677D01*
X77495181Y-95898322D01*
X121650001Y-95898322D01*
X121660144Y-95997607D01*
X121713452Y-96158481D01*
X121713457Y-96158492D01*
X121802424Y-96302728D01*
X121802427Y-96302732D01*
X121922267Y-96422572D01*
X121922271Y-96422575D01*
X122066507Y-96511542D01*
X122066518Y-96511547D01*
X122227393Y-96564855D01*
X122326683Y-96574999D01*
X122350000Y-96574998D01*
X122350000Y-95850000D01*
X121650001Y-95850000D01*
X121650001Y-95898322D01*
X77495181Y-95898322D01*
X77495181Y-95301677D01*
X121650000Y-95301677D01*
X121650000Y-95350000D01*
X122350000Y-95350000D01*
X122350000Y-94625000D01*
X122850000Y-94625000D01*
X122850000Y-96574999D01*
X122873308Y-96574999D01*
X122873322Y-96574998D01*
X122972607Y-96564855D01*
X123133481Y-96511547D01*
X123133492Y-96511542D01*
X123277731Y-96422573D01*
X123286959Y-96413345D01*
X123348279Y-96379856D01*
X123417971Y-96384835D01*
X123462327Y-96413339D01*
X123471955Y-96422967D01*
X123471959Y-96422970D01*
X123616294Y-96511998D01*
X123616297Y-96511999D01*
X123616303Y-96512003D01*
X123777292Y-96565349D01*
X123876655Y-96575500D01*
X124423344Y-96575499D01*
X124423352Y-96575498D01*
X124423355Y-96575498D01*
X124477760Y-96569940D01*
X124522708Y-96565349D01*
X124683697Y-96512003D01*
X124828044Y-96422968D01*
X124947968Y-96303044D01*
X125037003Y-96158697D01*
X125090349Y-95997708D01*
X125100500Y-95898345D01*
X125100499Y-95301656D01*
X125090349Y-95202292D01*
X125037003Y-95041303D01*
X125036999Y-95041297D01*
X125036998Y-95041294D01*
X124947970Y-94896959D01*
X124947967Y-94896955D01*
X124828044Y-94777032D01*
X124828040Y-94777029D01*
X124683705Y-94688001D01*
X124683699Y-94687998D01*
X124683697Y-94687997D01*
X124660191Y-94680208D01*
X124522709Y-94634651D01*
X124423346Y-94624500D01*
X123876662Y-94624500D01*
X123876644Y-94624501D01*
X123777292Y-94634650D01*
X123777289Y-94634651D01*
X123616305Y-94687996D01*
X123616294Y-94688001D01*
X123471959Y-94777029D01*
X123471953Y-94777033D01*
X123462324Y-94786663D01*
X123401000Y-94820146D01*
X123331308Y-94815159D01*
X123286965Y-94786660D01*
X123277732Y-94777427D01*
X123277728Y-94777424D01*
X123133492Y-94688457D01*
X123133481Y-94688452D01*
X122972606Y-94635144D01*
X122873322Y-94625000D01*
X122850000Y-94625000D01*
X122350000Y-94625000D01*
X122350000Y-94624999D01*
X122326693Y-94625000D01*
X122326674Y-94625001D01*
X122227392Y-94635144D01*
X122066518Y-94688452D01*
X122066507Y-94688457D01*
X121922271Y-94777424D01*
X121922267Y-94777427D01*
X121802427Y-94897267D01*
X121802424Y-94897271D01*
X121713457Y-95041507D01*
X121713452Y-95041518D01*
X121660144Y-95202393D01*
X121650000Y-95301677D01*
X77495181Y-95301677D01*
X77495181Y-89850665D01*
X87721500Y-89850665D01*
X87721500Y-90149334D01*
X87721501Y-90149350D01*
X87760484Y-90445456D01*
X87760485Y-90445461D01*
X87760486Y-90445467D01*
X87837790Y-90733971D01*
X87911534Y-90912003D01*
X87952088Y-91009910D01*
X87952092Y-91009920D01*
X88101430Y-91268582D01*
X88283255Y-91505541D01*
X88283261Y-91505548D01*
X88494451Y-91716738D01*
X88494458Y-91716744D01*
X88731417Y-91898569D01*
X88990079Y-92047907D01*
X88990080Y-92047907D01*
X88990083Y-92047909D01*
X89266029Y-92162210D01*
X89554533Y-92239514D01*
X89850659Y-92278500D01*
X89850666Y-92278500D01*
X90149334Y-92278500D01*
X90149341Y-92278500D01*
X90445467Y-92239514D01*
X90733971Y-92162210D01*
X91009917Y-92047909D01*
X91268583Y-91898569D01*
X91505543Y-91716743D01*
X91716743Y-91505543D01*
X91898569Y-91268583D01*
X92047909Y-91009917D01*
X92162210Y-90733971D01*
X92239514Y-90445467D01*
X92278500Y-90149341D01*
X92278500Y-89850665D01*
X107721500Y-89850665D01*
X107721500Y-90149334D01*
X107721501Y-90149350D01*
X107760484Y-90445456D01*
X107760485Y-90445461D01*
X107760486Y-90445467D01*
X107837790Y-90733971D01*
X107911534Y-90912003D01*
X107952088Y-91009910D01*
X107952092Y-91009920D01*
X108101430Y-91268582D01*
X108283255Y-91505541D01*
X108283261Y-91505548D01*
X108494451Y-91716738D01*
X108494458Y-91716744D01*
X108731417Y-91898569D01*
X108990079Y-92047907D01*
X108990080Y-92047907D01*
X108990083Y-92047909D01*
X109266029Y-92162210D01*
X109554533Y-92239514D01*
X109850659Y-92278500D01*
X109850666Y-92278500D01*
X110149334Y-92278500D01*
X110149341Y-92278500D01*
X110445467Y-92239514D01*
X110733971Y-92162210D01*
X111009917Y-92047909D01*
X111268583Y-91898569D01*
X111505543Y-91716743D01*
X111716743Y-91505543D01*
X111898569Y-91268583D01*
X112047909Y-91009917D01*
X112162210Y-90733971D01*
X112239514Y-90445467D01*
X112258886Y-90298322D01*
X122075001Y-90298322D01*
X122085144Y-90397607D01*
X122138452Y-90558481D01*
X122138457Y-90558492D01*
X122227424Y-90702728D01*
X122227427Y-90702732D01*
X122347267Y-90822572D01*
X122347271Y-90822575D01*
X122491507Y-90911542D01*
X122491518Y-90911547D01*
X122652393Y-90964855D01*
X122751683Y-90974999D01*
X122775000Y-90974998D01*
X122775000Y-90250000D01*
X122075001Y-90250000D01*
X122075001Y-90298322D01*
X112258886Y-90298322D01*
X112278500Y-90149341D01*
X112278500Y-89850659D01*
X112278220Y-89848536D01*
X112260602Y-89714714D01*
X112260602Y-89714713D01*
X112258886Y-89701677D01*
X122075000Y-89701677D01*
X122075000Y-89750000D01*
X122775000Y-89750000D01*
X122775000Y-89025000D01*
X123275000Y-89025000D01*
X123275000Y-90974999D01*
X123298308Y-90974999D01*
X123298322Y-90974998D01*
X123397607Y-90964855D01*
X123558481Y-90911547D01*
X123558492Y-90911542D01*
X123702731Y-90822573D01*
X123711959Y-90813345D01*
X123773279Y-90779856D01*
X123842971Y-90784835D01*
X123887327Y-90813339D01*
X123896955Y-90822967D01*
X123896959Y-90822970D01*
X124041294Y-90911998D01*
X124041297Y-90911999D01*
X124041303Y-90912003D01*
X124202292Y-90965349D01*
X124301655Y-90975500D01*
X124848344Y-90975499D01*
X124848352Y-90975498D01*
X124848355Y-90975498D01*
X124902760Y-90969940D01*
X124947708Y-90965349D01*
X125108697Y-90912003D01*
X125253044Y-90822968D01*
X125372968Y-90703044D01*
X125462003Y-90558697D01*
X125515349Y-90397708D01*
X125525500Y-90298345D01*
X125525499Y-89701656D01*
X125515349Y-89602292D01*
X125462003Y-89441303D01*
X125461999Y-89441297D01*
X125461998Y-89441294D01*
X125372970Y-89296959D01*
X125372967Y-89296955D01*
X125253044Y-89177032D01*
X125253040Y-89177029D01*
X125108705Y-89088001D01*
X125108699Y-89087998D01*
X125108697Y-89087997D01*
X125108694Y-89087996D01*
X124947709Y-89034651D01*
X124848346Y-89024500D01*
X124301662Y-89024500D01*
X124301644Y-89024501D01*
X124202292Y-89034650D01*
X124202289Y-89034651D01*
X124041305Y-89087996D01*
X124041294Y-89088001D01*
X123896959Y-89177029D01*
X123896953Y-89177033D01*
X123887324Y-89186663D01*
X123826000Y-89220146D01*
X123756308Y-89215159D01*
X123711965Y-89186660D01*
X123702732Y-89177427D01*
X123702728Y-89177424D01*
X123558492Y-89088457D01*
X123558481Y-89088452D01*
X123397606Y-89035144D01*
X123298322Y-89025000D01*
X123275000Y-89025000D01*
X122775000Y-89025000D01*
X122775000Y-89024999D01*
X122751693Y-89025000D01*
X122751674Y-89025001D01*
X122652392Y-89035144D01*
X122491518Y-89088452D01*
X122491507Y-89088457D01*
X122347271Y-89177424D01*
X122347267Y-89177427D01*
X122227427Y-89297267D01*
X122227424Y-89297271D01*
X122138457Y-89441507D01*
X122138452Y-89441518D01*
X122085144Y-89602393D01*
X122075000Y-89701677D01*
X112258886Y-89701677D01*
X112258883Y-89701655D01*
X112239514Y-89554533D01*
X112162210Y-89266029D01*
X112047909Y-88990083D01*
X112004902Y-88915593D01*
X111898569Y-88731417D01*
X111716744Y-88494458D01*
X111716738Y-88494451D01*
X111505548Y-88283261D01*
X111505541Y-88283255D01*
X111268582Y-88101430D01*
X111009920Y-87952092D01*
X111009910Y-87952088D01*
X110956061Y-87929783D01*
X110733971Y-87837790D01*
X110445467Y-87760486D01*
X110445461Y-87760485D01*
X110445456Y-87760484D01*
X110149350Y-87721501D01*
X110149347Y-87721500D01*
X110149341Y-87721500D01*
X109850659Y-87721500D01*
X109850653Y-87721500D01*
X109850649Y-87721501D01*
X109554543Y-87760484D01*
X109554536Y-87760485D01*
X109554533Y-87760486D01*
X109266029Y-87837790D01*
X109111320Y-87901872D01*
X108990089Y-87952088D01*
X108990079Y-87952092D01*
X108731417Y-88101430D01*
X108494458Y-88283255D01*
X108494451Y-88283261D01*
X108283261Y-88494451D01*
X108283255Y-88494458D01*
X108101430Y-88731417D01*
X107952092Y-88990079D01*
X107952088Y-88990089D01*
X107911532Y-89088001D01*
X107837790Y-89266029D01*
X107829504Y-89296955D01*
X107760487Y-89554530D01*
X107760484Y-89554543D01*
X107721501Y-89850649D01*
X107721500Y-89850665D01*
X92278500Y-89850665D01*
X92278500Y-89850659D01*
X92239514Y-89554533D01*
X92162210Y-89266029D01*
X92047909Y-88990083D01*
X92004902Y-88915593D01*
X91898569Y-88731417D01*
X91716744Y-88494458D01*
X91716738Y-88494451D01*
X91505548Y-88283261D01*
X91505541Y-88283255D01*
X91268582Y-88101430D01*
X91009920Y-87952092D01*
X91009910Y-87952088D01*
X90956061Y-87929783D01*
X90733971Y-87837790D01*
X90445467Y-87760486D01*
X90445461Y-87760485D01*
X90445456Y-87760484D01*
X90149350Y-87721501D01*
X90149347Y-87721500D01*
X90149341Y-87721500D01*
X89850659Y-87721500D01*
X89850653Y-87721500D01*
X89850649Y-87721501D01*
X89554543Y-87760484D01*
X89554536Y-87760485D01*
X89554533Y-87760486D01*
X89266029Y-87837790D01*
X89111320Y-87901872D01*
X88990089Y-87952088D01*
X88990079Y-87952092D01*
X88731417Y-88101430D01*
X88494458Y-88283255D01*
X88494451Y-88283261D01*
X88283261Y-88494451D01*
X88283255Y-88494458D01*
X88101430Y-88731417D01*
X87952092Y-88990079D01*
X87952088Y-88990089D01*
X87911532Y-89088001D01*
X87837790Y-89266029D01*
X87829504Y-89296955D01*
X87760487Y-89554530D01*
X87760484Y-89554543D01*
X87721501Y-89850649D01*
X87721500Y-89850665D01*
X77495181Y-89850665D01*
X77495181Y-80698322D01*
X121650001Y-80698322D01*
X121660144Y-80797607D01*
X121713452Y-80958481D01*
X121713457Y-80958492D01*
X121802424Y-81102728D01*
X121802427Y-81102732D01*
X121922267Y-81222572D01*
X121922271Y-81222575D01*
X122066507Y-81311542D01*
X122066518Y-81311547D01*
X122227393Y-81364855D01*
X122326683Y-81374999D01*
X122350000Y-81374998D01*
X122350000Y-80650000D01*
X121650001Y-80650000D01*
X121650001Y-80698322D01*
X77495181Y-80698322D01*
X77495181Y-80101677D01*
X121650000Y-80101677D01*
X121650000Y-80150000D01*
X122350000Y-80150000D01*
X122350000Y-79425000D01*
X122850000Y-79425000D01*
X122850000Y-81374999D01*
X122873308Y-81374999D01*
X122873322Y-81374998D01*
X122972607Y-81364855D01*
X123133481Y-81311547D01*
X123133492Y-81311542D01*
X123277731Y-81222573D01*
X123286959Y-81213345D01*
X123348279Y-81179856D01*
X123417971Y-81184835D01*
X123462327Y-81213339D01*
X123471955Y-81222967D01*
X123471959Y-81222970D01*
X123616294Y-81311998D01*
X123616297Y-81311999D01*
X123616303Y-81312003D01*
X123777292Y-81365349D01*
X123876655Y-81375500D01*
X124423344Y-81375499D01*
X124423352Y-81375498D01*
X124423355Y-81375498D01*
X124477760Y-81369940D01*
X124522708Y-81365349D01*
X124683697Y-81312003D01*
X124828044Y-81222968D01*
X124947968Y-81103044D01*
X125037003Y-80958697D01*
X125090349Y-80797708D01*
X125100500Y-80698345D01*
X125100499Y-80101656D01*
X125090349Y-80002292D01*
X125037003Y-79841303D01*
X125036999Y-79841297D01*
X125036998Y-79841294D01*
X124947970Y-79696959D01*
X124947967Y-79696955D01*
X124828044Y-79577032D01*
X124828040Y-79577029D01*
X124683705Y-79488001D01*
X124683699Y-79487998D01*
X124683697Y-79487997D01*
X124683694Y-79487996D01*
X124522709Y-79434651D01*
X124423346Y-79424500D01*
X123876662Y-79424500D01*
X123876644Y-79424501D01*
X123777292Y-79434650D01*
X123777289Y-79434651D01*
X123616305Y-79487996D01*
X123616294Y-79488001D01*
X123471959Y-79577029D01*
X123471953Y-79577033D01*
X123462324Y-79586663D01*
X123401000Y-79620146D01*
X123331308Y-79615159D01*
X123286965Y-79586660D01*
X123277732Y-79577427D01*
X123277728Y-79577424D01*
X123133492Y-79488457D01*
X123133481Y-79488452D01*
X122972606Y-79435144D01*
X122873322Y-79425000D01*
X122850000Y-79425000D01*
X122350000Y-79425000D01*
X122350000Y-79424999D01*
X122326693Y-79425000D01*
X122326674Y-79425001D01*
X122227392Y-79435144D01*
X122066518Y-79488452D01*
X122066507Y-79488457D01*
X121922271Y-79577424D01*
X121922267Y-79577427D01*
X121802427Y-79697267D01*
X121802424Y-79697271D01*
X121713457Y-79841507D01*
X121713452Y-79841518D01*
X121660144Y-80002393D01*
X121650000Y-80101677D01*
X77495181Y-80101677D01*
X77495181Y-76898322D01*
X121650001Y-76898322D01*
X121660144Y-76997607D01*
X121713452Y-77158481D01*
X121713457Y-77158492D01*
X121802424Y-77302728D01*
X121802427Y-77302732D01*
X121922267Y-77422572D01*
X121922271Y-77422575D01*
X122066507Y-77511542D01*
X122066518Y-77511547D01*
X122227393Y-77564855D01*
X122326683Y-77574999D01*
X122350000Y-77574998D01*
X122350000Y-76850000D01*
X121650001Y-76850000D01*
X121650001Y-76898322D01*
X77495181Y-76898322D01*
X77495181Y-76301677D01*
X121650000Y-76301677D01*
X121650000Y-76350000D01*
X122350000Y-76350000D01*
X122350000Y-75625000D01*
X122850000Y-75625000D01*
X122850000Y-77574999D01*
X122873308Y-77574999D01*
X122873322Y-77574998D01*
X122972607Y-77564855D01*
X123133481Y-77511547D01*
X123133492Y-77511542D01*
X123277731Y-77422573D01*
X123286959Y-77413345D01*
X123348279Y-77379856D01*
X123417971Y-77384835D01*
X123462327Y-77413339D01*
X123471955Y-77422967D01*
X123471959Y-77422970D01*
X123616294Y-77511998D01*
X123616297Y-77511999D01*
X123616303Y-77512003D01*
X123777292Y-77565349D01*
X123876655Y-77575500D01*
X124423344Y-77575499D01*
X124423352Y-77575498D01*
X124423355Y-77575498D01*
X124477760Y-77569940D01*
X124522708Y-77565349D01*
X124683697Y-77512003D01*
X124828044Y-77422968D01*
X124947968Y-77303044D01*
X125037003Y-77158697D01*
X125090349Y-76997708D01*
X125100500Y-76898345D01*
X125100499Y-76301656D01*
X125097276Y-76270109D01*
X125090349Y-76202292D01*
X125090348Y-76202289D01*
X125037074Y-76041518D01*
X125037003Y-76041303D01*
X125036999Y-76041297D01*
X125036998Y-76041294D01*
X124947970Y-75896959D01*
X124947967Y-75896955D01*
X124828044Y-75777032D01*
X124828040Y-75777029D01*
X124683705Y-75688001D01*
X124683699Y-75687998D01*
X124683697Y-75687997D01*
X124683694Y-75687996D01*
X124522709Y-75634651D01*
X124423346Y-75624500D01*
X123876662Y-75624500D01*
X123876644Y-75624501D01*
X123777292Y-75634650D01*
X123777289Y-75634651D01*
X123616305Y-75687996D01*
X123616294Y-75688001D01*
X123471959Y-75777029D01*
X123471953Y-75777033D01*
X123462324Y-75786663D01*
X123401000Y-75820146D01*
X123331308Y-75815159D01*
X123286965Y-75786660D01*
X123277732Y-75777427D01*
X123277728Y-75777424D01*
X123133492Y-75688457D01*
X123133481Y-75688452D01*
X122972606Y-75635144D01*
X122873322Y-75625000D01*
X122850000Y-75625000D01*
X122350000Y-75625000D01*
X122350000Y-75624999D01*
X122326693Y-75625000D01*
X122326674Y-75625001D01*
X122227392Y-75635144D01*
X122066518Y-75688452D01*
X122066507Y-75688457D01*
X121922271Y-75777424D01*
X121922267Y-75777427D01*
X121802427Y-75897267D01*
X121802424Y-75897271D01*
X121713457Y-76041507D01*
X121713452Y-76041518D01*
X121660144Y-76202393D01*
X121650000Y-76301677D01*
X77495181Y-76301677D01*
X77495181Y-69850665D01*
X87721500Y-69850665D01*
X87721500Y-70149334D01*
X87721501Y-70149350D01*
X87760484Y-70445456D01*
X87760485Y-70445461D01*
X87760486Y-70445467D01*
X87837790Y-70733971D01*
X87911534Y-70912003D01*
X87952088Y-71009910D01*
X87952092Y-71009920D01*
X88101430Y-71268582D01*
X88283255Y-71505541D01*
X88283261Y-71505548D01*
X88494451Y-71716738D01*
X88494458Y-71716744D01*
X88731417Y-71898569D01*
X88990079Y-72047907D01*
X88990080Y-72047907D01*
X88990083Y-72047909D01*
X89266029Y-72162210D01*
X89554533Y-72239514D01*
X89850659Y-72278500D01*
X89850666Y-72278500D01*
X90149334Y-72278500D01*
X90149341Y-72278500D01*
X90445467Y-72239514D01*
X90733971Y-72162210D01*
X91009917Y-72047909D01*
X91268583Y-71898569D01*
X91505543Y-71716743D01*
X91716743Y-71505543D01*
X91898569Y-71268583D01*
X92047909Y-71009917D01*
X92162210Y-70733971D01*
X92239514Y-70445467D01*
X92278500Y-70149341D01*
X92278500Y-69850665D01*
X107721500Y-69850665D01*
X107721500Y-70149334D01*
X107721501Y-70149350D01*
X107760484Y-70445456D01*
X107760485Y-70445461D01*
X107760486Y-70445467D01*
X107837790Y-70733971D01*
X107911534Y-70912003D01*
X107952088Y-71009910D01*
X107952092Y-71009920D01*
X108101430Y-71268582D01*
X108283255Y-71505541D01*
X108283261Y-71505548D01*
X108494451Y-71716738D01*
X108494458Y-71716744D01*
X108731417Y-71898569D01*
X108990079Y-72047907D01*
X108990080Y-72047907D01*
X108990083Y-72047909D01*
X109266029Y-72162210D01*
X109554533Y-72239514D01*
X109850659Y-72278500D01*
X109850666Y-72278500D01*
X110149334Y-72278500D01*
X110149341Y-72278500D01*
X110445467Y-72239514D01*
X110733971Y-72162210D01*
X111009917Y-72047909D01*
X111268583Y-71898569D01*
X111505543Y-71716743D01*
X111716743Y-71505543D01*
X111898569Y-71268583D01*
X112047909Y-71009917D01*
X112162210Y-70733971D01*
X112239514Y-70445467D01*
X112258886Y-70298322D01*
X122075001Y-70298322D01*
X122085144Y-70397607D01*
X122138452Y-70558481D01*
X122138457Y-70558492D01*
X122227424Y-70702728D01*
X122227427Y-70702732D01*
X122347267Y-70822572D01*
X122347271Y-70822575D01*
X122491507Y-70911542D01*
X122491518Y-70911547D01*
X122652393Y-70964855D01*
X122751683Y-70974999D01*
X122775000Y-70974998D01*
X122775000Y-70250000D01*
X122075001Y-70250000D01*
X122075001Y-70298322D01*
X112258886Y-70298322D01*
X112278500Y-70149341D01*
X112278500Y-69850659D01*
X112258886Y-69701677D01*
X122075000Y-69701677D01*
X122075000Y-69750000D01*
X122775000Y-69750000D01*
X122775000Y-69025000D01*
X123275000Y-69025000D01*
X123275000Y-70974999D01*
X123298308Y-70974999D01*
X123298322Y-70974998D01*
X123397607Y-70964855D01*
X123558481Y-70911547D01*
X123558492Y-70911542D01*
X123702731Y-70822573D01*
X123711959Y-70813345D01*
X123773279Y-70779856D01*
X123842971Y-70784835D01*
X123887327Y-70813339D01*
X123896955Y-70822967D01*
X123896959Y-70822970D01*
X124041294Y-70911998D01*
X124041297Y-70911999D01*
X124041303Y-70912003D01*
X124202292Y-70965349D01*
X124301655Y-70975500D01*
X124848344Y-70975499D01*
X124848352Y-70975498D01*
X124848355Y-70975498D01*
X124902760Y-70969940D01*
X124947708Y-70965349D01*
X125108697Y-70912003D01*
X125253044Y-70822968D01*
X125372968Y-70703044D01*
X125462003Y-70558697D01*
X125515349Y-70397708D01*
X125525500Y-70298345D01*
X125525499Y-69701656D01*
X125515349Y-69602292D01*
X125462003Y-69441303D01*
X125461999Y-69441297D01*
X125461998Y-69441294D01*
X125372970Y-69296959D01*
X125372967Y-69296955D01*
X125253044Y-69177032D01*
X125253040Y-69177029D01*
X125108705Y-69088001D01*
X125108699Y-69087998D01*
X125108697Y-69087997D01*
X125026685Y-69060821D01*
X124947709Y-69034651D01*
X124848346Y-69024500D01*
X124301662Y-69024500D01*
X124301644Y-69024501D01*
X124202292Y-69034650D01*
X124202289Y-69034651D01*
X124041305Y-69087996D01*
X124041294Y-69088001D01*
X123896959Y-69177029D01*
X123896953Y-69177033D01*
X123887324Y-69186663D01*
X123826000Y-69220146D01*
X123756308Y-69215159D01*
X123711965Y-69186660D01*
X123702732Y-69177427D01*
X123702728Y-69177424D01*
X123558492Y-69088457D01*
X123558481Y-69088452D01*
X123397606Y-69035144D01*
X123298322Y-69025000D01*
X123275000Y-69025000D01*
X122775000Y-69025000D01*
X122775000Y-69024999D01*
X122751693Y-69025000D01*
X122751674Y-69025001D01*
X122652392Y-69035144D01*
X122491518Y-69088452D01*
X122491507Y-69088457D01*
X122347271Y-69177424D01*
X122347267Y-69177427D01*
X122227427Y-69297267D01*
X122227424Y-69297271D01*
X122138457Y-69441507D01*
X122138452Y-69441518D01*
X122085144Y-69602393D01*
X122075000Y-69701677D01*
X112258886Y-69701677D01*
X112239514Y-69554533D01*
X112162210Y-69266029D01*
X112047909Y-68990083D01*
X112013053Y-68929711D01*
X111898569Y-68731417D01*
X111716744Y-68494458D01*
X111716738Y-68494451D01*
X111505548Y-68283261D01*
X111505541Y-68283255D01*
X111268582Y-68101430D01*
X111009920Y-67952092D01*
X111009910Y-67952088D01*
X110971647Y-67936239D01*
X110733971Y-67837790D01*
X110445467Y-67760486D01*
X110445461Y-67760485D01*
X110445456Y-67760484D01*
X110149350Y-67721501D01*
X110149347Y-67721500D01*
X110149341Y-67721500D01*
X109850659Y-67721500D01*
X109850653Y-67721500D01*
X109850649Y-67721501D01*
X109554543Y-67760484D01*
X109554536Y-67760485D01*
X109554533Y-67760486D01*
X109266029Y-67837790D01*
X109114637Y-67900499D01*
X108990089Y-67952088D01*
X108990079Y-67952092D01*
X108731417Y-68101430D01*
X108494458Y-68283255D01*
X108494451Y-68283261D01*
X108283261Y-68494451D01*
X108283255Y-68494458D01*
X108101430Y-68731417D01*
X107952092Y-68990079D01*
X107952088Y-68990089D01*
X107911532Y-69088001D01*
X107837790Y-69266029D01*
X107770050Y-69518842D01*
X107760487Y-69554530D01*
X107760484Y-69554543D01*
X107721501Y-69850649D01*
X107721500Y-69850665D01*
X92278500Y-69850665D01*
X92278500Y-69850659D01*
X92239514Y-69554533D01*
X92162210Y-69266029D01*
X92047909Y-68990083D01*
X92013053Y-68929711D01*
X91898569Y-68731417D01*
X91716744Y-68494458D01*
X91716738Y-68494451D01*
X91505548Y-68283261D01*
X91505541Y-68283255D01*
X91268582Y-68101430D01*
X91009920Y-67952092D01*
X91009910Y-67952088D01*
X90971647Y-67936239D01*
X90733971Y-67837790D01*
X90445467Y-67760486D01*
X90445461Y-67760485D01*
X90445456Y-67760484D01*
X90149350Y-67721501D01*
X90149347Y-67721500D01*
X90149341Y-67721500D01*
X89850659Y-67721500D01*
X89850653Y-67721500D01*
X89850649Y-67721501D01*
X89554543Y-67760484D01*
X89554536Y-67760485D01*
X89554533Y-67760486D01*
X89266029Y-67837790D01*
X89114637Y-67900499D01*
X88990089Y-67952088D01*
X88990079Y-67952092D01*
X88731417Y-68101430D01*
X88494458Y-68283255D01*
X88494451Y-68283261D01*
X88283261Y-68494451D01*
X88283255Y-68494458D01*
X88101430Y-68731417D01*
X87952092Y-68990079D01*
X87952088Y-68990089D01*
X87911532Y-69088001D01*
X87837790Y-69266029D01*
X87770050Y-69518842D01*
X87760487Y-69554530D01*
X87760484Y-69554543D01*
X87721501Y-69850649D01*
X87721500Y-69850665D01*
X77495181Y-69850665D01*
X77495181Y-64498322D01*
X121650001Y-64498322D01*
X121660144Y-64597607D01*
X121713452Y-64758481D01*
X121713457Y-64758492D01*
X121802424Y-64902728D01*
X121802427Y-64902732D01*
X121922267Y-65022572D01*
X121922271Y-65022575D01*
X122066507Y-65111542D01*
X122066518Y-65111547D01*
X122227393Y-65164855D01*
X122326683Y-65174999D01*
X122350000Y-65174998D01*
X122350000Y-64450000D01*
X121650001Y-64450000D01*
X121650001Y-64498322D01*
X77495181Y-64498322D01*
X77495181Y-63901677D01*
X121650000Y-63901677D01*
X121650000Y-63950000D01*
X122350000Y-63950000D01*
X122350000Y-63225000D01*
X122850000Y-63225000D01*
X122850000Y-65174999D01*
X122873308Y-65174999D01*
X122873322Y-65174998D01*
X122972607Y-65164855D01*
X123133481Y-65111547D01*
X123133492Y-65111542D01*
X123277731Y-65022573D01*
X123286959Y-65013345D01*
X123348279Y-64979856D01*
X123417971Y-64984835D01*
X123462327Y-65013339D01*
X123471955Y-65022967D01*
X123471959Y-65022970D01*
X123616294Y-65111998D01*
X123616297Y-65111999D01*
X123616303Y-65112003D01*
X123777292Y-65165349D01*
X123876655Y-65175500D01*
X124423344Y-65175499D01*
X124423352Y-65175498D01*
X124423355Y-65175498D01*
X124477760Y-65169940D01*
X124522708Y-65165349D01*
X124683697Y-65112003D01*
X124828044Y-65022968D01*
X124947968Y-64903044D01*
X125037003Y-64758697D01*
X125090349Y-64597708D01*
X125100500Y-64498345D01*
X125100499Y-63901656D01*
X125090349Y-63802292D01*
X125037003Y-63641303D01*
X125036999Y-63641297D01*
X125036998Y-63641294D01*
X124947970Y-63496959D01*
X124947967Y-63496955D01*
X124828044Y-63377032D01*
X124828040Y-63377029D01*
X124683705Y-63288001D01*
X124683699Y-63287998D01*
X124683697Y-63287997D01*
X124683694Y-63287996D01*
X124522709Y-63234651D01*
X124423346Y-63224500D01*
X123876662Y-63224500D01*
X123876644Y-63224501D01*
X123777292Y-63234650D01*
X123777289Y-63234651D01*
X123616305Y-63287996D01*
X123616294Y-63288001D01*
X123471959Y-63377029D01*
X123471953Y-63377033D01*
X123462324Y-63386663D01*
X123401000Y-63420146D01*
X123331308Y-63415159D01*
X123286965Y-63386660D01*
X123277732Y-63377427D01*
X123277728Y-63377424D01*
X123133492Y-63288457D01*
X123133481Y-63288452D01*
X122972606Y-63235144D01*
X122873322Y-63225000D01*
X122850000Y-63225000D01*
X122350000Y-63225000D01*
X122350000Y-63224999D01*
X122326693Y-63225000D01*
X122326674Y-63225001D01*
X122227392Y-63235144D01*
X122066518Y-63288452D01*
X122066507Y-63288457D01*
X121922271Y-63377424D01*
X121922267Y-63377427D01*
X121802427Y-63497267D01*
X121802424Y-63497271D01*
X121713457Y-63641507D01*
X121713452Y-63641518D01*
X121660144Y-63802393D01*
X121650000Y-63901677D01*
X77495181Y-63901677D01*
X77495181Y-59893713D01*
X128109500Y-59893713D01*
X128109500Y-60106286D01*
X128142753Y-60316239D01*
X128208444Y-60518414D01*
X128304951Y-60707820D01*
X128429890Y-60879786D01*
X128580213Y-61030109D01*
X128752182Y-61155050D01*
X128760946Y-61159516D01*
X128811742Y-61207491D01*
X128828536Y-61275312D01*
X128805998Y-61341447D01*
X128760946Y-61380484D01*
X128752182Y-61384949D01*
X128580213Y-61509890D01*
X128429890Y-61660213D01*
X128304951Y-61832179D01*
X128208444Y-62021585D01*
X128208443Y-62021587D01*
X128208443Y-62021588D01*
X128189716Y-62079225D01*
X128142753Y-62223760D01*
X128109500Y-62433713D01*
X128109500Y-62646286D01*
X128142753Y-62856239D01*
X128208444Y-63058414D01*
X128304951Y-63247820D01*
X128429890Y-63419786D01*
X128580213Y-63570109D01*
X128752182Y-63695050D01*
X128760946Y-63699516D01*
X128811742Y-63747491D01*
X128828536Y-63815312D01*
X128805998Y-63881447D01*
X128760946Y-63920484D01*
X128752182Y-63924949D01*
X128580213Y-64049890D01*
X128429890Y-64200213D01*
X128304951Y-64372179D01*
X128208444Y-64561585D01*
X128142753Y-64763760D01*
X128109500Y-64973713D01*
X128109500Y-65186286D01*
X128142753Y-65396239D01*
X128208444Y-65598414D01*
X128304951Y-65787820D01*
X128429890Y-65959786D01*
X128580213Y-66110109D01*
X128752182Y-66235050D01*
X128760946Y-66239516D01*
X128811742Y-66287491D01*
X128828536Y-66355312D01*
X128805998Y-66421447D01*
X128760946Y-66460484D01*
X128752182Y-66464949D01*
X128580213Y-66589890D01*
X128429890Y-66740213D01*
X128304951Y-66912179D01*
X128208444Y-67101585D01*
X128208443Y-67101587D01*
X128208443Y-67101588D01*
X128189716Y-67159225D01*
X128142753Y-67303760D01*
X128109500Y-67513713D01*
X128109500Y-67726286D01*
X128137957Y-67905961D01*
X128142754Y-67936243D01*
X128147903Y-67952091D01*
X128208444Y-68138414D01*
X128304951Y-68327820D01*
X128429890Y-68499786D01*
X128580213Y-68650109D01*
X128752182Y-68775050D01*
X128760946Y-68779516D01*
X128811742Y-68827491D01*
X128828536Y-68895312D01*
X128805998Y-68961447D01*
X128760946Y-69000484D01*
X128752182Y-69004949D01*
X128580213Y-69129890D01*
X128429890Y-69280213D01*
X128304951Y-69452179D01*
X128208444Y-69641585D01*
X128142753Y-69843760D01*
X128109500Y-70053713D01*
X128109500Y-70266286D01*
X128137879Y-70445467D01*
X128142754Y-70476243D01*
X128169478Y-70558492D01*
X128208444Y-70678414D01*
X128304951Y-70867820D01*
X128429890Y-71039786D01*
X128580213Y-71190109D01*
X128752182Y-71315050D01*
X128760946Y-71319516D01*
X128811742Y-71367491D01*
X128828536Y-71435312D01*
X128805998Y-71501447D01*
X128760946Y-71540484D01*
X128752182Y-71544949D01*
X128580213Y-71669890D01*
X128429890Y-71820213D01*
X128304951Y-71992179D01*
X128208444Y-72181585D01*
X128142753Y-72383760D01*
X128109500Y-72593713D01*
X128109500Y-72806286D01*
X128142753Y-73016239D01*
X128208444Y-73218414D01*
X128304951Y-73407820D01*
X128429890Y-73579786D01*
X128580213Y-73730109D01*
X128752182Y-73855050D01*
X128760946Y-73859516D01*
X128811742Y-73907491D01*
X128828536Y-73975312D01*
X128805998Y-74041447D01*
X128760946Y-74080484D01*
X128752182Y-74084949D01*
X128580213Y-74209890D01*
X128429890Y-74360213D01*
X128304951Y-74532179D01*
X128208444Y-74721585D01*
X128142753Y-74923760D01*
X128134285Y-74977227D01*
X128109500Y-75133713D01*
X128109500Y-75346287D01*
X128142754Y-75556243D01*
X128185563Y-75687996D01*
X128208444Y-75758414D01*
X128304951Y-75947820D01*
X128429890Y-76119786D01*
X128580213Y-76270109D01*
X128752182Y-76395050D01*
X128760946Y-76399516D01*
X128811742Y-76447491D01*
X128828536Y-76515312D01*
X128805998Y-76581447D01*
X128760946Y-76620484D01*
X128752182Y-76624949D01*
X128580213Y-76749890D01*
X128429890Y-76900213D01*
X128304951Y-77072179D01*
X128208444Y-77261585D01*
X128142753Y-77463760D01*
X128109500Y-77673713D01*
X128109500Y-77886286D01*
X128142753Y-78096239D01*
X128208444Y-78298414D01*
X128304951Y-78487820D01*
X128429890Y-78659786D01*
X128580213Y-78810109D01*
X128752182Y-78935050D01*
X128760946Y-78939516D01*
X128811742Y-78987491D01*
X128828536Y-79055312D01*
X128805998Y-79121447D01*
X128760946Y-79160484D01*
X128752182Y-79164949D01*
X128580213Y-79289890D01*
X128429890Y-79440213D01*
X128304951Y-79612179D01*
X128208444Y-79801585D01*
X128142753Y-80003760D01*
X128127250Y-80101644D01*
X128109500Y-80213713D01*
X128109500Y-80426287D01*
X128142754Y-80636243D01*
X128195217Y-80797708D01*
X128208444Y-80838414D01*
X128304951Y-81027820D01*
X128429890Y-81199786D01*
X128580213Y-81350109D01*
X128752182Y-81475050D01*
X128760946Y-81479516D01*
X128811742Y-81527491D01*
X128828536Y-81595312D01*
X128805998Y-81661447D01*
X128760946Y-81700484D01*
X128752182Y-81704949D01*
X128580213Y-81829890D01*
X128429890Y-81980213D01*
X128304951Y-82152179D01*
X128208444Y-82341585D01*
X128142753Y-82543760D01*
X128109500Y-82753713D01*
X128109500Y-82966286D01*
X128142753Y-83176239D01*
X128208444Y-83378414D01*
X128304951Y-83567820D01*
X128429890Y-83739786D01*
X128580213Y-83890109D01*
X128752182Y-84015050D01*
X128760946Y-84019516D01*
X128811742Y-84067491D01*
X128828536Y-84135312D01*
X128805998Y-84201447D01*
X128760946Y-84240484D01*
X128752182Y-84244949D01*
X128580213Y-84369890D01*
X128429890Y-84520213D01*
X128304951Y-84692179D01*
X128208444Y-84881585D01*
X128142753Y-85083760D01*
X128109500Y-85293713D01*
X128109500Y-85506286D01*
X128138727Y-85690821D01*
X128142754Y-85716243D01*
X128181831Y-85836510D01*
X128208444Y-85918414D01*
X128304951Y-86107820D01*
X128429890Y-86279786D01*
X128580213Y-86430109D01*
X128752182Y-86555050D01*
X128760946Y-86559516D01*
X128811742Y-86607491D01*
X128828536Y-86675312D01*
X128805998Y-86741447D01*
X128760946Y-86780484D01*
X128752182Y-86784949D01*
X128580213Y-86909890D01*
X128429890Y-87060213D01*
X128304951Y-87232179D01*
X128208444Y-87421585D01*
X128142753Y-87623760D01*
X128116327Y-87790608D01*
X128109500Y-87833713D01*
X128109500Y-88046287D01*
X128142754Y-88256243D01*
X128196338Y-88421158D01*
X128208444Y-88458414D01*
X128304951Y-88647820D01*
X128429890Y-88819786D01*
X128580213Y-88970109D01*
X128752182Y-89095050D01*
X128760946Y-89099516D01*
X128811742Y-89147491D01*
X128828536Y-89215312D01*
X128805998Y-89281447D01*
X128760946Y-89320484D01*
X128752182Y-89324949D01*
X128580213Y-89449890D01*
X128429890Y-89600213D01*
X128304951Y-89772179D01*
X128208444Y-89961585D01*
X128142753Y-90163760D01*
X128139793Y-90182451D01*
X128109500Y-90373713D01*
X128109500Y-90586287D01*
X128119534Y-90649644D01*
X128140158Y-90779856D01*
X128142754Y-90796243D01*
X128200998Y-90975500D01*
X128208444Y-90998414D01*
X128304951Y-91187820D01*
X128429890Y-91359786D01*
X128580213Y-91510109D01*
X128752182Y-91635050D01*
X128760946Y-91639516D01*
X128811742Y-91687491D01*
X128828536Y-91755312D01*
X128805998Y-91821447D01*
X128760946Y-91860484D01*
X128752182Y-91864949D01*
X128580213Y-91989890D01*
X128429890Y-92140213D01*
X128304951Y-92312179D01*
X128208444Y-92501585D01*
X128142753Y-92703760D01*
X128109500Y-92913713D01*
X128109500Y-93126287D01*
X128142754Y-93336243D01*
X128156597Y-93378848D01*
X128208444Y-93538414D01*
X128304951Y-93727820D01*
X128429890Y-93899786D01*
X128580213Y-94050109D01*
X128752182Y-94175050D01*
X128760946Y-94179516D01*
X128811742Y-94227491D01*
X128828536Y-94295312D01*
X128805998Y-94361447D01*
X128760946Y-94400484D01*
X128752182Y-94404949D01*
X128580213Y-94529890D01*
X128429890Y-94680213D01*
X128304951Y-94852179D01*
X128208444Y-95041585D01*
X128142753Y-95243760D01*
X128109500Y-95453713D01*
X128109500Y-95666286D01*
X128130707Y-95800185D01*
X128142754Y-95876243D01*
X128156597Y-95918848D01*
X128208444Y-96078414D01*
X128304951Y-96267820D01*
X128429890Y-96439786D01*
X128580213Y-96590109D01*
X128752182Y-96715050D01*
X128760946Y-96719516D01*
X128811742Y-96767491D01*
X128828536Y-96835312D01*
X128805998Y-96901447D01*
X128760946Y-96940484D01*
X128752182Y-96944949D01*
X128580213Y-97069890D01*
X128429890Y-97220213D01*
X128304951Y-97392179D01*
X128208444Y-97581585D01*
X128142753Y-97783760D01*
X128109500Y-97993713D01*
X128109500Y-98206287D01*
X128142754Y-98416243D01*
X128156597Y-98458848D01*
X128208444Y-98618414D01*
X128304951Y-98807820D01*
X128429890Y-98979786D01*
X128580213Y-99130109D01*
X128752179Y-99255048D01*
X128752181Y-99255049D01*
X128752184Y-99255051D01*
X128941588Y-99351557D01*
X129143757Y-99417246D01*
X129353713Y-99450500D01*
X129353714Y-99450500D01*
X129566286Y-99450500D01*
X129566287Y-99450500D01*
X129776243Y-99417246D01*
X129978412Y-99351557D01*
X130167816Y-99255051D01*
X130189789Y-99239086D01*
X130339786Y-99130109D01*
X130339788Y-99130106D01*
X130339792Y-99130104D01*
X130490104Y-98979792D01*
X130490106Y-98979788D01*
X130490109Y-98979786D01*
X130615048Y-98807820D01*
X130615047Y-98807820D01*
X130615051Y-98807816D01*
X130619514Y-98799054D01*
X130667488Y-98748259D01*
X130735308Y-98731463D01*
X130801444Y-98753999D01*
X130840486Y-98799056D01*
X130844951Y-98807820D01*
X130969890Y-98979786D01*
X131120213Y-99130109D01*
X131292179Y-99255048D01*
X131292181Y-99255049D01*
X131292184Y-99255051D01*
X131481588Y-99351557D01*
X131683757Y-99417246D01*
X131893713Y-99450500D01*
X131893714Y-99450500D01*
X132106286Y-99450500D01*
X132106287Y-99450500D01*
X132262771Y-99425715D01*
X132332064Y-99434670D01*
X132369850Y-99460507D01*
X137603928Y-104694585D01*
X137630808Y-104734814D01*
X137690602Y-104879172D01*
X137690609Y-104879185D01*
X137778210Y-105010288D01*
X137778213Y-105010292D01*
X137889707Y-105121786D01*
X137889711Y-105121789D01*
X138020814Y-105209390D01*
X138020827Y-105209397D01*
X138166498Y-105269735D01*
X138166503Y-105269737D01*
X138321153Y-105300499D01*
X138321156Y-105300500D01*
X138321158Y-105300500D01*
X138478844Y-105300500D01*
X138478845Y-105300499D01*
X138633497Y-105269737D01*
X138779179Y-105209394D01*
X138910289Y-105121789D01*
X139021789Y-105010289D01*
X139109394Y-104879179D01*
X139115179Y-104865214D01*
X139169735Y-104733501D01*
X139169737Y-104733497D01*
X139200500Y-104578842D01*
X139200500Y-104421158D01*
X139200500Y-104421155D01*
X139200499Y-104421153D01*
X139169738Y-104266510D01*
X139169737Y-104266503D01*
X139141091Y-104197344D01*
X139109397Y-104120827D01*
X139109390Y-104120814D01*
X139021789Y-103989711D01*
X139021786Y-103989707D01*
X138910292Y-103878213D01*
X138910288Y-103878210D01*
X138779185Y-103790609D01*
X138779172Y-103790602D01*
X138634814Y-103730808D01*
X138594585Y-103703928D01*
X133360507Y-98469850D01*
X133327022Y-98408527D01*
X133325715Y-98362771D01*
X133346051Y-98234379D01*
X133350500Y-98206287D01*
X133350500Y-97993713D01*
X133317246Y-97783757D01*
X133251557Y-97581588D01*
X133155051Y-97392184D01*
X133155049Y-97392181D01*
X133155048Y-97392179D01*
X133030109Y-97220213D01*
X132879786Y-97069890D01*
X132707820Y-96944951D01*
X132707115Y-96944591D01*
X132699054Y-96940485D01*
X132648259Y-96892512D01*
X132631463Y-96824692D01*
X132653999Y-96758556D01*
X132699054Y-96719515D01*
X132707816Y-96715051D01*
X132729789Y-96699086D01*
X132879786Y-96590109D01*
X132879788Y-96590106D01*
X132879792Y-96590104D01*
X133030104Y-96439792D01*
X133030106Y-96439788D01*
X133030109Y-96439786D01*
X133155048Y-96267820D01*
X133155047Y-96267820D01*
X133155051Y-96267816D01*
X133251557Y-96078412D01*
X133317246Y-95876243D01*
X133350500Y-95666287D01*
X133350500Y-95453713D01*
X133317246Y-95243757D01*
X133251557Y-95041588D01*
X133155051Y-94852184D01*
X133155049Y-94852181D01*
X133155048Y-94852179D01*
X133030109Y-94680213D01*
X132879786Y-94529890D01*
X132707820Y-94404951D01*
X132707115Y-94404591D01*
X132699054Y-94400485D01*
X132648259Y-94352512D01*
X132631463Y-94284692D01*
X132653999Y-94218556D01*
X132699054Y-94179515D01*
X132707816Y-94175051D01*
X132840235Y-94078844D01*
X132879786Y-94050109D01*
X132879788Y-94050106D01*
X132879792Y-94050104D01*
X133030104Y-93899792D01*
X133030106Y-93899788D01*
X133030109Y-93899786D01*
X133155048Y-93727820D01*
X133155047Y-93727820D01*
X133155051Y-93727816D01*
X133251557Y-93538412D01*
X133317246Y-93336243D01*
X133350500Y-93126287D01*
X133350500Y-92913713D01*
X133317246Y-92703757D01*
X133251557Y-92501588D01*
X133155051Y-92312184D01*
X133155049Y-92312181D01*
X133155048Y-92312179D01*
X133030109Y-92140213D01*
X132879786Y-91989890D01*
X132707820Y-91864951D01*
X132707115Y-91864591D01*
X132699054Y-91860485D01*
X132648259Y-91812512D01*
X132631463Y-91744692D01*
X132653999Y-91678556D01*
X132699054Y-91639515D01*
X132707816Y-91635051D01*
X132744962Y-91608063D01*
X132879786Y-91510109D01*
X132879788Y-91510106D01*
X132879792Y-91510104D01*
X133030104Y-91359792D01*
X133030106Y-91359788D01*
X133030109Y-91359786D01*
X133155048Y-91187820D01*
X133155047Y-91187820D01*
X133155051Y-91187816D01*
X133251557Y-90998412D01*
X133317246Y-90796243D01*
X133350500Y-90586287D01*
X133350500Y-90580519D01*
X133370185Y-90513480D01*
X133422989Y-90467725D01*
X133492147Y-90457781D01*
X133555703Y-90486806D01*
X133562181Y-90492838D01*
X137263928Y-94194585D01*
X137290808Y-94234814D01*
X137350602Y-94379172D01*
X137350609Y-94379185D01*
X137438210Y-94510288D01*
X137438213Y-94510292D01*
X137549707Y-94621786D01*
X137549711Y-94621789D01*
X137680814Y-94709390D01*
X137680827Y-94709397D01*
X137826498Y-94769735D01*
X137826503Y-94769737D01*
X137981153Y-94800499D01*
X137981156Y-94800500D01*
X137981158Y-94800500D01*
X138138844Y-94800500D01*
X138138845Y-94800499D01*
X138293497Y-94769737D01*
X138439179Y-94709394D01*
X138570289Y-94621789D01*
X138681789Y-94510289D01*
X138769394Y-94379179D01*
X138829737Y-94233497D01*
X138860500Y-94078842D01*
X138860500Y-93921158D01*
X138860500Y-93921155D01*
X138860499Y-93921153D01*
X138829738Y-93766510D01*
X138829737Y-93766503D01*
X138813714Y-93727820D01*
X138769397Y-93620827D01*
X138769390Y-93620814D01*
X138681789Y-93489711D01*
X138681786Y-93489707D01*
X138570292Y-93378213D01*
X138570288Y-93378210D01*
X138439185Y-93290609D01*
X138439172Y-93290602D01*
X138294814Y-93230808D01*
X138254585Y-93203928D01*
X133360507Y-88309850D01*
X133327022Y-88248527D01*
X133325715Y-88202771D01*
X133350500Y-88046286D01*
X133350500Y-87833713D01*
X133338902Y-87760486D01*
X133317246Y-87623757D01*
X133251557Y-87421588D01*
X133155051Y-87232184D01*
X133155049Y-87232181D01*
X133155048Y-87232179D01*
X133030109Y-87060213D01*
X132879786Y-86909890D01*
X132707820Y-86784951D01*
X132707115Y-86784591D01*
X132699054Y-86780485D01*
X132648259Y-86732512D01*
X132631463Y-86664692D01*
X132653999Y-86598556D01*
X132699054Y-86559515D01*
X132707816Y-86555051D01*
X132729789Y-86539086D01*
X132879786Y-86430109D01*
X132879788Y-86430106D01*
X132879792Y-86430104D01*
X133030104Y-86279792D01*
X133030106Y-86279788D01*
X133030109Y-86279786D01*
X133155048Y-86107820D01*
X133155047Y-86107820D01*
X133155051Y-86107816D01*
X133251557Y-85918412D01*
X133317246Y-85716243D01*
X133350500Y-85506287D01*
X133350500Y-85500518D01*
X133370185Y-85433479D01*
X133422989Y-85387724D01*
X133492147Y-85377780D01*
X133555703Y-85406805D01*
X133562167Y-85412824D01*
X135209552Y-87060208D01*
X137056300Y-88906956D01*
X137071721Y-88925746D01*
X137128210Y-89010289D01*
X137239707Y-89121786D01*
X137239711Y-89121789D01*
X137370814Y-89209390D01*
X137370827Y-89209397D01*
X137516498Y-89269735D01*
X137516503Y-89269737D01*
X137654905Y-89297267D01*
X137671153Y-89300499D01*
X137671156Y-89300500D01*
X137671158Y-89300500D01*
X137828844Y-89300500D01*
X137828845Y-89300499D01*
X137983497Y-89269737D01*
X138129179Y-89209394D01*
X138260289Y-89121789D01*
X138371789Y-89010289D01*
X138459394Y-88879179D01*
X138519737Y-88733497D01*
X138550500Y-88578842D01*
X138550500Y-88421158D01*
X138550500Y-88421155D01*
X138550499Y-88421153D01*
X138548281Y-88410001D01*
X138519737Y-88266503D01*
X138493339Y-88202771D01*
X138459397Y-88120827D01*
X138459395Y-88120823D01*
X138459394Y-88120821D01*
X138459390Y-88120815D01*
X138452519Y-88110531D01*
X138431641Y-88043854D01*
X138450125Y-87976474D01*
X138502104Y-87929783D01*
X138571074Y-87918607D01*
X138635138Y-87946492D01*
X138643302Y-87953959D01*
X141233457Y-90544114D01*
X141279412Y-90574819D01*
X141348189Y-90620775D01*
X141419952Y-90650500D01*
X141425735Y-90652895D01*
X141425738Y-90652897D01*
X141475666Y-90673578D01*
X141475671Y-90673580D01*
X141475680Y-90673581D01*
X141475681Y-90673582D01*
X141502545Y-90678925D01*
X141502551Y-90678926D01*
X141502591Y-90678934D01*
X141592937Y-90696905D01*
X141611006Y-90700500D01*
X141611007Y-90700500D01*
X143275500Y-90700500D01*
X143342539Y-90720185D01*
X143388294Y-90772989D01*
X143399500Y-90824500D01*
X143399500Y-90900017D01*
X143410000Y-91002796D01*
X143465185Y-91169332D01*
X143465187Y-91169337D01*
X143557289Y-91318657D01*
X143686128Y-91447496D01*
X143719613Y-91508819D01*
X143714629Y-91578511D01*
X143698767Y-91608058D01*
X143631131Y-91701154D01*
X143631128Y-91701158D01*
X143516760Y-91925616D01*
X143438910Y-92165214D01*
X143399500Y-92414038D01*
X143399500Y-92665961D01*
X143438910Y-92914785D01*
X143516760Y-93154383D01*
X143595413Y-93308747D01*
X143630806Y-93378210D01*
X143631132Y-93378848D01*
X143779201Y-93582649D01*
X143779205Y-93582654D01*
X143918870Y-93722319D01*
X143952355Y-93783642D01*
X143947371Y-93853334D01*
X143918870Y-93897681D01*
X143779205Y-94037345D01*
X143779201Y-94037350D01*
X143631132Y-94241151D01*
X143595137Y-94311795D01*
X143547162Y-94362591D01*
X143484652Y-94379500D01*
X142021519Y-94379500D01*
X141954480Y-94359815D01*
X141933838Y-94343181D01*
X138646071Y-91055414D01*
X138619191Y-91015185D01*
X138559397Y-90870827D01*
X138559390Y-90870814D01*
X138471789Y-90739711D01*
X138471786Y-90739707D01*
X138360292Y-90628213D01*
X138360288Y-90628210D01*
X138229185Y-90540609D01*
X138229172Y-90540602D01*
X138083501Y-90480264D01*
X138083489Y-90480261D01*
X137928845Y-90449500D01*
X137928842Y-90449500D01*
X137771158Y-90449500D01*
X137771155Y-90449500D01*
X137616510Y-90480261D01*
X137616498Y-90480264D01*
X137470827Y-90540602D01*
X137470814Y-90540609D01*
X137339711Y-90628210D01*
X137339707Y-90628213D01*
X137228213Y-90739707D01*
X137228210Y-90739711D01*
X137140609Y-90870814D01*
X137140602Y-90870827D01*
X137080264Y-91016498D01*
X137080261Y-91016510D01*
X137049500Y-91171153D01*
X137049500Y-91328846D01*
X137080261Y-91483489D01*
X137080264Y-91483501D01*
X137140602Y-91629172D01*
X137140609Y-91629185D01*
X137228210Y-91760288D01*
X137228213Y-91760292D01*
X137339707Y-91871786D01*
X137339711Y-91871789D01*
X137470814Y-91959390D01*
X137470827Y-91959397D01*
X137615185Y-92019191D01*
X137655414Y-92046071D01*
X141233453Y-95624111D01*
X141233454Y-95624112D01*
X141348192Y-95700777D01*
X141475667Y-95753578D01*
X141475672Y-95753580D01*
X141475676Y-95753580D01*
X141475677Y-95753581D01*
X141611003Y-95780500D01*
X141611006Y-95780500D01*
X141611007Y-95780500D01*
X143484652Y-95780500D01*
X143551691Y-95800185D01*
X143595137Y-95848205D01*
X143620688Y-95898352D01*
X143631132Y-95918848D01*
X143779201Y-96122649D01*
X143779205Y-96122654D01*
X143918870Y-96262319D01*
X143952355Y-96323642D01*
X143947371Y-96393334D01*
X143918870Y-96437681D01*
X143779205Y-96577345D01*
X143779201Y-96577350D01*
X143631132Y-96781151D01*
X143516760Y-97005616D01*
X143438910Y-97245214D01*
X143399500Y-97494038D01*
X143399500Y-97745961D01*
X143438910Y-97994785D01*
X143516760Y-98234383D01*
X143631132Y-98458848D01*
X143779201Y-98662649D01*
X143779205Y-98662654D01*
X143918870Y-98802319D01*
X143952355Y-98863642D01*
X143947371Y-98933334D01*
X143918870Y-98977681D01*
X143779205Y-99117345D01*
X143779201Y-99117350D01*
X143631132Y-99321151D01*
X143595137Y-99391795D01*
X143547162Y-99442591D01*
X143484652Y-99459500D01*
X142091519Y-99459500D01*
X142024480Y-99439815D01*
X142003838Y-99423181D01*
X139386071Y-96805414D01*
X139359191Y-96765185D01*
X139299397Y-96620827D01*
X139299390Y-96620814D01*
X139211789Y-96489711D01*
X139211786Y-96489707D01*
X139100292Y-96378213D01*
X139100288Y-96378210D01*
X138969185Y-96290609D01*
X138969172Y-96290602D01*
X138823501Y-96230264D01*
X138823489Y-96230261D01*
X138668845Y-96199500D01*
X138668842Y-96199500D01*
X138511158Y-96199500D01*
X138511155Y-96199500D01*
X138356510Y-96230261D01*
X138356498Y-96230264D01*
X138210827Y-96290602D01*
X138210814Y-96290609D01*
X138079711Y-96378210D01*
X138079707Y-96378213D01*
X137968213Y-96489707D01*
X137968210Y-96489711D01*
X137880609Y-96620814D01*
X137880602Y-96620827D01*
X137820264Y-96766498D01*
X137820261Y-96766510D01*
X137789500Y-96921153D01*
X137789500Y-97078846D01*
X137820261Y-97233489D01*
X137820264Y-97233501D01*
X137880602Y-97379172D01*
X137880609Y-97379185D01*
X137968210Y-97510288D01*
X137968213Y-97510292D01*
X138079707Y-97621786D01*
X138079711Y-97621789D01*
X138210814Y-97709390D01*
X138210827Y-97709397D01*
X138355185Y-97769191D01*
X138395414Y-97796071D01*
X141303453Y-100704111D01*
X141303454Y-100704112D01*
X141418192Y-100780777D01*
X141545667Y-100833578D01*
X141545672Y-100833580D01*
X141545676Y-100833580D01*
X141545677Y-100833581D01*
X141681003Y-100860500D01*
X141681006Y-100860500D01*
X141681007Y-100860500D01*
X143484652Y-100860500D01*
X143551691Y-100880185D01*
X143595137Y-100928205D01*
X143631132Y-100998848D01*
X143779201Y-101202649D01*
X143779205Y-101202654D01*
X143918870Y-101342319D01*
X143952355Y-101403642D01*
X143947371Y-101473334D01*
X143918870Y-101517681D01*
X143779205Y-101657345D01*
X143779201Y-101657350D01*
X143631132Y-101861151D01*
X143516760Y-102085616D01*
X143438910Y-102325214D01*
X143399500Y-102574038D01*
X143399500Y-102825961D01*
X143438910Y-103074785D01*
X143516760Y-103314383D01*
X143631132Y-103538848D01*
X143779201Y-103742649D01*
X143779205Y-103742654D01*
X143918870Y-103882319D01*
X143952355Y-103943642D01*
X143947371Y-104013334D01*
X143918870Y-104057681D01*
X143779205Y-104197345D01*
X143779201Y-104197350D01*
X143631132Y-104401151D01*
X143595137Y-104471795D01*
X143547162Y-104522591D01*
X143484652Y-104539500D01*
X142091519Y-104539500D01*
X142024480Y-104519815D01*
X142003838Y-104503181D01*
X138539000Y-101038343D01*
X138512120Y-100998114D01*
X138459397Y-100870827D01*
X138459390Y-100870814D01*
X138371789Y-100739711D01*
X138371786Y-100739707D01*
X138260292Y-100628213D01*
X138260288Y-100628210D01*
X138129185Y-100540609D01*
X138129172Y-100540602D01*
X137983501Y-100480264D01*
X137983489Y-100480261D01*
X137828845Y-100449500D01*
X137828842Y-100449500D01*
X137671158Y-100449500D01*
X137671155Y-100449500D01*
X137516510Y-100480261D01*
X137516498Y-100480264D01*
X137370827Y-100540602D01*
X137370814Y-100540609D01*
X137239711Y-100628210D01*
X137239707Y-100628213D01*
X137128213Y-100739707D01*
X137128210Y-100739711D01*
X137040609Y-100870814D01*
X137040602Y-100870827D01*
X136980264Y-101016498D01*
X136980261Y-101016510D01*
X136949500Y-101171153D01*
X136949500Y-101328846D01*
X136980261Y-101483489D01*
X136980264Y-101483501D01*
X137040602Y-101629172D01*
X137040609Y-101629185D01*
X137128210Y-101760288D01*
X137128213Y-101760292D01*
X137239707Y-101871786D01*
X137239711Y-101871789D01*
X137370814Y-101959390D01*
X137370823Y-101959395D01*
X137516503Y-102019737D01*
X137519179Y-102020549D01*
X137520782Y-102021510D01*
X137522132Y-102022069D01*
X137522049Y-102022269D01*
X137570874Y-102051531D01*
X141303451Y-105784109D01*
X141303454Y-105784112D01*
X141408618Y-105854380D01*
X141408617Y-105854380D01*
X141408621Y-105854381D01*
X141418189Y-105860775D01*
X141418193Y-105860777D01*
X141545667Y-105913578D01*
X141545672Y-105913580D01*
X141545676Y-105913580D01*
X141545677Y-105913581D01*
X141681004Y-105940500D01*
X141681007Y-105940500D01*
X143484652Y-105940500D01*
X143551691Y-105960185D01*
X143595137Y-106008205D01*
X143631132Y-106078848D01*
X143779201Y-106282649D01*
X143779205Y-106282654D01*
X143918870Y-106422319D01*
X143952355Y-106483642D01*
X143947371Y-106553334D01*
X143918870Y-106597681D01*
X143779205Y-106737345D01*
X143779201Y-106737350D01*
X143631132Y-106941151D01*
X143516760Y-107165616D01*
X143438910Y-107405214D01*
X143438910Y-107405215D01*
X143399500Y-107654038D01*
X143399500Y-107905962D01*
X143438910Y-108154785D01*
X143516760Y-108394383D01*
X143631132Y-108618848D01*
X143779201Y-108822649D01*
X143779205Y-108822654D01*
X143957345Y-109000794D01*
X143957350Y-109000798D01*
X144135117Y-109129952D01*
X144161155Y-109148870D01*
X144304184Y-109221747D01*
X144385616Y-109263239D01*
X144385618Y-109263239D01*
X144385621Y-109263241D01*
X144625215Y-109341090D01*
X144874038Y-109380500D01*
X144874039Y-109380500D01*
X145125961Y-109380500D01*
X145125962Y-109380500D01*
X145374785Y-109341090D01*
X145614379Y-109263241D01*
X145838845Y-109148870D01*
X146042656Y-109000793D01*
X146220793Y-108822656D01*
X146368870Y-108618845D01*
X146483241Y-108394379D01*
X146561090Y-108154785D01*
X146600500Y-107905962D01*
X146600500Y-107654038D01*
X146561090Y-107405215D01*
X146483241Y-107165621D01*
X146483239Y-107165618D01*
X146483239Y-107165616D01*
X146441747Y-107084184D01*
X146368870Y-106941155D01*
X146349952Y-106915117D01*
X146220798Y-106737350D01*
X146220794Y-106737345D01*
X146081130Y-106597681D01*
X146047645Y-106536358D01*
X146052629Y-106466666D01*
X146081130Y-106422319D01*
X146220793Y-106282656D01*
X146368870Y-106078845D01*
X146483241Y-105854379D01*
X146561090Y-105614785D01*
X146600500Y-105365962D01*
X146600500Y-105114038D01*
X146561090Y-104865215D01*
X146483241Y-104625621D01*
X146483239Y-104625618D01*
X146483239Y-104625616D01*
X146420855Y-104503181D01*
X146368870Y-104401155D01*
X146271040Y-104266503D01*
X146220798Y-104197350D01*
X146220794Y-104197345D01*
X146081130Y-104057681D01*
X146047645Y-103996358D01*
X146052629Y-103926666D01*
X146081130Y-103882319D01*
X146085239Y-103878210D01*
X146220793Y-103742656D01*
X146368870Y-103538845D01*
X146483241Y-103314379D01*
X146561090Y-103074785D01*
X146600500Y-102825962D01*
X146600500Y-102574038D01*
X146561090Y-102325215D01*
X146483241Y-102085621D01*
X146483239Y-102085618D01*
X146483239Y-102085616D01*
X146441747Y-102004184D01*
X146368870Y-101861155D01*
X146295586Y-101760288D01*
X146220798Y-101657350D01*
X146220794Y-101657345D01*
X146081130Y-101517681D01*
X146047645Y-101456358D01*
X146052629Y-101386666D01*
X146081130Y-101342319D01*
X146111907Y-101311542D01*
X146220793Y-101202656D01*
X146368870Y-100998845D01*
X146483241Y-100774379D01*
X146561090Y-100534785D01*
X146600500Y-100285962D01*
X146600500Y-100034038D01*
X146561090Y-99785215D01*
X146483241Y-99545621D01*
X146483239Y-99545618D01*
X146483239Y-99545616D01*
X146426699Y-99434651D01*
X146368870Y-99321155D01*
X146320841Y-99255048D01*
X146220798Y-99117350D01*
X146220794Y-99117345D01*
X146081130Y-98977681D01*
X146047645Y-98916358D01*
X146052629Y-98846666D01*
X146081130Y-98802319D01*
X146135190Y-98748259D01*
X146220793Y-98662656D01*
X146368870Y-98458845D01*
X146483241Y-98234379D01*
X146561090Y-97994785D01*
X146600500Y-97745962D01*
X146600500Y-97494038D01*
X146561090Y-97245215D01*
X146483241Y-97005621D01*
X146483239Y-97005618D01*
X146483239Y-97005616D01*
X146425609Y-96892512D01*
X146368870Y-96781155D01*
X146320841Y-96715048D01*
X146220798Y-96577350D01*
X146220794Y-96577345D01*
X146081130Y-96437681D01*
X146047645Y-96376358D01*
X146052629Y-96306666D01*
X146081130Y-96262319D01*
X146143949Y-96199500D01*
X146220793Y-96122656D01*
X146368870Y-95918845D01*
X146483241Y-95694379D01*
X146561090Y-95454785D01*
X146600500Y-95205962D01*
X146600500Y-94954038D01*
X146561090Y-94705215D01*
X146483241Y-94465621D01*
X146483239Y-94465618D01*
X146483239Y-94465616D01*
X146420855Y-94343181D01*
X146368870Y-94241155D01*
X146250946Y-94078846D01*
X146220798Y-94037350D01*
X146220794Y-94037345D01*
X146081130Y-93897681D01*
X146047645Y-93836358D01*
X146052629Y-93766666D01*
X146081130Y-93722319D01*
X146135190Y-93668259D01*
X146220793Y-93582656D01*
X146368870Y-93378845D01*
X146483241Y-93154379D01*
X146561090Y-92914785D01*
X146600500Y-92665962D01*
X146600500Y-92414038D01*
X146561090Y-92165215D01*
X146483241Y-91925621D01*
X146483239Y-91925618D01*
X146483239Y-91925616D01*
X146396464Y-91755312D01*
X146368870Y-91701155D01*
X146301233Y-91608060D01*
X146277754Y-91542257D01*
X146293579Y-91474203D01*
X146313871Y-91447495D01*
X146318650Y-91442715D01*
X146318656Y-91442712D01*
X146442712Y-91318656D01*
X146534814Y-91169335D01*
X146589999Y-91002798D01*
X146600500Y-90900010D01*
X146600500Y-89099990D01*
X146589999Y-88997202D01*
X146534814Y-88830665D01*
X146442712Y-88681344D01*
X146318656Y-88557288D01*
X146169335Y-88465186D01*
X146002798Y-88410001D01*
X146002796Y-88410000D01*
X145900017Y-88399500D01*
X145900010Y-88399500D01*
X144099990Y-88399500D01*
X144099982Y-88399500D01*
X143997203Y-88410000D01*
X143997202Y-88410001D01*
X143914669Y-88437349D01*
X143830667Y-88465185D01*
X143830662Y-88465187D01*
X143681342Y-88557289D01*
X143557289Y-88681342D01*
X143465187Y-88830662D01*
X143465186Y-88830665D01*
X143410001Y-88997202D01*
X143410001Y-88997203D01*
X143410000Y-88997203D01*
X143399500Y-89099982D01*
X143399500Y-89175500D01*
X143379815Y-89242539D01*
X143327011Y-89288294D01*
X143275500Y-89299500D01*
X142021519Y-89299500D01*
X141954480Y-89279815D01*
X141933838Y-89263181D01*
X138546071Y-85875414D01*
X138519191Y-85835185D01*
X138459397Y-85690827D01*
X138459390Y-85690814D01*
X138371789Y-85559711D01*
X138371786Y-85559707D01*
X138260292Y-85448213D01*
X138260288Y-85448210D01*
X138129185Y-85360609D01*
X138129172Y-85360602D01*
X137983501Y-85300264D01*
X137983489Y-85300261D01*
X137828845Y-85269500D01*
X137828842Y-85269500D01*
X137671158Y-85269500D01*
X137671155Y-85269500D01*
X137516510Y-85300261D01*
X137516498Y-85300264D01*
X137370827Y-85360602D01*
X137370814Y-85360609D01*
X137239711Y-85448210D01*
X137239707Y-85448213D01*
X137128213Y-85559707D01*
X137128210Y-85559711D01*
X137040609Y-85690814D01*
X137040602Y-85690827D01*
X136980264Y-85836498D01*
X136980261Y-85836510D01*
X136949500Y-85991153D01*
X136949500Y-86148846D01*
X136980261Y-86303489D01*
X136980264Y-86303501D01*
X137040602Y-86449172D01*
X137040609Y-86449185D01*
X137128210Y-86580288D01*
X137128213Y-86580292D01*
X137239707Y-86691786D01*
X137239711Y-86691789D01*
X137370814Y-86779390D01*
X137370827Y-86779397D01*
X137515185Y-86839191D01*
X137555414Y-86866071D01*
X138296040Y-87606697D01*
X138329525Y-87668020D01*
X138324541Y-87737712D01*
X138282669Y-87793645D01*
X138217205Y-87818062D01*
X138148932Y-87803210D01*
X138139469Y-87797481D01*
X138129183Y-87790608D01*
X138129172Y-87790602D01*
X137983501Y-87730264D01*
X137983489Y-87730261D01*
X137867374Y-87707164D01*
X137805463Y-87674779D01*
X137803884Y-87673228D01*
X133360507Y-83229850D01*
X133327022Y-83168527D01*
X133325715Y-83122771D01*
X133350500Y-82966286D01*
X133350500Y-82753713D01*
X133317246Y-82543760D01*
X133317246Y-82543757D01*
X133251557Y-82341588D01*
X133155051Y-82152184D01*
X133155049Y-82152181D01*
X133155048Y-82152179D01*
X133030109Y-81980213D01*
X132879786Y-81829890D01*
X132707820Y-81704951D01*
X132707115Y-81704591D01*
X132699054Y-81700485D01*
X132648259Y-81652512D01*
X132631463Y-81584692D01*
X132653999Y-81518556D01*
X132699054Y-81479515D01*
X132707816Y-81475051D01*
X132729789Y-81459086D01*
X132879786Y-81350109D01*
X132879788Y-81350106D01*
X132879792Y-81350104D01*
X133030104Y-81199792D01*
X133030106Y-81199788D01*
X133030109Y-81199786D01*
X133155048Y-81027820D01*
X133155047Y-81027820D01*
X133155051Y-81027816D01*
X133251557Y-80838412D01*
X133317246Y-80636243D01*
X133350500Y-80426287D01*
X133350500Y-80213713D01*
X133317246Y-80003757D01*
X133251557Y-79801588D01*
X133155051Y-79612184D01*
X133155049Y-79612181D01*
X133155048Y-79612179D01*
X133030109Y-79440213D01*
X132879786Y-79289890D01*
X132707820Y-79164951D01*
X132707115Y-79164591D01*
X132699054Y-79160485D01*
X132648259Y-79112512D01*
X132631463Y-79044692D01*
X132653999Y-78978556D01*
X132699054Y-78939515D01*
X132707816Y-78935051D01*
X132729789Y-78919086D01*
X132879786Y-78810109D01*
X132879788Y-78810106D01*
X132879792Y-78810104D01*
X133030104Y-78659792D01*
X133030106Y-78659788D01*
X133030109Y-78659786D01*
X133155048Y-78487820D01*
X133155047Y-78487820D01*
X133155051Y-78487816D01*
X133251557Y-78298412D01*
X133317246Y-78096243D01*
X133350500Y-77886287D01*
X133350500Y-77673713D01*
X133317246Y-77463757D01*
X133251557Y-77261588D01*
X133155051Y-77072184D01*
X133155049Y-77072181D01*
X133155048Y-77072179D01*
X133030109Y-76900213D01*
X132879786Y-76749890D01*
X132707820Y-76624951D01*
X132707115Y-76624591D01*
X132699054Y-76620485D01*
X132648259Y-76572512D01*
X132631463Y-76504692D01*
X132653999Y-76438556D01*
X132699054Y-76399515D01*
X132707816Y-76395051D01*
X132769824Y-76350000D01*
X132879786Y-76270109D01*
X132879788Y-76270106D01*
X132879792Y-76270104D01*
X133030104Y-76119792D01*
X133030106Y-76119788D01*
X133030109Y-76119786D01*
X133155048Y-75947820D01*
X133155047Y-75947820D01*
X133155051Y-75947816D01*
X133251557Y-75758412D01*
X133317246Y-75556243D01*
X133350500Y-75346287D01*
X133350500Y-75133713D01*
X133325715Y-74977227D01*
X133334670Y-74907933D01*
X133360504Y-74870151D01*
X137994586Y-70236069D01*
X138034810Y-70209192D01*
X138099372Y-70182451D01*
X138179173Y-70149397D01*
X138179176Y-70149395D01*
X138179179Y-70149394D01*
X138310289Y-70061789D01*
X138421789Y-69950289D01*
X138509394Y-69819179D01*
X138569737Y-69673497D01*
X138600500Y-69518842D01*
X138600500Y-69361158D01*
X138600500Y-69361155D01*
X138600499Y-69361153D01*
X138581578Y-69266033D01*
X138569737Y-69206503D01*
X138561518Y-69186660D01*
X138509397Y-69060827D01*
X138509390Y-69060814D01*
X138421789Y-68929711D01*
X138421786Y-68929707D01*
X138310292Y-68818213D01*
X138310288Y-68818210D01*
X138179185Y-68730609D01*
X138179172Y-68730602D01*
X138033501Y-68670264D01*
X138033489Y-68670261D01*
X137878845Y-68639500D01*
X137878842Y-68639500D01*
X137721158Y-68639500D01*
X137721155Y-68639500D01*
X137566510Y-68670261D01*
X137566498Y-68670264D01*
X137420827Y-68730602D01*
X137420814Y-68730609D01*
X137289711Y-68818210D01*
X137289707Y-68818213D01*
X137178213Y-68929707D01*
X137178210Y-68929711D01*
X137090609Y-69060814D01*
X137090604Y-69060823D01*
X137030809Y-69205184D01*
X137003929Y-69245412D01*
X133562181Y-72687161D01*
X133500858Y-72720646D01*
X133431166Y-72715662D01*
X133375233Y-72673790D01*
X133350816Y-72608326D01*
X133350500Y-72599480D01*
X133350500Y-72593713D01*
X133337287Y-72510289D01*
X133317246Y-72383757D01*
X133251557Y-72181588D01*
X133155051Y-71992184D01*
X133155049Y-71992181D01*
X133155048Y-71992179D01*
X133030109Y-71820213D01*
X132879786Y-71669890D01*
X132707820Y-71544951D01*
X132707115Y-71544591D01*
X132699054Y-71540485D01*
X132648259Y-71492512D01*
X132631463Y-71424692D01*
X132653999Y-71358556D01*
X132699054Y-71319515D01*
X132707816Y-71315051D01*
X132804304Y-71244949D01*
X132879786Y-71190109D01*
X132879788Y-71190106D01*
X132879792Y-71190104D01*
X133030104Y-71039792D01*
X133030106Y-71039788D01*
X133030109Y-71039786D01*
X133155048Y-70867820D01*
X133155047Y-70867820D01*
X133155051Y-70867816D01*
X133251557Y-70678412D01*
X133317246Y-70476243D01*
X133350500Y-70266287D01*
X133350500Y-70053713D01*
X133325715Y-69897227D01*
X133334670Y-69827933D01*
X133360504Y-69790151D01*
X136129502Y-67021153D01*
X136799500Y-67021153D01*
X136799500Y-67178846D01*
X136830261Y-67333489D01*
X136830264Y-67333501D01*
X136890602Y-67479172D01*
X136890609Y-67479185D01*
X136978210Y-67610288D01*
X136978213Y-67610292D01*
X137089707Y-67721786D01*
X137089711Y-67721789D01*
X137220814Y-67809390D01*
X137220827Y-67809397D01*
X137366498Y-67869735D01*
X137366503Y-67869737D01*
X137521153Y-67900499D01*
X137521156Y-67900500D01*
X137521158Y-67900500D01*
X137678844Y-67900500D01*
X137678845Y-67900499D01*
X137833497Y-67869737D01*
X137979179Y-67809394D01*
X138110289Y-67721789D01*
X138221789Y-67610289D01*
X138309394Y-67479179D01*
X138309395Y-67479176D01*
X138309397Y-67479173D01*
X138369192Y-67334812D01*
X138396069Y-67294586D01*
X142253838Y-63436819D01*
X142315161Y-63403334D01*
X142341519Y-63400500D01*
X143484652Y-63400500D01*
X143551691Y-63420185D01*
X143595137Y-63468205D01*
X143631132Y-63538848D01*
X143779201Y-63742649D01*
X143779205Y-63742654D01*
X143918870Y-63882319D01*
X143952355Y-63943642D01*
X143947371Y-64013334D01*
X143918870Y-64057681D01*
X143779205Y-64197345D01*
X143779201Y-64197350D01*
X143631132Y-64401151D01*
X143516760Y-64625616D01*
X143438910Y-64865214D01*
X143419964Y-64984835D01*
X143399500Y-65114038D01*
X143399500Y-65365962D01*
X143436317Y-65598412D01*
X143438910Y-65614785D01*
X143516760Y-65854383D01*
X143631132Y-66078848D01*
X143779201Y-66282649D01*
X143779205Y-66282654D01*
X143918870Y-66422319D01*
X143952355Y-66483642D01*
X143947371Y-66553334D01*
X143918870Y-66597681D01*
X143779205Y-66737345D01*
X143779201Y-66737350D01*
X143631132Y-66941151D01*
X143595137Y-67011795D01*
X143547162Y-67062591D01*
X143484652Y-67079500D01*
X141931004Y-67079500D01*
X141795677Y-67106418D01*
X141795667Y-67106421D01*
X141668192Y-67159222D01*
X141553454Y-67235887D01*
X137571272Y-71218069D01*
X137531045Y-71244949D01*
X137420820Y-71290606D01*
X137420814Y-71290609D01*
X137289711Y-71378210D01*
X137289707Y-71378213D01*
X137178213Y-71489707D01*
X137178210Y-71489711D01*
X137090609Y-71620814D01*
X137090602Y-71620827D01*
X137030264Y-71766498D01*
X137030261Y-71766510D01*
X136999500Y-71921153D01*
X136999500Y-72078846D01*
X137030261Y-72233489D01*
X137030264Y-72233501D01*
X137090602Y-72379172D01*
X137090609Y-72379185D01*
X137178210Y-72510288D01*
X137178213Y-72510292D01*
X137289707Y-72621786D01*
X137289711Y-72621789D01*
X137420814Y-72709390D01*
X137420827Y-72709397D01*
X137566498Y-72769735D01*
X137566503Y-72769737D01*
X137721153Y-72800499D01*
X137721156Y-72800500D01*
X137721158Y-72800500D01*
X137878844Y-72800500D01*
X137878845Y-72800499D01*
X138033497Y-72769737D01*
X138179179Y-72709394D01*
X138310289Y-72621789D01*
X138421789Y-72510289D01*
X138509394Y-72379179D01*
X138569737Y-72233497D01*
X138570487Y-72229725D01*
X138571423Y-72227934D01*
X138571506Y-72227664D01*
X138571557Y-72227679D01*
X138602869Y-72167813D01*
X138604365Y-72166290D01*
X142253838Y-68516819D01*
X142315161Y-68483334D01*
X142341519Y-68480500D01*
X143484652Y-68480500D01*
X143551691Y-68500185D01*
X143595137Y-68548205D01*
X143631132Y-68618848D01*
X143779201Y-68822649D01*
X143779205Y-68822654D01*
X143957345Y-69000794D01*
X143957350Y-69000798D01*
X144078003Y-69088457D01*
X144161155Y-69148870D01*
X144274280Y-69206510D01*
X144385616Y-69263239D01*
X144385618Y-69263239D01*
X144385621Y-69263241D01*
X144625215Y-69341090D01*
X144874038Y-69380500D01*
X144874039Y-69380500D01*
X145125961Y-69380500D01*
X145125962Y-69380500D01*
X145374785Y-69341090D01*
X145614379Y-69263241D01*
X145838845Y-69148870D01*
X146042656Y-69000793D01*
X146220793Y-68822656D01*
X146368870Y-68618845D01*
X146483241Y-68394379D01*
X146561090Y-68154785D01*
X146600500Y-67905962D01*
X146600500Y-67654038D01*
X146561090Y-67405215D01*
X146483241Y-67165621D01*
X146483239Y-67165618D01*
X146483239Y-67165616D01*
X146430745Y-67062591D01*
X146368870Y-66941155D01*
X146347818Y-66912179D01*
X146220798Y-66737350D01*
X146220794Y-66737345D01*
X146081130Y-66597681D01*
X146047645Y-66536358D01*
X146052629Y-66466666D01*
X146081130Y-66422319D01*
X146148137Y-66355312D01*
X146220793Y-66282656D01*
X146368870Y-66078845D01*
X146483241Y-65854379D01*
X146561090Y-65614785D01*
X146600500Y-65365962D01*
X146600500Y-65114038D01*
X146561090Y-64865215D01*
X146483241Y-64625621D01*
X146483239Y-64625618D01*
X146483239Y-64625616D01*
X146418394Y-64498352D01*
X146368870Y-64401155D01*
X146326038Y-64342202D01*
X146220798Y-64197350D01*
X146220794Y-64197345D01*
X146081130Y-64057681D01*
X146047645Y-63996358D01*
X146052629Y-63926666D01*
X146081130Y-63882319D01*
X146148137Y-63815312D01*
X146220793Y-63742656D01*
X146368870Y-63538845D01*
X146483241Y-63314379D01*
X146561090Y-63074785D01*
X146600500Y-62825962D01*
X146600500Y-62574038D01*
X146561090Y-62325215D01*
X146483241Y-62085621D01*
X146483239Y-62085618D01*
X146483239Y-62085616D01*
X146430745Y-61982591D01*
X146368870Y-61861155D01*
X146347818Y-61832179D01*
X146220798Y-61657350D01*
X146220794Y-61657345D01*
X146081130Y-61517681D01*
X146047645Y-61456358D01*
X146052629Y-61386666D01*
X146081130Y-61342319D01*
X146148137Y-61275312D01*
X146220793Y-61202656D01*
X146368870Y-60998845D01*
X146483241Y-60774379D01*
X146561090Y-60534785D01*
X146600500Y-60285962D01*
X146600500Y-60034038D01*
X146561090Y-59785215D01*
X146483241Y-59545621D01*
X146483239Y-59545618D01*
X146483239Y-59545616D01*
X146426107Y-59433489D01*
X146368870Y-59321155D01*
X146263041Y-59175493D01*
X146220798Y-59117350D01*
X146220794Y-59117345D01*
X146081130Y-58977681D01*
X146047645Y-58916358D01*
X146052629Y-58846666D01*
X146081130Y-58802319D01*
X146135006Y-58748443D01*
X146220793Y-58662656D01*
X146368870Y-58458845D01*
X146483241Y-58234379D01*
X146561090Y-57994785D01*
X146600500Y-57745962D01*
X146600500Y-57494038D01*
X146561090Y-57245215D01*
X146483241Y-57005621D01*
X146483239Y-57005618D01*
X146483239Y-57005616D01*
X146427873Y-56896955D01*
X146368870Y-56781155D01*
X146301521Y-56688457D01*
X146220798Y-56577350D01*
X146220794Y-56577345D01*
X146081130Y-56437681D01*
X146047645Y-56376358D01*
X146052629Y-56306666D01*
X146081130Y-56262319D01*
X146113742Y-56229707D01*
X146220793Y-56122656D01*
X146368870Y-55918845D01*
X146483241Y-55694379D01*
X146561090Y-55454785D01*
X146600500Y-55205962D01*
X146600500Y-54954038D01*
X146561090Y-54705215D01*
X146483241Y-54465621D01*
X146483239Y-54465618D01*
X146483239Y-54465616D01*
X146434386Y-54369737D01*
X146368870Y-54241155D01*
X146273790Y-54110288D01*
X146220798Y-54037350D01*
X146220794Y-54037345D01*
X146081130Y-53897681D01*
X146047645Y-53836358D01*
X146052629Y-53766666D01*
X146081130Y-53722319D01*
X146124607Y-53678842D01*
X146220793Y-53582656D01*
X146368870Y-53378845D01*
X146483241Y-53154379D01*
X146561090Y-52914785D01*
X146600500Y-52665962D01*
X146600500Y-52414038D01*
X146561090Y-52165215D01*
X146483241Y-51925621D01*
X146483239Y-51925618D01*
X146483239Y-51925616D01*
X146368869Y-51701154D01*
X146301233Y-51608060D01*
X146277754Y-51542257D01*
X146293579Y-51474203D01*
X146313871Y-51447495D01*
X146318650Y-51442715D01*
X146318656Y-51442712D01*
X146442712Y-51318656D01*
X146534814Y-51169335D01*
X146589999Y-51002798D01*
X146600500Y-50900010D01*
X146600500Y-49099990D01*
X146589999Y-48997202D01*
X146534814Y-48830665D01*
X146442712Y-48681344D01*
X146318656Y-48557288D01*
X146169335Y-48465186D01*
X146002798Y-48410001D01*
X146002796Y-48410000D01*
X145900017Y-48399500D01*
X145900010Y-48399500D01*
X144099990Y-48399500D01*
X144099982Y-48399500D01*
X143997203Y-48410000D01*
X143997202Y-48410001D01*
X143914669Y-48437349D01*
X143830667Y-48465185D01*
X143830662Y-48465187D01*
X143681342Y-48557289D01*
X143557289Y-48681342D01*
X143465187Y-48830662D01*
X143465186Y-48830665D01*
X143410001Y-48997202D01*
X143410001Y-48997203D01*
X143410000Y-48997203D01*
X143399500Y-49099982D01*
X143399500Y-50900017D01*
X143410000Y-51002796D01*
X143465185Y-51169332D01*
X143465187Y-51169337D01*
X143557289Y-51318657D01*
X143686128Y-51447496D01*
X143700595Y-51473991D01*
X143717132Y-51499262D01*
X143717173Y-51504352D01*
X143719613Y-51508819D01*
X143717459Y-51538937D01*
X143717708Y-51569129D01*
X143714884Y-51574931D01*
X143714629Y-51578511D01*
X143703312Y-51601353D01*
X143701146Y-51604785D01*
X143631130Y-51701155D01*
X143592557Y-51776857D01*
X143589517Y-51781676D01*
X143567404Y-51801158D01*
X143547162Y-51822591D01*
X143541268Y-51824185D01*
X143537092Y-51827865D01*
X143515533Y-51831146D01*
X143484652Y-51839500D01*
X141991004Y-51839500D01*
X141855677Y-51866418D01*
X141855667Y-51866421D01*
X141728192Y-51919222D01*
X141613454Y-51995887D01*
X137683698Y-55925643D01*
X137622375Y-55959128D01*
X137620210Y-55959579D01*
X137566506Y-55970261D01*
X137566500Y-55970263D01*
X137420827Y-56030602D01*
X137420814Y-56030609D01*
X137289711Y-56118210D01*
X137289707Y-56118213D01*
X137178213Y-56229707D01*
X137178210Y-56229711D01*
X137090609Y-56360814D01*
X137090602Y-56360827D01*
X137030264Y-56506498D01*
X137030261Y-56506510D01*
X136999500Y-56661153D01*
X136999500Y-56818846D01*
X137030261Y-56973489D01*
X137030264Y-56973501D01*
X137090602Y-57119172D01*
X137090609Y-57119185D01*
X137178210Y-57250288D01*
X137178213Y-57250292D01*
X137289707Y-57361786D01*
X137289711Y-57361789D01*
X137420814Y-57449390D01*
X137420827Y-57449397D01*
X137528602Y-57494038D01*
X137566503Y-57509737D01*
X137721153Y-57540499D01*
X137721156Y-57540500D01*
X137721158Y-57540500D01*
X137878844Y-57540500D01*
X137878845Y-57540499D01*
X138033497Y-57509737D01*
X138179179Y-57449394D01*
X138310289Y-57361789D01*
X138421789Y-57250289D01*
X138509394Y-57119179D01*
X138526766Y-57077236D01*
X138553643Y-57037012D01*
X142313838Y-53276819D01*
X142375161Y-53243334D01*
X142401519Y-53240500D01*
X143484652Y-53240500D01*
X143551691Y-53260185D01*
X143595137Y-53308205D01*
X143624841Y-53366503D01*
X143631132Y-53378848D01*
X143779201Y-53582649D01*
X143779205Y-53582654D01*
X143918870Y-53722319D01*
X143952355Y-53783642D01*
X143947371Y-53853334D01*
X143918870Y-53897681D01*
X143779205Y-54037345D01*
X143779201Y-54037350D01*
X143631132Y-54241151D01*
X143516760Y-54465616D01*
X143438910Y-54705214D01*
X143399500Y-54954038D01*
X143399500Y-55205961D01*
X143438910Y-55454785D01*
X143516760Y-55694383D01*
X143631132Y-55918848D01*
X143779201Y-56122649D01*
X143779205Y-56122654D01*
X143918870Y-56262319D01*
X143952355Y-56323642D01*
X143947371Y-56393334D01*
X143918870Y-56437681D01*
X143779205Y-56577345D01*
X143779201Y-56577350D01*
X143631132Y-56781151D01*
X143595137Y-56851795D01*
X143547162Y-56902591D01*
X143484652Y-56919500D01*
X142131007Y-56919500D01*
X142114188Y-56922845D01*
X142065812Y-56922845D01*
X142048994Y-56919500D01*
X141911006Y-56919500D01*
X141911004Y-56919500D01*
X141775677Y-56946418D01*
X141775667Y-56946421D01*
X141648192Y-56999222D01*
X141533454Y-57075887D01*
X137605412Y-61003929D01*
X137565184Y-61030809D01*
X137420823Y-61090604D01*
X137420814Y-61090609D01*
X137289711Y-61178210D01*
X137289707Y-61178213D01*
X137178213Y-61289707D01*
X137178210Y-61289711D01*
X137090609Y-61420814D01*
X137090602Y-61420827D01*
X137030264Y-61566498D01*
X137030261Y-61566510D01*
X136999500Y-61721153D01*
X136999500Y-61878846D01*
X137030261Y-62033489D01*
X137030264Y-62033501D01*
X137090602Y-62179172D01*
X137090609Y-62179185D01*
X137178210Y-62310288D01*
X137178213Y-62310292D01*
X137289707Y-62421786D01*
X137289711Y-62421789D01*
X137420814Y-62509390D01*
X137420827Y-62509397D01*
X137544555Y-62560646D01*
X137566503Y-62569737D01*
X137721153Y-62600499D01*
X137721156Y-62600500D01*
X137721158Y-62600500D01*
X137878844Y-62600500D01*
X137878845Y-62600499D01*
X138033497Y-62569737D01*
X138179179Y-62509394D01*
X138310289Y-62421789D01*
X138421789Y-62310289D01*
X138509394Y-62179179D01*
X138509395Y-62179176D01*
X138509397Y-62179173D01*
X138569192Y-62034812D01*
X138596069Y-61994586D01*
X142233838Y-58356819D01*
X142295161Y-58323334D01*
X142321519Y-58320500D01*
X143484652Y-58320500D01*
X143551691Y-58340185D01*
X143595137Y-58388205D01*
X143631132Y-58458848D01*
X143779201Y-58662649D01*
X143779205Y-58662654D01*
X143918870Y-58802319D01*
X143952355Y-58863642D01*
X143947371Y-58933334D01*
X143918870Y-58977681D01*
X143779205Y-59117345D01*
X143779201Y-59117350D01*
X143631132Y-59321151D01*
X143516760Y-59545616D01*
X143463255Y-59710288D01*
X143438910Y-59785215D01*
X143399500Y-60034038D01*
X143399500Y-60285962D01*
X143404296Y-60316243D01*
X143438910Y-60534785D01*
X143516760Y-60774383D01*
X143631132Y-60998848D01*
X143779201Y-61202649D01*
X143779205Y-61202654D01*
X143918870Y-61342319D01*
X143952355Y-61403642D01*
X143947371Y-61473334D01*
X143918870Y-61517681D01*
X143779205Y-61657345D01*
X143779201Y-61657350D01*
X143631132Y-61861151D01*
X143595137Y-61931795D01*
X143547162Y-61982591D01*
X143484652Y-61999500D01*
X141931004Y-61999500D01*
X141795677Y-62026418D01*
X141795667Y-62026421D01*
X141668192Y-62079222D01*
X141553454Y-62155887D01*
X137405412Y-66303929D01*
X137365184Y-66330809D01*
X137220823Y-66390604D01*
X137220814Y-66390609D01*
X137089711Y-66478210D01*
X137089707Y-66478213D01*
X136978213Y-66589707D01*
X136978210Y-66589711D01*
X136890609Y-66720814D01*
X136890602Y-66720827D01*
X136830264Y-66866498D01*
X136830261Y-66866510D01*
X136799500Y-67021153D01*
X136129502Y-67021153D01*
X137794586Y-65356069D01*
X137834810Y-65329192D01*
X137889435Y-65306566D01*
X137979173Y-65269397D01*
X137979176Y-65269395D01*
X137979179Y-65269394D01*
X138110289Y-65181789D01*
X138221789Y-65070289D01*
X138309394Y-64939179D01*
X138369737Y-64793497D01*
X138400500Y-64638842D01*
X138400500Y-64481158D01*
X138400500Y-64481155D01*
X138400499Y-64481153D01*
X138384586Y-64401155D01*
X138369737Y-64326503D01*
X138369191Y-64325184D01*
X138309397Y-64180827D01*
X138309390Y-64180814D01*
X138221789Y-64049711D01*
X138221786Y-64049707D01*
X138110292Y-63938213D01*
X138110288Y-63938210D01*
X137979185Y-63850609D01*
X137979172Y-63850602D01*
X137833501Y-63790264D01*
X137833489Y-63790261D01*
X137678845Y-63759500D01*
X137678842Y-63759500D01*
X137521158Y-63759500D01*
X137521155Y-63759500D01*
X137366510Y-63790261D01*
X137366498Y-63790264D01*
X137220827Y-63850602D01*
X137220814Y-63850609D01*
X137089711Y-63938210D01*
X137089707Y-63938213D01*
X136978213Y-64049707D01*
X136978210Y-64049711D01*
X136890609Y-64180814D01*
X136890604Y-64180823D01*
X136830809Y-64325184D01*
X136803929Y-64365412D01*
X133562181Y-67607161D01*
X133500858Y-67640646D01*
X133431166Y-67635662D01*
X133375233Y-67593790D01*
X133350816Y-67528326D01*
X133350500Y-67519480D01*
X133350500Y-67513713D01*
X133333315Y-67405214D01*
X133317246Y-67303757D01*
X133251557Y-67101588D01*
X133155051Y-66912184D01*
X133155049Y-66912181D01*
X133155048Y-66912179D01*
X133030109Y-66740213D01*
X132879786Y-66589890D01*
X132707820Y-66464951D01*
X132699659Y-66460793D01*
X132699054Y-66460485D01*
X132648259Y-66412512D01*
X132631463Y-66344692D01*
X132653999Y-66278556D01*
X132699054Y-66239515D01*
X132707816Y-66235051D01*
X132729789Y-66219086D01*
X132879786Y-66110109D01*
X132879788Y-66110106D01*
X132879792Y-66110104D01*
X133030104Y-65959792D01*
X133030106Y-65959788D01*
X133030109Y-65959786D01*
X133155048Y-65787820D01*
X133155047Y-65787820D01*
X133155051Y-65787816D01*
X133251557Y-65598412D01*
X133317246Y-65396243D01*
X133350500Y-65186287D01*
X133350500Y-64973713D01*
X133339257Y-64902728D01*
X133325715Y-64817227D01*
X133334670Y-64747933D01*
X133360504Y-64710151D01*
X138074586Y-59996069D01*
X138114810Y-59969192D01*
X138169435Y-59946566D01*
X138259173Y-59909397D01*
X138259176Y-59909395D01*
X138259179Y-59909394D01*
X138390289Y-59821789D01*
X138501789Y-59710289D01*
X138589394Y-59579179D01*
X138649737Y-59433497D01*
X138680500Y-59278842D01*
X138680500Y-59121158D01*
X138680500Y-59121155D01*
X138680499Y-59121153D01*
X138672447Y-59080673D01*
X138649737Y-58966503D01*
X138635173Y-58931342D01*
X138589397Y-58820827D01*
X138589390Y-58820814D01*
X138501789Y-58689711D01*
X138501786Y-58689707D01*
X138390292Y-58578213D01*
X138390288Y-58578210D01*
X138259185Y-58490609D01*
X138259172Y-58490602D01*
X138113501Y-58430264D01*
X138113489Y-58430261D01*
X137958845Y-58399500D01*
X137958842Y-58399500D01*
X137801158Y-58399500D01*
X137801155Y-58399500D01*
X137646510Y-58430261D01*
X137646498Y-58430264D01*
X137500827Y-58490602D01*
X137500814Y-58490609D01*
X137369711Y-58578210D01*
X137369707Y-58578213D01*
X137258213Y-58689707D01*
X137258210Y-58689711D01*
X137170609Y-58820814D01*
X137170604Y-58820823D01*
X137110809Y-58965184D01*
X137083929Y-59005412D01*
X133562181Y-62527161D01*
X133500858Y-62560646D01*
X133431166Y-62555662D01*
X133375233Y-62513790D01*
X133350816Y-62448326D01*
X133350500Y-62439480D01*
X133350500Y-62433713D01*
X133317246Y-62223760D01*
X133317246Y-62223757D01*
X133251557Y-62021588D01*
X133155051Y-61832184D01*
X133155049Y-61832181D01*
X133155048Y-61832179D01*
X133030109Y-61660213D01*
X132879790Y-61509894D01*
X132879785Y-61509890D01*
X132874891Y-61506334D01*
X132832227Y-61451003D01*
X132826249Y-61381390D01*
X132858857Y-61319595D01*
X132908774Y-61288312D01*
X132919334Y-61284814D01*
X133068656Y-61192712D01*
X133192712Y-61068656D01*
X133284814Y-60919334D01*
X133339999Y-60752797D01*
X133350500Y-60650009D01*
X133350499Y-59349992D01*
X133346307Y-59308953D01*
X133359077Y-59240261D01*
X133381981Y-59208674D01*
X138194584Y-54396070D01*
X138234810Y-54369193D01*
X138379172Y-54309397D01*
X138379172Y-54309396D01*
X138379179Y-54309394D01*
X138510289Y-54221789D01*
X138621789Y-54110289D01*
X138709394Y-53979179D01*
X138769737Y-53833497D01*
X138800500Y-53678842D01*
X138800500Y-53521158D01*
X138800500Y-53521155D01*
X138800499Y-53521153D01*
X138772860Y-53382204D01*
X138769737Y-53366503D01*
X138769192Y-53365187D01*
X138709397Y-53220827D01*
X138709390Y-53220814D01*
X138621789Y-53089711D01*
X138621786Y-53089707D01*
X138510292Y-52978213D01*
X138510288Y-52978210D01*
X138379185Y-52890609D01*
X138379172Y-52890602D01*
X138233501Y-52830264D01*
X138233489Y-52830261D01*
X138078845Y-52799500D01*
X138078842Y-52799500D01*
X137921158Y-52799500D01*
X137921155Y-52799500D01*
X137766510Y-52830261D01*
X137766498Y-52830264D01*
X137620827Y-52890602D01*
X137620814Y-52890609D01*
X137489711Y-52978210D01*
X137489707Y-52978213D01*
X137378213Y-53089707D01*
X137378210Y-53089711D01*
X137290609Y-53220814D01*
X137290604Y-53220824D01*
X137230807Y-53365187D01*
X137203927Y-53405415D01*
X131996160Y-58613181D01*
X131934837Y-58646666D01*
X131908479Y-58649500D01*
X131349998Y-58649500D01*
X131349980Y-58649501D01*
X131247203Y-58660000D01*
X131247200Y-58660001D01*
X131080668Y-58715185D01*
X131080663Y-58715187D01*
X130931342Y-58807289D01*
X130807289Y-58931342D01*
X130715187Y-59080663D01*
X130715183Y-59080673D01*
X130711685Y-59091229D01*
X130671910Y-59148672D01*
X130607393Y-59175493D01*
X130538618Y-59163174D01*
X130493663Y-59125106D01*
X130490105Y-59120209D01*
X130339786Y-58969890D01*
X130167820Y-58844951D01*
X129978414Y-58748444D01*
X129978413Y-58748443D01*
X129978412Y-58748443D01*
X129776243Y-58682754D01*
X129776241Y-58682753D01*
X129776240Y-58682753D01*
X129614957Y-58657208D01*
X129566287Y-58649500D01*
X129353713Y-58649500D01*
X129305042Y-58657208D01*
X129143760Y-58682753D01*
X128941585Y-58748444D01*
X128752179Y-58844951D01*
X128580213Y-58969890D01*
X128429890Y-59120213D01*
X128304951Y-59292179D01*
X128208444Y-59481585D01*
X128142753Y-59683760D01*
X128109500Y-59893713D01*
X77495181Y-59893713D01*
X77495181Y-57898322D01*
X122075001Y-57898322D01*
X122085144Y-57997607D01*
X122138452Y-58158481D01*
X122138457Y-58158492D01*
X122227424Y-58302728D01*
X122227427Y-58302732D01*
X122347267Y-58422572D01*
X122347271Y-58422575D01*
X122491507Y-58511542D01*
X122491518Y-58511547D01*
X122652393Y-58564855D01*
X122751683Y-58574999D01*
X122775000Y-58574998D01*
X122775000Y-57850000D01*
X122075001Y-57850000D01*
X122075001Y-57898322D01*
X77495181Y-57898322D01*
X77495181Y-57301677D01*
X122075000Y-57301677D01*
X122075000Y-57350000D01*
X122775000Y-57350000D01*
X122775000Y-56625000D01*
X123275000Y-56625000D01*
X123275000Y-58574999D01*
X123298308Y-58574999D01*
X123298322Y-58574998D01*
X123397607Y-58564855D01*
X123558481Y-58511547D01*
X123558492Y-58511542D01*
X123702731Y-58422573D01*
X123711959Y-58413345D01*
X123773279Y-58379856D01*
X123842971Y-58384835D01*
X123887327Y-58413339D01*
X123896955Y-58422967D01*
X123896959Y-58422970D01*
X124041294Y-58511998D01*
X124041297Y-58511999D01*
X124041303Y-58512003D01*
X124202292Y-58565349D01*
X124301655Y-58575500D01*
X124848344Y-58575499D01*
X124848352Y-58575498D01*
X124848355Y-58575498D01*
X124902760Y-58569940D01*
X124947708Y-58565349D01*
X125108697Y-58512003D01*
X125253044Y-58422968D01*
X125372968Y-58303044D01*
X125462003Y-58158697D01*
X125515349Y-57997708D01*
X125525500Y-57898345D01*
X125525499Y-57301656D01*
X125519733Y-57245214D01*
X125515349Y-57202292D01*
X125515348Y-57202289D01*
X125487808Y-57119179D01*
X125462003Y-57041303D01*
X125461999Y-57041297D01*
X125461998Y-57041294D01*
X125372970Y-56896959D01*
X125372967Y-56896955D01*
X125253044Y-56777032D01*
X125253040Y-56777029D01*
X125108705Y-56688001D01*
X125108699Y-56687998D01*
X125108697Y-56687997D01*
X125027702Y-56661158D01*
X124947709Y-56634651D01*
X124848346Y-56624500D01*
X124301662Y-56624500D01*
X124301644Y-56624501D01*
X124202292Y-56634650D01*
X124202289Y-56634651D01*
X124041305Y-56687996D01*
X124041294Y-56688001D01*
X123896959Y-56777029D01*
X123896953Y-56777033D01*
X123887324Y-56786663D01*
X123826000Y-56820146D01*
X123756308Y-56815159D01*
X123711965Y-56786660D01*
X123702732Y-56777427D01*
X123702728Y-56777424D01*
X123558492Y-56688457D01*
X123558481Y-56688452D01*
X123397606Y-56635144D01*
X123298322Y-56625000D01*
X123275000Y-56625000D01*
X122775000Y-56625000D01*
X122775000Y-56624999D01*
X122751693Y-56625000D01*
X122751674Y-56625001D01*
X122652392Y-56635144D01*
X122491518Y-56688452D01*
X122491507Y-56688457D01*
X122347271Y-56777424D01*
X122347267Y-56777427D01*
X122227427Y-56897267D01*
X122227424Y-56897271D01*
X122138457Y-57041507D01*
X122138452Y-57041518D01*
X122085144Y-57202393D01*
X122075000Y-57301677D01*
X77495181Y-57301677D01*
X77495181Y-49850665D01*
X87721500Y-49850665D01*
X87721500Y-50149334D01*
X87721501Y-50149350D01*
X87760484Y-50445456D01*
X87760485Y-50445461D01*
X87760486Y-50445467D01*
X87837790Y-50733971D01*
X87906566Y-50900010D01*
X87952088Y-51009910D01*
X87952092Y-51009920D01*
X88101430Y-51268582D01*
X88283255Y-51505541D01*
X88283261Y-51505548D01*
X88494451Y-51716738D01*
X88494458Y-51716744D01*
X88731417Y-51898569D01*
X88990079Y-52047907D01*
X88990080Y-52047907D01*
X88990083Y-52047909D01*
X89266029Y-52162210D01*
X89554533Y-52239514D01*
X89850659Y-52278500D01*
X89850666Y-52278500D01*
X90149334Y-52278500D01*
X90149341Y-52278500D01*
X90445467Y-52239514D01*
X90733971Y-52162210D01*
X91009917Y-52047909D01*
X91268583Y-51898569D01*
X91505543Y-51716743D01*
X91716743Y-51505543D01*
X91898569Y-51268583D01*
X92047909Y-51009917D01*
X92162210Y-50733971D01*
X92239514Y-50445467D01*
X92278500Y-50149341D01*
X92278500Y-49850665D01*
X107721500Y-49850665D01*
X107721500Y-50149334D01*
X107721501Y-50149350D01*
X107760484Y-50445456D01*
X107760485Y-50445461D01*
X107760486Y-50445467D01*
X107837790Y-50733971D01*
X107906566Y-50900010D01*
X107952088Y-51009910D01*
X107952092Y-51009920D01*
X108101430Y-51268582D01*
X108283255Y-51505541D01*
X108283261Y-51505548D01*
X108494451Y-51716738D01*
X108494458Y-51716744D01*
X108731417Y-51898569D01*
X108990079Y-52047907D01*
X108990080Y-52047907D01*
X108990083Y-52047909D01*
X109266029Y-52162210D01*
X109554533Y-52239514D01*
X109850659Y-52278500D01*
X109850666Y-52278500D01*
X110149334Y-52278500D01*
X110149341Y-52278500D01*
X110445467Y-52239514D01*
X110733971Y-52162210D01*
X111009917Y-52047909D01*
X111268583Y-51898569D01*
X111505543Y-51716743D01*
X111716743Y-51505543D01*
X111898569Y-51268583D01*
X112047909Y-51009917D01*
X112162210Y-50733971D01*
X112239514Y-50445467D01*
X112278500Y-50149341D01*
X112278500Y-49850659D01*
X112239514Y-49554533D01*
X112162210Y-49266029D01*
X112047909Y-48990083D01*
X111898569Y-48731417D01*
X111716743Y-48494457D01*
X111716738Y-48494451D01*
X111505548Y-48283261D01*
X111505541Y-48283255D01*
X111268582Y-48101430D01*
X111009920Y-47952092D01*
X111009910Y-47952088D01*
X110986240Y-47942283D01*
X110733971Y-47837790D01*
X110445467Y-47760486D01*
X110445461Y-47760485D01*
X110445456Y-47760484D01*
X110149350Y-47721501D01*
X110149347Y-47721500D01*
X110149341Y-47721500D01*
X109850659Y-47721500D01*
X109850653Y-47721500D01*
X109850649Y-47721501D01*
X109554543Y-47760484D01*
X109554536Y-47760485D01*
X109554533Y-47760486D01*
X109266029Y-47837790D01*
X109111320Y-47901872D01*
X108990089Y-47952088D01*
X108990079Y-47952092D01*
X108731417Y-48101430D01*
X108494458Y-48283255D01*
X108494451Y-48283261D01*
X108283261Y-48494451D01*
X108283255Y-48494458D01*
X108101430Y-48731417D01*
X107952092Y-48990079D01*
X107952088Y-48990089D01*
X107906569Y-49099982D01*
X107837790Y-49266029D01*
X107837789Y-49266033D01*
X107760487Y-49554530D01*
X107760484Y-49554543D01*
X107721501Y-49850649D01*
X107721500Y-49850665D01*
X92278500Y-49850665D01*
X92278500Y-49850659D01*
X92239514Y-49554533D01*
X92162210Y-49266029D01*
X92047909Y-48990083D01*
X91898569Y-48731417D01*
X91716743Y-48494457D01*
X91716738Y-48494451D01*
X91505548Y-48283261D01*
X91505541Y-48283255D01*
X91268582Y-48101430D01*
X91009920Y-47952092D01*
X91009910Y-47952088D01*
X90986240Y-47942283D01*
X90733971Y-47837790D01*
X90445467Y-47760486D01*
X90445461Y-47760485D01*
X90445456Y-47760484D01*
X90149350Y-47721501D01*
X90149347Y-47721500D01*
X90149341Y-47721500D01*
X89850659Y-47721500D01*
X89850653Y-47721500D01*
X89850649Y-47721501D01*
X89554543Y-47760484D01*
X89554536Y-47760485D01*
X89554533Y-47760486D01*
X89266029Y-47837790D01*
X89111320Y-47901872D01*
X88990089Y-47952088D01*
X88990079Y-47952092D01*
X88731417Y-48101430D01*
X88494458Y-48283255D01*
X88494451Y-48283261D01*
X88283261Y-48494451D01*
X88283255Y-48494458D01*
X88101430Y-48731417D01*
X87952092Y-48990079D01*
X87952088Y-48990089D01*
X87906569Y-49099982D01*
X87837790Y-49266029D01*
X87837789Y-49266033D01*
X87760487Y-49554530D01*
X87760484Y-49554543D01*
X87721501Y-49850649D01*
X87721500Y-49850665D01*
X77495181Y-49850665D01*
X77495181Y-42966656D01*
X78644181Y-42966656D01*
X78644181Y-43209233D01*
X78675842Y-43449730D01*
X78738628Y-43684049D01*
X78831454Y-43908150D01*
X78831457Y-43908157D01*
X78952745Y-44118234D01*
X78952747Y-44118237D01*
X78952748Y-44118238D01*
X79100414Y-44310681D01*
X79100420Y-44310688D01*
X79271937Y-44482205D01*
X79271943Y-44482210D01*
X79464392Y-44629881D01*
X79674469Y-44751169D01*
X79898581Y-44843999D01*
X80132892Y-44906783D01*
X80313267Y-44930529D01*
X80373392Y-44938445D01*
X80373393Y-44938445D01*
X80615970Y-44938445D01*
X80664069Y-44932112D01*
X80856470Y-44906783D01*
X81090781Y-44843999D01*
X81314893Y-44751169D01*
X81524970Y-44629881D01*
X81717419Y-44482210D01*
X81888946Y-44310683D01*
X82036617Y-44118234D01*
X82157905Y-43908157D01*
X82250735Y-43684045D01*
X82313519Y-43449734D01*
X82345181Y-43209233D01*
X82345181Y-42966657D01*
X82345181Y-42966656D01*
X145644181Y-42966656D01*
X145644181Y-43209233D01*
X145675842Y-43449730D01*
X145738628Y-43684049D01*
X145831454Y-43908150D01*
X145831457Y-43908157D01*
X145952745Y-44118234D01*
X145952747Y-44118237D01*
X145952748Y-44118238D01*
X146100414Y-44310681D01*
X146100420Y-44310688D01*
X146271937Y-44482205D01*
X146271943Y-44482210D01*
X146464392Y-44629881D01*
X146674469Y-44751169D01*
X146898581Y-44843999D01*
X147132892Y-44906783D01*
X147313267Y-44930529D01*
X147373392Y-44938445D01*
X147373393Y-44938445D01*
X147615970Y-44938445D01*
X147664069Y-44932112D01*
X147856470Y-44906783D01*
X148090781Y-44843999D01*
X148314893Y-44751169D01*
X148524970Y-44629881D01*
X148717419Y-44482210D01*
X148888946Y-44310683D01*
X149036617Y-44118234D01*
X149157905Y-43908157D01*
X149250735Y-43684045D01*
X149313519Y-43449734D01*
X149345181Y-43209233D01*
X149345181Y-42966657D01*
X149313519Y-42726156D01*
X149250735Y-42491845D01*
X149157905Y-42267733D01*
X149036617Y-42057656D01*
X148888946Y-41865207D01*
X148888941Y-41865201D01*
X148717424Y-41693684D01*
X148717417Y-41693678D01*
X148524974Y-41546012D01*
X148524973Y-41546011D01*
X148524970Y-41546009D01*
X148314893Y-41424721D01*
X148272700Y-41407244D01*
X148090785Y-41331892D01*
X147856466Y-41269106D01*
X147615970Y-41237445D01*
X147615969Y-41237445D01*
X147373393Y-41237445D01*
X147373392Y-41237445D01*
X147132895Y-41269106D01*
X146898576Y-41331892D01*
X146674475Y-41424718D01*
X146674466Y-41424722D01*
X146464387Y-41546012D01*
X146271944Y-41693678D01*
X146271937Y-41693684D01*
X146100420Y-41865201D01*
X146100414Y-41865208D01*
X145952748Y-42057651D01*
X145831458Y-42267730D01*
X145831454Y-42267739D01*
X145738628Y-42491840D01*
X145675842Y-42726159D01*
X145644181Y-42966656D01*
X82345181Y-42966656D01*
X82313519Y-42726156D01*
X82250735Y-42491845D01*
X82157905Y-42267733D01*
X82036617Y-42057656D01*
X81888946Y-41865207D01*
X81888941Y-41865201D01*
X81717424Y-41693684D01*
X81717417Y-41693678D01*
X81524974Y-41546012D01*
X81524973Y-41546011D01*
X81524970Y-41546009D01*
X81314893Y-41424721D01*
X81272700Y-41407244D01*
X81090785Y-41331892D01*
X80856466Y-41269106D01*
X80615970Y-41237445D01*
X80615969Y-41237445D01*
X80373393Y-41237445D01*
X80373392Y-41237445D01*
X80132895Y-41269106D01*
X79898576Y-41331892D01*
X79674475Y-41424718D01*
X79674466Y-41424722D01*
X79464387Y-41546012D01*
X79271944Y-41693678D01*
X79271937Y-41693684D01*
X79100420Y-41865201D01*
X79100414Y-41865208D01*
X78952748Y-42057651D01*
X78831458Y-42267730D01*
X78831454Y-42267739D01*
X78738628Y-42491840D01*
X78675842Y-42726159D01*
X78644181Y-42966656D01*
X77495181Y-42966656D01*
X77495181Y-42591695D01*
X77495407Y-42584208D01*
X77499167Y-42522053D01*
X77512954Y-42294142D01*
X77514758Y-42279287D01*
X77516875Y-42267739D01*
X77566462Y-41997145D01*
X77570046Y-41982611D01*
X77655381Y-41708764D01*
X77660680Y-41694789D01*
X77778413Y-41433197D01*
X77785358Y-41419965D01*
X77933762Y-41174475D01*
X77942249Y-41162179D01*
X78119163Y-40936366D01*
X78129078Y-40925175D01*
X78331908Y-40722345D01*
X78343099Y-40712430D01*
X78568902Y-40535525D01*
X78581223Y-40527021D01*
X78625617Y-40500184D01*
X78826697Y-40378627D01*
X78839940Y-40371677D01*
X79101524Y-40253947D01*
X79115494Y-40248649D01*
X79389358Y-40163310D01*
X79403876Y-40159731D01*
X79686024Y-40108026D01*
X79700880Y-40106222D01*
X79991051Y-40088670D01*
X79998525Y-40088445D01*
X80060574Y-40088445D01*
X147928788Y-40088445D01*
X147928792Y-40088446D01*
G37*
G04 #@! TD.AperFunction*
M02*
