G04 #@! TF.GenerationSoftware,KiCad,Pcbnew,9.0.2*
G04 #@! TF.CreationDate,2025-09-04T19:20:52+09:00*
G04 #@! TF.ProjectId,panel-bncs,70616e65-6c2d-4626-9e63-732e6b696361,rev?*
G04 #@! TF.SameCoordinates,Original*
G04 #@! TF.FileFunction,Legend,Bot*
G04 #@! TF.FilePolarity,Positive*
%FSLAX46Y46*%
G04 Gerber Fmt 4.6, Leading zero omitted, Abs format (unit mm)*
G04 Created by KiCad (PCBNEW 9.0.2) date 2025-09-04 19:20:52*
%MOMM*%
%LPD*%
G01*
G04 APERTURE LIST*
G04 Aperture macros list*
%AMRoundRect*
0 Rectangle with rounded corners*
0 $1 Rounding radius*
0 $2 $3 $4 $5 $6 $7 $8 $9 X,Y pos of 4 corners*
0 Add a 4 corners polygon primitive as box body*
4,1,4,$2,$3,$4,$5,$6,$7,$8,$9,$2,$3,0*
0 Add four circle primitives for the rounded corners*
1,1,$1+$1,$2,$3*
1,1,$1+$1,$4,$5*
1,1,$1+$1,$6,$7*
1,1,$1+$1,$8,$9*
0 Add four rect primitives between the rounded corners*
20,1,$1+$1,$2,$3,$4,$5,0*
20,1,$1+$1,$4,$5,$6,$7,0*
20,1,$1+$1,$6,$7,$8,$9,0*
20,1,$1+$1,$8,$9,$2,$3,0*%
G04 Aperture macros list end*
%ADD10C,0.100000*%
%ADD11C,0.150000*%
%ADD12C,0.120000*%
%ADD13C,0.000000*%
%ADD14C,3.556000*%
%ADD15C,3.810000*%
%ADD16RoundRect,0.200000X0.200000X0.275000X-0.200000X0.275000X-0.200000X-0.275000X0.200000X-0.275000X0*%
%ADD17RoundRect,0.250000X-0.250000X0.250000X-0.250000X-0.250000X0.250000X-0.250000X0.250000X0.250000X0*%
%ADD18RoundRect,0.249999X-0.850001X0.850001X-0.850001X-0.850001X0.850001X-0.850001X0.850001X0.850001X0*%
%ADD19C,2.200000*%
%ADD20RoundRect,0.250000X0.250000X-0.250000X0.250000X0.250000X-0.250000X0.250000X-0.250000X-0.250000X0*%
%ADD21RoundRect,0.250000X0.600000X0.600000X-0.600000X0.600000X-0.600000X-0.600000X0.600000X-0.600000X0*%
%ADD22C,1.700000*%
%ADD23C,3.200000*%
G04 APERTURE END LIST*
D10*
G36*
X139120537Y-107293499D02*
G01*
X139120537Y-108700520D01*
X139073276Y-108687881D01*
X138971427Y-108666907D01*
X138870585Y-108647947D01*
X138824423Y-108639612D01*
X138824423Y-108809697D01*
X138907313Y-108832778D01*
X139003942Y-108868499D01*
X139098464Y-108920980D01*
X139140423Y-108955329D01*
X139175125Y-108994528D01*
X139345210Y-108994528D01*
X139345210Y-107293499D01*
X139120537Y-107293499D01*
G37*
G36*
X140064566Y-107276737D02*
G01*
X139963696Y-107284140D01*
X139883869Y-107304406D01*
X139820934Y-107335539D01*
X139766988Y-107380009D01*
X139724112Y-107436078D01*
X139691791Y-107505623D01*
X139670988Y-107580794D01*
X139657682Y-107668371D01*
X139652956Y-107770230D01*
X139877629Y-107770230D01*
X139880787Y-107695124D01*
X139890177Y-107622127D01*
X139910440Y-107554760D01*
X139943758Y-107502418D01*
X139974181Y-107477120D01*
X140014742Y-107461049D01*
X140068688Y-107455157D01*
X140127771Y-107461933D01*
X140170440Y-107480176D01*
X140200945Y-107508738D01*
X140232474Y-107568777D01*
X140251412Y-107653635D01*
X140259152Y-107747986D01*
X140261945Y-107860539D01*
X140258495Y-107971749D01*
X140249305Y-108056818D01*
X140228766Y-108130893D01*
X140196824Y-108180741D01*
X140167315Y-108203465D01*
X140126549Y-108218266D01*
X140070794Y-108223789D01*
X140026277Y-108218849D01*
X139987512Y-108204532D01*
X139953191Y-108180741D01*
X139910838Y-108134285D01*
X139881842Y-108083105D01*
X139690691Y-108083105D01*
X139690691Y-108994528D01*
X140423603Y-108994528D01*
X140423603Y-108769763D01*
X139894390Y-108769763D01*
X139879735Y-108299443D01*
X139926076Y-108338381D01*
X139983600Y-108368686D01*
X140048490Y-108387296D01*
X140125383Y-108393874D01*
X140215698Y-108385780D01*
X140286778Y-108363514D01*
X140342728Y-108328752D01*
X140389222Y-108281147D01*
X140426314Y-108222330D01*
X140454011Y-108150333D01*
X140477996Y-108032232D01*
X140486618Y-107889940D01*
X140481714Y-107762079D01*
X140467659Y-107647315D01*
X140440958Y-107540196D01*
X140401530Y-107452043D01*
X140366019Y-107400576D01*
X140323181Y-107357775D01*
X140272386Y-107322899D01*
X140215955Y-107298242D01*
X140147528Y-107282422D01*
X140064566Y-107276737D01*
G37*
G36*
X140131581Y-88782242D02*
G01*
X140211783Y-88803154D01*
X140275501Y-88835447D01*
X140330250Y-88881217D01*
X140374171Y-88938392D01*
X140407759Y-89008738D01*
X140429840Y-89084738D01*
X140443849Y-89172046D01*
X140448792Y-89272337D01*
X140444588Y-89355665D01*
X140433038Y-89423462D01*
X140413670Y-89485817D01*
X140388891Y-89537951D01*
X140357683Y-89584478D01*
X140321663Y-89624046D01*
X140236667Y-89690175D01*
X140290242Y-89731738D01*
X140335895Y-89780535D01*
X140374145Y-89837179D01*
X140401535Y-89899489D01*
X140419225Y-89976143D01*
X140425619Y-90070278D01*
X140420567Y-90159191D01*
X140406241Y-90236341D01*
X140383579Y-90303377D01*
X140350151Y-90364809D01*
X140307325Y-90415117D01*
X140254435Y-90455602D01*
X140194080Y-90484249D01*
X140120535Y-90502589D01*
X140030862Y-90509182D01*
X139941192Y-90502631D01*
X139866841Y-90484326D01*
X139805090Y-90455602D01*
X139750936Y-90414988D01*
X139707447Y-90364664D01*
X139673840Y-90303377D01*
X139651228Y-90236346D01*
X139636932Y-90159196D01*
X139632608Y-90082918D01*
X139852351Y-90082918D01*
X139857147Y-90151962D01*
X139870704Y-90210886D01*
X139892193Y-90261337D01*
X139924592Y-90301569D01*
X139969379Y-90326016D01*
X140030862Y-90334885D01*
X140092236Y-90325964D01*
X140136209Y-90301505D01*
X140167332Y-90261337D01*
X140195118Y-90182714D01*
X140205159Y-90082918D01*
X140201425Y-90012364D01*
X140190413Y-89945348D01*
X140169611Y-89883928D01*
X140139031Y-89837179D01*
X140111875Y-89814353D01*
X140076616Y-89799478D01*
X140030862Y-89793123D01*
X139985053Y-89799424D01*
X139949014Y-89814272D01*
X139920586Y-89837179D01*
X139888343Y-89884099D01*
X139867005Y-89945348D01*
X139856061Y-90012362D01*
X139852351Y-90082918D01*
X139632608Y-90082918D01*
X139631891Y-90070278D01*
X139638346Y-89977661D01*
X139656321Y-89901246D01*
X139684372Y-89838186D01*
X139745053Y-89755176D01*
X139820843Y-89690175D01*
X139735755Y-89624046D01*
X139699789Y-89584489D01*
X139668527Y-89537951D01*
X139644049Y-89485794D01*
X139625479Y-89423462D01*
X139614740Y-89355711D01*
X139610825Y-89272337D01*
X139611032Y-89268123D01*
X139825056Y-89268123D01*
X139829911Y-89348226D01*
X139843924Y-89420348D01*
X139870011Y-89485145D01*
X139908038Y-89534745D01*
X139940632Y-89558675D01*
X139980853Y-89573571D01*
X140030862Y-89578892D01*
X140080768Y-89573443D01*
X140120586Y-89558215D01*
X140152586Y-89533738D01*
X140189621Y-89483287D01*
X140214593Y-89418241D01*
X140227884Y-89346413D01*
X140232453Y-89268123D01*
X140228322Y-89182177D01*
X140216700Y-89108480D01*
X140193158Y-89043163D01*
X140156799Y-88995090D01*
X140124965Y-88972658D01*
X140083884Y-88958353D01*
X140030862Y-88953142D01*
X139977823Y-88958327D01*
X139936332Y-88972615D01*
X139903825Y-88995090D01*
X139866424Y-89043226D01*
X139841818Y-89108480D01*
X139829448Y-89182219D01*
X139825056Y-89268123D01*
X139611032Y-89268123D01*
X139615757Y-89172041D01*
X139629735Y-89084734D01*
X139651766Y-89008738D01*
X139685475Y-88938467D01*
X139729745Y-88881283D01*
X139785123Y-88835447D01*
X139849533Y-88803113D01*
X139930145Y-88782219D01*
X140030862Y-88774631D01*
X140131581Y-88782242D01*
G37*
G36*
X139327167Y-96722070D02*
G01*
X139327167Y-98129091D01*
X139279906Y-98116452D01*
X139178057Y-98095478D01*
X139077215Y-98076518D01*
X139031053Y-98068183D01*
X139031053Y-98238268D01*
X139113943Y-98261349D01*
X139210572Y-98297070D01*
X139305094Y-98349551D01*
X139347053Y-98383900D01*
X139381755Y-98423099D01*
X139551840Y-98423099D01*
X139551840Y-96722070D01*
X139327167Y-96722070D01*
G37*
G36*
X140119979Y-96722070D02*
G01*
X140119979Y-98129091D01*
X140072718Y-98116452D01*
X139970869Y-98095478D01*
X139870027Y-98076518D01*
X139823865Y-98068183D01*
X139823865Y-98238268D01*
X139906755Y-98261349D01*
X140003384Y-98297070D01*
X140097906Y-98349551D01*
X140139866Y-98383900D01*
X140174568Y-98423099D01*
X140344652Y-98423099D01*
X140344652Y-96722070D01*
X140119979Y-96722070D01*
G37*
G36*
X139035541Y-94079213D02*
G01*
X139035541Y-95486234D01*
X138988280Y-95473595D01*
X138886431Y-95452621D01*
X138785589Y-95433661D01*
X138739427Y-95425326D01*
X138739427Y-95595411D01*
X138822317Y-95618492D01*
X138918946Y-95654213D01*
X139013468Y-95706694D01*
X139055427Y-95741043D01*
X139090129Y-95780242D01*
X139260214Y-95780242D01*
X139260214Y-94079213D01*
X139035541Y-94079213D01*
G37*
G36*
X140107822Y-94068140D02*
G01*
X140185870Y-94089943D01*
X140250405Y-94124367D01*
X140306227Y-94171971D01*
X140351938Y-94230588D01*
X140387975Y-94301779D01*
X140412458Y-94378634D01*
X140427780Y-94464960D01*
X140433129Y-94562172D01*
X140433129Y-95295084D01*
X140427852Y-95393786D01*
X140412827Y-95480389D01*
X140388982Y-95556485D01*
X140353598Y-95626939D01*
X140308270Y-95684884D01*
X140252512Y-95731882D01*
X140188020Y-95765663D01*
X140109327Y-95787174D01*
X140013093Y-95794896D01*
X139916855Y-95787195D01*
X139837792Y-95765700D01*
X139772666Y-95731882D01*
X139716278Y-95684819D01*
X139670601Y-95626866D01*
X139635096Y-95556485D01*
X139611302Y-95480394D01*
X139596307Y-95393791D01*
X139591041Y-95295084D01*
X139591041Y-94562172D01*
X139591153Y-94560157D01*
X139817820Y-94560157D01*
X139817820Y-95297191D01*
X139821578Y-95377699D01*
X139832475Y-95451521D01*
X139854725Y-95518304D01*
X139889170Y-95568025D01*
X139919955Y-95591649D01*
X139960287Y-95606680D01*
X140013093Y-95612172D01*
X140065940Y-95606651D01*
X140105886Y-95591602D01*
X140136008Y-95568025D01*
X140169647Y-95518388D01*
X140191604Y-95451521D01*
X140202569Y-95377696D01*
X140206350Y-95297191D01*
X140206350Y-94560157D01*
X140202366Y-94483293D01*
X140190596Y-94409948D01*
X140167892Y-94342689D01*
X140133901Y-94291246D01*
X140103661Y-94266399D01*
X140064332Y-94250763D01*
X140013093Y-94245084D01*
X139963290Y-94250659D01*
X139923841Y-94266216D01*
X139892376Y-94291246D01*
X139856743Y-94342861D01*
X139833574Y-94409948D01*
X139821804Y-94483293D01*
X139817820Y-94560157D01*
X139591153Y-94560157D01*
X139596364Y-94466390D01*
X139611661Y-94380729D01*
X139636195Y-94303885D01*
X139672258Y-94232710D01*
X139718287Y-94173698D01*
X139774773Y-94125374D01*
X139840011Y-94090343D01*
X139918425Y-94068230D01*
X140013093Y-94060345D01*
X140107822Y-94068140D01*
G37*
G36*
X139105883Y-104650642D02*
G01*
X139105883Y-106057663D01*
X139058622Y-106045024D01*
X138956773Y-106024050D01*
X138855931Y-106005090D01*
X138809769Y-105996755D01*
X138809769Y-106166840D01*
X138892659Y-106189921D01*
X138989288Y-106225642D01*
X139083810Y-106278123D01*
X139125769Y-106312472D01*
X139160471Y-106351671D01*
X139330556Y-106351671D01*
X139330556Y-104650642D01*
X139105883Y-104650642D01*
G37*
G36*
X140331280Y-105106307D02*
G01*
X140522339Y-105106307D01*
X140522339Y-105305884D01*
X140331280Y-105305884D01*
X140331280Y-106351671D01*
X140066673Y-106351671D01*
X139623556Y-105341513D01*
X139623556Y-105305884D01*
X139839894Y-105305884D01*
X140117048Y-106078638D01*
X140117048Y-105305884D01*
X139839894Y-105305884D01*
X139623556Y-105305884D01*
X139623556Y-105106307D01*
X140117048Y-105106307D01*
X140117048Y-104650642D01*
X140331280Y-104650642D01*
X140331280Y-105106307D01*
G37*
G36*
X139116141Y-99364928D02*
G01*
X139116141Y-100771949D01*
X139068880Y-100759310D01*
X138967031Y-100738336D01*
X138866189Y-100719376D01*
X138820027Y-100711041D01*
X138820027Y-100881126D01*
X138902917Y-100904207D01*
X138999546Y-100939928D01*
X139094068Y-100992409D01*
X139136027Y-101026758D01*
X139170729Y-101065957D01*
X139340814Y-101065957D01*
X139340814Y-99364928D01*
X139116141Y-99364928D01*
G37*
G36*
X139635920Y-99364928D02*
G01*
X139635920Y-99524571D01*
X140068505Y-100198589D01*
X140157806Y-100339273D01*
X140195055Y-100406214D01*
X140224943Y-100476843D01*
X140244312Y-100552649D01*
X140251229Y-100643814D01*
X140246357Y-100721736D01*
X140233196Y-100782196D01*
X140213402Y-100828644D01*
X140182929Y-100865198D01*
X140140278Y-100887661D01*
X140081145Y-100895872D01*
X140029731Y-100890479D01*
X139989244Y-100875523D01*
X139957222Y-100851725D01*
X139920597Y-100802010D01*
X139896314Y-100736229D01*
X139883858Y-100663221D01*
X139879553Y-100582906D01*
X139879553Y-100526211D01*
X139654788Y-100526211D01*
X139654788Y-100585012D01*
X139659775Y-100686784D01*
X139673803Y-100773957D01*
X139695729Y-100848520D01*
X139729258Y-100917500D01*
X139773186Y-100974025D01*
X139828078Y-101019703D01*
X139891779Y-101052118D01*
X139971346Y-101073027D01*
X140070612Y-101080611D01*
X140173136Y-101072279D01*
X140256022Y-101049172D01*
X140323092Y-101013029D01*
X140377167Y-100964016D01*
X140419456Y-100903501D01*
X140450861Y-100831233D01*
X140470867Y-100744920D01*
X140478009Y-100641707D01*
X140471025Y-100536415D01*
X140451722Y-100450648D01*
X140421416Y-100371040D01*
X140383487Y-100297325D01*
X140291163Y-100150321D01*
X139900527Y-99553971D01*
X140438167Y-99553971D01*
X140438167Y-99364928D01*
X139635920Y-99364928D01*
G37*
G36*
X139119072Y-102007785D02*
G01*
X139119072Y-103414806D01*
X139071811Y-103402167D01*
X138969962Y-103381193D01*
X138869120Y-103362233D01*
X138822958Y-103353898D01*
X138822958Y-103523983D01*
X138905848Y-103547064D01*
X139002477Y-103582785D01*
X139096999Y-103635266D01*
X139138958Y-103669615D01*
X139173660Y-103708814D01*
X139343745Y-103708814D01*
X139343745Y-102007785D01*
X139119072Y-102007785D01*
G37*
G36*
X140052568Y-101988917D02*
G01*
X139961396Y-101995319D01*
X139885258Y-102013248D01*
X139821576Y-102041398D01*
X139765129Y-102081485D01*
X139719183Y-102131470D01*
X139682907Y-102192524D01*
X139657955Y-102259848D01*
X139642262Y-102337014D01*
X139636745Y-102425715D01*
X139636745Y-102482409D01*
X139859311Y-102482409D01*
X139859311Y-102464549D01*
X139859311Y-102444582D01*
X139865043Y-102371066D01*
X139877171Y-102308112D01*
X139899747Y-102252611D01*
X139933866Y-102211483D01*
X139981299Y-102185549D01*
X140052568Y-102175763D01*
X140105830Y-102180689D01*
X140146105Y-102194031D01*
X140176399Y-102214597D01*
X140210715Y-102259941D01*
X140233094Y-102324873D01*
X140243920Y-102399005D01*
X140247840Y-102488729D01*
X140241717Y-102577247D01*
X140224764Y-102649382D01*
X140198473Y-102708090D01*
X140158944Y-102754983D01*
X140102971Y-102786280D01*
X140025274Y-102801604D01*
X140009520Y-102803711D01*
X139993767Y-102803711D01*
X139993767Y-103028384D01*
X140008421Y-103028384D01*
X140023168Y-103028384D01*
X140100698Y-103038505D01*
X140156264Y-103060133D01*
X140195359Y-103091398D01*
X140222300Y-103134064D01*
X140240742Y-103196793D01*
X140247840Y-103286671D01*
X140242919Y-103363038D01*
X140229481Y-103423627D01*
X140209006Y-103471410D01*
X140177064Y-103508112D01*
X140127920Y-103531752D01*
X140054675Y-103540744D01*
X139982252Y-103531018D01*
X139933350Y-103505159D01*
X139901351Y-103464082D01*
X139872873Y-103381042D01*
X139859311Y-103267803D01*
X139859311Y-103249943D01*
X139859311Y-103232082D01*
X139636745Y-103232082D01*
X139636745Y-103288777D01*
X139642326Y-103378862D01*
X139658074Y-103455899D01*
X139682907Y-103521876D01*
X139719123Y-103581574D01*
X139765363Y-103630939D01*
X139822583Y-103670987D01*
X139886968Y-103699175D01*
X139963506Y-103717086D01*
X140054675Y-103723468D01*
X140147288Y-103717032D01*
X140224072Y-103699073D01*
X140287774Y-103670987D01*
X140344277Y-103630943D01*
X140390182Y-103581244D01*
X140426351Y-103520777D01*
X140451215Y-103454149D01*
X140466949Y-103376750D01*
X140472513Y-103286671D01*
X140464330Y-103186339D01*
X140441700Y-103105730D01*
X140406385Y-103040932D01*
X140357280Y-102985905D01*
X140298647Y-102944205D01*
X140228973Y-102914994D01*
X140300910Y-102883319D01*
X140360131Y-102835218D01*
X140406808Y-102772379D01*
X140443113Y-102691329D01*
X140464726Y-102600091D01*
X140472513Y-102488729D01*
X140467454Y-102388487D01*
X140453109Y-102301183D01*
X140430473Y-102225130D01*
X140396266Y-102154789D01*
X140351656Y-102097243D01*
X140296109Y-102050832D01*
X140231701Y-102017816D01*
X140151761Y-101996594D01*
X140052568Y-101988917D01*
G37*
G36*
X140119252Y-91427708D02*
G01*
X140201627Y-91455923D01*
X140266525Y-91500378D01*
X140319747Y-91560291D01*
X140362485Y-91633386D01*
X140394569Y-91721936D01*
X140422626Y-91864351D01*
X140432397Y-92024370D01*
X140432397Y-92595532D01*
X140427353Y-92698482D01*
X140412787Y-92791908D01*
X140389349Y-92876900D01*
X140354290Y-92956792D01*
X140309191Y-93023048D01*
X140253886Y-93077484D01*
X140188572Y-93117831D01*
X140109899Y-93143065D01*
X140014467Y-93152039D01*
X139916158Y-93143113D01*
X139835820Y-93118140D01*
X139769827Y-93078492D01*
X139713975Y-93024655D01*
X139668903Y-92959130D01*
X139634364Y-92880106D01*
X139611558Y-92795823D01*
X139597347Y-92702746D01*
X139595029Y-92654334D01*
X139819194Y-92654334D01*
X139823826Y-92736332D01*
X139837055Y-92808664D01*
X139861845Y-92873687D01*
X139897963Y-92923153D01*
X139929180Y-92947200D01*
X139967345Y-92962032D01*
X140014467Y-92967300D01*
X140061701Y-92962107D01*
X140099491Y-92947571D01*
X140129963Y-92924161D01*
X140164890Y-92875307D01*
X140188764Y-92808664D01*
X140201218Y-92734033D01*
X140205617Y-92648014D01*
X140205617Y-92396047D01*
X140175840Y-92354570D01*
X140134176Y-92315172D01*
X140082857Y-92288153D01*
X140014467Y-92278444D01*
X139953771Y-92285023D01*
X139910083Y-92302639D01*
X139879003Y-92329918D01*
X139846839Y-92387626D01*
X139828628Y-92467488D01*
X139819194Y-92654334D01*
X139595029Y-92654334D01*
X139592415Y-92599745D01*
X139601072Y-92457820D01*
X139624930Y-92342466D01*
X139652722Y-92272788D01*
X139690139Y-92216031D01*
X139737312Y-92170275D01*
X139793727Y-92137363D01*
X139865819Y-92116115D01*
X139957772Y-92108359D01*
X140045316Y-92117080D01*
X140112103Y-92140874D01*
X140167271Y-92179168D01*
X140205617Y-92225962D01*
X140205617Y-91967675D01*
X140199787Y-91849205D01*
X140184551Y-91762878D01*
X140156747Y-91689638D01*
X140121536Y-91643168D01*
X140074977Y-91614286D01*
X140016573Y-91604334D01*
X139942943Y-91612976D01*
X139893432Y-91635625D01*
X139861143Y-91670462D01*
X139840401Y-91716463D01*
X139826494Y-91777787D01*
X139821301Y-91858499D01*
X139596628Y-91858499D01*
X139596628Y-91848973D01*
X139596628Y-91839539D01*
X139603660Y-91751007D01*
X139620793Y-91675372D01*
X139647003Y-91610653D01*
X139684375Y-91552436D01*
X139731290Y-91504808D01*
X139788695Y-91466764D01*
X139852822Y-91440175D01*
X139927416Y-91423411D01*
X140014467Y-91417488D01*
X140119252Y-91427708D01*
G37*
G36*
X140001576Y-49243927D02*
G01*
X140079624Y-49265730D01*
X140144159Y-49300154D01*
X140199980Y-49347758D01*
X140245692Y-49406375D01*
X140281729Y-49477566D01*
X140306211Y-49554421D01*
X140321534Y-49640747D01*
X140326883Y-49737959D01*
X140326883Y-50470871D01*
X140321606Y-50569573D01*
X140306580Y-50656176D01*
X140282736Y-50732272D01*
X140247352Y-50802726D01*
X140202024Y-50860671D01*
X140146265Y-50907669D01*
X140081774Y-50941450D01*
X140003081Y-50962961D01*
X139906846Y-50970683D01*
X139810609Y-50962982D01*
X139731546Y-50941487D01*
X139666420Y-50907669D01*
X139610032Y-50860606D01*
X139564355Y-50802653D01*
X139528850Y-50732272D01*
X139505056Y-50656181D01*
X139490061Y-50569578D01*
X139484795Y-50470871D01*
X139484795Y-49737959D01*
X139484907Y-49735944D01*
X139711574Y-49735944D01*
X139711574Y-50472978D01*
X139715332Y-50553486D01*
X139726229Y-50627308D01*
X139748479Y-50694091D01*
X139782924Y-50743812D01*
X139813709Y-50767436D01*
X139854041Y-50782467D01*
X139906846Y-50787959D01*
X139959693Y-50782438D01*
X139999640Y-50767389D01*
X140029761Y-50743812D01*
X140063401Y-50694175D01*
X140085357Y-50627308D01*
X140096322Y-50553483D01*
X140100103Y-50472978D01*
X140100103Y-49735944D01*
X140096120Y-49659080D01*
X140084350Y-49585735D01*
X140061645Y-49518476D01*
X140027655Y-49467033D01*
X139997415Y-49442186D01*
X139958086Y-49426550D01*
X139906846Y-49420871D01*
X139857043Y-49426446D01*
X139817594Y-49442003D01*
X139786129Y-49467033D01*
X139750497Y-49518648D01*
X139727328Y-49585735D01*
X139715558Y-49659080D01*
X139711574Y-49735944D01*
X139484907Y-49735944D01*
X139490117Y-49642177D01*
X139505414Y-49556516D01*
X139529949Y-49479672D01*
X139566012Y-49408497D01*
X139612040Y-49349485D01*
X139668526Y-49301161D01*
X139733765Y-49266130D01*
X139812179Y-49244017D01*
X139906846Y-49236132D01*
X140001576Y-49243927D01*
G37*
G36*
X139867920Y-51897857D02*
G01*
X139867920Y-53304878D01*
X139820659Y-53292239D01*
X139718810Y-53271265D01*
X139617968Y-53252305D01*
X139571806Y-53243970D01*
X139571806Y-53414055D01*
X139654696Y-53437136D01*
X139751325Y-53472857D01*
X139845847Y-53525338D01*
X139887806Y-53559687D01*
X139922508Y-53598886D01*
X140092593Y-53598886D01*
X140092593Y-51897857D01*
X139867920Y-51897857D01*
G37*
G36*
X139489374Y-54540714D02*
G01*
X139489374Y-54700357D01*
X139921959Y-55374375D01*
X140011260Y-55515059D01*
X140048509Y-55582000D01*
X140078396Y-55652629D01*
X140097766Y-55728435D01*
X140104683Y-55819600D01*
X140099811Y-55897522D01*
X140086650Y-55957982D01*
X140066856Y-56004430D01*
X140036383Y-56040984D01*
X139993731Y-56063447D01*
X139934598Y-56071658D01*
X139883185Y-56066265D01*
X139842698Y-56051309D01*
X139810676Y-56027511D01*
X139774051Y-55977796D01*
X139749768Y-55912015D01*
X139737312Y-55839007D01*
X139733006Y-55758692D01*
X139733006Y-55701997D01*
X139508242Y-55701997D01*
X139508242Y-55760798D01*
X139513229Y-55862570D01*
X139527257Y-55949743D01*
X139549183Y-56024306D01*
X139582712Y-56093286D01*
X139626640Y-56149811D01*
X139681532Y-56195489D01*
X139745233Y-56227904D01*
X139824800Y-56248813D01*
X139924065Y-56256397D01*
X140026590Y-56248065D01*
X140109475Y-56224958D01*
X140176546Y-56188815D01*
X140230621Y-56139802D01*
X140272910Y-56079287D01*
X140304315Y-56007019D01*
X140324321Y-55920706D01*
X140331462Y-55817493D01*
X140324479Y-55712201D01*
X140305176Y-55626434D01*
X140274870Y-55546826D01*
X140236940Y-55473111D01*
X140144617Y-55326107D01*
X139753981Y-54729757D01*
X140291620Y-54729757D01*
X140291620Y-54540714D01*
X139489374Y-54540714D01*
G37*
G36*
X139904557Y-57164703D02*
G01*
X139813385Y-57171105D01*
X139737247Y-57189034D01*
X139673564Y-57217184D01*
X139617118Y-57257271D01*
X139571172Y-57307256D01*
X139534895Y-57368310D01*
X139509943Y-57435634D01*
X139494251Y-57512800D01*
X139488734Y-57601501D01*
X139488734Y-57658195D01*
X139711300Y-57658195D01*
X139711300Y-57640335D01*
X139711300Y-57620368D01*
X139717032Y-57546852D01*
X139729160Y-57483898D01*
X139751736Y-57428397D01*
X139785855Y-57387269D01*
X139833288Y-57361335D01*
X139904557Y-57351549D01*
X139957818Y-57356475D01*
X139998094Y-57369817D01*
X140028388Y-57390383D01*
X140062704Y-57435727D01*
X140085083Y-57500659D01*
X140095909Y-57574791D01*
X140099829Y-57664515D01*
X140093706Y-57753033D01*
X140076752Y-57825168D01*
X140050462Y-57883876D01*
X140010933Y-57930769D01*
X139954960Y-57962066D01*
X139877263Y-57977390D01*
X139861509Y-57979497D01*
X139845755Y-57979497D01*
X139845755Y-58204170D01*
X139860410Y-58204170D01*
X139875156Y-58204170D01*
X139952687Y-58214291D01*
X140008253Y-58235919D01*
X140047347Y-58267184D01*
X140074289Y-58309850D01*
X140092730Y-58372579D01*
X140099829Y-58462457D01*
X140094908Y-58538824D01*
X140081470Y-58599413D01*
X140060995Y-58647196D01*
X140029053Y-58683898D01*
X139979909Y-58707538D01*
X139906664Y-58716530D01*
X139834240Y-58706804D01*
X139785338Y-58680945D01*
X139753340Y-58639868D01*
X139724861Y-58556828D01*
X139711300Y-58443589D01*
X139711300Y-58425729D01*
X139711300Y-58407868D01*
X139488734Y-58407868D01*
X139488734Y-58464563D01*
X139494314Y-58554648D01*
X139510063Y-58631685D01*
X139534895Y-58697662D01*
X139571111Y-58757360D01*
X139617352Y-58806725D01*
X139674572Y-58846773D01*
X139738956Y-58874961D01*
X139815494Y-58892872D01*
X139906664Y-58899254D01*
X139999277Y-58892818D01*
X140076061Y-58874859D01*
X140139763Y-58846773D01*
X140196266Y-58806729D01*
X140242171Y-58757030D01*
X140278340Y-58696563D01*
X140303204Y-58629935D01*
X140318938Y-58552536D01*
X140324502Y-58462457D01*
X140316319Y-58362125D01*
X140293689Y-58281516D01*
X140258373Y-58216718D01*
X140209269Y-58161691D01*
X140150636Y-58119991D01*
X140080961Y-58090780D01*
X140152899Y-58059105D01*
X140212120Y-58011004D01*
X140258797Y-57948165D01*
X140295101Y-57867115D01*
X140316715Y-57775877D01*
X140324502Y-57664515D01*
X140319443Y-57564273D01*
X140305097Y-57476969D01*
X140282462Y-57400916D01*
X140248254Y-57330575D01*
X140203645Y-57273029D01*
X140148098Y-57226618D01*
X140083690Y-57193602D01*
X140003749Y-57172380D01*
X139904557Y-57164703D01*
G37*
G36*
X140189863Y-60282094D02*
G01*
X140380922Y-60282094D01*
X140380922Y-60481671D01*
X140189863Y-60481671D01*
X140189863Y-61527458D01*
X139925256Y-61527458D01*
X139482139Y-60517300D01*
X139482139Y-60481671D01*
X139698477Y-60481671D01*
X139975631Y-61254425D01*
X139975631Y-60481671D01*
X139698477Y-60481671D01*
X139482139Y-60481671D01*
X139482139Y-60282094D01*
X139975631Y-60282094D01*
X139975631Y-59826429D01*
X140189863Y-59826429D01*
X140189863Y-60282094D01*
G37*
G36*
X139915823Y-62452524D02*
G01*
X139814952Y-62459927D01*
X139735126Y-62480193D01*
X139672191Y-62511326D01*
X139618244Y-62555796D01*
X139575369Y-62611865D01*
X139543047Y-62681410D01*
X139522245Y-62756581D01*
X139508939Y-62844158D01*
X139504213Y-62946017D01*
X139728886Y-62946017D01*
X139732044Y-62870911D01*
X139741434Y-62797914D01*
X139761697Y-62730547D01*
X139795014Y-62678205D01*
X139825438Y-62652907D01*
X139865998Y-62636836D01*
X139919945Y-62630944D01*
X139979027Y-62637720D01*
X140021696Y-62655963D01*
X140052202Y-62684525D01*
X140083731Y-62744564D01*
X140102669Y-62829422D01*
X140110409Y-62923773D01*
X140113202Y-63036326D01*
X140109751Y-63147536D01*
X140100562Y-63232605D01*
X140080023Y-63306680D01*
X140048080Y-63356528D01*
X140018572Y-63379252D01*
X139977805Y-63394053D01*
X139922051Y-63399576D01*
X139877533Y-63394636D01*
X139838769Y-63380319D01*
X139804448Y-63356528D01*
X139762095Y-63310072D01*
X139733099Y-63258892D01*
X139541948Y-63258892D01*
X139541948Y-64170315D01*
X140274860Y-64170315D01*
X140274860Y-63945550D01*
X139745647Y-63945550D01*
X139730992Y-63475230D01*
X139777333Y-63514168D01*
X139834856Y-63544473D01*
X139899747Y-63563083D01*
X139976639Y-63569661D01*
X140066955Y-63561567D01*
X140138035Y-63539301D01*
X140193985Y-63504539D01*
X140240478Y-63456934D01*
X140277570Y-63398117D01*
X140305268Y-63326120D01*
X140329253Y-63208019D01*
X140337875Y-63065727D01*
X140332970Y-62937866D01*
X140318915Y-62823102D01*
X140292214Y-62715983D01*
X140252786Y-62627830D01*
X140217276Y-62576363D01*
X140174438Y-62533562D01*
X140123643Y-62498686D01*
X140067212Y-62474029D01*
X139998785Y-62458209D01*
X139915823Y-62452524D01*
G37*
G36*
X140017005Y-65102378D02*
G01*
X140097608Y-65127733D01*
X140163027Y-65167830D01*
X140218245Y-65222294D01*
X140262972Y-65288515D01*
X140297391Y-65368323D01*
X140320318Y-65453323D01*
X140334526Y-65546113D01*
X140339431Y-65647675D01*
X140330453Y-65791402D01*
X140305817Y-65906970D01*
X140277398Y-65976678D01*
X140239636Y-66033075D01*
X140192428Y-66078153D01*
X140136090Y-66110497D01*
X140063999Y-66131418D01*
X139971968Y-66139062D01*
X139886272Y-66130373D01*
X139819652Y-66106455D01*
X139764130Y-66068340D01*
X139724123Y-66021459D01*
X139724123Y-66279745D01*
X139730272Y-66399901D01*
X139746196Y-66485551D01*
X139775253Y-66557719D01*
X139812325Y-66604161D01*
X139860420Y-66633274D01*
X139917288Y-66643087D01*
X139988190Y-66634652D01*
X140036477Y-66612409D01*
X140068505Y-66577966D01*
X140089198Y-66532627D01*
X140103181Y-66471107D01*
X140108439Y-66388922D01*
X140335218Y-66388922D01*
X140334119Y-66402569D01*
X140333112Y-66414110D01*
X140325948Y-66501210D01*
X140308449Y-66575424D01*
X140281637Y-66638782D01*
X140243878Y-66695766D01*
X140197265Y-66742338D01*
X140140953Y-66779466D01*
X140078291Y-66805470D01*
X140004459Y-66821966D01*
X139917288Y-66827826D01*
X139813903Y-66817786D01*
X139731784Y-66789952D01*
X139666329Y-66745944D01*
X139612431Y-66686686D01*
X139569357Y-66614600D01*
X139537185Y-66527499D01*
X139509264Y-66386698D01*
X139499450Y-66225157D01*
X139499450Y-65651797D01*
X139502015Y-65599315D01*
X139724123Y-65599315D01*
X139724123Y-65853481D01*
X139768269Y-65909076D01*
X139797834Y-65932756D01*
X139833299Y-65952124D01*
X139872649Y-65964650D01*
X139917288Y-65968977D01*
X139979467Y-65962314D01*
X140023332Y-65944635D01*
X140053759Y-65917503D01*
X140085153Y-65859881D01*
X140103126Y-65779933D01*
X140112652Y-65593087D01*
X140108037Y-65510874D01*
X140094792Y-65437566D01*
X140070123Y-65371845D01*
X140034891Y-65323168D01*
X140004381Y-65299909D01*
X139965952Y-65285355D01*
X139917288Y-65280121D01*
X139870107Y-65285300D01*
X139832311Y-65299804D01*
X139801792Y-65323168D01*
X139766742Y-65372127D01*
X139741983Y-65439672D01*
X139728733Y-65515068D01*
X139724123Y-65599315D01*
X139502015Y-65599315D01*
X139504479Y-65548915D01*
X139519032Y-65455133D01*
X139542497Y-65369422D01*
X139577605Y-65288869D01*
X139622715Y-65222302D01*
X139677961Y-65167830D01*
X139743273Y-65127479D01*
X139821918Y-65102247D01*
X139917288Y-65093275D01*
X140017005Y-65102378D01*
G37*
G36*
X139695272Y-67755000D02*
G01*
X140001919Y-69279624D01*
X139546161Y-69279624D01*
X139546161Y-69456029D01*
X140226591Y-69456029D01*
X140226591Y-69346761D01*
X139911610Y-67755000D01*
X139695272Y-67755000D01*
G37*
G36*
X132818871Y-112473955D02*
G01*
X132989281Y-112504902D01*
X133139445Y-112554146D01*
X133296346Y-112641258D01*
X133465326Y-112781659D01*
X133493903Y-112640608D01*
X133555452Y-112510000D01*
X134338372Y-112510000D01*
X134281464Y-112640787D01*
X134253193Y-112732566D01*
X134239333Y-112828071D01*
X134233775Y-112973633D01*
X134233775Y-113935523D01*
X134218983Y-114090044D01*
X134172226Y-114258473D01*
X134096924Y-114412551D01*
X134004248Y-114520057D01*
X133897050Y-114597436D01*
X133771710Y-114656014D01*
X133625061Y-114695362D01*
X133379359Y-114725614D01*
X133022758Y-114737494D01*
X132793423Y-114728483D01*
X132588250Y-114702690D01*
X132399817Y-114657992D01*
X132272627Y-114604687D01*
X132128189Y-114505987D01*
X132027713Y-114397142D01*
X131955932Y-114263485D01*
X131897654Y-114069246D01*
X132694862Y-113987180D01*
X132755611Y-114111591D01*
X132824006Y-114179521D01*
X132941488Y-114226347D01*
X133131385Y-114245101D01*
X133275718Y-114226875D01*
X133354684Y-114182452D01*
X133399851Y-114104712D01*
X133418248Y-113963733D01*
X133123142Y-113864448D01*
X132514428Y-113732374D01*
X132257819Y-113663329D01*
X132086214Y-113582859D01*
X131977521Y-113494970D01*
X131897902Y-113381007D01*
X131849168Y-113247044D01*
X131838986Y-113152053D01*
X132668118Y-113152053D01*
X132684945Y-113231070D01*
X132737727Y-113303545D01*
X132831383Y-113359811D01*
X133059578Y-113434703D01*
X133418248Y-113541681D01*
X133418248Y-113410523D01*
X133404534Y-113265754D01*
X133368057Y-113161029D01*
X133302989Y-113074985D01*
X133197880Y-112998546D01*
X133073454Y-112948745D01*
X132938678Y-112932051D01*
X132816771Y-112948966D01*
X132736811Y-112993600D01*
X132685513Y-113063477D01*
X132668118Y-113152053D01*
X131838986Y-113152053D01*
X131832074Y-113087573D01*
X131844855Y-112959953D01*
X131882222Y-112845102D01*
X131944423Y-112740145D01*
X132033941Y-112643173D01*
X132138825Y-112568677D01*
X132268584Y-112512545D01*
X132428491Y-112476237D01*
X132625070Y-112463105D01*
X132818871Y-112473955D01*
G37*
G36*
X134733496Y-115511256D02*
G01*
X135586026Y-115511256D01*
X135586026Y-113966481D01*
X136209028Y-114690600D01*
X137235764Y-114690600D01*
X136455042Y-113926913D01*
X137280827Y-112510000D01*
X136340187Y-112510000D01*
X135899634Y-113383595D01*
X135586026Y-113076765D01*
X135586026Y-112510000D01*
X134733496Y-112510000D01*
X134733496Y-115511256D01*
G37*
G36*
X137561279Y-115511256D02*
G01*
X138397322Y-115511256D01*
X138397322Y-112510000D01*
X137561279Y-112510000D01*
X137561279Y-115511256D01*
G37*
G36*
X139814963Y-112473955D02*
G01*
X139985373Y-112504902D01*
X140135537Y-112554146D01*
X140292438Y-112641258D01*
X140461418Y-112781659D01*
X140489995Y-112640608D01*
X140551544Y-112510000D01*
X141334464Y-112510000D01*
X141277556Y-112640787D01*
X141249285Y-112732566D01*
X141235425Y-112828071D01*
X141229867Y-112973633D01*
X141229867Y-113935523D01*
X141215075Y-114090044D01*
X141168318Y-114258473D01*
X141093016Y-114412551D01*
X141000340Y-114520057D01*
X140893142Y-114597436D01*
X140767802Y-114656014D01*
X140621153Y-114695362D01*
X140375451Y-114725614D01*
X140018850Y-114737494D01*
X139789515Y-114728483D01*
X139584342Y-114702690D01*
X139395909Y-114657992D01*
X139268719Y-114604687D01*
X139124282Y-114505987D01*
X139023805Y-114397142D01*
X138952024Y-114263485D01*
X138893746Y-114069246D01*
X139690954Y-113987180D01*
X139751703Y-114111591D01*
X139820098Y-114179521D01*
X139937580Y-114226347D01*
X140127477Y-114245101D01*
X140271811Y-114226875D01*
X140350776Y-114182452D01*
X140395943Y-114104712D01*
X140414341Y-113963733D01*
X140119234Y-113864448D01*
X139510520Y-113732374D01*
X139253911Y-113663329D01*
X139082307Y-113582859D01*
X138973613Y-113494970D01*
X138893995Y-113381007D01*
X138845260Y-113247044D01*
X138835078Y-113152053D01*
X139664210Y-113152053D01*
X139681037Y-113231070D01*
X139733819Y-113303545D01*
X139827475Y-113359811D01*
X140055670Y-113434703D01*
X140414341Y-113541681D01*
X140414341Y-113410523D01*
X140400626Y-113265754D01*
X140364149Y-113161029D01*
X140299082Y-113074985D01*
X140193972Y-112998546D01*
X140069546Y-112948745D01*
X139934770Y-112932051D01*
X139812864Y-112948966D01*
X139732903Y-112993600D01*
X139681605Y-113063477D01*
X139664210Y-113152053D01*
X138835078Y-113152053D01*
X138828166Y-113087573D01*
X138840947Y-112959953D01*
X138878314Y-112845102D01*
X138940515Y-112740145D01*
X139030033Y-112643173D01*
X139134917Y-112568677D01*
X139264676Y-112512545D01*
X139424583Y-112476237D01*
X139621162Y-112463105D01*
X139814963Y-112473955D01*
G37*
G36*
X143423332Y-112478231D02*
G01*
X143577774Y-112522805D01*
X143722610Y-112597194D01*
X143849450Y-112698869D01*
X143958989Y-112832362D01*
X144051605Y-113002943D01*
X144116089Y-113187529D01*
X144156405Y-113395642D01*
X144170490Y-113631074D01*
X144151781Y-113899890D01*
X144099751Y-114120912D01*
X144018693Y-114302559D01*
X143910188Y-114451547D01*
X143770640Y-114577247D01*
X143616769Y-114665492D01*
X143445515Y-114719036D01*
X143252381Y-114737494D01*
X143065657Y-114720679D01*
X142900855Y-114672098D01*
X142751402Y-114590970D01*
X142617106Y-114475910D01*
X142617106Y-115511256D01*
X141774651Y-115511256D01*
X141774651Y-113606711D01*
X142610878Y-113606711D01*
X142624869Y-113774996D01*
X142662186Y-113899199D01*
X142718405Y-113989745D01*
X142797388Y-114060132D01*
X142888594Y-114101782D01*
X142996110Y-114116140D01*
X143084804Y-114102951D01*
X143164012Y-114063608D01*
X143236811Y-113994874D01*
X143288262Y-113908131D01*
X143323056Y-113785384D01*
X143336279Y-113614954D01*
X143322320Y-113420429D01*
X143286396Y-113286411D01*
X143234796Y-113196933D01*
X143160364Y-113126865D01*
X143077830Y-113086409D01*
X142983836Y-113072735D01*
X142881724Y-113086884D01*
X142793829Y-113128271D01*
X142716390Y-113198948D01*
X142662118Y-113289815D01*
X142625070Y-113421172D01*
X142610878Y-113606711D01*
X141774651Y-113606711D01*
X141774651Y-112510000D01*
X142555557Y-112510000D01*
X142555557Y-112832400D01*
X142721398Y-112653326D01*
X142854693Y-112556894D01*
X142979268Y-112505159D01*
X143112540Y-112473797D01*
X143256411Y-112463105D01*
X143423332Y-112478231D01*
G37*
G36*
X124193161Y-46977180D02*
G01*
X124193161Y-46200000D01*
X123720307Y-46200000D01*
X123720307Y-46977180D01*
X122981595Y-48243824D01*
X123398517Y-48243824D01*
X123455558Y-48236082D01*
X123496459Y-48215003D01*
X123529053Y-48182603D01*
X123555199Y-48141364D01*
X123843406Y-47546632D01*
X123907641Y-47414741D01*
X123959543Y-47295551D01*
X124009857Y-47416207D01*
X124072872Y-47546632D01*
X124358270Y-48141364D01*
X124381228Y-48177878D01*
X124414812Y-48210851D01*
X124458165Y-48234665D01*
X124512142Y-48243824D01*
X124931874Y-48243824D01*
X124193161Y-46977180D01*
G37*
G36*
X124820133Y-47231681D02*
G01*
X125575576Y-47231681D01*
X125575576Y-46879972D01*
X124820133Y-46879972D01*
X124820133Y-47231681D01*
G37*
G36*
X126930147Y-47307397D02*
G01*
X126892289Y-47269539D01*
X126871640Y-47259460D01*
X126840632Y-47255617D01*
X126809727Y-47259500D01*
X126782502Y-47270882D01*
X126724372Y-47305076D01*
X126648901Y-47339148D01*
X126602665Y-47350341D01*
X126541190Y-47354535D01*
X126465088Y-47346828D01*
X126403315Y-47325226D01*
X126350489Y-47289727D01*
X126307572Y-47241451D01*
X126275438Y-47182668D01*
X126251640Y-47108217D01*
X126238237Y-47026725D01*
X126233444Y-46930408D01*
X126243788Y-46793577D01*
X126271650Y-46689410D01*
X126313800Y-46610816D01*
X126374468Y-46548614D01*
X126447065Y-46511930D01*
X126535572Y-46499197D01*
X126606877Y-46504484D01*
X126655251Y-46518004D01*
X126730112Y-46559891D01*
X126786654Y-46602512D01*
X126815088Y-46616928D01*
X126851745Y-46622051D01*
X126897781Y-46612195D01*
X126930147Y-46583705D01*
X127056054Y-46426168D01*
X126985862Y-46355054D01*
X126914759Y-46300628D01*
X126839080Y-46257187D01*
X126762962Y-46224912D01*
X126684733Y-46201679D01*
X126606891Y-46187055D01*
X126454484Y-46176552D01*
X126324272Y-46189234D01*
X126200471Y-46227110D01*
X126087044Y-46288935D01*
X125987858Y-46373778D01*
X125906816Y-46479132D01*
X125842411Y-46610205D01*
X125802629Y-46756895D01*
X125788556Y-46930408D01*
X125800486Y-47083995D01*
X125835328Y-47224476D01*
X125893934Y-47353133D01*
X125973814Y-47461636D01*
X126075283Y-47550570D01*
X126200471Y-47619539D01*
X126292230Y-47650777D01*
X126395854Y-47670339D01*
X126513224Y-47677180D01*
X126625998Y-47670583D01*
X126725143Y-47651751D01*
X126812544Y-47621737D01*
X126934135Y-47554175D01*
X127044819Y-47459804D01*
X126930147Y-47307397D01*
G37*
G36*
X128049992Y-46190124D02*
G01*
X128190684Y-46229187D01*
X128317628Y-46293568D01*
X128423692Y-46379396D01*
X128509296Y-46486274D01*
X128574756Y-46616556D01*
X128614636Y-46761924D01*
X128628611Y-46930408D01*
X128614634Y-47097413D01*
X128574756Y-47241329D01*
X128509340Y-47370342D01*
X128423692Y-47476413D01*
X128317656Y-47561495D01*
X128190684Y-47625157D01*
X128050021Y-47663760D01*
X127889899Y-47677180D01*
X127728503Y-47663749D01*
X127587038Y-47625157D01*
X127459287Y-47561529D01*
X127351954Y-47476413D01*
X127265240Y-47370242D01*
X127199547Y-47241329D01*
X127159669Y-47097413D01*
X127145691Y-46930408D01*
X127145924Y-46927599D01*
X127593388Y-46927599D01*
X127602938Y-47071018D01*
X127628024Y-47175128D01*
X127664707Y-47249145D01*
X127719787Y-47306519D01*
X127792851Y-47341787D01*
X127889899Y-47354535D01*
X127984125Y-47341891D01*
X128055679Y-47306729D01*
X128110206Y-47249145D01*
X128146557Y-47175178D01*
X128171439Y-47071070D01*
X128180914Y-46927599D01*
X128171457Y-46784140D01*
X128146590Y-46679697D01*
X128110206Y-46605198D01*
X128055631Y-46547245D01*
X127984072Y-46511899D01*
X127889899Y-46499197D01*
X127792905Y-46512004D01*
X127719836Y-46547456D01*
X127664707Y-46605198D01*
X127627991Y-46679746D01*
X127602919Y-46784191D01*
X127593388Y-46927599D01*
X127145924Y-46927599D01*
X127159666Y-46761924D01*
X127199547Y-46616556D01*
X127265284Y-46486374D01*
X127351954Y-46379396D01*
X127459315Y-46293534D01*
X127587038Y-46229187D01*
X127728532Y-46190136D01*
X127889899Y-46176552D01*
X128049992Y-46190124D01*
G37*
G36*
X128867359Y-46200000D02*
G01*
X128867359Y-47653733D01*
X129124791Y-47653733D01*
X129178524Y-47648115D01*
X129214916Y-47630774D01*
X129237387Y-47599633D01*
X129250698Y-47552616D01*
X129274390Y-47418161D01*
X129361092Y-47530991D01*
X129453420Y-47613311D01*
X129522445Y-47653473D01*
X129594254Y-47677086D01*
X129670307Y-47684996D01*
X129762231Y-47671372D01*
X129829798Y-47633583D01*
X129773866Y-47318387D01*
X129764888Y-47292679D01*
X129751396Y-47277599D01*
X129706699Y-47265875D01*
X129650768Y-47272226D01*
X129569679Y-47278576D01*
X129490682Y-47267469D01*
X129421107Y-47234652D01*
X129358209Y-47178042D01*
X129301012Y-47092096D01*
X129301012Y-46200000D01*
X128867359Y-46200000D01*
G37*
G36*
X130455792Y-46295621D02*
G01*
X130522283Y-46246622D01*
X130595743Y-46208792D01*
X130678002Y-46185267D01*
X130786009Y-46176552D01*
X130919616Y-46191252D01*
X131038433Y-46234193D01*
X131144120Y-46302813D01*
X131234316Y-46394417D01*
X131306287Y-46504621D01*
X131361689Y-46636217D01*
X131395433Y-46779580D01*
X131407118Y-46939933D01*
X131396621Y-47110341D01*
X131367184Y-47254152D01*
X131318462Y-47384794D01*
X131257397Y-47488136D01*
X131180012Y-47573232D01*
X131090946Y-47634316D01*
X130990760Y-47672204D01*
X130881141Y-47684996D01*
X130807289Y-47680915D01*
X130741923Y-47669242D01*
X130622976Y-47625523D01*
X130519417Y-47558845D01*
X130429170Y-47472993D01*
X130397052Y-47580338D01*
X130381412Y-47612925D01*
X130358461Y-47635293D01*
X130328800Y-47648874D01*
X130290684Y-47653733D01*
X130022139Y-47653733D01*
X130022139Y-46595795D01*
X130455792Y-46595795D01*
X130455792Y-47203349D01*
X130511724Y-47266974D01*
X130572540Y-47312648D01*
X130643981Y-47340369D01*
X130729955Y-47350139D01*
X130779855Y-47344761D01*
X130823744Y-47329134D01*
X130861885Y-47302129D01*
X130895796Y-47259769D01*
X130921444Y-47206843D01*
X130942568Y-47133129D01*
X130954798Y-47050290D01*
X130959421Y-46940055D01*
X130953701Y-46824296D01*
X130938416Y-46735624D01*
X130912350Y-46656959D01*
X130880408Y-46599214D01*
X130839206Y-46553292D01*
X130792969Y-46523011D01*
X130740713Y-46505265D01*
X130682450Y-46499197D01*
X130620632Y-46504577D01*
X130562038Y-46520568D01*
X130508002Y-46549242D01*
X130455792Y-46595795D01*
X130022139Y-46595795D01*
X130022139Y-45738869D01*
X130455792Y-45738869D01*
X130455792Y-46295621D01*
G37*
G36*
X132438525Y-46212027D02*
G01*
X132482764Y-46235293D01*
X132517475Y-46269678D01*
X132537352Y-46306001D01*
X132657764Y-46661130D01*
X133432746Y-46661130D01*
X133553158Y-46306001D01*
X133574530Y-46265373D01*
X133608357Y-46232484D01*
X133652234Y-46211470D01*
X133709840Y-46203907D01*
X134076326Y-46203907D01*
X133287300Y-48247732D01*
X132803210Y-48247732D01*
X132315255Y-46983775D01*
X132766818Y-46983775D01*
X132954274Y-47540771D01*
X132999093Y-47666922D01*
X133045255Y-47825558D01*
X133093493Y-47669120D01*
X133136235Y-47543579D01*
X133323692Y-46983775D01*
X132766818Y-46983775D01*
X132315255Y-46983775D01*
X132014184Y-46203907D01*
X132383479Y-46203907D01*
X132438525Y-46212027D01*
G37*
G36*
X135191548Y-46208886D02*
G01*
X135335285Y-46234695D01*
X135467411Y-46276570D01*
X135592870Y-46335205D01*
X135703639Y-46406350D01*
X135801169Y-46490160D01*
X135886204Y-46586710D01*
X135957642Y-46694565D01*
X136015858Y-46814881D01*
X136057794Y-46941952D01*
X136083422Y-47078037D01*
X136092184Y-47224598D01*
X136083441Y-47370180D01*
X136057832Y-47505792D01*
X136015858Y-47632850D01*
X135957608Y-47753130D01*
X135886166Y-47860688D01*
X135801169Y-47956716D01*
X135703703Y-48040222D01*
X135592932Y-48111417D01*
X135467411Y-48170429D01*
X135335252Y-48212712D01*
X135191519Y-48238763D01*
X135034491Y-48247732D01*
X134242655Y-48247732D01*
X134242655Y-47880390D01*
X134718318Y-47880390D01*
X135034491Y-47880390D01*
X135165223Y-47868543D01*
X135276413Y-47834839D01*
X135374884Y-47779236D01*
X135456176Y-47704535D01*
X135520185Y-47612169D01*
X135568894Y-47497784D01*
X135597878Y-47371419D01*
X135608095Y-47224598D01*
X135597855Y-47076470D01*
X135568894Y-46949825D01*
X135520191Y-46835544D01*
X135456176Y-46743196D01*
X135374884Y-46668495D01*
X135276413Y-46612892D01*
X135165223Y-46579188D01*
X135034491Y-46567341D01*
X134718318Y-46567341D01*
X134718318Y-47880390D01*
X134242655Y-47880390D01*
X134242655Y-46200000D01*
X135034491Y-46200000D01*
X135191548Y-46208886D01*
G37*
G36*
X137689288Y-46728419D02*
G01*
X137722872Y-46722069D01*
X137755112Y-46700209D01*
X137942568Y-46501762D01*
X137853358Y-46402877D01*
X137750996Y-46322157D01*
X137634089Y-46258496D01*
X137507943Y-46214295D01*
X137362781Y-46186388D01*
X137195429Y-46176552D01*
X137042190Y-46185811D01*
X136904152Y-46212539D01*
X136779239Y-46255687D01*
X136661654Y-46315922D01*
X136558091Y-46388718D01*
X136467219Y-46474406D01*
X136389220Y-46572082D01*
X136323717Y-46681869D01*
X136270604Y-46805111D01*
X136232999Y-46934324D01*
X136209968Y-47072434D01*
X136202094Y-47220690D01*
X136211102Y-47371360D01*
X136237407Y-47510709D01*
X136280373Y-47640300D01*
X136340138Y-47763060D01*
X136413016Y-47872684D01*
X136499337Y-47970394D01*
X136598333Y-48055406D01*
X136710067Y-48127305D01*
X136835904Y-48186304D01*
X136968519Y-48228504D01*
X137112077Y-48254449D01*
X137268214Y-48263363D01*
X137380949Y-48258101D01*
X137484246Y-48242847D01*
X137583381Y-48218284D01*
X137673901Y-48186549D01*
X137759175Y-48146778D01*
X137836200Y-48100575D01*
X137906695Y-48047509D01*
X137967725Y-47990055D01*
X137808235Y-47777198D01*
X137771842Y-47741782D01*
X137748018Y-47730167D01*
X137713102Y-47725785D01*
X137665475Y-47736898D01*
X137617969Y-47764131D01*
X137562648Y-47799180D01*
X137491330Y-47834106D01*
X137394731Y-47861339D01*
X137265405Y-47872575D01*
X137140738Y-47860887D01*
X137030321Y-47827023D01*
X136931411Y-47771660D01*
X136847750Y-47696842D01*
X136780750Y-47604616D01*
X136728803Y-47491678D01*
X136697270Y-47366589D01*
X136686183Y-47221301D01*
X136697369Y-47069802D01*
X136728803Y-46942620D01*
X136780293Y-46828545D01*
X136844941Y-46737456D01*
X136924941Y-46663844D01*
X137016399Y-46610694D01*
X137117267Y-46578294D01*
X137226204Y-46567341D01*
X137343685Y-46573569D01*
X137442359Y-46595307D01*
X137529065Y-46635240D01*
X137612352Y-46696179D01*
X137648744Y-46719260D01*
X137689288Y-46728419D01*
G37*
G36*
X122278324Y-42831163D02*
G01*
X122397121Y-42873827D01*
X122502832Y-42942162D01*
X122593004Y-43033318D01*
X122664984Y-43142907D01*
X122720376Y-43273775D01*
X122754122Y-43416394D01*
X122765806Y-43575903D01*
X122755295Y-43745377D01*
X122725872Y-43887801D01*
X122677167Y-44017001D01*
X122616085Y-44119221D01*
X122538716Y-44202976D01*
X122449633Y-44262592D01*
X122349540Y-44299181D01*
X122239829Y-44311563D01*
X122107227Y-44298985D01*
X121998517Y-44263691D01*
X121901083Y-44208026D01*
X121814480Y-44136807D01*
X121814480Y-44942442D01*
X121380826Y-44942442D01*
X121380826Y-43235795D01*
X121814480Y-43235795D01*
X121814480Y-43843349D01*
X121870411Y-43906486D01*
X121931228Y-43951793D01*
X122002669Y-43979270D01*
X122088642Y-43988918D01*
X122138542Y-43983540D01*
X122182431Y-43967913D01*
X122220575Y-43941024D01*
X122254483Y-43898792D01*
X122280136Y-43845881D01*
X122301256Y-43772274D01*
X122313487Y-43689464D01*
X122318108Y-43579445D01*
X122312390Y-43463916D01*
X122297103Y-43375380D01*
X122271032Y-43296734D01*
X122239096Y-43239092D01*
X122197894Y-43193170D01*
X122151657Y-43162889D01*
X122099407Y-43145236D01*
X122041137Y-43139197D01*
X121979320Y-43144577D01*
X121920725Y-43160568D01*
X121866689Y-43189242D01*
X121814480Y-43235795D01*
X121380826Y-43235795D01*
X121380826Y-42840000D01*
X121669033Y-42840000D01*
X121708249Y-42844551D01*
X121736810Y-42856852D01*
X121757721Y-42879094D01*
X121772470Y-42918524D01*
X121787857Y-42991430D01*
X121857100Y-42920844D01*
X121935502Y-42865157D01*
X122029169Y-42829253D01*
X122144696Y-42816552D01*
X122278324Y-42831163D01*
G37*
G36*
X123004553Y-42840000D02*
G01*
X123004553Y-44293733D01*
X123261985Y-44293733D01*
X123315718Y-44288115D01*
X123352110Y-44270774D01*
X123374581Y-44239633D01*
X123387892Y-44192616D01*
X123411584Y-44058161D01*
X123498286Y-44170991D01*
X123590614Y-44253311D01*
X123659639Y-44293473D01*
X123731448Y-44317086D01*
X123807501Y-44324996D01*
X123899425Y-44311372D01*
X123966992Y-44273583D01*
X123911060Y-43958387D01*
X123902082Y-43932679D01*
X123888590Y-43917599D01*
X123843893Y-43905875D01*
X123787962Y-43912226D01*
X123706873Y-43918576D01*
X123627876Y-43907469D01*
X123558302Y-43874652D01*
X123495403Y-43818042D01*
X123438206Y-43732096D01*
X123438206Y-42840000D01*
X123004553Y-42840000D01*
G37*
G36*
X124956053Y-42826933D02*
G01*
X125037449Y-42841338D01*
X125119696Y-42864180D01*
X125199936Y-42895983D01*
X125279187Y-42938674D01*
X125353277Y-42992572D01*
X125424023Y-43062260D01*
X125298115Y-43219797D01*
X125265750Y-43248287D01*
X125219713Y-43258143D01*
X125181595Y-43253567D01*
X125144853Y-43239703D01*
X125066573Y-43198670D01*
X124969364Y-43157515D01*
X124911824Y-43144107D01*
X124839183Y-43139197D01*
X124748227Y-43148966D01*
X124672381Y-43176737D01*
X124608374Y-43221995D01*
X124559393Y-43283157D01*
X124521811Y-43369541D01*
X124497854Y-43488709D01*
X125334508Y-43488709D01*
X125382746Y-43495669D01*
X125412787Y-43520949D01*
X125428175Y-43570163D01*
X125432449Y-43650153D01*
X125419853Y-43802084D01*
X125384089Y-43931643D01*
X125325612Y-44047491D01*
X125249755Y-44141570D01*
X125156002Y-44216691D01*
X125044103Y-44272240D01*
X124920369Y-44305608D01*
X124780443Y-44317180D01*
X124670670Y-44310449D01*
X124571593Y-44290993D01*
X124481734Y-44259539D01*
X124358510Y-44191228D01*
X124256542Y-44103712D01*
X124174602Y-43997881D01*
X124113782Y-43874979D01*
X124076728Y-43741321D01*
X124076508Y-43738813D01*
X124502006Y-43738813D01*
X124523758Y-43827098D01*
X124554887Y-43895438D01*
X124594330Y-43947641D01*
X124645246Y-43986943D01*
X124708855Y-44011413D01*
X124788869Y-44020181D01*
X124855453Y-44013686D01*
X124907815Y-43995757D01*
X124952533Y-43967189D01*
X124986828Y-43931887D01*
X125012559Y-43889989D01*
X125030181Y-43842128D01*
X125043492Y-43738813D01*
X124502006Y-43738813D01*
X124076508Y-43738813D01*
X124064200Y-43598496D01*
X124071129Y-43470238D01*
X124090867Y-43357640D01*
X124122208Y-43258632D01*
X124191917Y-43122899D01*
X124280355Y-43014389D01*
X124388525Y-42928448D01*
X124513974Y-42866378D01*
X124651135Y-42829213D01*
X124800104Y-42816552D01*
X124956053Y-42826933D01*
G37*
G36*
X126182885Y-42828520D02*
G01*
X126297679Y-42864912D01*
X126401849Y-42924508D01*
X126506873Y-43005840D01*
X126537648Y-42925973D01*
X126562921Y-42879543D01*
X126590038Y-42855753D01*
X126625716Y-42843835D01*
X126683094Y-42839023D01*
X126881786Y-42839023D01*
X126881786Y-43750048D01*
X126871728Y-43871688D01*
X126842585Y-43980491D01*
X126794427Y-44079428D01*
X126729989Y-44162575D01*
X126649314Y-44230288D01*
X126550959Y-44282131D01*
X126440954Y-44313896D01*
X126313799Y-44324996D01*
X126134730Y-44310296D01*
X125970272Y-44267233D01*
X125867210Y-44222318D01*
X125770222Y-44163901D01*
X125678646Y-44091256D01*
X125756926Y-43955579D01*
X125778348Y-43926074D01*
X125806629Y-43901601D01*
X125840681Y-43885605D01*
X125882833Y-43879986D01*
X125931027Y-43884417D01*
X125969661Y-43896716D01*
X126044522Y-43934452D01*
X126131960Y-43972187D01*
X126184634Y-43984284D01*
X126257868Y-43988918D01*
X126319718Y-43981986D01*
X126368320Y-43962706D01*
X126406734Y-43931765D01*
X126433898Y-43890232D01*
X126452246Y-43830442D01*
X126459246Y-43746140D01*
X126459246Y-43684103D01*
X126221142Y-43671666D01*
X126046475Y-43639040D01*
X125893311Y-43585779D01*
X125786235Y-43527055D01*
X125701846Y-43453972D01*
X125650558Y-43378433D01*
X125620878Y-43296338D01*
X125614012Y-43240069D01*
X126025593Y-43240069D01*
X126030310Y-43276460D01*
X126044399Y-43309923D01*
X126069136Y-43338932D01*
X126112299Y-43367320D01*
X126166165Y-43389232D01*
X126245167Y-43409330D01*
X126334903Y-43421498D01*
X126459246Y-43426182D01*
X126459246Y-43228712D01*
X126392946Y-43171049D01*
X126331873Y-43134678D01*
X126265500Y-43113325D01*
X126185083Y-43105736D01*
X126112711Y-43114147D01*
X126066137Y-43135778D01*
X126036813Y-43174244D01*
X126025593Y-43240069D01*
X125614012Y-43240069D01*
X125611479Y-43219309D01*
X125619548Y-43124465D01*
X125642254Y-43045408D01*
X125679867Y-42975699D01*
X125729692Y-42919378D01*
X125791497Y-42875375D01*
X125867445Y-42842564D01*
X125951458Y-42823305D01*
X126047941Y-42816552D01*
X126182885Y-42828520D01*
G37*
G36*
X127623552Y-44942442D02*
G01*
X127623552Y-43762260D01*
X127687910Y-43762260D01*
X127725805Y-43765463D01*
X127750069Y-43773496D01*
X127791468Y-43814162D01*
X128065631Y-44223635D01*
X128092286Y-44255687D01*
X128122295Y-44276880D01*
X128157868Y-44289173D01*
X128205582Y-44293733D01*
X128602843Y-44293733D01*
X128227930Y-43774473D01*
X128169801Y-43709626D01*
X128102023Y-43659068D01*
X128159868Y-43604968D01*
X128211200Y-43533283D01*
X128619696Y-42840000D01*
X128227930Y-42840000D01*
X128181078Y-42844231D01*
X128143300Y-42855997D01*
X128111589Y-42877622D01*
X128085293Y-42912662D01*
X127811008Y-43425083D01*
X127789667Y-43455384D01*
X127770464Y-43470390D01*
X127707449Y-43480893D01*
X127623552Y-43480893D01*
X127623552Y-42840000D01*
X127189898Y-42840000D01*
X127189898Y-44942442D01*
X127623552Y-44942442D01*
G37*
G36*
X129524241Y-42830124D02*
G01*
X129664933Y-42869187D01*
X129791877Y-42933568D01*
X129897941Y-43019396D01*
X129983545Y-43126274D01*
X130049005Y-43256556D01*
X130088886Y-43401924D01*
X130102861Y-43570408D01*
X130088883Y-43737413D01*
X130049005Y-43881329D01*
X129983589Y-44010342D01*
X129897941Y-44116413D01*
X129791905Y-44201495D01*
X129664933Y-44265157D01*
X129524271Y-44303760D01*
X129364148Y-44317180D01*
X129202752Y-44303749D01*
X129061287Y-44265157D01*
X128933536Y-44201529D01*
X128826203Y-44116413D01*
X128739489Y-44010242D01*
X128673796Y-43881329D01*
X128633918Y-43737413D01*
X128619940Y-43570408D01*
X128620173Y-43567599D01*
X129067637Y-43567599D01*
X129077187Y-43711018D01*
X129102273Y-43815128D01*
X129138956Y-43889145D01*
X129194036Y-43946519D01*
X129267100Y-43981787D01*
X129364148Y-43994535D01*
X129458374Y-43981891D01*
X129529928Y-43946729D01*
X129584455Y-43889145D01*
X129620807Y-43815178D01*
X129645688Y-43711070D01*
X129655164Y-43567599D01*
X129645706Y-43424140D01*
X129620839Y-43319697D01*
X129584455Y-43245198D01*
X129529880Y-43187245D01*
X129458321Y-43151899D01*
X129364148Y-43139197D01*
X129267154Y-43152004D01*
X129194085Y-43187456D01*
X129138956Y-43245198D01*
X129102241Y-43319746D01*
X129077168Y-43424191D01*
X129067637Y-43567599D01*
X128620173Y-43567599D01*
X128633915Y-43401924D01*
X128673796Y-43256556D01*
X128739533Y-43126374D01*
X128826203Y-43019396D01*
X128933564Y-42933534D01*
X129061287Y-42869187D01*
X129202782Y-42830136D01*
X129364148Y-42816552D01*
X129524241Y-42830124D01*
G37*
G36*
X130747295Y-44293733D02*
G01*
X130747295Y-43370617D01*
X130753459Y-43300183D01*
X130770273Y-43245699D01*
X130796266Y-43203677D01*
X130832720Y-43171791D01*
X130879660Y-43151966D01*
X130940369Y-43144815D01*
X131009730Y-43152146D01*
X131073970Y-43173879D01*
X131134336Y-43208114D01*
X131194993Y-43255457D01*
X131194993Y-44293733D01*
X131628646Y-44293733D01*
X131628646Y-42840000D01*
X131360101Y-42840000D01*
X131311026Y-42848431D01*
X131276818Y-42871821D01*
X131253733Y-42911807D01*
X131227110Y-42994605D01*
X131140404Y-42921577D01*
X131044539Y-42865889D01*
X130934752Y-42829741D01*
X130806036Y-42816552D01*
X130691716Y-42827342D01*
X130595498Y-42857951D01*
X130510754Y-42907786D01*
X130440893Y-42973600D01*
X130386157Y-43053720D01*
X130345760Y-43148967D01*
X130321928Y-43253186D01*
X130313642Y-43370617D01*
X130313642Y-44293733D01*
X130747295Y-44293733D01*
G37*
G36*
X132474581Y-42816552D02*
G01*
X132374805Y-42824482D01*
X132291887Y-42846716D01*
X132218436Y-42883794D01*
X132159019Y-42932568D01*
X132112023Y-42993300D01*
X132077198Y-43066901D01*
X132056487Y-43148610D01*
X132049232Y-43242756D01*
X132049232Y-43996612D01*
X131926134Y-43996612D01*
X131894815Y-44002021D01*
X131868736Y-44017983D01*
X131851379Y-44043386D01*
X131845045Y-44080875D01*
X131845045Y-44248060D01*
X132075854Y-44293000D01*
X132161217Y-44648374D01*
X132179082Y-44685653D01*
X132209314Y-44707647D01*
X132256350Y-44715785D01*
X132482885Y-44715785D01*
X132482885Y-44293733D01*
X132835450Y-44293733D01*
X132835450Y-43996734D01*
X132482885Y-43996734D01*
X132482885Y-43269745D01*
X132489321Y-43222222D01*
X132507309Y-43185725D01*
X132536724Y-43161157D01*
X132578018Y-43152630D01*
X132617951Y-43157515D01*
X132645917Y-43168750D01*
X132668265Y-43179986D01*
X132692812Y-43184870D01*
X132724197Y-43175711D01*
X132748743Y-43147013D01*
X132880268Y-42940750D01*
X132791645Y-42886711D01*
X132691346Y-42847571D01*
X132584994Y-42824349D01*
X132474581Y-42816552D01*
G37*
G36*
X133624232Y-42840000D02*
G01*
X133624232Y-44293733D01*
X133881664Y-44293733D01*
X133935397Y-44288115D01*
X133971789Y-44270774D01*
X133994260Y-44239633D01*
X134007571Y-44192616D01*
X134031263Y-44058161D01*
X134117965Y-44170991D01*
X134210293Y-44253311D01*
X134279318Y-44293473D01*
X134351127Y-44317086D01*
X134427180Y-44324996D01*
X134519104Y-44311372D01*
X134586671Y-44273583D01*
X134530739Y-43958387D01*
X134521761Y-43932679D01*
X134508269Y-43917599D01*
X134463572Y-43905875D01*
X134407641Y-43912226D01*
X134326552Y-43918576D01*
X134247555Y-43907469D01*
X134177981Y-43874652D01*
X134115082Y-43818042D01*
X134057885Y-43732096D01*
X134057885Y-42840000D01*
X133624232Y-42840000D01*
G37*
G36*
X135575732Y-42826933D02*
G01*
X135657128Y-42841338D01*
X135739375Y-42864180D01*
X135819615Y-42895983D01*
X135898866Y-42938674D01*
X135972956Y-42992572D01*
X136043702Y-43062260D01*
X135917794Y-43219797D01*
X135885429Y-43248287D01*
X135839392Y-43258143D01*
X135801274Y-43253567D01*
X135764532Y-43239703D01*
X135686252Y-43198670D01*
X135589043Y-43157515D01*
X135531503Y-43144107D01*
X135458862Y-43139197D01*
X135367906Y-43148966D01*
X135292060Y-43176737D01*
X135228053Y-43221995D01*
X135179072Y-43283157D01*
X135141490Y-43369541D01*
X135117533Y-43488709D01*
X135954187Y-43488709D01*
X136002425Y-43495669D01*
X136032466Y-43520949D01*
X136047854Y-43570163D01*
X136052128Y-43650153D01*
X136039532Y-43802084D01*
X136003768Y-43931643D01*
X135945291Y-44047491D01*
X135869434Y-44141570D01*
X135775681Y-44216691D01*
X135663782Y-44272240D01*
X135540048Y-44305608D01*
X135400122Y-44317180D01*
X135290349Y-44310449D01*
X135191272Y-44290993D01*
X135101413Y-44259539D01*
X134978189Y-44191228D01*
X134876221Y-44103712D01*
X134794281Y-43997881D01*
X134733461Y-43874979D01*
X134696407Y-43741321D01*
X134696187Y-43738813D01*
X135121685Y-43738813D01*
X135143437Y-43827098D01*
X135174566Y-43895438D01*
X135214009Y-43947641D01*
X135264925Y-43986943D01*
X135328534Y-44011413D01*
X135408548Y-44020181D01*
X135475132Y-44013686D01*
X135527494Y-43995757D01*
X135572212Y-43967189D01*
X135606507Y-43931887D01*
X135632238Y-43889989D01*
X135649860Y-43842128D01*
X135663171Y-43738813D01*
X135121685Y-43738813D01*
X134696187Y-43738813D01*
X134683879Y-43598496D01*
X134690808Y-43470238D01*
X134710546Y-43357640D01*
X134741887Y-43258632D01*
X134811596Y-43122899D01*
X134900034Y-43014389D01*
X135008204Y-42928448D01*
X135133653Y-42866378D01*
X135270814Y-42829213D01*
X135419783Y-42816552D01*
X135575732Y-42826933D01*
G37*
G36*
X137047418Y-42840000D02*
G01*
X136652965Y-42840000D01*
X136090596Y-44293733D01*
X136451465Y-44293733D01*
X136494874Y-44288008D01*
X136529134Y-44271873D01*
X136555839Y-44246978D01*
X136571755Y-44217529D01*
X136773255Y-43561615D01*
X136818684Y-43405055D01*
X136855809Y-43252770D01*
X136893545Y-43405055D01*
X136941172Y-43561615D01*
X137150976Y-44217529D01*
X137166850Y-44247037D01*
X137192986Y-44271873D01*
X137226081Y-44288120D01*
X137265771Y-44293733D01*
X137609909Y-44293733D01*
X137047418Y-42840000D01*
G37*
G36*
X138515928Y-43154218D02*
G01*
X138907693Y-43154218D01*
X138907693Y-44182236D01*
X138911845Y-44340261D01*
X138681036Y-44150973D01*
X138636217Y-44125450D01*
X138592864Y-44117878D01*
X138557977Y-44121950D01*
X138527773Y-44133754D01*
X138485153Y-44167581D01*
X138348011Y-44347100D01*
X138983164Y-44883824D01*
X139341346Y-44883824D01*
X139341346Y-43154218D01*
X139677058Y-43154218D01*
X139677058Y-42840000D01*
X138515928Y-42840000D01*
X138515928Y-43154218D01*
G37*
D11*
X118333333Y-91681009D02*
X118666666Y-91681009D01*
X118666666Y-92204819D02*
X118666666Y-91204819D01*
X118666666Y-91204819D02*
X118190476Y-91204819D01*
X117476190Y-91681009D02*
X117333333Y-91728628D01*
X117333333Y-91728628D02*
X117285714Y-91776247D01*
X117285714Y-91776247D02*
X117238095Y-91871485D01*
X117238095Y-91871485D02*
X117238095Y-92014342D01*
X117238095Y-92014342D02*
X117285714Y-92109580D01*
X117285714Y-92109580D02*
X117333333Y-92157200D01*
X117333333Y-92157200D02*
X117428571Y-92204819D01*
X117428571Y-92204819D02*
X117809523Y-92204819D01*
X117809523Y-92204819D02*
X117809523Y-91204819D01*
X117809523Y-91204819D02*
X117476190Y-91204819D01*
X117476190Y-91204819D02*
X117380952Y-91252438D01*
X117380952Y-91252438D02*
X117333333Y-91300057D01*
X117333333Y-91300057D02*
X117285714Y-91395295D01*
X117285714Y-91395295D02*
X117285714Y-91490533D01*
X117285714Y-91490533D02*
X117333333Y-91585771D01*
X117333333Y-91585771D02*
X117380952Y-91633390D01*
X117380952Y-91633390D02*
X117476190Y-91681009D01*
X117476190Y-91681009D02*
X117809523Y-91681009D01*
X116904761Y-91204819D02*
X116238095Y-91204819D01*
X116238095Y-91204819D02*
X116666666Y-92204819D01*
X98833333Y-111431009D02*
X99166666Y-111431009D01*
X99166666Y-111954819D02*
X99166666Y-110954819D01*
X99166666Y-110954819D02*
X98690476Y-110954819D01*
X97976190Y-111431009D02*
X97833333Y-111478628D01*
X97833333Y-111478628D02*
X97785714Y-111526247D01*
X97785714Y-111526247D02*
X97738095Y-111621485D01*
X97738095Y-111621485D02*
X97738095Y-111764342D01*
X97738095Y-111764342D02*
X97785714Y-111859580D01*
X97785714Y-111859580D02*
X97833333Y-111907200D01*
X97833333Y-111907200D02*
X97928571Y-111954819D01*
X97928571Y-111954819D02*
X98309523Y-111954819D01*
X98309523Y-111954819D02*
X98309523Y-110954819D01*
X98309523Y-110954819D02*
X97976190Y-110954819D01*
X97976190Y-110954819D02*
X97880952Y-111002438D01*
X97880952Y-111002438D02*
X97833333Y-111050057D01*
X97833333Y-111050057D02*
X97785714Y-111145295D01*
X97785714Y-111145295D02*
X97785714Y-111240533D01*
X97785714Y-111240533D02*
X97833333Y-111335771D01*
X97833333Y-111335771D02*
X97880952Y-111383390D01*
X97880952Y-111383390D02*
X97976190Y-111431009D01*
X97976190Y-111431009D02*
X98309523Y-111431009D01*
X96880952Y-111288152D02*
X96880952Y-111954819D01*
X97119047Y-110907200D02*
X97357142Y-111621485D01*
X97357142Y-111621485D02*
X96738095Y-111621485D01*
X98604819Y-96111905D02*
X97604819Y-96111905D01*
X97604819Y-96111905D02*
X97604819Y-96350000D01*
X97604819Y-96350000D02*
X97652438Y-96492857D01*
X97652438Y-96492857D02*
X97747676Y-96588095D01*
X97747676Y-96588095D02*
X97842914Y-96635714D01*
X97842914Y-96635714D02*
X98033390Y-96683333D01*
X98033390Y-96683333D02*
X98176247Y-96683333D01*
X98176247Y-96683333D02*
X98366723Y-96635714D01*
X98366723Y-96635714D02*
X98461961Y-96588095D01*
X98461961Y-96588095D02*
X98557200Y-96492857D01*
X98557200Y-96492857D02*
X98604819Y-96350000D01*
X98604819Y-96350000D02*
X98604819Y-96111905D01*
X97604819Y-97016667D02*
X97604819Y-97635714D01*
X97604819Y-97635714D02*
X97985771Y-97302381D01*
X97985771Y-97302381D02*
X97985771Y-97445238D01*
X97985771Y-97445238D02*
X98033390Y-97540476D01*
X98033390Y-97540476D02*
X98081009Y-97588095D01*
X98081009Y-97588095D02*
X98176247Y-97635714D01*
X98176247Y-97635714D02*
X98414342Y-97635714D01*
X98414342Y-97635714D02*
X98509580Y-97588095D01*
X98509580Y-97588095D02*
X98557200Y-97540476D01*
X98557200Y-97540476D02*
X98604819Y-97445238D01*
X98604819Y-97445238D02*
X98604819Y-97159524D01*
X98604819Y-97159524D02*
X98557200Y-97064286D01*
X98557200Y-97064286D02*
X98509580Y-97016667D01*
X146454819Y-110190476D02*
X147169104Y-110190476D01*
X147169104Y-110190476D02*
X147311961Y-110142857D01*
X147311961Y-110142857D02*
X147407200Y-110047619D01*
X147407200Y-110047619D02*
X147454819Y-109904762D01*
X147454819Y-109904762D02*
X147454819Y-109809524D01*
X147454819Y-111190476D02*
X147454819Y-110619048D01*
X147454819Y-110904762D02*
X146454819Y-110904762D01*
X146454819Y-110904762D02*
X146597676Y-110809524D01*
X146597676Y-110809524D02*
X146692914Y-110714286D01*
X146692914Y-110714286D02*
X146740533Y-110619048D01*
X146454819Y-111809524D02*
X146454819Y-111904762D01*
X146454819Y-111904762D02*
X146502438Y-112000000D01*
X146502438Y-112000000D02*
X146550057Y-112047619D01*
X146550057Y-112047619D02*
X146645295Y-112095238D01*
X146645295Y-112095238D02*
X146835771Y-112142857D01*
X146835771Y-112142857D02*
X147073866Y-112142857D01*
X147073866Y-112142857D02*
X147264342Y-112095238D01*
X147264342Y-112095238D02*
X147359580Y-112047619D01*
X147359580Y-112047619D02*
X147407200Y-112000000D01*
X147407200Y-112000000D02*
X147454819Y-111904762D01*
X147454819Y-111904762D02*
X147454819Y-111809524D01*
X147454819Y-111809524D02*
X147407200Y-111714286D01*
X147407200Y-111714286D02*
X147359580Y-111666667D01*
X147359580Y-111666667D02*
X147264342Y-111619048D01*
X147264342Y-111619048D02*
X147073866Y-111571429D01*
X147073866Y-111571429D02*
X146835771Y-111571429D01*
X146835771Y-111571429D02*
X146645295Y-111619048D01*
X146645295Y-111619048D02*
X146550057Y-111666667D01*
X146550057Y-111666667D02*
X146502438Y-111714286D01*
X146502438Y-111714286D02*
X146454819Y-111809524D01*
X118083333Y-71431009D02*
X118416666Y-71431009D01*
X118416666Y-71954819D02*
X118416666Y-70954819D01*
X118416666Y-70954819D02*
X117940476Y-70954819D01*
X117226190Y-71431009D02*
X117083333Y-71478628D01*
X117083333Y-71478628D02*
X117035714Y-71526247D01*
X117035714Y-71526247D02*
X116988095Y-71621485D01*
X116988095Y-71621485D02*
X116988095Y-71764342D01*
X116988095Y-71764342D02*
X117035714Y-71859580D01*
X117035714Y-71859580D02*
X117083333Y-71907200D01*
X117083333Y-71907200D02*
X117178571Y-71954819D01*
X117178571Y-71954819D02*
X117559523Y-71954819D01*
X117559523Y-71954819D02*
X117559523Y-70954819D01*
X117559523Y-70954819D02*
X117226190Y-70954819D01*
X117226190Y-70954819D02*
X117130952Y-71002438D01*
X117130952Y-71002438D02*
X117083333Y-71050057D01*
X117083333Y-71050057D02*
X117035714Y-71145295D01*
X117035714Y-71145295D02*
X117035714Y-71240533D01*
X117035714Y-71240533D02*
X117083333Y-71335771D01*
X117083333Y-71335771D02*
X117130952Y-71383390D01*
X117130952Y-71383390D02*
X117226190Y-71431009D01*
X117226190Y-71431009D02*
X117559523Y-71431009D01*
X116130952Y-70954819D02*
X116321428Y-70954819D01*
X116321428Y-70954819D02*
X116416666Y-71002438D01*
X116416666Y-71002438D02*
X116464285Y-71050057D01*
X116464285Y-71050057D02*
X116559523Y-71192914D01*
X116559523Y-71192914D02*
X116607142Y-71383390D01*
X116607142Y-71383390D02*
X116607142Y-71764342D01*
X116607142Y-71764342D02*
X116559523Y-71859580D01*
X116559523Y-71859580D02*
X116511904Y-71907200D01*
X116511904Y-71907200D02*
X116416666Y-71954819D01*
X116416666Y-71954819D02*
X116226190Y-71954819D01*
X116226190Y-71954819D02*
X116130952Y-71907200D01*
X116130952Y-71907200D02*
X116083333Y-71859580D01*
X116083333Y-71859580D02*
X116035714Y-71764342D01*
X116035714Y-71764342D02*
X116035714Y-71526247D01*
X116035714Y-71526247D02*
X116083333Y-71431009D01*
X116083333Y-71431009D02*
X116130952Y-71383390D01*
X116130952Y-71383390D02*
X116226190Y-71335771D01*
X116226190Y-71335771D02*
X116416666Y-71335771D01*
X116416666Y-71335771D02*
X116511904Y-71383390D01*
X116511904Y-71383390D02*
X116559523Y-71431009D01*
X116559523Y-71431009D02*
X116607142Y-71526247D01*
X98454819Y-42761905D02*
X97454819Y-42761905D01*
X97454819Y-42761905D02*
X97454819Y-43000000D01*
X97454819Y-43000000D02*
X97502438Y-43142857D01*
X97502438Y-43142857D02*
X97597676Y-43238095D01*
X97597676Y-43238095D02*
X97692914Y-43285714D01*
X97692914Y-43285714D02*
X97883390Y-43333333D01*
X97883390Y-43333333D02*
X98026247Y-43333333D01*
X98026247Y-43333333D02*
X98216723Y-43285714D01*
X98216723Y-43285714D02*
X98311961Y-43238095D01*
X98311961Y-43238095D02*
X98407200Y-43142857D01*
X98407200Y-43142857D02*
X98454819Y-43000000D01*
X98454819Y-43000000D02*
X98454819Y-42761905D01*
X98454819Y-44285714D02*
X98454819Y-43714286D01*
X98454819Y-44000000D02*
X97454819Y-44000000D01*
X97454819Y-44000000D02*
X97597676Y-43904762D01*
X97597676Y-43904762D02*
X97692914Y-43809524D01*
X97692914Y-43809524D02*
X97740533Y-43714286D01*
X98433333Y-88331009D02*
X98766666Y-88331009D01*
X98766666Y-88854819D02*
X98766666Y-87854819D01*
X98766666Y-87854819D02*
X98290476Y-87854819D01*
X97576190Y-88331009D02*
X97433333Y-88378628D01*
X97433333Y-88378628D02*
X97385714Y-88426247D01*
X97385714Y-88426247D02*
X97338095Y-88521485D01*
X97338095Y-88521485D02*
X97338095Y-88664342D01*
X97338095Y-88664342D02*
X97385714Y-88759580D01*
X97385714Y-88759580D02*
X97433333Y-88807200D01*
X97433333Y-88807200D02*
X97528571Y-88854819D01*
X97528571Y-88854819D02*
X97909523Y-88854819D01*
X97909523Y-88854819D02*
X97909523Y-87854819D01*
X97909523Y-87854819D02*
X97576190Y-87854819D01*
X97576190Y-87854819D02*
X97480952Y-87902438D01*
X97480952Y-87902438D02*
X97433333Y-87950057D01*
X97433333Y-87950057D02*
X97385714Y-88045295D01*
X97385714Y-88045295D02*
X97385714Y-88140533D01*
X97385714Y-88140533D02*
X97433333Y-88235771D01*
X97433333Y-88235771D02*
X97480952Y-88283390D01*
X97480952Y-88283390D02*
X97576190Y-88331009D01*
X97576190Y-88331009D02*
X97909523Y-88331009D01*
X97004761Y-87854819D02*
X96385714Y-87854819D01*
X96385714Y-87854819D02*
X96719047Y-88235771D01*
X96719047Y-88235771D02*
X96576190Y-88235771D01*
X96576190Y-88235771D02*
X96480952Y-88283390D01*
X96480952Y-88283390D02*
X96433333Y-88331009D01*
X96433333Y-88331009D02*
X96385714Y-88426247D01*
X96385714Y-88426247D02*
X96385714Y-88664342D01*
X96385714Y-88664342D02*
X96433333Y-88759580D01*
X96433333Y-88759580D02*
X96480952Y-88807200D01*
X96480952Y-88807200D02*
X96576190Y-88854819D01*
X96576190Y-88854819D02*
X96861904Y-88854819D01*
X96861904Y-88854819D02*
X96957142Y-88807200D01*
X96957142Y-88807200D02*
X97004761Y-88759580D01*
X118704132Y-43017851D02*
X117704132Y-43017851D01*
X117704132Y-43017851D02*
X117704132Y-43255946D01*
X117704132Y-43255946D02*
X117751751Y-43398803D01*
X117751751Y-43398803D02*
X117846989Y-43494041D01*
X117846989Y-43494041D02*
X117942227Y-43541660D01*
X117942227Y-43541660D02*
X118132703Y-43589279D01*
X118132703Y-43589279D02*
X118275560Y-43589279D01*
X118275560Y-43589279D02*
X118466036Y-43541660D01*
X118466036Y-43541660D02*
X118561274Y-43494041D01*
X118561274Y-43494041D02*
X118656513Y-43398803D01*
X118656513Y-43398803D02*
X118704132Y-43255946D01*
X118704132Y-43255946D02*
X118704132Y-43017851D01*
X117704132Y-44494041D02*
X117704132Y-44017851D01*
X117704132Y-44017851D02*
X118180322Y-43970232D01*
X118180322Y-43970232D02*
X118132703Y-44017851D01*
X118132703Y-44017851D02*
X118085084Y-44113089D01*
X118085084Y-44113089D02*
X118085084Y-44351184D01*
X118085084Y-44351184D02*
X118132703Y-44446422D01*
X118132703Y-44446422D02*
X118180322Y-44494041D01*
X118180322Y-44494041D02*
X118275560Y-44541660D01*
X118275560Y-44541660D02*
X118513655Y-44541660D01*
X118513655Y-44541660D02*
X118608893Y-44494041D01*
X118608893Y-44494041D02*
X118656513Y-44446422D01*
X118656513Y-44446422D02*
X118704132Y-44351184D01*
X118704132Y-44351184D02*
X118704132Y-44113089D01*
X118704132Y-44113089D02*
X118656513Y-44017851D01*
X118656513Y-44017851D02*
X118608893Y-43970232D01*
X99204819Y-62761905D02*
X98204819Y-62761905D01*
X98204819Y-62761905D02*
X98204819Y-63000000D01*
X98204819Y-63000000D02*
X98252438Y-63142857D01*
X98252438Y-63142857D02*
X98347676Y-63238095D01*
X98347676Y-63238095D02*
X98442914Y-63285714D01*
X98442914Y-63285714D02*
X98633390Y-63333333D01*
X98633390Y-63333333D02*
X98776247Y-63333333D01*
X98776247Y-63333333D02*
X98966723Y-63285714D01*
X98966723Y-63285714D02*
X99061961Y-63238095D01*
X99061961Y-63238095D02*
X99157200Y-63142857D01*
X99157200Y-63142857D02*
X99204819Y-63000000D01*
X99204819Y-63000000D02*
X99204819Y-62761905D01*
X98300057Y-63714286D02*
X98252438Y-63761905D01*
X98252438Y-63761905D02*
X98204819Y-63857143D01*
X98204819Y-63857143D02*
X98204819Y-64095238D01*
X98204819Y-64095238D02*
X98252438Y-64190476D01*
X98252438Y-64190476D02*
X98300057Y-64238095D01*
X98300057Y-64238095D02*
X98395295Y-64285714D01*
X98395295Y-64285714D02*
X98490533Y-64285714D01*
X98490533Y-64285714D02*
X98633390Y-64238095D01*
X98633390Y-64238095D02*
X99204819Y-63666667D01*
X99204819Y-63666667D02*
X99204819Y-64285714D01*
X118258333Y-51681009D02*
X118591666Y-51681009D01*
X118591666Y-52204819D02*
X118591666Y-51204819D01*
X118591666Y-51204819D02*
X118115476Y-51204819D01*
X117401190Y-51681009D02*
X117258333Y-51728628D01*
X117258333Y-51728628D02*
X117210714Y-51776247D01*
X117210714Y-51776247D02*
X117163095Y-51871485D01*
X117163095Y-51871485D02*
X117163095Y-52014342D01*
X117163095Y-52014342D02*
X117210714Y-52109580D01*
X117210714Y-52109580D02*
X117258333Y-52157200D01*
X117258333Y-52157200D02*
X117353571Y-52204819D01*
X117353571Y-52204819D02*
X117734523Y-52204819D01*
X117734523Y-52204819D02*
X117734523Y-51204819D01*
X117734523Y-51204819D02*
X117401190Y-51204819D01*
X117401190Y-51204819D02*
X117305952Y-51252438D01*
X117305952Y-51252438D02*
X117258333Y-51300057D01*
X117258333Y-51300057D02*
X117210714Y-51395295D01*
X117210714Y-51395295D02*
X117210714Y-51490533D01*
X117210714Y-51490533D02*
X117258333Y-51585771D01*
X117258333Y-51585771D02*
X117305952Y-51633390D01*
X117305952Y-51633390D02*
X117401190Y-51681009D01*
X117401190Y-51681009D02*
X117734523Y-51681009D01*
X116258333Y-51204819D02*
X116734523Y-51204819D01*
X116734523Y-51204819D02*
X116782142Y-51681009D01*
X116782142Y-51681009D02*
X116734523Y-51633390D01*
X116734523Y-51633390D02*
X116639285Y-51585771D01*
X116639285Y-51585771D02*
X116401190Y-51585771D01*
X116401190Y-51585771D02*
X116305952Y-51633390D01*
X116305952Y-51633390D02*
X116258333Y-51681009D01*
X116258333Y-51681009D02*
X116210714Y-51776247D01*
X116210714Y-51776247D02*
X116210714Y-52014342D01*
X116210714Y-52014342D02*
X116258333Y-52109580D01*
X116258333Y-52109580D02*
X116305952Y-52157200D01*
X116305952Y-52157200D02*
X116401190Y-52204819D01*
X116401190Y-52204819D02*
X116639285Y-52204819D01*
X116639285Y-52204819D02*
X116734523Y-52157200D01*
X116734523Y-52157200D02*
X116782142Y-52109580D01*
X98083333Y-51431009D02*
X98416666Y-51431009D01*
X98416666Y-51954819D02*
X98416666Y-50954819D01*
X98416666Y-50954819D02*
X97940476Y-50954819D01*
X97226190Y-51431009D02*
X97083333Y-51478628D01*
X97083333Y-51478628D02*
X97035714Y-51526247D01*
X97035714Y-51526247D02*
X96988095Y-51621485D01*
X96988095Y-51621485D02*
X96988095Y-51764342D01*
X96988095Y-51764342D02*
X97035714Y-51859580D01*
X97035714Y-51859580D02*
X97083333Y-51907200D01*
X97083333Y-51907200D02*
X97178571Y-51954819D01*
X97178571Y-51954819D02*
X97559523Y-51954819D01*
X97559523Y-51954819D02*
X97559523Y-50954819D01*
X97559523Y-50954819D02*
X97226190Y-50954819D01*
X97226190Y-50954819D02*
X97130952Y-51002438D01*
X97130952Y-51002438D02*
X97083333Y-51050057D01*
X97083333Y-51050057D02*
X97035714Y-51145295D01*
X97035714Y-51145295D02*
X97035714Y-51240533D01*
X97035714Y-51240533D02*
X97083333Y-51335771D01*
X97083333Y-51335771D02*
X97130952Y-51383390D01*
X97130952Y-51383390D02*
X97226190Y-51431009D01*
X97226190Y-51431009D02*
X97559523Y-51431009D01*
X96035714Y-51954819D02*
X96607142Y-51954819D01*
X96321428Y-51954819D02*
X96321428Y-50954819D01*
X96321428Y-50954819D02*
X96416666Y-51097676D01*
X96416666Y-51097676D02*
X96511904Y-51192914D01*
X96511904Y-51192914D02*
X96607142Y-51240533D01*
X98833333Y-71681009D02*
X99166666Y-71681009D01*
X99166666Y-72204819D02*
X99166666Y-71204819D01*
X99166666Y-71204819D02*
X98690476Y-71204819D01*
X97976190Y-71681009D02*
X97833333Y-71728628D01*
X97833333Y-71728628D02*
X97785714Y-71776247D01*
X97785714Y-71776247D02*
X97738095Y-71871485D01*
X97738095Y-71871485D02*
X97738095Y-72014342D01*
X97738095Y-72014342D02*
X97785714Y-72109580D01*
X97785714Y-72109580D02*
X97833333Y-72157200D01*
X97833333Y-72157200D02*
X97928571Y-72204819D01*
X97928571Y-72204819D02*
X98309523Y-72204819D01*
X98309523Y-72204819D02*
X98309523Y-71204819D01*
X98309523Y-71204819D02*
X97976190Y-71204819D01*
X97976190Y-71204819D02*
X97880952Y-71252438D01*
X97880952Y-71252438D02*
X97833333Y-71300057D01*
X97833333Y-71300057D02*
X97785714Y-71395295D01*
X97785714Y-71395295D02*
X97785714Y-71490533D01*
X97785714Y-71490533D02*
X97833333Y-71585771D01*
X97833333Y-71585771D02*
X97880952Y-71633390D01*
X97880952Y-71633390D02*
X97976190Y-71681009D01*
X97976190Y-71681009D02*
X98309523Y-71681009D01*
X97357142Y-71300057D02*
X97309523Y-71252438D01*
X97309523Y-71252438D02*
X97214285Y-71204819D01*
X97214285Y-71204819D02*
X96976190Y-71204819D01*
X96976190Y-71204819D02*
X96880952Y-71252438D01*
X96880952Y-71252438D02*
X96833333Y-71300057D01*
X96833333Y-71300057D02*
X96785714Y-71395295D01*
X96785714Y-71395295D02*
X96785714Y-71490533D01*
X96785714Y-71490533D02*
X96833333Y-71633390D01*
X96833333Y-71633390D02*
X97404761Y-72204819D01*
X97404761Y-72204819D02*
X96785714Y-72204819D01*
X118454819Y-103011905D02*
X117454819Y-103011905D01*
X117454819Y-103011905D02*
X117454819Y-103250000D01*
X117454819Y-103250000D02*
X117502438Y-103392857D01*
X117502438Y-103392857D02*
X117597676Y-103488095D01*
X117597676Y-103488095D02*
X117692914Y-103535714D01*
X117692914Y-103535714D02*
X117883390Y-103583333D01*
X117883390Y-103583333D02*
X118026247Y-103583333D01*
X118026247Y-103583333D02*
X118216723Y-103535714D01*
X118216723Y-103535714D02*
X118311961Y-103488095D01*
X118311961Y-103488095D02*
X118407200Y-103392857D01*
X118407200Y-103392857D02*
X118454819Y-103250000D01*
X118454819Y-103250000D02*
X118454819Y-103011905D01*
X117883390Y-104154762D02*
X117835771Y-104059524D01*
X117835771Y-104059524D02*
X117788152Y-104011905D01*
X117788152Y-104011905D02*
X117692914Y-103964286D01*
X117692914Y-103964286D02*
X117645295Y-103964286D01*
X117645295Y-103964286D02*
X117550057Y-104011905D01*
X117550057Y-104011905D02*
X117502438Y-104059524D01*
X117502438Y-104059524D02*
X117454819Y-104154762D01*
X117454819Y-104154762D02*
X117454819Y-104345238D01*
X117454819Y-104345238D02*
X117502438Y-104440476D01*
X117502438Y-104440476D02*
X117550057Y-104488095D01*
X117550057Y-104488095D02*
X117645295Y-104535714D01*
X117645295Y-104535714D02*
X117692914Y-104535714D01*
X117692914Y-104535714D02*
X117788152Y-104488095D01*
X117788152Y-104488095D02*
X117835771Y-104440476D01*
X117835771Y-104440476D02*
X117883390Y-104345238D01*
X117883390Y-104345238D02*
X117883390Y-104154762D01*
X117883390Y-104154762D02*
X117931009Y-104059524D01*
X117931009Y-104059524D02*
X117978628Y-104011905D01*
X117978628Y-104011905D02*
X118073866Y-103964286D01*
X118073866Y-103964286D02*
X118264342Y-103964286D01*
X118264342Y-103964286D02*
X118359580Y-104011905D01*
X118359580Y-104011905D02*
X118407200Y-104059524D01*
X118407200Y-104059524D02*
X118454819Y-104154762D01*
X118454819Y-104154762D02*
X118454819Y-104345238D01*
X118454819Y-104345238D02*
X118407200Y-104440476D01*
X118407200Y-104440476D02*
X118359580Y-104488095D01*
X118359580Y-104488095D02*
X118264342Y-104535714D01*
X118264342Y-104535714D02*
X118073866Y-104535714D01*
X118073866Y-104535714D02*
X117978628Y-104488095D01*
X117978628Y-104488095D02*
X117931009Y-104440476D01*
X117931009Y-104440476D02*
X117883390Y-104345238D01*
X131539523Y-53354819D02*
X131539523Y-54069104D01*
X131539523Y-54069104D02*
X131587142Y-54211961D01*
X131587142Y-54211961D02*
X131682380Y-54307200D01*
X131682380Y-54307200D02*
X131825237Y-54354819D01*
X131825237Y-54354819D02*
X131920475Y-54354819D01*
X130539523Y-54354819D02*
X131110951Y-54354819D01*
X130825237Y-54354819D02*
X130825237Y-53354819D01*
X130825237Y-53354819D02*
X130920475Y-53497676D01*
X130920475Y-53497676D02*
X131015713Y-53592914D01*
X131015713Y-53592914D02*
X131110951Y-53640533D01*
X130158570Y-53450057D02*
X130110951Y-53402438D01*
X130110951Y-53402438D02*
X130015713Y-53354819D01*
X130015713Y-53354819D02*
X129777618Y-53354819D01*
X129777618Y-53354819D02*
X129682380Y-53402438D01*
X129682380Y-53402438D02*
X129634761Y-53450057D01*
X129634761Y-53450057D02*
X129587142Y-53545295D01*
X129587142Y-53545295D02*
X129587142Y-53640533D01*
X129587142Y-53640533D02*
X129634761Y-53783390D01*
X129634761Y-53783390D02*
X130206189Y-54354819D01*
X130206189Y-54354819D02*
X129587142Y-54354819D01*
X141954819Y-45690476D02*
X142669104Y-45690476D01*
X142669104Y-45690476D02*
X142811961Y-45642857D01*
X142811961Y-45642857D02*
X142907200Y-45547619D01*
X142907200Y-45547619D02*
X142954819Y-45404762D01*
X142954819Y-45404762D02*
X142954819Y-45309524D01*
X142954819Y-46690476D02*
X142954819Y-46119048D01*
X142954819Y-46404762D02*
X141954819Y-46404762D01*
X141954819Y-46404762D02*
X142097676Y-46309524D01*
X142097676Y-46309524D02*
X142192914Y-46214286D01*
X142192914Y-46214286D02*
X142240533Y-46119048D01*
X142954819Y-47642857D02*
X142954819Y-47071429D01*
X142954819Y-47357143D02*
X141954819Y-47357143D01*
X141954819Y-47357143D02*
X142097676Y-47261905D01*
X142097676Y-47261905D02*
X142192914Y-47166667D01*
X142192914Y-47166667D02*
X142240533Y-47071429D01*
X99204819Y-102761905D02*
X98204819Y-102761905D01*
X98204819Y-102761905D02*
X98204819Y-103000000D01*
X98204819Y-103000000D02*
X98252438Y-103142857D01*
X98252438Y-103142857D02*
X98347676Y-103238095D01*
X98347676Y-103238095D02*
X98442914Y-103285714D01*
X98442914Y-103285714D02*
X98633390Y-103333333D01*
X98633390Y-103333333D02*
X98776247Y-103333333D01*
X98776247Y-103333333D02*
X98966723Y-103285714D01*
X98966723Y-103285714D02*
X99061961Y-103238095D01*
X99061961Y-103238095D02*
X99157200Y-103142857D01*
X99157200Y-103142857D02*
X99204819Y-103000000D01*
X99204819Y-103000000D02*
X99204819Y-102761905D01*
X98538152Y-104190476D02*
X99204819Y-104190476D01*
X98157200Y-103952381D02*
X98871485Y-103714286D01*
X98871485Y-103714286D02*
X98871485Y-104333333D01*
X118954819Y-83011905D02*
X117954819Y-83011905D01*
X117954819Y-83011905D02*
X117954819Y-83250000D01*
X117954819Y-83250000D02*
X118002438Y-83392857D01*
X118002438Y-83392857D02*
X118097676Y-83488095D01*
X118097676Y-83488095D02*
X118192914Y-83535714D01*
X118192914Y-83535714D02*
X118383390Y-83583333D01*
X118383390Y-83583333D02*
X118526247Y-83583333D01*
X118526247Y-83583333D02*
X118716723Y-83535714D01*
X118716723Y-83535714D02*
X118811961Y-83488095D01*
X118811961Y-83488095D02*
X118907200Y-83392857D01*
X118907200Y-83392857D02*
X118954819Y-83250000D01*
X118954819Y-83250000D02*
X118954819Y-83011905D01*
X117954819Y-83916667D02*
X117954819Y-84583333D01*
X117954819Y-84583333D02*
X118954819Y-84154762D01*
X118454819Y-62761905D02*
X117454819Y-62761905D01*
X117454819Y-62761905D02*
X117454819Y-63000000D01*
X117454819Y-63000000D02*
X117502438Y-63142857D01*
X117502438Y-63142857D02*
X117597676Y-63238095D01*
X117597676Y-63238095D02*
X117692914Y-63285714D01*
X117692914Y-63285714D02*
X117883390Y-63333333D01*
X117883390Y-63333333D02*
X118026247Y-63333333D01*
X118026247Y-63333333D02*
X118216723Y-63285714D01*
X118216723Y-63285714D02*
X118311961Y-63238095D01*
X118311961Y-63238095D02*
X118407200Y-63142857D01*
X118407200Y-63142857D02*
X118454819Y-63000000D01*
X118454819Y-63000000D02*
X118454819Y-62761905D01*
X117454819Y-64190476D02*
X117454819Y-64000000D01*
X117454819Y-64000000D02*
X117502438Y-63904762D01*
X117502438Y-63904762D02*
X117550057Y-63857143D01*
X117550057Y-63857143D02*
X117692914Y-63761905D01*
X117692914Y-63761905D02*
X117883390Y-63714286D01*
X117883390Y-63714286D02*
X118264342Y-63714286D01*
X118264342Y-63714286D02*
X118359580Y-63761905D01*
X118359580Y-63761905D02*
X118407200Y-63809524D01*
X118407200Y-63809524D02*
X118454819Y-63904762D01*
X118454819Y-63904762D02*
X118454819Y-64095238D01*
X118454819Y-64095238D02*
X118407200Y-64190476D01*
X118407200Y-64190476D02*
X118359580Y-64238095D01*
X118359580Y-64238095D02*
X118264342Y-64285714D01*
X118264342Y-64285714D02*
X118026247Y-64285714D01*
X118026247Y-64285714D02*
X117931009Y-64238095D01*
X117931009Y-64238095D02*
X117883390Y-64190476D01*
X117883390Y-64190476D02*
X117835771Y-64095238D01*
X117835771Y-64095238D02*
X117835771Y-63904762D01*
X117835771Y-63904762D02*
X117883390Y-63809524D01*
X117883390Y-63809524D02*
X117931009Y-63761905D01*
X117931009Y-63761905D02*
X118026247Y-63714286D01*
X118083333Y-111431009D02*
X118416666Y-111431009D01*
X118416666Y-111954819D02*
X118416666Y-110954819D01*
X118416666Y-110954819D02*
X117940476Y-110954819D01*
X117226190Y-111431009D02*
X117083333Y-111478628D01*
X117083333Y-111478628D02*
X117035714Y-111526247D01*
X117035714Y-111526247D02*
X116988095Y-111621485D01*
X116988095Y-111621485D02*
X116988095Y-111764342D01*
X116988095Y-111764342D02*
X117035714Y-111859580D01*
X117035714Y-111859580D02*
X117083333Y-111907200D01*
X117083333Y-111907200D02*
X117178571Y-111954819D01*
X117178571Y-111954819D02*
X117559523Y-111954819D01*
X117559523Y-111954819D02*
X117559523Y-110954819D01*
X117559523Y-110954819D02*
X117226190Y-110954819D01*
X117226190Y-110954819D02*
X117130952Y-111002438D01*
X117130952Y-111002438D02*
X117083333Y-111050057D01*
X117083333Y-111050057D02*
X117035714Y-111145295D01*
X117035714Y-111145295D02*
X117035714Y-111240533D01*
X117035714Y-111240533D02*
X117083333Y-111335771D01*
X117083333Y-111335771D02*
X117130952Y-111383390D01*
X117130952Y-111383390D02*
X117226190Y-111431009D01*
X117226190Y-111431009D02*
X117559523Y-111431009D01*
X116416666Y-111383390D02*
X116511904Y-111335771D01*
X116511904Y-111335771D02*
X116559523Y-111288152D01*
X116559523Y-111288152D02*
X116607142Y-111192914D01*
X116607142Y-111192914D02*
X116607142Y-111145295D01*
X116607142Y-111145295D02*
X116559523Y-111050057D01*
X116559523Y-111050057D02*
X116511904Y-111002438D01*
X116511904Y-111002438D02*
X116416666Y-110954819D01*
X116416666Y-110954819D02*
X116226190Y-110954819D01*
X116226190Y-110954819D02*
X116130952Y-111002438D01*
X116130952Y-111002438D02*
X116083333Y-111050057D01*
X116083333Y-111050057D02*
X116035714Y-111145295D01*
X116035714Y-111145295D02*
X116035714Y-111192914D01*
X116035714Y-111192914D02*
X116083333Y-111288152D01*
X116083333Y-111288152D02*
X116130952Y-111335771D01*
X116130952Y-111335771D02*
X116226190Y-111383390D01*
X116226190Y-111383390D02*
X116416666Y-111383390D01*
X116416666Y-111383390D02*
X116511904Y-111431009D01*
X116511904Y-111431009D02*
X116559523Y-111478628D01*
X116559523Y-111478628D02*
X116607142Y-111573866D01*
X116607142Y-111573866D02*
X116607142Y-111764342D01*
X116607142Y-111764342D02*
X116559523Y-111859580D01*
X116559523Y-111859580D02*
X116511904Y-111907200D01*
X116511904Y-111907200D02*
X116416666Y-111954819D01*
X116416666Y-111954819D02*
X116226190Y-111954819D01*
X116226190Y-111954819D02*
X116130952Y-111907200D01*
X116130952Y-111907200D02*
X116083333Y-111859580D01*
X116083333Y-111859580D02*
X116035714Y-111764342D01*
X116035714Y-111764342D02*
X116035714Y-111573866D01*
X116035714Y-111573866D02*
X116083333Y-111478628D01*
X116083333Y-111478628D02*
X116130952Y-111431009D01*
X116130952Y-111431009D02*
X116226190Y-111383390D01*
D12*
X117737258Y-89477500D02*
X117262742Y-89477500D01*
X117737258Y-90522500D02*
X117262742Y-90522500D01*
X98237258Y-109477500D02*
X97762742Y-109477500D01*
X98237258Y-110522500D02*
X97762742Y-110522500D01*
X97550000Y-91590000D02*
X97550000Y-94850000D01*
X97550000Y-91590000D02*
X99250000Y-91590000D01*
X99250000Y-91590000D02*
X99250000Y-94850000D01*
X141780000Y-88380000D02*
X141780000Y-109400000D01*
X141780000Y-109400000D02*
X148220000Y-109400000D01*
X142300000Y-88380000D02*
X142300000Y-109400000D01*
X147600000Y-88380000D02*
X147600000Y-109400000D01*
X148220000Y-88380000D02*
X141780000Y-88380000D01*
X148220000Y-89700000D02*
X148220000Y-88380000D01*
X148220000Y-109400000D02*
X148220000Y-90300000D01*
X148830000Y-90440000D02*
X148220000Y-90000000D01*
X148830000Y-89560000D01*
X148830000Y-90440000D01*
G36*
X148830000Y-90440000D02*
G01*
X148220000Y-90000000D01*
X148830000Y-89560000D01*
X148830000Y-90440000D01*
G37*
X117487258Y-69477500D02*
X117012742Y-69477500D01*
X117487258Y-70522500D02*
X117012742Y-70522500D01*
X97150000Y-48510000D02*
X97150000Y-45250000D01*
X98850000Y-48510000D02*
X97150000Y-48510000D01*
X98850000Y-48510000D02*
X98850000Y-45250000D01*
X97737258Y-89477500D02*
X97262742Y-89477500D01*
X97737258Y-90522500D02*
X97262742Y-90522500D01*
X117400000Y-49010000D02*
X117400000Y-45750000D01*
X119100000Y-49010000D02*
X117400000Y-49010000D01*
X119100000Y-49010000D02*
X119100000Y-45750000D01*
D13*
G36*
X125209268Y-113871225D02*
G01*
X125234776Y-113896825D01*
X125273567Y-113947154D01*
X125328214Y-114023899D01*
X125077235Y-114381286D01*
X124961168Y-114545369D01*
X124840834Y-114711388D01*
X124737625Y-114847632D01*
X124645429Y-114961606D01*
X124558132Y-115060817D01*
X124469621Y-115152771D01*
X124373781Y-115244973D01*
X124332789Y-115283700D01*
X124269933Y-115342747D01*
X124223199Y-115379757D01*
X124188979Y-115390587D01*
X124163659Y-115371099D01*
X124143631Y-115317152D01*
X124125282Y-115224603D01*
X124105003Y-115089314D01*
X124079182Y-114907143D01*
X124072097Y-114856470D01*
X124048144Y-114656930D01*
X124031147Y-114466448D01*
X124021267Y-114292052D01*
X124018665Y-114140770D01*
X124023500Y-114019632D01*
X124035932Y-113935666D01*
X124056123Y-113895899D01*
X124064425Y-113891104D01*
X124134959Y-113872426D01*
X124209404Y-113878506D01*
X124262291Y-113907866D01*
X124282135Y-113924162D01*
X124343957Y-113957222D01*
X124424528Y-113988884D01*
X124469750Y-114001880D01*
X124646791Y-114021593D01*
X124838693Y-114000145D01*
X125033760Y-113938502D01*
X125116500Y-113904245D01*
X125178788Y-113879752D01*
X125206944Y-113870409D01*
X125209268Y-113871225D01*
G37*
G36*
X126550004Y-109633447D02*
G01*
X127050089Y-109714142D01*
X127542143Y-109843807D01*
X127574160Y-109854218D01*
X127777118Y-109929845D01*
X128003462Y-110027643D01*
X128238548Y-110140322D01*
X128467733Y-110260594D01*
X128676373Y-110381168D01*
X128849825Y-110494755D01*
X129045260Y-110643998D01*
X129315218Y-110880461D01*
X129574405Y-111140783D01*
X129809938Y-111411789D01*
X130008939Y-111680306D01*
X130211878Y-112016440D01*
X130405310Y-112426427D01*
X130552842Y-112853386D01*
X130653689Y-113292612D01*
X130707069Y-113739400D01*
X130712200Y-114189047D01*
X130668296Y-114636846D01*
X130574576Y-115078094D01*
X130430937Y-115510335D01*
X130239151Y-115928485D01*
X130003170Y-116324079D01*
X129725441Y-116694190D01*
X129408412Y-117035896D01*
X129054528Y-117346271D01*
X128666237Y-117622391D01*
X128245986Y-117861331D01*
X127910319Y-118015379D01*
X127435673Y-118185075D01*
X126949617Y-118305317D01*
X126455284Y-118375863D01*
X125955808Y-118396467D01*
X125454322Y-118366886D01*
X124953961Y-118286876D01*
X124457858Y-118156194D01*
X124425841Y-118145783D01*
X124222883Y-118070156D01*
X123996539Y-117972358D01*
X123761453Y-117859679D01*
X123532268Y-117739407D01*
X123323627Y-117618833D01*
X123150175Y-117505246D01*
X123106832Y-117473944D01*
X122745811Y-117180440D01*
X122416402Y-116852635D01*
X122122515Y-116495725D01*
X121868061Y-116114913D01*
X121656953Y-115715395D01*
X121493100Y-115302373D01*
X121465540Y-115217943D01*
X121405976Y-115018489D01*
X121361826Y-114835860D01*
X121331046Y-114656378D01*
X121311591Y-114466361D01*
X121301417Y-114252128D01*
X121298480Y-114000000D01*
X121298508Y-113957547D01*
X121299677Y-113772082D01*
X121303147Y-113625211D01*
X121309714Y-113505902D01*
X121320174Y-113403124D01*
X121335320Y-113305846D01*
X121355950Y-113203036D01*
X121401300Y-113012360D01*
X121545583Y-112555684D01*
X121734415Y-112124230D01*
X121967037Y-111719593D01*
X122242688Y-111343368D01*
X122250860Y-111333696D01*
X123174898Y-111333696D01*
X123175097Y-111337651D01*
X123178740Y-111382002D01*
X123186410Y-111467720D01*
X123197376Y-111586840D01*
X123210907Y-111731400D01*
X123226272Y-111893438D01*
X123233440Y-111969522D01*
X123248868Y-112137166D01*
X123267482Y-112343087D01*
X123288528Y-112578806D01*
X123311256Y-112835845D01*
X123334913Y-113105726D01*
X123358749Y-113379971D01*
X123382011Y-113650102D01*
X123384747Y-113682038D01*
X123426167Y-114164302D01*
X123463538Y-114597077D01*
X123497050Y-114982407D01*
X123526891Y-115322337D01*
X123553250Y-115618912D01*
X123576316Y-115874177D01*
X123596278Y-116090175D01*
X123613325Y-116268953D01*
X123627644Y-116412554D01*
X123639426Y-116523023D01*
X123648859Y-116602405D01*
X123656131Y-116652745D01*
X123661432Y-116676088D01*
X123663593Y-116680309D01*
X123679533Y-116686646D01*
X123709168Y-116669339D01*
X123757126Y-116624148D01*
X123828037Y-116546828D01*
X123926531Y-116433138D01*
X123978500Y-116373843D01*
X124082437Y-116260476D01*
X124206612Y-116129551D01*
X124344078Y-115988000D01*
X124487882Y-115842755D01*
X124631075Y-115700749D01*
X124766708Y-115568915D01*
X124887829Y-115454186D01*
X124987489Y-115363494D01*
X125058737Y-115303771D01*
X125141249Y-115240557D01*
X125469513Y-115475926D01*
X125734276Y-115670315D01*
X126274495Y-116099191D01*
X126764707Y-116535672D01*
X127205897Y-116980613D01*
X127242337Y-117019897D01*
X127327820Y-117112130D01*
X127397049Y-117186936D01*
X127443686Y-117237461D01*
X127461391Y-117256852D01*
X127464461Y-117258497D01*
X127503285Y-117267794D01*
X127575152Y-117281013D01*
X127666047Y-117295998D01*
X127761956Y-117310592D01*
X127848863Y-117322637D01*
X127912754Y-117329977D01*
X127939614Y-117330455D01*
X127939705Y-117330363D01*
X127941514Y-117326874D01*
X127940249Y-117320057D01*
X127933906Y-117307190D01*
X127920481Y-117285549D01*
X127897971Y-117252410D01*
X127864372Y-117205050D01*
X127817682Y-117140746D01*
X127755897Y-117056775D01*
X127677013Y-116950413D01*
X127579027Y-116818938D01*
X127459935Y-116659624D01*
X127317734Y-116469751D01*
X127150421Y-116246593D01*
X126955992Y-115987428D01*
X126732443Y-115689533D01*
X126663663Y-115597842D01*
X126492090Y-115368739D01*
X126331030Y-115153142D01*
X126183064Y-114954539D01*
X126050775Y-114776418D01*
X125936747Y-114622270D01*
X125843563Y-114495581D01*
X125773804Y-114399841D01*
X125730055Y-114338538D01*
X125714898Y-114315161D01*
X125722470Y-114302336D01*
X125759361Y-114252572D01*
X125824112Y-114169415D01*
X125913582Y-114056705D01*
X126024634Y-113918283D01*
X126154130Y-113757988D01*
X126298930Y-113579662D01*
X126455896Y-113387144D01*
X126621890Y-113184275D01*
X126793772Y-112974895D01*
X126968405Y-112762844D01*
X127142650Y-112551962D01*
X127313367Y-112346091D01*
X127477420Y-112149070D01*
X127631668Y-111964739D01*
X127772974Y-111796939D01*
X127780403Y-111788151D01*
X127922686Y-111619755D01*
X128055209Y-111462745D01*
X128174017Y-111321821D01*
X128275157Y-111201678D01*
X128354673Y-111107013D01*
X128408613Y-111042525D01*
X128433021Y-111012909D01*
X128446659Y-110993545D01*
X128448861Y-110975650D01*
X128422595Y-110970398D01*
X128360421Y-110977031D01*
X128254898Y-110994793D01*
X128238250Y-110997441D01*
X128146893Y-111006996D01*
X128030137Y-111014132D01*
X127909055Y-111017467D01*
X127679845Y-111019388D01*
X127299974Y-111378683D01*
X127294372Y-111383980D01*
X127042594Y-111619713D01*
X126812462Y-111829533D01*
X126595731Y-112020038D01*
X126384153Y-112197827D01*
X126169483Y-112369497D01*
X125943473Y-112541648D01*
X125697876Y-112720877D01*
X125424446Y-112913783D01*
X125114936Y-113126964D01*
X125110572Y-113129943D01*
X124982544Y-113216395D01*
X124868678Y-113291576D01*
X124776087Y-113350925D01*
X124711882Y-113389879D01*
X124683177Y-113403878D01*
X124655753Y-113384860D01*
X124604878Y-113329366D01*
X124536580Y-113244734D01*
X124456279Y-113138337D01*
X124369396Y-113017549D01*
X124281351Y-112889741D01*
X124197564Y-112762286D01*
X124123456Y-112642558D01*
X124068250Y-112545118D01*
X123991011Y-112399497D01*
X123906216Y-112231999D01*
X123820835Y-112056434D01*
X123741841Y-111886608D01*
X123692115Y-111778111D01*
X123615853Y-111618656D01*
X123555517Y-111502596D01*
X123511993Y-111431595D01*
X123486172Y-111407318D01*
X123460554Y-111403347D01*
X123393852Y-111385912D01*
X123310970Y-111359464D01*
X123253558Y-111341625D01*
X123196844Y-111329747D01*
X123174898Y-111333696D01*
X122250860Y-111333696D01*
X122287487Y-111290347D01*
X122418520Y-111146335D01*
X122569446Y-110992275D01*
X122727237Y-110840828D01*
X122878861Y-110704659D01*
X123011290Y-110596430D01*
X123295999Y-110397281D01*
X123709836Y-110159302D01*
X124150166Y-109959809D01*
X124609464Y-109801690D01*
X125080203Y-109687828D01*
X125554860Y-109621110D01*
X126047781Y-109602382D01*
X126550004Y-109633447D01*
G37*
D12*
X97900000Y-68510000D02*
X97900000Y-65250000D01*
X99600000Y-68510000D02*
X97900000Y-68510000D01*
X99600000Y-68510000D02*
X99600000Y-65250000D01*
X117662258Y-49477500D02*
X117187742Y-49477500D01*
X117662258Y-50522500D02*
X117187742Y-50522500D01*
X97487258Y-49477500D02*
X97012742Y-49477500D01*
X97487258Y-50522500D02*
X97012742Y-50522500D01*
X98237258Y-69477500D02*
X97762742Y-69477500D01*
X98237258Y-70522500D02*
X97762742Y-70522500D01*
X117150000Y-109010000D02*
X117150000Y-105750000D01*
X118850000Y-109010000D02*
X117150000Y-109010000D01*
X118850000Y-109010000D02*
X118850000Y-105750000D01*
X126170000Y-54790000D02*
X126170000Y-105850000D01*
X126170000Y-105850000D02*
X135290000Y-105850000D01*
X127480000Y-56090000D02*
X127480000Y-104550000D01*
X127480000Y-104550000D02*
X133980000Y-104550000D01*
X133980000Y-56090000D02*
X127480000Y-56090000D01*
X133980000Y-78270000D02*
X133980000Y-56090000D01*
X133980000Y-82370000D02*
X135290000Y-82370000D01*
X133980000Y-104550000D02*
X133980000Y-82370000D01*
X135290000Y-54790000D02*
X126170000Y-54790000D01*
X135290000Y-78270000D02*
X133980000Y-78270000D01*
X135290000Y-105850000D02*
X135290000Y-54790000D01*
X135680000Y-60000000D02*
X136680000Y-59500000D01*
X136680000Y-59500000D02*
X136680000Y-60500000D01*
X136680000Y-60500000D02*
X135680000Y-60000000D01*
X141780000Y-48380000D02*
X141780000Y-69400000D01*
X141780000Y-69400000D02*
X148220000Y-69400000D01*
X142300000Y-48380000D02*
X142300000Y-69400000D01*
X147600000Y-48380000D02*
X147600000Y-69400000D01*
X148220000Y-48380000D02*
X141780000Y-48380000D01*
X148220000Y-49700000D02*
X148220000Y-48380000D01*
X148220000Y-69400000D02*
X148220000Y-50300000D01*
X148830000Y-50440000D02*
X148220000Y-50000000D01*
X148830000Y-49560000D01*
X148830000Y-50440000D01*
G36*
X148830000Y-50440000D02*
G01*
X148220000Y-50000000D01*
X148830000Y-49560000D01*
X148830000Y-50440000D01*
G37*
X97900000Y-108760000D02*
X97900000Y-105500000D01*
X99600000Y-108760000D02*
X97900000Y-108760000D01*
X99600000Y-108760000D02*
X99600000Y-105500000D01*
X117400000Y-89010000D02*
X117400000Y-85750000D01*
X119100000Y-89010000D02*
X117400000Y-89010000D01*
X119100000Y-89010000D02*
X119100000Y-85750000D01*
X117150000Y-68760000D02*
X117150000Y-65500000D01*
X118850000Y-68760000D02*
X117150000Y-68760000D01*
X118850000Y-68760000D02*
X118850000Y-65500000D01*
X117487258Y-109477500D02*
X117012742Y-109477500D01*
X117487258Y-110522500D02*
X117012742Y-110522500D01*
%LPC*%
D14*
X110000000Y-70000000D03*
D15*
X106825000Y-66825000D03*
X106825000Y-73175000D03*
X113175000Y-66825000D03*
X113175000Y-73175000D03*
D14*
X90000000Y-50000000D03*
D15*
X86825000Y-46825000D03*
X86825000Y-53175000D03*
X93175000Y-46825000D03*
X93175000Y-53175000D03*
D14*
X90000000Y-70000000D03*
D15*
X86825000Y-66825000D03*
X86825000Y-73175000D03*
X93175000Y-66825000D03*
X93175000Y-73175000D03*
D14*
X90000000Y-110000000D03*
D15*
X86825000Y-106825000D03*
X86825000Y-113175000D03*
X93175000Y-106825000D03*
X93175000Y-113175000D03*
D14*
X110000000Y-110000000D03*
D15*
X106825000Y-106825000D03*
X106825000Y-113175000D03*
X113175000Y-106825000D03*
X113175000Y-113175000D03*
D14*
X90000000Y-90000000D03*
D15*
X86825000Y-86825000D03*
X86825000Y-93175000D03*
X93175000Y-86825000D03*
X93175000Y-93175000D03*
D14*
X110000000Y-50000000D03*
D15*
X106825000Y-46825000D03*
X106825000Y-53175000D03*
X113175000Y-46825000D03*
X113175000Y-53175000D03*
D14*
X110000000Y-90000000D03*
D15*
X106825000Y-86825000D03*
X106825000Y-93175000D03*
X113175000Y-86825000D03*
X113175000Y-93175000D03*
D16*
X118325000Y-90000000D03*
X116675000Y-90000000D03*
X98825000Y-110000000D03*
X97175000Y-110000000D03*
D17*
X98400000Y-92350000D03*
X98400000Y-94850000D03*
D18*
X145000000Y-90000000D03*
D19*
X145000000Y-92540000D03*
X145000000Y-95080000D03*
X145000000Y-97620000D03*
X145000000Y-100160000D03*
X145000000Y-102700000D03*
X145000000Y-105240000D03*
X145000000Y-107780000D03*
D16*
X118075000Y-70000000D03*
X116425000Y-70000000D03*
D20*
X98000000Y-47750000D03*
X98000000Y-45250000D03*
D16*
X98325000Y-90000000D03*
X96675000Y-90000000D03*
D20*
X118250000Y-48250000D03*
X118250000Y-45750000D03*
X98750000Y-67750000D03*
X98750000Y-65250000D03*
D16*
X118250000Y-50000000D03*
X116600000Y-50000000D03*
X98075000Y-50000000D03*
X96425000Y-50000000D03*
X98825000Y-70000000D03*
X97175000Y-70000000D03*
D20*
X118000000Y-108250000D03*
X118000000Y-105750000D03*
D21*
X132000000Y-60000000D03*
D22*
X129460000Y-60000000D03*
X132000000Y-62540000D03*
X129460000Y-62540000D03*
X132000000Y-65080000D03*
X129460000Y-65080000D03*
X132000000Y-67620000D03*
X129460000Y-67620000D03*
X132000000Y-70160000D03*
X129460000Y-70160000D03*
X132000000Y-72700000D03*
X129460000Y-72700000D03*
X132000000Y-75240000D03*
X129460000Y-75240000D03*
X132000000Y-77780000D03*
X129460000Y-77780000D03*
X132000000Y-80320000D03*
X129460000Y-80320000D03*
X132000000Y-82860000D03*
X129460000Y-82860000D03*
X132000000Y-85400000D03*
X129460000Y-85400000D03*
X132000000Y-87940000D03*
X129460000Y-87940000D03*
X132000000Y-90480000D03*
X129460000Y-90480000D03*
X132000000Y-93020000D03*
X129460000Y-93020000D03*
X132000000Y-95560000D03*
X129460000Y-95560000D03*
X132000000Y-98100000D03*
X129460000Y-98100000D03*
X132000000Y-100640000D03*
X129460000Y-100640000D03*
D18*
X145000000Y-50000000D03*
D19*
X145000000Y-52540000D03*
X145000000Y-55080000D03*
X145000000Y-57620000D03*
X145000000Y-60160000D03*
X145000000Y-62700000D03*
X145000000Y-65240000D03*
X145000000Y-67780000D03*
D20*
X98750000Y-108000000D03*
X98750000Y-105500000D03*
X118250000Y-88250000D03*
X118250000Y-85750000D03*
X118000000Y-68000000D03*
X118000000Y-65500000D03*
D16*
X118075000Y-110000000D03*
X116425000Y-110000000D03*
D23*
X80494681Y-118087945D03*
X147494681Y-118087945D03*
X147494681Y-43087945D03*
X80494681Y-43087945D03*
%LPD*%
M02*
