G04 #@! TF.GenerationSoftware,KiCad,Pcbnew,9.0.2*
G04 #@! TF.CreationDate,2025-09-04T19:20:52+09:00*
G04 #@! TF.ProjectId,panel-bncs,70616e65-6c2d-4626-9e63-732e6b696361,rev?*
G04 #@! TF.SameCoordinates,Original*
G04 #@! TF.FileFunction,Soldermask,Bot*
G04 #@! TF.FilePolarity,Negative*
%FSLAX46Y46*%
G04 Gerber Fmt 4.6, Leading zero omitted, Abs format (unit mm)*
G04 Created by KiCad (PCBNEW 9.0.2) date 2025-09-04 19:20:52*
%MOMM*%
%LPD*%
G01*
G04 APERTURE LIST*
G04 Aperture macros list*
%AMRoundRect*
0 Rectangle with rounded corners*
0 $1 Rounding radius*
0 $2 $3 $4 $5 $6 $7 $8 $9 X,Y pos of 4 corners*
0 Add a 4 corners polygon primitive as box body*
4,1,4,$2,$3,$4,$5,$6,$7,$8,$9,$2,$3,0*
0 Add four circle primitives for the rounded corners*
1,1,$1+$1,$2,$3*
1,1,$1+$1,$4,$5*
1,1,$1+$1,$6,$7*
1,1,$1+$1,$8,$9*
0 Add four rect primitives between the rounded corners*
20,1,$1+$1,$2,$3,$4,$5,0*
20,1,$1+$1,$4,$5,$6,$7,0*
20,1,$1+$1,$6,$7,$8,$9,0*
20,1,$1+$1,$8,$9,$2,$3,0*%
G04 Aperture macros list end*
%ADD10C,3.556000*%
%ADD11C,3.810000*%
%ADD12RoundRect,0.200000X0.200000X0.275000X-0.200000X0.275000X-0.200000X-0.275000X0.200000X-0.275000X0*%
%ADD13RoundRect,0.250000X-0.250000X0.250000X-0.250000X-0.250000X0.250000X-0.250000X0.250000X0.250000X0*%
%ADD14RoundRect,0.249999X-0.850001X0.850001X-0.850001X-0.850001X0.850001X-0.850001X0.850001X0.850001X0*%
%ADD15C,2.200000*%
%ADD16RoundRect,0.250000X0.250000X-0.250000X0.250000X0.250000X-0.250000X0.250000X-0.250000X-0.250000X0*%
%ADD17RoundRect,0.250000X0.600000X0.600000X-0.600000X0.600000X-0.600000X-0.600000X0.600000X-0.600000X0*%
%ADD18C,1.700000*%
%ADD19C,3.200000*%
G04 APERTURE END LIST*
D10*
X110000000Y-70000000D03*
D11*
X106825000Y-66825000D03*
X106825000Y-73175000D03*
X113175000Y-66825000D03*
X113175000Y-73175000D03*
D10*
X90000000Y-50000000D03*
D11*
X86825000Y-46825000D03*
X86825000Y-53175000D03*
X93175000Y-46825000D03*
X93175000Y-53175000D03*
D10*
X90000000Y-70000000D03*
D11*
X86825000Y-66825000D03*
X86825000Y-73175000D03*
X93175000Y-66825000D03*
X93175000Y-73175000D03*
D10*
X90000000Y-110000000D03*
D11*
X86825000Y-106825000D03*
X86825000Y-113175000D03*
X93175000Y-106825000D03*
X93175000Y-113175000D03*
D10*
X110000000Y-110000000D03*
D11*
X106825000Y-106825000D03*
X106825000Y-113175000D03*
X113175000Y-106825000D03*
X113175000Y-113175000D03*
D10*
X90000000Y-90000000D03*
D11*
X86825000Y-86825000D03*
X86825000Y-93175000D03*
X93175000Y-86825000D03*
X93175000Y-93175000D03*
D10*
X110000000Y-50000000D03*
D11*
X106825000Y-46825000D03*
X106825000Y-53175000D03*
X113175000Y-46825000D03*
X113175000Y-53175000D03*
D10*
X110000000Y-90000000D03*
D11*
X106825000Y-86825000D03*
X106825000Y-93175000D03*
X113175000Y-86825000D03*
X113175000Y-93175000D03*
D12*
X118325000Y-90000000D03*
X116675000Y-90000000D03*
X98825000Y-110000000D03*
X97175000Y-110000000D03*
D13*
X98400000Y-92350000D03*
X98400000Y-94850000D03*
D14*
X145000000Y-90000000D03*
D15*
X145000000Y-92540000D03*
X145000000Y-95080000D03*
X145000000Y-97620000D03*
X145000000Y-100160000D03*
X145000000Y-102700000D03*
X145000000Y-105240000D03*
X145000000Y-107780000D03*
D12*
X118075000Y-70000000D03*
X116425000Y-70000000D03*
D16*
X98000000Y-47750000D03*
X98000000Y-45250000D03*
D12*
X98325000Y-90000000D03*
X96675000Y-90000000D03*
D16*
X118250000Y-48250000D03*
X118250000Y-45750000D03*
X98750000Y-67750000D03*
X98750000Y-65250000D03*
D12*
X118250000Y-50000000D03*
X116600000Y-50000000D03*
X98075000Y-50000000D03*
X96425000Y-50000000D03*
X98825000Y-70000000D03*
X97175000Y-70000000D03*
D16*
X118000000Y-108250000D03*
X118000000Y-105750000D03*
D17*
X132000000Y-60000000D03*
D18*
X129460000Y-60000000D03*
X132000000Y-62540000D03*
X129460000Y-62540000D03*
X132000000Y-65080000D03*
X129460000Y-65080000D03*
X132000000Y-67620000D03*
X129460000Y-67620000D03*
X132000000Y-70160000D03*
X129460000Y-70160000D03*
X132000000Y-72700000D03*
X129460000Y-72700000D03*
X132000000Y-75240000D03*
X129460000Y-75240000D03*
X132000000Y-77780000D03*
X129460000Y-77780000D03*
X132000000Y-80320000D03*
X129460000Y-80320000D03*
X132000000Y-82860000D03*
X129460000Y-82860000D03*
X132000000Y-85400000D03*
X129460000Y-85400000D03*
X132000000Y-87940000D03*
X129460000Y-87940000D03*
X132000000Y-90480000D03*
X129460000Y-90480000D03*
X132000000Y-93020000D03*
X129460000Y-93020000D03*
X132000000Y-95560000D03*
X129460000Y-95560000D03*
X132000000Y-98100000D03*
X129460000Y-98100000D03*
X132000000Y-100640000D03*
X129460000Y-100640000D03*
D14*
X145000000Y-50000000D03*
D15*
X145000000Y-52540000D03*
X145000000Y-55080000D03*
X145000000Y-57620000D03*
X145000000Y-60160000D03*
X145000000Y-62700000D03*
X145000000Y-65240000D03*
X145000000Y-67780000D03*
D16*
X98750000Y-108000000D03*
X98750000Y-105500000D03*
X118250000Y-88250000D03*
X118250000Y-85750000D03*
X118000000Y-68000000D03*
X118000000Y-65500000D03*
D12*
X118075000Y-110000000D03*
X116425000Y-110000000D03*
D19*
X80494681Y-118087945D03*
X147494681Y-118087945D03*
X147494681Y-43087945D03*
X80494681Y-43087945D03*
M02*
