G04 #@! TF.GenerationSoftware,KiCad,Pcbnew,9.0.2*
G04 #@! TF.CreationDate,2025-09-04T19:20:52+09:00*
G04 #@! TF.ProjectId,panel-bncs,70616e65-6c2d-4626-9e63-732e6b696361,rev?*
G04 #@! TF.SameCoordinates,Original*
G04 #@! TF.FileFunction,Legend,Top*
G04 #@! TF.FilePolarity,Positive*
%FSLAX46Y46*%
G04 Gerber Fmt 4.6, Leading zero omitted, Abs format (unit mm)*
G04 Created by KiCad (PCBNEW 9.0.2) date 2025-09-04 19:20:52*
%MOMM*%
%LPD*%
G01*
G04 APERTURE LIST*
G04 Aperture macros list*
%AMRoundRect*
0 Rectangle with rounded corners*
0 $1 Rounding radius*
0 $2 $3 $4 $5 $6 $7 $8 $9 X,Y pos of 4 corners*
0 Add a 4 corners polygon primitive as box body*
4,1,4,$2,$3,$4,$5,$6,$7,$8,$9,$2,$3,0*
0 Add four circle primitives for the rounded corners*
1,1,$1+$1,$2,$3*
1,1,$1+$1,$4,$5*
1,1,$1+$1,$6,$7*
1,1,$1+$1,$8,$9*
0 Add four rect primitives between the rounded corners*
20,1,$1+$1,$2,$3,$4,$5,0*
20,1,$1+$1,$4,$5,$6,$7,0*
20,1,$1+$1,$6,$7,$8,$9,0*
20,1,$1+$1,$8,$9,$2,$3,0*%
G04 Aperture macros list end*
%ADD10C,0.100000*%
%ADD11C,0.150000*%
%ADD12C,0.120000*%
%ADD13C,0.000000*%
%ADD14RoundRect,0.225000X-0.225000X-0.250000X0.225000X-0.250000X0.225000X0.250000X-0.225000X0.250000X0*%
%ADD15C,3.556000*%
%ADD16C,3.810000*%
%ADD17RoundRect,0.249999X-0.850001X0.850001X-0.850001X-0.850001X0.850001X-0.850001X0.850001X0.850001X0*%
%ADD18C,2.200000*%
%ADD19RoundRect,0.250000X0.600000X0.600000X-0.600000X0.600000X-0.600000X-0.600000X0.600000X-0.600000X0*%
%ADD20C,1.700000*%
%ADD21C,3.200000*%
G04 APERTURE END LIST*
D10*
G36*
X136806838Y-46477180D02*
G01*
X136806838Y-45700000D01*
X137279692Y-45700000D01*
X137279692Y-46477180D01*
X138018404Y-47743824D01*
X137601482Y-47743824D01*
X137544441Y-47736082D01*
X137503540Y-47715003D01*
X137470946Y-47682603D01*
X137444800Y-47641364D01*
X137156593Y-47046632D01*
X137092358Y-46914741D01*
X137040456Y-46795551D01*
X136990142Y-46916207D01*
X136927127Y-47046632D01*
X136641729Y-47641364D01*
X136618771Y-47677878D01*
X136585187Y-47710851D01*
X136541834Y-47734665D01*
X136487857Y-47743824D01*
X136068125Y-47743824D01*
X136806838Y-46477180D01*
G37*
G36*
X136179866Y-46731681D02*
G01*
X135424423Y-46731681D01*
X135424423Y-46379972D01*
X136179866Y-46379972D01*
X136179866Y-46731681D01*
G37*
G36*
X134069852Y-46807397D02*
G01*
X134107710Y-46769539D01*
X134128359Y-46759460D01*
X134159367Y-46755617D01*
X134190272Y-46759500D01*
X134217497Y-46770882D01*
X134275627Y-46805076D01*
X134351098Y-46839148D01*
X134397334Y-46850341D01*
X134458809Y-46854535D01*
X134534911Y-46846828D01*
X134596684Y-46825226D01*
X134649510Y-46789727D01*
X134692427Y-46741451D01*
X134724561Y-46682668D01*
X134748359Y-46608217D01*
X134761762Y-46526725D01*
X134766555Y-46430408D01*
X134756211Y-46293577D01*
X134728349Y-46189410D01*
X134686199Y-46110816D01*
X134625531Y-46048614D01*
X134552934Y-46011930D01*
X134464427Y-45999197D01*
X134393122Y-46004484D01*
X134344748Y-46018004D01*
X134269887Y-46059891D01*
X134213345Y-46102512D01*
X134184911Y-46116928D01*
X134148254Y-46122051D01*
X134102218Y-46112195D01*
X134069852Y-46083705D01*
X133943945Y-45926168D01*
X134014137Y-45855054D01*
X134085240Y-45800628D01*
X134160919Y-45757187D01*
X134237037Y-45724912D01*
X134315266Y-45701679D01*
X134393108Y-45687055D01*
X134545515Y-45676552D01*
X134675727Y-45689234D01*
X134799528Y-45727110D01*
X134912955Y-45788935D01*
X135012141Y-45873778D01*
X135093183Y-45979132D01*
X135157588Y-46110205D01*
X135197370Y-46256895D01*
X135211443Y-46430408D01*
X135199513Y-46583995D01*
X135164671Y-46724476D01*
X135106065Y-46853133D01*
X135026185Y-46961636D01*
X134924716Y-47050570D01*
X134799528Y-47119539D01*
X134707769Y-47150777D01*
X134604145Y-47170339D01*
X134486775Y-47177180D01*
X134374001Y-47170583D01*
X134274856Y-47151751D01*
X134187455Y-47121737D01*
X134065864Y-47054175D01*
X133955180Y-46959804D01*
X134069852Y-46807397D01*
G37*
G36*
X133271467Y-45690136D02*
G01*
X133412961Y-45729187D01*
X133540684Y-45793534D01*
X133648045Y-45879396D01*
X133734715Y-45986374D01*
X133800452Y-46116556D01*
X133840333Y-46261924D01*
X133854308Y-46430408D01*
X133840330Y-46597413D01*
X133800452Y-46741329D01*
X133734759Y-46870242D01*
X133648045Y-46976413D01*
X133540712Y-47061529D01*
X133412961Y-47125157D01*
X133271496Y-47163749D01*
X133110100Y-47177180D01*
X132949978Y-47163760D01*
X132809315Y-47125157D01*
X132682343Y-47061495D01*
X132576307Y-46976413D01*
X132490659Y-46870342D01*
X132425243Y-46741329D01*
X132385365Y-46597413D01*
X132371388Y-46430408D01*
X132371621Y-46427599D01*
X132819085Y-46427599D01*
X132828560Y-46571070D01*
X132853442Y-46675178D01*
X132889793Y-46749145D01*
X132944320Y-46806729D01*
X133015874Y-46841891D01*
X133110100Y-46854535D01*
X133207148Y-46841787D01*
X133280212Y-46806519D01*
X133335292Y-46749145D01*
X133371975Y-46675128D01*
X133397061Y-46571018D01*
X133406611Y-46427599D01*
X133397080Y-46284191D01*
X133372008Y-46179746D01*
X133335292Y-46105198D01*
X133280163Y-46047456D01*
X133207094Y-46012004D01*
X133110100Y-45999197D01*
X133015927Y-46011899D01*
X132944368Y-46047245D01*
X132889793Y-46105198D01*
X132853409Y-46179697D01*
X132828542Y-46284140D01*
X132819085Y-46427599D01*
X132371621Y-46427599D01*
X132385363Y-46261924D01*
X132425243Y-46116556D01*
X132490703Y-45986274D01*
X132576307Y-45879396D01*
X132682371Y-45793568D01*
X132809315Y-45729187D01*
X132950007Y-45690124D01*
X133110100Y-45676552D01*
X133271467Y-45690136D01*
G37*
G36*
X132132640Y-45700000D02*
G01*
X132132640Y-47153733D01*
X131875208Y-47153733D01*
X131821475Y-47148115D01*
X131785083Y-47130774D01*
X131762612Y-47099633D01*
X131749301Y-47052616D01*
X131725609Y-46918161D01*
X131638907Y-47030991D01*
X131546579Y-47113311D01*
X131477554Y-47153473D01*
X131405745Y-47177086D01*
X131329692Y-47184996D01*
X131237768Y-47171372D01*
X131170201Y-47133583D01*
X131226133Y-46818387D01*
X131235111Y-46792679D01*
X131248603Y-46777599D01*
X131293300Y-46765875D01*
X131349231Y-46772226D01*
X131430320Y-46778576D01*
X131509317Y-46767469D01*
X131578892Y-46734652D01*
X131641790Y-46678042D01*
X131698987Y-46592096D01*
X131698987Y-45700000D01*
X132132640Y-45700000D01*
G37*
G36*
X130977860Y-47153733D02*
G01*
X130709315Y-47153733D01*
X130671199Y-47148874D01*
X130641538Y-47135293D01*
X130618587Y-47112925D01*
X130602947Y-47080338D01*
X130570829Y-46972993D01*
X130480582Y-47058845D01*
X130377023Y-47125523D01*
X130258076Y-47169242D01*
X130192710Y-47180915D01*
X130118858Y-47184996D01*
X130009239Y-47172204D01*
X129909053Y-47134316D01*
X129819987Y-47073232D01*
X129742602Y-46988136D01*
X129681537Y-46884794D01*
X129632815Y-46754152D01*
X129603378Y-46610341D01*
X129592889Y-46440055D01*
X130040578Y-46440055D01*
X130045201Y-46550290D01*
X130057431Y-46633129D01*
X130078555Y-46706843D01*
X130104203Y-46759769D01*
X130138114Y-46802129D01*
X130176255Y-46829134D01*
X130220144Y-46844761D01*
X130270044Y-46850139D01*
X130356018Y-46840369D01*
X130427459Y-46812648D01*
X130488275Y-46766974D01*
X130544207Y-46703349D01*
X130544207Y-46095795D01*
X130491997Y-46049242D01*
X130437961Y-46020568D01*
X130379367Y-46004577D01*
X130317549Y-45999197D01*
X130259286Y-46005265D01*
X130207030Y-46023011D01*
X130160793Y-46053292D01*
X130119591Y-46099214D01*
X130087649Y-46156959D01*
X130061583Y-46235624D01*
X130046298Y-46324296D01*
X130040578Y-46440055D01*
X129592889Y-46440055D01*
X129592881Y-46439933D01*
X129604566Y-46279580D01*
X129638310Y-46136217D01*
X129693712Y-46004621D01*
X129765683Y-45894417D01*
X129855879Y-45802813D01*
X129961566Y-45734193D01*
X130080383Y-45691252D01*
X130213990Y-45676552D01*
X130321997Y-45685267D01*
X130404256Y-45708792D01*
X130477716Y-45746622D01*
X130544207Y-45795621D01*
X130544207Y-45238869D01*
X130977860Y-45238869D01*
X130977860Y-47153733D01*
G37*
G36*
X127347765Y-45711470D02*
G01*
X127391642Y-45732484D01*
X127425469Y-45765373D01*
X127446841Y-45806001D01*
X127567253Y-46161130D01*
X128342235Y-46161130D01*
X128462647Y-45806001D01*
X128482524Y-45769678D01*
X128517235Y-45735293D01*
X128561474Y-45712027D01*
X128616520Y-45703907D01*
X128985815Y-45703907D01*
X128196789Y-47747732D01*
X127712699Y-47747732D01*
X127224744Y-46483775D01*
X127676307Y-46483775D01*
X127863764Y-47043579D01*
X127906506Y-47169120D01*
X127954744Y-47325558D01*
X128000906Y-47166922D01*
X128045725Y-47040771D01*
X128233181Y-46483775D01*
X127676307Y-46483775D01*
X127224744Y-46483775D01*
X126923673Y-45703907D01*
X127290159Y-45703907D01*
X127347765Y-45711470D01*
G37*
G36*
X126757344Y-47747732D02*
G01*
X125965508Y-47747732D01*
X125808480Y-47738763D01*
X125664747Y-47712712D01*
X125532588Y-47670429D01*
X125407067Y-47611417D01*
X125296296Y-47540222D01*
X125198830Y-47456716D01*
X125113833Y-47360688D01*
X125042391Y-47253130D01*
X124984141Y-47132850D01*
X124942167Y-47005792D01*
X124916558Y-46870180D01*
X124907815Y-46724598D01*
X125391904Y-46724598D01*
X125402121Y-46871419D01*
X125431105Y-46997784D01*
X125479814Y-47112169D01*
X125543823Y-47204535D01*
X125625115Y-47279236D01*
X125723586Y-47334839D01*
X125834776Y-47368543D01*
X125965508Y-47380390D01*
X126281681Y-47380390D01*
X126281681Y-46067341D01*
X125965508Y-46067341D01*
X125834776Y-46079188D01*
X125723586Y-46112892D01*
X125625115Y-46168495D01*
X125543823Y-46243196D01*
X125479808Y-46335544D01*
X125431105Y-46449825D01*
X125402144Y-46576470D01*
X125391904Y-46724598D01*
X124907815Y-46724598D01*
X124916577Y-46578037D01*
X124942205Y-46441952D01*
X124984141Y-46314881D01*
X125042357Y-46194565D01*
X125113795Y-46086710D01*
X125198830Y-45990160D01*
X125296360Y-45906350D01*
X125407129Y-45835205D01*
X125532588Y-45776570D01*
X125664714Y-45734695D01*
X125808451Y-45708886D01*
X125965508Y-45700000D01*
X126757344Y-45700000D01*
X126757344Y-47747732D01*
G37*
G36*
X123310711Y-46228419D02*
G01*
X123277127Y-46222069D01*
X123244887Y-46200209D01*
X123057431Y-46001762D01*
X123146641Y-45902877D01*
X123249003Y-45822157D01*
X123365910Y-45758496D01*
X123492056Y-45714295D01*
X123637218Y-45686388D01*
X123804570Y-45676552D01*
X123957809Y-45685811D01*
X124095847Y-45712539D01*
X124220760Y-45755687D01*
X124338345Y-45815922D01*
X124441908Y-45888718D01*
X124532780Y-45974406D01*
X124610779Y-46072082D01*
X124676282Y-46181869D01*
X124729395Y-46305111D01*
X124767000Y-46434324D01*
X124790031Y-46572434D01*
X124797905Y-46720690D01*
X124788897Y-46871360D01*
X124762592Y-47010709D01*
X124719626Y-47140300D01*
X124659861Y-47263060D01*
X124586983Y-47372684D01*
X124500662Y-47470394D01*
X124401666Y-47555406D01*
X124289932Y-47627305D01*
X124164095Y-47686304D01*
X124031480Y-47728504D01*
X123887922Y-47754449D01*
X123731785Y-47763363D01*
X123619050Y-47758101D01*
X123515753Y-47742847D01*
X123416618Y-47718284D01*
X123326098Y-47686549D01*
X123240824Y-47646778D01*
X123163799Y-47600575D01*
X123093304Y-47547509D01*
X123032274Y-47490055D01*
X123191764Y-47277198D01*
X123228157Y-47241782D01*
X123251981Y-47230167D01*
X123286897Y-47225785D01*
X123334524Y-47236898D01*
X123382030Y-47264131D01*
X123437351Y-47299180D01*
X123508669Y-47334106D01*
X123605268Y-47361339D01*
X123734594Y-47372575D01*
X123859261Y-47360887D01*
X123969678Y-47327023D01*
X124068588Y-47271660D01*
X124152249Y-47196842D01*
X124219249Y-47104616D01*
X124271196Y-46991678D01*
X124302729Y-46866589D01*
X124313816Y-46721301D01*
X124302630Y-46569802D01*
X124271196Y-46442620D01*
X124219706Y-46328545D01*
X124155058Y-46237456D01*
X124075058Y-46163844D01*
X123983600Y-46110694D01*
X123882732Y-46078294D01*
X123773795Y-46067341D01*
X123656314Y-46073569D01*
X123557640Y-46095307D01*
X123470934Y-46135240D01*
X123387647Y-46196179D01*
X123351255Y-46219260D01*
X123310711Y-46228419D01*
G37*
G36*
X138970830Y-42329253D02*
G01*
X139064497Y-42365157D01*
X139142899Y-42420844D01*
X139212142Y-42491430D01*
X139227529Y-42418524D01*
X139242278Y-42379094D01*
X139263189Y-42356852D01*
X139291750Y-42344551D01*
X139330966Y-42340000D01*
X139619173Y-42340000D01*
X139619173Y-44442442D01*
X139185519Y-44442442D01*
X139185519Y-43636807D01*
X139098916Y-43708026D01*
X139001482Y-43763691D01*
X138892772Y-43798985D01*
X138760170Y-43811563D01*
X138650459Y-43799181D01*
X138550366Y-43762592D01*
X138461283Y-43702976D01*
X138383914Y-43619221D01*
X138322832Y-43517001D01*
X138274127Y-43387801D01*
X138244704Y-43245377D01*
X138234413Y-43079445D01*
X138681891Y-43079445D01*
X138686512Y-43189464D01*
X138698743Y-43272274D01*
X138719863Y-43345881D01*
X138745516Y-43398792D01*
X138779424Y-43441024D01*
X138817568Y-43467913D01*
X138861457Y-43483540D01*
X138911357Y-43488918D01*
X138997330Y-43479270D01*
X139068771Y-43451793D01*
X139129588Y-43406486D01*
X139185519Y-43343349D01*
X139185519Y-42735795D01*
X139133310Y-42689242D01*
X139079274Y-42660568D01*
X139020679Y-42644577D01*
X138958862Y-42639197D01*
X138900592Y-42645236D01*
X138848342Y-42662889D01*
X138802105Y-42693170D01*
X138760903Y-42739092D01*
X138728967Y-42796734D01*
X138702896Y-42875380D01*
X138687609Y-42963916D01*
X138681891Y-43079445D01*
X138234413Y-43079445D01*
X138234193Y-43075903D01*
X138245877Y-42916394D01*
X138279623Y-42773775D01*
X138335015Y-42642907D01*
X138406995Y-42533318D01*
X138497167Y-42442162D01*
X138602878Y-42373827D01*
X138721675Y-42331163D01*
X138855303Y-42316552D01*
X138970830Y-42329253D01*
G37*
G36*
X137995446Y-42340000D02*
G01*
X137995446Y-43793733D01*
X137738014Y-43793733D01*
X137684281Y-43788115D01*
X137647889Y-43770774D01*
X137625418Y-43739633D01*
X137612107Y-43692616D01*
X137588415Y-43558161D01*
X137501713Y-43670991D01*
X137409385Y-43753311D01*
X137340360Y-43793473D01*
X137268551Y-43817086D01*
X137192498Y-43824996D01*
X137100574Y-43811372D01*
X137033007Y-43773583D01*
X137088939Y-43458387D01*
X137097917Y-43432679D01*
X137111409Y-43417599D01*
X137156106Y-43405875D01*
X137212037Y-43412226D01*
X137293126Y-43418576D01*
X137372123Y-43407469D01*
X137441697Y-43374652D01*
X137504596Y-43318042D01*
X137561793Y-43232096D01*
X137561793Y-42340000D01*
X137995446Y-42340000D01*
G37*
G36*
X136348864Y-42329213D02*
G01*
X136486025Y-42366378D01*
X136611474Y-42428448D01*
X136719644Y-42514389D01*
X136808082Y-42622899D01*
X136877791Y-42758632D01*
X136909132Y-42857640D01*
X136928870Y-42970238D01*
X136935799Y-43098496D01*
X136923271Y-43241321D01*
X136886217Y-43374979D01*
X136825397Y-43497881D01*
X136743457Y-43603712D01*
X136641489Y-43691228D01*
X136518265Y-43759539D01*
X136428406Y-43790993D01*
X136329329Y-43810449D01*
X136219556Y-43817180D01*
X136079630Y-43805608D01*
X135955896Y-43772240D01*
X135843997Y-43716691D01*
X135750244Y-43641570D01*
X135674387Y-43547491D01*
X135615910Y-43431643D01*
X135580146Y-43302084D01*
X135574900Y-43238813D01*
X135956507Y-43238813D01*
X135969818Y-43342128D01*
X135987440Y-43389989D01*
X136013171Y-43431887D01*
X136047466Y-43467189D01*
X136092184Y-43495757D01*
X136144546Y-43513686D01*
X136211130Y-43520181D01*
X136291144Y-43511413D01*
X136354753Y-43486943D01*
X136405669Y-43447641D01*
X136445112Y-43395438D01*
X136476241Y-43327098D01*
X136497993Y-43238813D01*
X135956507Y-43238813D01*
X135574900Y-43238813D01*
X135567550Y-43150153D01*
X135571824Y-43070163D01*
X135587212Y-43020949D01*
X135617253Y-42995669D01*
X135665491Y-42988709D01*
X136502145Y-42988709D01*
X136478188Y-42869541D01*
X136440606Y-42783157D01*
X136391625Y-42721995D01*
X136327618Y-42676737D01*
X136251772Y-42648966D01*
X136160816Y-42639197D01*
X136088175Y-42644107D01*
X136030635Y-42657515D01*
X135933426Y-42698670D01*
X135855146Y-42739703D01*
X135818404Y-42753567D01*
X135780286Y-42758143D01*
X135734249Y-42748287D01*
X135701884Y-42719797D01*
X135575976Y-42562260D01*
X135646722Y-42492572D01*
X135720812Y-42438674D01*
X135800063Y-42395983D01*
X135880303Y-42364180D01*
X135962550Y-42341338D01*
X136043946Y-42326933D01*
X136199895Y-42316552D01*
X136348864Y-42329213D01*
G37*
G36*
X135048541Y-42323305D02*
G01*
X135132554Y-42342564D01*
X135208502Y-42375375D01*
X135270307Y-42419378D01*
X135320132Y-42475699D01*
X135357745Y-42545408D01*
X135380451Y-42624465D01*
X135388520Y-42719309D01*
X135379121Y-42796338D01*
X135349441Y-42878433D01*
X135298153Y-42953972D01*
X135213764Y-43027055D01*
X135106688Y-43085779D01*
X134953524Y-43139040D01*
X134778857Y-43171666D01*
X134540753Y-43184103D01*
X134540753Y-43246140D01*
X134547753Y-43330442D01*
X134566101Y-43390232D01*
X134593265Y-43431765D01*
X134631679Y-43462706D01*
X134680281Y-43481986D01*
X134742131Y-43488918D01*
X134815365Y-43484284D01*
X134868039Y-43472187D01*
X134955477Y-43434452D01*
X135030338Y-43396716D01*
X135068972Y-43384417D01*
X135117166Y-43379986D01*
X135159318Y-43385605D01*
X135193370Y-43401601D01*
X135221651Y-43426074D01*
X135243073Y-43455579D01*
X135321353Y-43591256D01*
X135229777Y-43663901D01*
X135132789Y-43722318D01*
X135029727Y-43767233D01*
X134865269Y-43810296D01*
X134686200Y-43824996D01*
X134559045Y-43813896D01*
X134449040Y-43782131D01*
X134350685Y-43730288D01*
X134270010Y-43662575D01*
X134205572Y-43579428D01*
X134157414Y-43480491D01*
X134128271Y-43371688D01*
X134118213Y-43250048D01*
X134118213Y-42728712D01*
X134540753Y-42728712D01*
X134540753Y-42926182D01*
X134665096Y-42921498D01*
X134754832Y-42909330D01*
X134833834Y-42889232D01*
X134887700Y-42867320D01*
X134930863Y-42838932D01*
X134955600Y-42809923D01*
X134969689Y-42776460D01*
X134974406Y-42740069D01*
X134963186Y-42674244D01*
X134933862Y-42635778D01*
X134887288Y-42614147D01*
X134814916Y-42605736D01*
X134734499Y-42613325D01*
X134668126Y-42634678D01*
X134607053Y-42671049D01*
X134540753Y-42728712D01*
X134118213Y-42728712D01*
X134118213Y-42339023D01*
X134316905Y-42339023D01*
X134374283Y-42343835D01*
X134409961Y-42355753D01*
X134437078Y-42379543D01*
X134462351Y-42425973D01*
X134493126Y-42505840D01*
X134598150Y-42424508D01*
X134702320Y-42364912D01*
X134817114Y-42328520D01*
X134952058Y-42316552D01*
X135048541Y-42323305D01*
G37*
G36*
X133376447Y-44442442D02*
G01*
X133376447Y-43262260D01*
X133312090Y-43262260D01*
X133274194Y-43265463D01*
X133249930Y-43273496D01*
X133208531Y-43314162D01*
X132934368Y-43723635D01*
X132907713Y-43755687D01*
X132877704Y-43776880D01*
X132842131Y-43789173D01*
X132794417Y-43793733D01*
X132397156Y-43793733D01*
X132772069Y-43274473D01*
X132830198Y-43209626D01*
X132897976Y-43159068D01*
X132840131Y-43104968D01*
X132788799Y-43033283D01*
X132380303Y-42340000D01*
X132772069Y-42340000D01*
X132818921Y-42344231D01*
X132856699Y-42355997D01*
X132888410Y-42377622D01*
X132914706Y-42412662D01*
X133188991Y-42925083D01*
X133210332Y-42955384D01*
X133229535Y-42970390D01*
X133292550Y-42980893D01*
X133376447Y-42980893D01*
X133376447Y-42340000D01*
X133810101Y-42340000D01*
X133810101Y-44442442D01*
X133376447Y-44442442D01*
G37*
G36*
X131797217Y-42330136D02*
G01*
X131938712Y-42369187D01*
X132066435Y-42433534D01*
X132173796Y-42519396D01*
X132260466Y-42626374D01*
X132326203Y-42756556D01*
X132366084Y-42901924D01*
X132380059Y-43070408D01*
X132366081Y-43237413D01*
X132326203Y-43381329D01*
X132260510Y-43510242D01*
X132173796Y-43616413D01*
X132066463Y-43701529D01*
X131938712Y-43765157D01*
X131797247Y-43803749D01*
X131635851Y-43817180D01*
X131475728Y-43803760D01*
X131335066Y-43765157D01*
X131208094Y-43701495D01*
X131102058Y-43616413D01*
X131016410Y-43510342D01*
X130950994Y-43381329D01*
X130911116Y-43237413D01*
X130897138Y-43070408D01*
X130897371Y-43067599D01*
X131344835Y-43067599D01*
X131354311Y-43211070D01*
X131379192Y-43315178D01*
X131415544Y-43389145D01*
X131470071Y-43446729D01*
X131541625Y-43481891D01*
X131635851Y-43494535D01*
X131732899Y-43481787D01*
X131805963Y-43446519D01*
X131861043Y-43389145D01*
X131897726Y-43315128D01*
X131922812Y-43211018D01*
X131932362Y-43067599D01*
X131922831Y-42924191D01*
X131897758Y-42819746D01*
X131861043Y-42745198D01*
X131805914Y-42687456D01*
X131732845Y-42652004D01*
X131635851Y-42639197D01*
X131541678Y-42651899D01*
X131470119Y-42687245D01*
X131415544Y-42745198D01*
X131379160Y-42819697D01*
X131354293Y-42924140D01*
X131344835Y-43067599D01*
X130897371Y-43067599D01*
X130911113Y-42901924D01*
X130950994Y-42756556D01*
X131016454Y-42626274D01*
X131102058Y-42519396D01*
X131208122Y-42433568D01*
X131335066Y-42369187D01*
X131475758Y-42330124D01*
X131635851Y-42316552D01*
X131797217Y-42330136D01*
G37*
G36*
X130252704Y-43793733D02*
G01*
X130252704Y-42870617D01*
X130246540Y-42800183D01*
X130229726Y-42745699D01*
X130203733Y-42703677D01*
X130167279Y-42671791D01*
X130120339Y-42651966D01*
X130059630Y-42644815D01*
X129990269Y-42652146D01*
X129926029Y-42673879D01*
X129865663Y-42708114D01*
X129805006Y-42755457D01*
X129805006Y-43793733D01*
X129371353Y-43793733D01*
X129371353Y-42340000D01*
X129639898Y-42340000D01*
X129688973Y-42348431D01*
X129723181Y-42371821D01*
X129746266Y-42411807D01*
X129772889Y-42494605D01*
X129859595Y-42421577D01*
X129955460Y-42365889D01*
X130065247Y-42329741D01*
X130193963Y-42316552D01*
X130308283Y-42327342D01*
X130404501Y-42357951D01*
X130489245Y-42407786D01*
X130559106Y-42473600D01*
X130613842Y-42553720D01*
X130654239Y-42648967D01*
X130678071Y-42753186D01*
X130686357Y-42870617D01*
X130686357Y-43793733D01*
X130252704Y-43793733D01*
G37*
G36*
X128525418Y-42316552D02*
G01*
X128625194Y-42324482D01*
X128708112Y-42346716D01*
X128781563Y-42383794D01*
X128840980Y-42432568D01*
X128887976Y-42493300D01*
X128922801Y-42566901D01*
X128943512Y-42648610D01*
X128950767Y-42742756D01*
X128950767Y-43496612D01*
X129073865Y-43496612D01*
X129105184Y-43502021D01*
X129131263Y-43517983D01*
X129148620Y-43543386D01*
X129154954Y-43580875D01*
X129154954Y-43748060D01*
X128924145Y-43793000D01*
X128838782Y-44148374D01*
X128820917Y-44185653D01*
X128790685Y-44207647D01*
X128743649Y-44215785D01*
X128517114Y-44215785D01*
X128517114Y-43793733D01*
X128164549Y-43793733D01*
X128164549Y-43496734D01*
X128517114Y-43496734D01*
X128517114Y-42769745D01*
X128510678Y-42722222D01*
X128492690Y-42685725D01*
X128463275Y-42661157D01*
X128421981Y-42652630D01*
X128382048Y-42657515D01*
X128354082Y-42668750D01*
X128331734Y-42679986D01*
X128307187Y-42684870D01*
X128275802Y-42675711D01*
X128251256Y-42647013D01*
X128119731Y-42440750D01*
X128208354Y-42386711D01*
X128308653Y-42347571D01*
X128415005Y-42324349D01*
X128525418Y-42316552D01*
G37*
G36*
X127375767Y-42340000D02*
G01*
X127375767Y-43793733D01*
X127118335Y-43793733D01*
X127064602Y-43788115D01*
X127028210Y-43770774D01*
X127005739Y-43739633D01*
X126992428Y-43692616D01*
X126968736Y-43558161D01*
X126882034Y-43670991D01*
X126789706Y-43753311D01*
X126720681Y-43793473D01*
X126648872Y-43817086D01*
X126572819Y-43824996D01*
X126480895Y-43811372D01*
X126413328Y-43773583D01*
X126469260Y-43458387D01*
X126478238Y-43432679D01*
X126491730Y-43417599D01*
X126536427Y-43405875D01*
X126592358Y-43412226D01*
X126673447Y-43418576D01*
X126752444Y-43407469D01*
X126822018Y-43374652D01*
X126884917Y-43318042D01*
X126942114Y-43232096D01*
X126942114Y-42340000D01*
X127375767Y-42340000D01*
G37*
G36*
X125729185Y-42329213D02*
G01*
X125866346Y-42366378D01*
X125991795Y-42428448D01*
X126099965Y-42514389D01*
X126188403Y-42622899D01*
X126258112Y-42758632D01*
X126289453Y-42857640D01*
X126309191Y-42970238D01*
X126316120Y-43098496D01*
X126303592Y-43241321D01*
X126266538Y-43374979D01*
X126205718Y-43497881D01*
X126123778Y-43603712D01*
X126021810Y-43691228D01*
X125898586Y-43759539D01*
X125808727Y-43790993D01*
X125709650Y-43810449D01*
X125599877Y-43817180D01*
X125459951Y-43805608D01*
X125336217Y-43772240D01*
X125224318Y-43716691D01*
X125130565Y-43641570D01*
X125054708Y-43547491D01*
X124996231Y-43431643D01*
X124960467Y-43302084D01*
X124955221Y-43238813D01*
X125336828Y-43238813D01*
X125350139Y-43342128D01*
X125367761Y-43389989D01*
X125393492Y-43431887D01*
X125427787Y-43467189D01*
X125472505Y-43495757D01*
X125524867Y-43513686D01*
X125591451Y-43520181D01*
X125671465Y-43511413D01*
X125735074Y-43486943D01*
X125785990Y-43447641D01*
X125825433Y-43395438D01*
X125856562Y-43327098D01*
X125878314Y-43238813D01*
X125336828Y-43238813D01*
X124955221Y-43238813D01*
X124947871Y-43150153D01*
X124952145Y-43070163D01*
X124967533Y-43020949D01*
X124997574Y-42995669D01*
X125045812Y-42988709D01*
X125882466Y-42988709D01*
X125858509Y-42869541D01*
X125820927Y-42783157D01*
X125771946Y-42721995D01*
X125707939Y-42676737D01*
X125632093Y-42648966D01*
X125541137Y-42639197D01*
X125468496Y-42644107D01*
X125410956Y-42657515D01*
X125313747Y-42698670D01*
X125235467Y-42739703D01*
X125198725Y-42753567D01*
X125160607Y-42758143D01*
X125114570Y-42748287D01*
X125082205Y-42719797D01*
X124956297Y-42562260D01*
X125027043Y-42492572D01*
X125101133Y-42438674D01*
X125180384Y-42395983D01*
X125260624Y-42364180D01*
X125342871Y-42341338D01*
X125424267Y-42326933D01*
X125580216Y-42316552D01*
X125729185Y-42329213D01*
G37*
G36*
X123952581Y-42340000D02*
G01*
X124347034Y-42340000D01*
X124909403Y-43793733D01*
X124548534Y-43793733D01*
X124505125Y-43788008D01*
X124470865Y-43771873D01*
X124444160Y-43746978D01*
X124428244Y-43717529D01*
X124226744Y-43061615D01*
X124181315Y-42905055D01*
X124144190Y-42752770D01*
X124106454Y-42905055D01*
X124058827Y-43061615D01*
X123849023Y-43717529D01*
X123833149Y-43747037D01*
X123807013Y-43771873D01*
X123773918Y-43788120D01*
X123734228Y-43793733D01*
X123390090Y-43793733D01*
X123952581Y-42340000D01*
G37*
G36*
X122484071Y-42654218D02*
G01*
X122092306Y-42654218D01*
X122092306Y-43682236D01*
X122088154Y-43840261D01*
X122318963Y-43650973D01*
X122363782Y-43625450D01*
X122407135Y-43617878D01*
X122442022Y-43621950D01*
X122472226Y-43633754D01*
X122514846Y-43667581D01*
X122651988Y-43847100D01*
X122016835Y-44383824D01*
X121658653Y-44383824D01*
X121658653Y-42654218D01*
X121322941Y-42654218D01*
X121322941Y-42340000D01*
X122484071Y-42340000D01*
X122484071Y-42654218D01*
G37*
G36*
X130571508Y-112976237D02*
G01*
X130731415Y-113012545D01*
X130861174Y-113068677D01*
X130966058Y-113143173D01*
X131055576Y-113240145D01*
X131117777Y-113345102D01*
X131155144Y-113459953D01*
X131167925Y-113587573D01*
X131150831Y-113747044D01*
X131102097Y-113881007D01*
X131022478Y-113994970D01*
X130913785Y-114082859D01*
X130742180Y-114163329D01*
X130485571Y-114232374D01*
X129876857Y-114364448D01*
X129581751Y-114463733D01*
X129600148Y-114604712D01*
X129645315Y-114682452D01*
X129724281Y-114726875D01*
X129868614Y-114745101D01*
X130058511Y-114726347D01*
X130175993Y-114679521D01*
X130244388Y-114611591D01*
X130305137Y-114487180D01*
X131102345Y-114569246D01*
X131044067Y-114763485D01*
X130972286Y-114897142D01*
X130871810Y-115005987D01*
X130727372Y-115104687D01*
X130600182Y-115157992D01*
X130411749Y-115202690D01*
X130206576Y-115228483D01*
X129977241Y-115237494D01*
X129620640Y-115225614D01*
X129374938Y-115195362D01*
X129228289Y-115156014D01*
X129102949Y-115097436D01*
X128995751Y-115020057D01*
X128903075Y-114912551D01*
X128827773Y-114758473D01*
X128781016Y-114590044D01*
X128766224Y-114435523D01*
X128766224Y-113910523D01*
X129581751Y-113910523D01*
X129581751Y-114041681D01*
X129940421Y-113934703D01*
X130168616Y-113859811D01*
X130262272Y-113803545D01*
X130315054Y-113731070D01*
X130331881Y-113652053D01*
X130314486Y-113563477D01*
X130263188Y-113493600D01*
X130183228Y-113448966D01*
X130061321Y-113432051D01*
X129926545Y-113448745D01*
X129802119Y-113498546D01*
X129697010Y-113574985D01*
X129631942Y-113661029D01*
X129595465Y-113765754D01*
X129581751Y-113910523D01*
X128766224Y-113910523D01*
X128766224Y-113473633D01*
X128760666Y-113328071D01*
X128746806Y-113232566D01*
X128718535Y-113140787D01*
X128661627Y-113010000D01*
X129444547Y-113010000D01*
X129506096Y-113140608D01*
X129534673Y-113281659D01*
X129703653Y-113141258D01*
X129860554Y-113054146D01*
X130010718Y-113004902D01*
X130181128Y-112973955D01*
X130374929Y-112963105D01*
X130571508Y-112976237D01*
G37*
G36*
X128266503Y-116011256D02*
G01*
X127413973Y-116011256D01*
X127413973Y-114466481D01*
X126790971Y-115190600D01*
X125764235Y-115190600D01*
X126544957Y-114426913D01*
X125719172Y-113010000D01*
X126659812Y-113010000D01*
X127100365Y-113883595D01*
X127413973Y-113576765D01*
X127413973Y-113010000D01*
X128266503Y-113010000D01*
X128266503Y-116011256D01*
G37*
G36*
X125438720Y-116011256D02*
G01*
X124602677Y-116011256D01*
X124602677Y-113010000D01*
X125438720Y-113010000D01*
X125438720Y-116011256D01*
G37*
G36*
X123575416Y-112976237D02*
G01*
X123735323Y-113012545D01*
X123865082Y-113068677D01*
X123969966Y-113143173D01*
X124059484Y-113240145D01*
X124121685Y-113345102D01*
X124159052Y-113459953D01*
X124171833Y-113587573D01*
X124154739Y-113747044D01*
X124106004Y-113881007D01*
X124026386Y-113994970D01*
X123917692Y-114082859D01*
X123746088Y-114163329D01*
X123489479Y-114232374D01*
X122880765Y-114364448D01*
X122585658Y-114463733D01*
X122604056Y-114604712D01*
X122649223Y-114682452D01*
X122728188Y-114726875D01*
X122872522Y-114745101D01*
X123062419Y-114726347D01*
X123179901Y-114679521D01*
X123248296Y-114611591D01*
X123309045Y-114487180D01*
X124106253Y-114569246D01*
X124047975Y-114763485D01*
X123976194Y-114897142D01*
X123875717Y-115005987D01*
X123731280Y-115104687D01*
X123604090Y-115157992D01*
X123415657Y-115202690D01*
X123210484Y-115228483D01*
X122981149Y-115237494D01*
X122624548Y-115225614D01*
X122378846Y-115195362D01*
X122232197Y-115156014D01*
X122106857Y-115097436D01*
X121999659Y-115020057D01*
X121906983Y-114912551D01*
X121831681Y-114758473D01*
X121784924Y-114590044D01*
X121770132Y-114435523D01*
X121770132Y-113910523D01*
X122585658Y-113910523D01*
X122585658Y-114041681D01*
X122944329Y-113934703D01*
X123172524Y-113859811D01*
X123266180Y-113803545D01*
X123318962Y-113731070D01*
X123335789Y-113652053D01*
X123318394Y-113563477D01*
X123267096Y-113493600D01*
X123187135Y-113448966D01*
X123065229Y-113432051D01*
X122930453Y-113448745D01*
X122806027Y-113498546D01*
X122700917Y-113574985D01*
X122635850Y-113661029D01*
X122599373Y-113765754D01*
X122585658Y-113910523D01*
X121770132Y-113910523D01*
X121770132Y-113473633D01*
X121764574Y-113328071D01*
X121750714Y-113232566D01*
X121722443Y-113140787D01*
X121665535Y-113010000D01*
X122448455Y-113010000D01*
X122510004Y-113140608D01*
X122538581Y-113281659D01*
X122707561Y-113141258D01*
X122864462Y-113054146D01*
X123014626Y-113004902D01*
X123185036Y-112973955D01*
X123378837Y-112963105D01*
X123575416Y-112976237D01*
G37*
G36*
X119887459Y-112973797D02*
G01*
X120020731Y-113005159D01*
X120145306Y-113056894D01*
X120278601Y-113153326D01*
X120444442Y-113332400D01*
X120444442Y-113010000D01*
X121225348Y-113010000D01*
X121225348Y-116011256D01*
X120382893Y-116011256D01*
X120382893Y-114975910D01*
X120248597Y-115090970D01*
X120099144Y-115172098D01*
X119934342Y-115220679D01*
X119747618Y-115237494D01*
X119554484Y-115219036D01*
X119383230Y-115165492D01*
X119229359Y-115077247D01*
X119089811Y-114951547D01*
X118981306Y-114802559D01*
X118900248Y-114620912D01*
X118848218Y-114399890D01*
X118829509Y-114131074D01*
X118830473Y-114114954D01*
X119663720Y-114114954D01*
X119676943Y-114285384D01*
X119711737Y-114408131D01*
X119763188Y-114494874D01*
X119835987Y-114563608D01*
X119915195Y-114602951D01*
X120003889Y-114616140D01*
X120111405Y-114601782D01*
X120202611Y-114560132D01*
X120281594Y-114489745D01*
X120337813Y-114399199D01*
X120375130Y-114274996D01*
X120389121Y-114106711D01*
X120374929Y-113921172D01*
X120337881Y-113789815D01*
X120283609Y-113698948D01*
X120206170Y-113628271D01*
X120118275Y-113586884D01*
X120016163Y-113572735D01*
X119922169Y-113586409D01*
X119839635Y-113626865D01*
X119765203Y-113696933D01*
X119713603Y-113786411D01*
X119677679Y-113920429D01*
X119663720Y-114114954D01*
X118830473Y-114114954D01*
X118843594Y-113895642D01*
X118883910Y-113687529D01*
X118948394Y-113502943D01*
X119041010Y-113332362D01*
X119150549Y-113198869D01*
X119277389Y-113097194D01*
X119422225Y-113022805D01*
X119576667Y-112978231D01*
X119743588Y-112963105D01*
X119887459Y-112973797D01*
G37*
G36*
X92255181Y-116314842D02*
G01*
X92412993Y-116327613D01*
X92535050Y-116362340D01*
X92628995Y-116415593D01*
X92708089Y-116489913D01*
X92769436Y-116579617D01*
X92813764Y-116687191D01*
X92852065Y-116863927D01*
X92865544Y-117067965D01*
X92865544Y-117868838D01*
X92859266Y-118021590D01*
X92841534Y-118154220D01*
X92813764Y-118269152D01*
X92769187Y-118376382D01*
X92707816Y-118463617D01*
X92628995Y-118533789D01*
X92535594Y-118583152D01*
X92413548Y-118615598D01*
X92255181Y-118627578D01*
X92114985Y-118617657D01*
X92004503Y-118590577D01*
X91917882Y-118549176D01*
X91842896Y-118489792D01*
X91783461Y-118415849D01*
X91738607Y-118325205D01*
X91709408Y-118226667D01*
X91690688Y-118110920D01*
X91684019Y-117975205D01*
X91684019Y-117796053D01*
X91983583Y-117796053D01*
X91983583Y-117955544D01*
X91986943Y-118077965D01*
X91996161Y-118178171D01*
X92020640Y-118266151D01*
X92064794Y-118328014D01*
X92105781Y-118355434D01*
X92166016Y-118374091D01*
X92252372Y-118381259D01*
X92340356Y-118373688D01*
X92403679Y-118353680D01*
X92448499Y-118323740D01*
X92497991Y-118256888D01*
X92528244Y-118161318D01*
X92541556Y-118052055D01*
X92546441Y-117916343D01*
X92546441Y-117017651D01*
X92538493Y-116855799D01*
X92518475Y-116747397D01*
X92494200Y-116684513D01*
X92463280Y-116638488D01*
X92426029Y-116605980D01*
X92354307Y-116575451D01*
X92252372Y-116563970D01*
X92168384Y-116571557D01*
X92108912Y-116591512D01*
X92067602Y-116621367D01*
X92023156Y-116687207D01*
X91997627Y-116779515D01*
X91987354Y-116884512D01*
X91983583Y-117014842D01*
X91983583Y-117182759D01*
X91684019Y-117182759D01*
X91684019Y-117014842D01*
X91697355Y-116814658D01*
X91734455Y-116649333D01*
X91777049Y-116549968D01*
X91834701Y-116468719D01*
X91907990Y-116403014D01*
X91994639Y-116356597D01*
X92107970Y-116326103D01*
X92255181Y-116314842D01*
G37*
G36*
X91381646Y-116340000D02*
G01*
X91381646Y-118608039D01*
X91065230Y-118608039D01*
X91065230Y-117628014D01*
X90482833Y-117628014D01*
X90482833Y-118608039D01*
X90166416Y-118608039D01*
X90166416Y-116340000D01*
X90482833Y-116340000D01*
X90482833Y-117401235D01*
X91065230Y-117401235D01*
X91065230Y-116340000D01*
X91381646Y-116340000D01*
G37*
G36*
X89874180Y-116340000D02*
G01*
X89874180Y-116552857D01*
X89297400Y-117451549D01*
X89178332Y-117639127D01*
X89128667Y-117728381D01*
X89088817Y-117822554D01*
X89062990Y-117923629D01*
X89053768Y-118045181D01*
X89060264Y-118149078D01*
X89077811Y-118229690D01*
X89104204Y-118291622D01*
X89144835Y-118340361D01*
X89201703Y-118370310D01*
X89280547Y-118381259D01*
X89349098Y-118374068D01*
X89403082Y-118354127D01*
X89445778Y-118322397D01*
X89494610Y-118256110D01*
X89526988Y-118168401D01*
X89543596Y-118071058D01*
X89549337Y-117963970D01*
X89549337Y-117888377D01*
X89849023Y-117888377D01*
X89849023Y-117966779D01*
X89842373Y-118102474D01*
X89823669Y-118218706D01*
X89794434Y-118318122D01*
X89749729Y-118410096D01*
X89691159Y-118485463D01*
X89617969Y-118546367D01*
X89533035Y-118589587D01*
X89426945Y-118617465D01*
X89294591Y-118627578D01*
X89157891Y-118616469D01*
X89047378Y-118585659D01*
X88957951Y-118537468D01*
X88885851Y-118472117D01*
X88829466Y-118391431D01*
X88787592Y-118295073D01*
X88760917Y-118179990D01*
X88751395Y-118042372D01*
X88760706Y-117901982D01*
X88786444Y-117787627D01*
X88826852Y-117681483D01*
X88877424Y-117583196D01*
X89000523Y-117387191D01*
X89521371Y-116592058D01*
X88804518Y-116592058D01*
X88804518Y-116340000D01*
X89874180Y-116340000D01*
G37*
G36*
X88058144Y-116326805D02*
G01*
X88163004Y-116360449D01*
X88250087Y-116414249D01*
X88323747Y-116486879D01*
X88383894Y-116575635D01*
X88430704Y-116683039D01*
X88461992Y-116797321D01*
X88481396Y-116922362D01*
X88488101Y-117059539D01*
X88488101Y-117824019D01*
X88475015Y-118039406D01*
X88437787Y-118227142D01*
X88394892Y-118343276D01*
X88337459Y-118439391D01*
X88265596Y-118518401D01*
X88178322Y-118577079D01*
X88068830Y-118614191D01*
X87930983Y-118627578D01*
X87814755Y-118619764D01*
X87716313Y-118597770D01*
X87632763Y-118563098D01*
X87557681Y-118513594D01*
X87495530Y-118451498D01*
X87445184Y-118375519D01*
X87409435Y-118291041D01*
X87386104Y-118192090D01*
X87376552Y-118075956D01*
X87375209Y-118060568D01*
X87373743Y-118042372D01*
X87676116Y-118042372D01*
X87683126Y-118151952D01*
X87701770Y-118233979D01*
X87729361Y-118294431D01*
X87772065Y-118340354D01*
X87836448Y-118370013D01*
X87930983Y-118381259D01*
X88006807Y-118368175D01*
X88070935Y-118329357D01*
X88120364Y-118267435D01*
X88159106Y-118171210D01*
X88180338Y-118057010D01*
X88188538Y-117896803D01*
X88188538Y-117552421D01*
X88135194Y-117614929D01*
X88061165Y-117665750D01*
X87972338Y-117697640D01*
X87858077Y-117709225D01*
X87735369Y-117699034D01*
X87639248Y-117671139D01*
X87564131Y-117628014D01*
X87501186Y-117567910D01*
X87450837Y-117492713D01*
X87412944Y-117399769D01*
X87380096Y-117245679D01*
X87368126Y-117054043D01*
X87371641Y-116981259D01*
X87670498Y-116981259D01*
X87683199Y-117230387D01*
X87707163Y-117336985D01*
X87749023Y-117413813D01*
X87789591Y-117449989D01*
X87848078Y-117473562D01*
X87930983Y-117482445D01*
X87990502Y-117476677D01*
X88042969Y-117459975D01*
X88090256Y-117434151D01*
X88129675Y-117402578D01*
X88188538Y-117328450D01*
X88188538Y-116989563D01*
X88182390Y-116877234D01*
X88164724Y-116776706D01*
X88131712Y-116686645D01*
X88084979Y-116621367D01*
X88044287Y-116590215D01*
X87993892Y-116570877D01*
X87930983Y-116563970D01*
X87866098Y-116570950D01*
X87814860Y-116590354D01*
X87774180Y-116621367D01*
X87727204Y-116686270D01*
X87694312Y-116773897D01*
X87676652Y-116871642D01*
X87670498Y-116981259D01*
X87371641Y-116981259D01*
X87374666Y-116918627D01*
X87393610Y-116794907D01*
X87424180Y-116681573D01*
X87470071Y-116575163D01*
X87529707Y-116486868D01*
X87603332Y-116414249D01*
X87690556Y-116360787D01*
X87798028Y-116326981D01*
X87930983Y-116314842D01*
X88058144Y-116326805D01*
G37*
G36*
X92255181Y-96314842D02*
G01*
X92412993Y-96327613D01*
X92535050Y-96362340D01*
X92628995Y-96415593D01*
X92708089Y-96489913D01*
X92769436Y-96579617D01*
X92813764Y-96687191D01*
X92852065Y-96863927D01*
X92865544Y-97067965D01*
X92865544Y-97868838D01*
X92859266Y-98021590D01*
X92841534Y-98154220D01*
X92813764Y-98269152D01*
X92769187Y-98376382D01*
X92707816Y-98463617D01*
X92628995Y-98533789D01*
X92535594Y-98583152D01*
X92413548Y-98615598D01*
X92255181Y-98627578D01*
X92114985Y-98617657D01*
X92004503Y-98590577D01*
X91917882Y-98549176D01*
X91842896Y-98489792D01*
X91783461Y-98415849D01*
X91738607Y-98325205D01*
X91709408Y-98226667D01*
X91690688Y-98110920D01*
X91684019Y-97975205D01*
X91684019Y-97796053D01*
X91983583Y-97796053D01*
X91983583Y-97955544D01*
X91986943Y-98077965D01*
X91996161Y-98178171D01*
X92020640Y-98266151D01*
X92064794Y-98328014D01*
X92105781Y-98355434D01*
X92166016Y-98374091D01*
X92252372Y-98381259D01*
X92340356Y-98373688D01*
X92403679Y-98353680D01*
X92448499Y-98323740D01*
X92497991Y-98256888D01*
X92528244Y-98161318D01*
X92541556Y-98052055D01*
X92546441Y-97916343D01*
X92546441Y-97017651D01*
X92538493Y-96855799D01*
X92518475Y-96747397D01*
X92494200Y-96684513D01*
X92463280Y-96638488D01*
X92426029Y-96605980D01*
X92354307Y-96575451D01*
X92252372Y-96563970D01*
X92168384Y-96571557D01*
X92108912Y-96591512D01*
X92067602Y-96621367D01*
X92023156Y-96687207D01*
X91997627Y-96779515D01*
X91987354Y-96884512D01*
X91983583Y-97014842D01*
X91983583Y-97182759D01*
X91684019Y-97182759D01*
X91684019Y-97014842D01*
X91697355Y-96814658D01*
X91734455Y-96649333D01*
X91777049Y-96549968D01*
X91834701Y-96468719D01*
X91907990Y-96403014D01*
X91994639Y-96356597D01*
X92107970Y-96326103D01*
X92255181Y-96314842D01*
G37*
G36*
X91381646Y-96340000D02*
G01*
X91381646Y-98608039D01*
X91065230Y-98608039D01*
X91065230Y-97628014D01*
X90482833Y-97628014D01*
X90482833Y-98608039D01*
X90166416Y-98608039D01*
X90166416Y-96340000D01*
X90482833Y-96340000D01*
X90482833Y-97401235D01*
X91065230Y-97401235D01*
X91065230Y-96340000D01*
X91381646Y-96340000D01*
G37*
G36*
X89874180Y-96340000D02*
G01*
X89874180Y-96552857D01*
X89297400Y-97451549D01*
X89178332Y-97639127D01*
X89128667Y-97728381D01*
X89088817Y-97822554D01*
X89062990Y-97923629D01*
X89053768Y-98045181D01*
X89060264Y-98149078D01*
X89077811Y-98229690D01*
X89104204Y-98291622D01*
X89144835Y-98340361D01*
X89201703Y-98370310D01*
X89280547Y-98381259D01*
X89349098Y-98374068D01*
X89403082Y-98354127D01*
X89445778Y-98322397D01*
X89494610Y-98256110D01*
X89526988Y-98168401D01*
X89543596Y-98071058D01*
X89549337Y-97963970D01*
X89549337Y-97888377D01*
X89849023Y-97888377D01*
X89849023Y-97966779D01*
X89842373Y-98102474D01*
X89823669Y-98218706D01*
X89794434Y-98318122D01*
X89749729Y-98410096D01*
X89691159Y-98485463D01*
X89617969Y-98546367D01*
X89533035Y-98589587D01*
X89426945Y-98617465D01*
X89294591Y-98627578D01*
X89157891Y-98616469D01*
X89047378Y-98585659D01*
X88957951Y-98537468D01*
X88885851Y-98472117D01*
X88829466Y-98391431D01*
X88787592Y-98295073D01*
X88760917Y-98179990D01*
X88751395Y-98042372D01*
X88760706Y-97901982D01*
X88786444Y-97787627D01*
X88826852Y-97681483D01*
X88877424Y-97583196D01*
X89000523Y-97387191D01*
X89521371Y-96592058D01*
X88804518Y-96592058D01*
X88804518Y-96340000D01*
X89874180Y-96340000D01*
G37*
G36*
X87900087Y-96947554D02*
G01*
X88558077Y-96947554D01*
X88558077Y-97261161D01*
X87967254Y-98608039D01*
X87614445Y-98608039D01*
X87614445Y-98243995D01*
X87900087Y-98243995D01*
X88269626Y-97213656D01*
X87900087Y-97213656D01*
X87900087Y-98243995D01*
X87614445Y-98243995D01*
X87614445Y-97213656D01*
X87359699Y-97213656D01*
X87359699Y-96947554D01*
X87614445Y-96947554D01*
X87614445Y-96340000D01*
X87900087Y-96340000D01*
X87900087Y-96947554D01*
G37*
G36*
X112255181Y-76314842D02*
G01*
X112412993Y-76327613D01*
X112535050Y-76362340D01*
X112628995Y-76415593D01*
X112708089Y-76489913D01*
X112769436Y-76579617D01*
X112813764Y-76687191D01*
X112852065Y-76863927D01*
X112865544Y-77067965D01*
X112865544Y-77868838D01*
X112859266Y-78021590D01*
X112841534Y-78154220D01*
X112813764Y-78269152D01*
X112769187Y-78376382D01*
X112707816Y-78463617D01*
X112628995Y-78533789D01*
X112535594Y-78583152D01*
X112413548Y-78615598D01*
X112255181Y-78627578D01*
X112114985Y-78617657D01*
X112004503Y-78590577D01*
X111917882Y-78549176D01*
X111842896Y-78489792D01*
X111783461Y-78415849D01*
X111738607Y-78325205D01*
X111709408Y-78226667D01*
X111690688Y-78110920D01*
X111684019Y-77975205D01*
X111684019Y-77796053D01*
X111983583Y-77796053D01*
X111983583Y-77955544D01*
X111986943Y-78077965D01*
X111996161Y-78178171D01*
X112020640Y-78266151D01*
X112064794Y-78328014D01*
X112105781Y-78355434D01*
X112166016Y-78374091D01*
X112252372Y-78381259D01*
X112340356Y-78373688D01*
X112403679Y-78353680D01*
X112448499Y-78323740D01*
X112497991Y-78256888D01*
X112528244Y-78161318D01*
X112541556Y-78052055D01*
X112546441Y-77916343D01*
X112546441Y-77017651D01*
X112538493Y-76855799D01*
X112518475Y-76747397D01*
X112494200Y-76684513D01*
X112463280Y-76638488D01*
X112426029Y-76605980D01*
X112354307Y-76575451D01*
X112252372Y-76563970D01*
X112168384Y-76571557D01*
X112108912Y-76591512D01*
X112067602Y-76621367D01*
X112023156Y-76687207D01*
X111997627Y-76779515D01*
X111987354Y-76884512D01*
X111983583Y-77014842D01*
X111983583Y-77182759D01*
X111684019Y-77182759D01*
X111684019Y-77014842D01*
X111697355Y-76814658D01*
X111734455Y-76649333D01*
X111777049Y-76549968D01*
X111834701Y-76468719D01*
X111907990Y-76403014D01*
X111994639Y-76356597D01*
X112107970Y-76326103D01*
X112255181Y-76314842D01*
G37*
G36*
X111381646Y-76340000D02*
G01*
X111381646Y-78608039D01*
X111065230Y-78608039D01*
X111065230Y-77628014D01*
X110482833Y-77628014D01*
X110482833Y-78608039D01*
X110166416Y-78608039D01*
X110166416Y-76340000D01*
X110482833Y-76340000D01*
X110482833Y-77401235D01*
X111065230Y-77401235D01*
X111065230Y-76340000D01*
X111381646Y-76340000D01*
G37*
G36*
X109874180Y-76340000D02*
G01*
X109874180Y-76552857D01*
X109297400Y-77451549D01*
X109178332Y-77639127D01*
X109128667Y-77728381D01*
X109088817Y-77822554D01*
X109062990Y-77923629D01*
X109053768Y-78045181D01*
X109060264Y-78149078D01*
X109077811Y-78229690D01*
X109104204Y-78291622D01*
X109144835Y-78340361D01*
X109201703Y-78370310D01*
X109280547Y-78381259D01*
X109349098Y-78374068D01*
X109403082Y-78354127D01*
X109445778Y-78322397D01*
X109494610Y-78256110D01*
X109526988Y-78168401D01*
X109543596Y-78071058D01*
X109549337Y-77963970D01*
X109549337Y-77888377D01*
X109849023Y-77888377D01*
X109849023Y-77966779D01*
X109842373Y-78102474D01*
X109823669Y-78218706D01*
X109794434Y-78318122D01*
X109749729Y-78410096D01*
X109691159Y-78485463D01*
X109617969Y-78546367D01*
X109533035Y-78589587D01*
X109426945Y-78617465D01*
X109294591Y-78627578D01*
X109157891Y-78616469D01*
X109047378Y-78585659D01*
X108957951Y-78537468D01*
X108885851Y-78472117D01*
X108829466Y-78391431D01*
X108787592Y-78295073D01*
X108760917Y-78179990D01*
X108751395Y-78042372D01*
X108760706Y-77901982D01*
X108786444Y-77787627D01*
X108826852Y-77681483D01*
X108877424Y-77583196D01*
X109000523Y-77387191D01*
X109521371Y-76592058D01*
X108804518Y-76592058D01*
X108804518Y-76340000D01*
X109874180Y-76340000D01*
G37*
G36*
X108051589Y-76325356D02*
G01*
X108156141Y-76354841D01*
X108243126Y-76401549D01*
X108318440Y-76465980D01*
X108379812Y-76544663D01*
X108427896Y-76639563D01*
X108460608Y-76742022D01*
X108481004Y-76856236D01*
X108488101Y-76983946D01*
X108488101Y-77961161D01*
X108481080Y-78092770D01*
X108461086Y-78208241D01*
X108429361Y-78309696D01*
X108382021Y-78403538D01*
X108321118Y-78480808D01*
X108245935Y-78543558D01*
X108159100Y-78588649D01*
X108053682Y-78617309D01*
X107925366Y-78627578D01*
X107797053Y-78617281D01*
X107692130Y-78588600D01*
X107606140Y-78543558D01*
X107531795Y-78480894D01*
X107471359Y-78403635D01*
X107424180Y-78309696D01*
X107392387Y-78208235D01*
X107372353Y-78092764D01*
X107365317Y-77961161D01*
X107365317Y-76983946D01*
X107365465Y-76981259D01*
X107667690Y-76981259D01*
X107667690Y-77963970D01*
X107672731Y-78071311D01*
X107687351Y-78169745D01*
X107716627Y-78258900D01*
X107761479Y-78325083D01*
X107801642Y-78356518D01*
X107854903Y-78376584D01*
X107925366Y-78383946D01*
X107995773Y-78376623D01*
X108049550Y-78356581D01*
X108090596Y-78325083D01*
X108136523Y-78258788D01*
X108166189Y-78169745D01*
X108180718Y-78071314D01*
X108185729Y-77963970D01*
X108185729Y-76981259D01*
X108180417Y-76878773D01*
X108164724Y-76780980D01*
X108133832Y-76691531D01*
X108086322Y-76622711D01*
X108044369Y-76589337D01*
X107991770Y-76568595D01*
X107925366Y-76561161D01*
X107857047Y-76568734D01*
X107804607Y-76589582D01*
X107764288Y-76622711D01*
X107718967Y-76691302D01*
X107688695Y-76780980D01*
X107673001Y-76878773D01*
X107667690Y-76981259D01*
X107365465Y-76981259D01*
X107372449Y-76854329D01*
X107392879Y-76739228D01*
X107425523Y-76636755D01*
X107473572Y-76541834D01*
X107534520Y-76463677D01*
X107608949Y-76400205D01*
X107694996Y-76354306D01*
X107799059Y-76325236D01*
X107925366Y-76314842D01*
X108051589Y-76325356D01*
G37*
G36*
X112255181Y-96314842D02*
G01*
X112412993Y-96327613D01*
X112535050Y-96362340D01*
X112628995Y-96415593D01*
X112708089Y-96489913D01*
X112769436Y-96579617D01*
X112813764Y-96687191D01*
X112852065Y-96863927D01*
X112865544Y-97067965D01*
X112865544Y-97868838D01*
X112859266Y-98021590D01*
X112841534Y-98154220D01*
X112813764Y-98269152D01*
X112769187Y-98376382D01*
X112707816Y-98463617D01*
X112628995Y-98533789D01*
X112535594Y-98583152D01*
X112413548Y-98615598D01*
X112255181Y-98627578D01*
X112114985Y-98617657D01*
X112004503Y-98590577D01*
X111917882Y-98549176D01*
X111842896Y-98489792D01*
X111783461Y-98415849D01*
X111738607Y-98325205D01*
X111709408Y-98226667D01*
X111690688Y-98110920D01*
X111684019Y-97975205D01*
X111684019Y-97796053D01*
X111983583Y-97796053D01*
X111983583Y-97955544D01*
X111986943Y-98077965D01*
X111996161Y-98178171D01*
X112020640Y-98266151D01*
X112064794Y-98328014D01*
X112105781Y-98355434D01*
X112166016Y-98374091D01*
X112252372Y-98381259D01*
X112340356Y-98373688D01*
X112403679Y-98353680D01*
X112448499Y-98323740D01*
X112497991Y-98256888D01*
X112528244Y-98161318D01*
X112541556Y-98052055D01*
X112546441Y-97916343D01*
X112546441Y-97017651D01*
X112538493Y-96855799D01*
X112518475Y-96747397D01*
X112494200Y-96684513D01*
X112463280Y-96638488D01*
X112426029Y-96605980D01*
X112354307Y-96575451D01*
X112252372Y-96563970D01*
X112168384Y-96571557D01*
X112108912Y-96591512D01*
X112067602Y-96621367D01*
X112023156Y-96687207D01*
X111997627Y-96779515D01*
X111987354Y-96884512D01*
X111983583Y-97014842D01*
X111983583Y-97182759D01*
X111684019Y-97182759D01*
X111684019Y-97014842D01*
X111697355Y-96814658D01*
X111734455Y-96649333D01*
X111777049Y-96549968D01*
X111834701Y-96468719D01*
X111907990Y-96403014D01*
X111994639Y-96356597D01*
X112107970Y-96326103D01*
X112255181Y-96314842D01*
G37*
G36*
X111381646Y-96340000D02*
G01*
X111381646Y-98608039D01*
X111065230Y-98608039D01*
X111065230Y-97628014D01*
X110482833Y-97628014D01*
X110482833Y-98608039D01*
X110166416Y-98608039D01*
X110166416Y-96340000D01*
X110482833Y-96340000D01*
X110482833Y-97401235D01*
X111065230Y-97401235D01*
X111065230Y-96340000D01*
X111381646Y-96340000D01*
G37*
G36*
X109874180Y-96340000D02*
G01*
X109874180Y-96552857D01*
X109297400Y-97451549D01*
X109178332Y-97639127D01*
X109128667Y-97728381D01*
X109088817Y-97822554D01*
X109062990Y-97923629D01*
X109053768Y-98045181D01*
X109060264Y-98149078D01*
X109077811Y-98229690D01*
X109104204Y-98291622D01*
X109144835Y-98340361D01*
X109201703Y-98370310D01*
X109280547Y-98381259D01*
X109349098Y-98374068D01*
X109403082Y-98354127D01*
X109445778Y-98322397D01*
X109494610Y-98256110D01*
X109526988Y-98168401D01*
X109543596Y-98071058D01*
X109549337Y-97963970D01*
X109549337Y-97888377D01*
X109849023Y-97888377D01*
X109849023Y-97966779D01*
X109842373Y-98102474D01*
X109823669Y-98218706D01*
X109794434Y-98318122D01*
X109749729Y-98410096D01*
X109691159Y-98485463D01*
X109617969Y-98546367D01*
X109533035Y-98589587D01*
X109426945Y-98617465D01*
X109294591Y-98627578D01*
X109157891Y-98616469D01*
X109047378Y-98585659D01*
X108957951Y-98537468D01*
X108885851Y-98472117D01*
X108829466Y-98391431D01*
X108787592Y-98295073D01*
X108760917Y-98179990D01*
X108751395Y-98042372D01*
X108760706Y-97901982D01*
X108786444Y-97787627D01*
X108826852Y-97681483D01*
X108877424Y-97583196D01*
X109000523Y-97387191D01*
X109521371Y-96592058D01*
X108804518Y-96592058D01*
X108804518Y-96340000D01*
X109874180Y-96340000D01*
G37*
G36*
X108058144Y-96326805D02*
G01*
X108163004Y-96360449D01*
X108250087Y-96414249D01*
X108323747Y-96486879D01*
X108383894Y-96575635D01*
X108430704Y-96683039D01*
X108461992Y-96797321D01*
X108481396Y-96922362D01*
X108488101Y-97059539D01*
X108488101Y-97824019D01*
X108475015Y-98039406D01*
X108437787Y-98227142D01*
X108394892Y-98343276D01*
X108337459Y-98439391D01*
X108265596Y-98518401D01*
X108178322Y-98577079D01*
X108068830Y-98614191D01*
X107930983Y-98627578D01*
X107814755Y-98619764D01*
X107716313Y-98597770D01*
X107632763Y-98563098D01*
X107557681Y-98513594D01*
X107495530Y-98451498D01*
X107445184Y-98375519D01*
X107409435Y-98291041D01*
X107386104Y-98192090D01*
X107376552Y-98075956D01*
X107375209Y-98060568D01*
X107373743Y-98042372D01*
X107676116Y-98042372D01*
X107683126Y-98151952D01*
X107701770Y-98233979D01*
X107729361Y-98294431D01*
X107772065Y-98340354D01*
X107836448Y-98370013D01*
X107930983Y-98381259D01*
X108006807Y-98368175D01*
X108070935Y-98329357D01*
X108120364Y-98267435D01*
X108159106Y-98171210D01*
X108180338Y-98057010D01*
X108188538Y-97896803D01*
X108188538Y-97552421D01*
X108135194Y-97614929D01*
X108061165Y-97665750D01*
X107972338Y-97697640D01*
X107858077Y-97709225D01*
X107735369Y-97699034D01*
X107639248Y-97671139D01*
X107564131Y-97628014D01*
X107501186Y-97567910D01*
X107450837Y-97492713D01*
X107412944Y-97399769D01*
X107380096Y-97245679D01*
X107368126Y-97054043D01*
X107371641Y-96981259D01*
X107670498Y-96981259D01*
X107683199Y-97230387D01*
X107707163Y-97336985D01*
X107749023Y-97413813D01*
X107789591Y-97449989D01*
X107848078Y-97473562D01*
X107930983Y-97482445D01*
X107990502Y-97476677D01*
X108042969Y-97459975D01*
X108090256Y-97434151D01*
X108129675Y-97402578D01*
X108188538Y-97328450D01*
X108188538Y-96989563D01*
X108182390Y-96877234D01*
X108164724Y-96776706D01*
X108131712Y-96686645D01*
X108084979Y-96621367D01*
X108044287Y-96590215D01*
X107993892Y-96570877D01*
X107930983Y-96563970D01*
X107866098Y-96570950D01*
X107814860Y-96590354D01*
X107774180Y-96621367D01*
X107727204Y-96686270D01*
X107694312Y-96773897D01*
X107676652Y-96871642D01*
X107670498Y-96981259D01*
X107371641Y-96981259D01*
X107374666Y-96918627D01*
X107393610Y-96794907D01*
X107424180Y-96681573D01*
X107470071Y-96575163D01*
X107529707Y-96486868D01*
X107603332Y-96414249D01*
X107690556Y-96360787D01*
X107798028Y-96326981D01*
X107930983Y-96314842D01*
X108058144Y-96326805D01*
G37*
G36*
X112255181Y-56314842D02*
G01*
X112412993Y-56327613D01*
X112535050Y-56362340D01*
X112628995Y-56415593D01*
X112708089Y-56489913D01*
X112769436Y-56579617D01*
X112813764Y-56687191D01*
X112852065Y-56863927D01*
X112865544Y-57067965D01*
X112865544Y-57868838D01*
X112859266Y-58021590D01*
X112841534Y-58154220D01*
X112813764Y-58269152D01*
X112769187Y-58376382D01*
X112707816Y-58463617D01*
X112628995Y-58533789D01*
X112535594Y-58583152D01*
X112413548Y-58615598D01*
X112255181Y-58627578D01*
X112114985Y-58617657D01*
X112004503Y-58590577D01*
X111917882Y-58549176D01*
X111842896Y-58489792D01*
X111783461Y-58415849D01*
X111738607Y-58325205D01*
X111709408Y-58226667D01*
X111690688Y-58110920D01*
X111684019Y-57975205D01*
X111684019Y-57796053D01*
X111983583Y-57796053D01*
X111983583Y-57955544D01*
X111986943Y-58077965D01*
X111996161Y-58178171D01*
X112020640Y-58266151D01*
X112064794Y-58328014D01*
X112105781Y-58355434D01*
X112166016Y-58374091D01*
X112252372Y-58381259D01*
X112340356Y-58373688D01*
X112403679Y-58353680D01*
X112448499Y-58323740D01*
X112497991Y-58256888D01*
X112528244Y-58161318D01*
X112541556Y-58052055D01*
X112546441Y-57916343D01*
X112546441Y-57017651D01*
X112538493Y-56855799D01*
X112518475Y-56747397D01*
X112494200Y-56684513D01*
X112463280Y-56638488D01*
X112426029Y-56605980D01*
X112354307Y-56575451D01*
X112252372Y-56563970D01*
X112168384Y-56571557D01*
X112108912Y-56591512D01*
X112067602Y-56621367D01*
X112023156Y-56687207D01*
X111997627Y-56779515D01*
X111987354Y-56884512D01*
X111983583Y-57014842D01*
X111983583Y-57182759D01*
X111684019Y-57182759D01*
X111684019Y-57014842D01*
X111697355Y-56814658D01*
X111734455Y-56649333D01*
X111777049Y-56549968D01*
X111834701Y-56468719D01*
X111907990Y-56403014D01*
X111994639Y-56356597D01*
X112107970Y-56326103D01*
X112255181Y-56314842D01*
G37*
G36*
X111381646Y-56340000D02*
G01*
X111381646Y-58608039D01*
X111065230Y-58608039D01*
X111065230Y-57628014D01*
X110482833Y-57628014D01*
X110482833Y-58608039D01*
X110166416Y-58608039D01*
X110166416Y-56340000D01*
X110482833Y-56340000D01*
X110482833Y-57401235D01*
X111065230Y-57401235D01*
X111065230Y-56340000D01*
X111381646Y-56340000D01*
G37*
G36*
X109510136Y-56340000D02*
G01*
X109510136Y-58216029D01*
X109573150Y-58199176D01*
X109708949Y-58171210D01*
X109843405Y-58145931D01*
X109904954Y-58134818D01*
X109904954Y-58361598D01*
X109794434Y-58392372D01*
X109665596Y-58440000D01*
X109539567Y-58509975D01*
X109483621Y-58555774D01*
X109437351Y-58608039D01*
X109210572Y-58608039D01*
X109210572Y-56340000D01*
X109510136Y-56340000D01*
G37*
G36*
X108339512Y-56326805D02*
G01*
X108444372Y-56360449D01*
X108531454Y-56414249D01*
X108605115Y-56486879D01*
X108665262Y-56575635D01*
X108712072Y-56683039D01*
X108743360Y-56797321D01*
X108762764Y-56922362D01*
X108769469Y-57059539D01*
X108769469Y-57824019D01*
X108756383Y-58039406D01*
X108719155Y-58227142D01*
X108676259Y-58343276D01*
X108618827Y-58439391D01*
X108546964Y-58518401D01*
X108459690Y-58577079D01*
X108350197Y-58614191D01*
X108212351Y-58627578D01*
X108096123Y-58619764D01*
X107997681Y-58597770D01*
X107914131Y-58563098D01*
X107839049Y-58513594D01*
X107776898Y-58451498D01*
X107726552Y-58375519D01*
X107690803Y-58291041D01*
X107667471Y-58192090D01*
X107657920Y-58075956D01*
X107656577Y-58060568D01*
X107655111Y-58042372D01*
X107957484Y-58042372D01*
X107964493Y-58151952D01*
X107983138Y-58233979D01*
X108010729Y-58294431D01*
X108053433Y-58340354D01*
X108117816Y-58370013D01*
X108212351Y-58381259D01*
X108288175Y-58368175D01*
X108352302Y-58329357D01*
X108401732Y-58267435D01*
X108440474Y-58171210D01*
X108461706Y-58057010D01*
X108469905Y-57896803D01*
X108469905Y-57552421D01*
X108416562Y-57614929D01*
X108342533Y-57665750D01*
X108253706Y-57697640D01*
X108139445Y-57709225D01*
X108016737Y-57699034D01*
X107920615Y-57671139D01*
X107845498Y-57628014D01*
X107782554Y-57567910D01*
X107732205Y-57492713D01*
X107694312Y-57399769D01*
X107661464Y-57245679D01*
X107649494Y-57054043D01*
X107653009Y-56981259D01*
X107951866Y-56981259D01*
X107964567Y-57230387D01*
X107988531Y-57336985D01*
X108030390Y-57413813D01*
X108070959Y-57449989D01*
X108129446Y-57473562D01*
X108212351Y-57482445D01*
X108271870Y-57476677D01*
X108324337Y-57459975D01*
X108371624Y-57434151D01*
X108411043Y-57402578D01*
X108469905Y-57328450D01*
X108469905Y-56989563D01*
X108463758Y-56877234D01*
X108446092Y-56776706D01*
X108413080Y-56686645D01*
X108366346Y-56621367D01*
X108325654Y-56590215D01*
X108275260Y-56570877D01*
X108212351Y-56563970D01*
X108147465Y-56570950D01*
X108096228Y-56590354D01*
X108055547Y-56621367D01*
X108008572Y-56686270D01*
X107975680Y-56773897D01*
X107958019Y-56871642D01*
X107951866Y-56981259D01*
X107653009Y-56981259D01*
X107656034Y-56918627D01*
X107674977Y-56794907D01*
X107705547Y-56681573D01*
X107751439Y-56575163D01*
X107811075Y-56486868D01*
X107884699Y-56414249D01*
X107971924Y-56360787D01*
X108079396Y-56326981D01*
X108212351Y-56314842D01*
X108339512Y-56326805D01*
G37*
G36*
X92255181Y-56314842D02*
G01*
X92412993Y-56327613D01*
X92535050Y-56362340D01*
X92628995Y-56415593D01*
X92708089Y-56489913D01*
X92769436Y-56579617D01*
X92813764Y-56687191D01*
X92852065Y-56863927D01*
X92865544Y-57067965D01*
X92865544Y-57868838D01*
X92859266Y-58021590D01*
X92841534Y-58154220D01*
X92813764Y-58269152D01*
X92769187Y-58376382D01*
X92707816Y-58463617D01*
X92628995Y-58533789D01*
X92535594Y-58583152D01*
X92413548Y-58615598D01*
X92255181Y-58627578D01*
X92114985Y-58617657D01*
X92004503Y-58590577D01*
X91917882Y-58549176D01*
X91842896Y-58489792D01*
X91783461Y-58415849D01*
X91738607Y-58325205D01*
X91709408Y-58226667D01*
X91690688Y-58110920D01*
X91684019Y-57975205D01*
X91684019Y-57796053D01*
X91983583Y-57796053D01*
X91983583Y-57955544D01*
X91986943Y-58077965D01*
X91996161Y-58178171D01*
X92020640Y-58266151D01*
X92064794Y-58328014D01*
X92105781Y-58355434D01*
X92166016Y-58374091D01*
X92252372Y-58381259D01*
X92340356Y-58373688D01*
X92403679Y-58353680D01*
X92448499Y-58323740D01*
X92497991Y-58256888D01*
X92528244Y-58161318D01*
X92541556Y-58052055D01*
X92546441Y-57916343D01*
X92546441Y-57017651D01*
X92538493Y-56855799D01*
X92518475Y-56747397D01*
X92494200Y-56684513D01*
X92463280Y-56638488D01*
X92426029Y-56605980D01*
X92354307Y-56575451D01*
X92252372Y-56563970D01*
X92168384Y-56571557D01*
X92108912Y-56591512D01*
X92067602Y-56621367D01*
X92023156Y-56687207D01*
X91997627Y-56779515D01*
X91987354Y-56884512D01*
X91983583Y-57014842D01*
X91983583Y-57182759D01*
X91684019Y-57182759D01*
X91684019Y-57014842D01*
X91697355Y-56814658D01*
X91734455Y-56649333D01*
X91777049Y-56549968D01*
X91834701Y-56468719D01*
X91907990Y-56403014D01*
X91994639Y-56356597D01*
X92107970Y-56326103D01*
X92255181Y-56314842D01*
G37*
G36*
X91381646Y-56340000D02*
G01*
X91381646Y-58608039D01*
X91065230Y-58608039D01*
X91065230Y-57628014D01*
X90482833Y-57628014D01*
X90482833Y-58608039D01*
X90166416Y-58608039D01*
X90166416Y-56340000D01*
X90482833Y-56340000D01*
X90482833Y-57401235D01*
X91065230Y-57401235D01*
X91065230Y-56340000D01*
X91381646Y-56340000D01*
G37*
G36*
X89510136Y-56340000D02*
G01*
X89510136Y-58216029D01*
X89573150Y-58199176D01*
X89708949Y-58171210D01*
X89843405Y-58145931D01*
X89904954Y-58134818D01*
X89904954Y-58361598D01*
X89794434Y-58392372D01*
X89665596Y-58440000D01*
X89539567Y-58509975D01*
X89483621Y-58555774D01*
X89437351Y-58608039D01*
X89210572Y-58608039D01*
X89210572Y-56340000D01*
X89510136Y-56340000D01*
G37*
G36*
X88366179Y-56324960D02*
G01*
X88473662Y-56352819D01*
X88559542Y-56395931D01*
X88633380Y-56457045D01*
X88692406Y-56533290D01*
X88737351Y-56626985D01*
X88766726Y-56728313D01*
X88785363Y-56844723D01*
X88791939Y-56978450D01*
X88786719Y-57089616D01*
X88772400Y-57179951D01*
X88747641Y-57263060D01*
X88715003Y-57332602D01*
X88673320Y-57394653D01*
X88625366Y-57447397D01*
X88511915Y-57535568D01*
X88612969Y-57622237D01*
X88693876Y-57732916D01*
X88731278Y-57816996D01*
X88755245Y-57918882D01*
X88763852Y-58042372D01*
X88757130Y-58160929D01*
X88738069Y-58263796D01*
X88707920Y-58353171D01*
X88663111Y-58434886D01*
X88605125Y-58501985D01*
X88532920Y-58556137D01*
X88450585Y-58594436D01*
X88351450Y-58618843D01*
X88231891Y-58627578D01*
X88112326Y-58618786D01*
X88014267Y-58594333D01*
X87933792Y-58556137D01*
X87863273Y-58502157D01*
X87806171Y-58435080D01*
X87761601Y-58353171D01*
X87731384Y-58263789D01*
X87712283Y-58160923D01*
X87706505Y-58059225D01*
X87999494Y-58059225D01*
X88012883Y-58192287D01*
X88049930Y-58297117D01*
X88091427Y-58350675D01*
X88150058Y-58383286D01*
X88231891Y-58395181D01*
X88313867Y-58383356D01*
X88373583Y-58350760D01*
X88416782Y-58297117D01*
X88445433Y-58229849D01*
X88463510Y-58151285D01*
X88469905Y-58059225D01*
X88464957Y-57965150D01*
X88450366Y-57875799D01*
X88421915Y-57794133D01*
X88378925Y-57731573D01*
X88341020Y-57701031D01*
X88292968Y-57681233D01*
X88231891Y-57672833D01*
X88170884Y-57681306D01*
X88123873Y-57701139D01*
X88087665Y-57731573D01*
X88046891Y-57793905D01*
X88019155Y-57875799D01*
X88004472Y-57965154D01*
X87999494Y-58059225D01*
X87706505Y-58059225D01*
X87705547Y-58042372D01*
X87714073Y-57916858D01*
X87737660Y-57814653D01*
X87774180Y-57731573D01*
X87825179Y-57656048D01*
X87886050Y-57590986D01*
X87957484Y-57535568D01*
X87844155Y-57447397D01*
X87796128Y-57394639D01*
X87754518Y-57332602D01*
X87721479Y-57263091D01*
X87695655Y-57179951D01*
X87680256Y-57089555D01*
X87674651Y-56978450D01*
X87674928Y-56972833D01*
X87963101Y-56972833D01*
X87969194Y-57077219D01*
X87986915Y-57172990D01*
X88020211Y-57259717D01*
X88069591Y-57326985D01*
X88112258Y-57359621D01*
X88165348Y-57379925D01*
X88231891Y-57387191D01*
X88298569Y-57380096D01*
X88352197Y-57360235D01*
X88395655Y-57328328D01*
X88446358Y-57262195D01*
X88481140Y-57175799D01*
X88499824Y-57079637D01*
X88506297Y-56972833D01*
X88500442Y-56858293D01*
X88483949Y-56759975D01*
X88451140Y-56672970D01*
X88401273Y-56608789D01*
X88357930Y-56578822D01*
X88302609Y-56559771D01*
X88231891Y-56552857D01*
X88161194Y-56559806D01*
X88106420Y-56578879D01*
X88063974Y-56608789D01*
X88015496Y-56672885D01*
X87984106Y-56759975D01*
X87968611Y-56858238D01*
X87963101Y-56972833D01*
X87674928Y-56972833D01*
X87681241Y-56844729D01*
X87699919Y-56728319D01*
X87729361Y-56626985D01*
X87774144Y-56533191D01*
X87832706Y-56456957D01*
X87905704Y-56395931D01*
X87990662Y-56352873D01*
X88097599Y-56324990D01*
X88231891Y-56314842D01*
X88366179Y-56324960D01*
G37*
G36*
X79009825Y-88215579D02*
G01*
X78987843Y-87965474D01*
X79088241Y-87947340D01*
X79171132Y-87919457D01*
X79239291Y-87882920D01*
X79298441Y-87833858D01*
X79351410Y-87767744D01*
X79398171Y-87681419D01*
X79431270Y-87588532D01*
X79451691Y-87486529D01*
X79458743Y-87373918D01*
X79446876Y-87227824D01*
X79413558Y-87106228D01*
X79377975Y-87032485D01*
X79336604Y-86975810D01*
X79289605Y-86933426D01*
X79206687Y-86890686D01*
X79117536Y-86876639D01*
X79028428Y-86890517D01*
X78952550Y-86931350D01*
X78890829Y-86998893D01*
X78833970Y-87111601D01*
X78800492Y-87216778D01*
X78736029Y-87468195D01*
X78665044Y-87722248D01*
X78610610Y-87854832D01*
X78554171Y-87945312D01*
X78491896Y-88015658D01*
X78423642Y-88068666D01*
X78346658Y-88107589D01*
X78263855Y-88131024D01*
X78173660Y-88139008D01*
X78074717Y-88129510D01*
X77980497Y-88101136D01*
X77889361Y-88053035D01*
X77809586Y-87988158D01*
X77742813Y-87905268D01*
X77688593Y-87801587D01*
X77651103Y-87689461D01*
X77628026Y-87567446D01*
X77620083Y-87434001D01*
X77628595Y-87286931D01*
X77652956Y-87156780D01*
X77691891Y-87041259D01*
X77748471Y-86934652D01*
X77818616Y-86848312D01*
X77902916Y-86779675D01*
X77999168Y-86728312D01*
X78103676Y-86695503D01*
X78218356Y-86681245D01*
X78237529Y-86935380D01*
X78116245Y-86961511D01*
X78022270Y-87008060D01*
X77949933Y-87074110D01*
X77898836Y-87158411D01*
X77865147Y-87271866D01*
X77852602Y-87423133D01*
X77864446Y-87581869D01*
X77895412Y-87694908D01*
X77940774Y-87773621D01*
X78005560Y-87836112D01*
X78075525Y-87871664D01*
X78153387Y-87883530D01*
X78221883Y-87874661D01*
X78280279Y-87848940D01*
X78331074Y-87805617D01*
X78368674Y-87746967D01*
X78415954Y-87625164D01*
X78473956Y-87406036D01*
X78549608Y-87109298D01*
X78601695Y-86962735D01*
X78663238Y-86851882D01*
X78731405Y-86767201D01*
X78806127Y-86704570D01*
X78891892Y-86658595D01*
X78986184Y-86630731D01*
X79091158Y-86621161D01*
X79195180Y-86631223D01*
X79295119Y-86661395D01*
X79392676Y-86712752D01*
X79478701Y-86781370D01*
X79551884Y-86868163D01*
X79612739Y-86975680D01*
X79655677Y-87092353D01*
X79682132Y-87220386D01*
X79691263Y-87361706D01*
X79681425Y-87541933D01*
X79654042Y-87692270D01*
X79611639Y-87817341D01*
X79548793Y-87932127D01*
X79469240Y-88027469D01*
X79371915Y-88105547D01*
X79261263Y-88163930D01*
X79141316Y-88200604D01*
X79009825Y-88215579D01*
G37*
G36*
X78995659Y-85036636D02*
G01*
X78995659Y-86118632D01*
X79114665Y-86103645D01*
X79212821Y-86075250D01*
X79293616Y-86035008D01*
X79359825Y-85983443D01*
X79429970Y-85895690D01*
X79471724Y-85795876D01*
X79486099Y-85680094D01*
X79477876Y-85592206D01*
X79454262Y-85515995D01*
X79415757Y-85449162D01*
X79362886Y-85392705D01*
X79289522Y-85342000D01*
X79191053Y-85297487D01*
X79222438Y-85043352D01*
X79363075Y-85096441D01*
X79476967Y-85170566D01*
X79568286Y-85266102D01*
X79620491Y-85349833D01*
X79658801Y-85445504D01*
X79682824Y-85555192D01*
X79691263Y-85681437D01*
X79677960Y-85838370D01*
X79640157Y-85972184D01*
X79579447Y-86087126D01*
X79495258Y-86186287D01*
X79392431Y-86264847D01*
X79269403Y-86322818D01*
X79122143Y-86359631D01*
X78945467Y-86372766D01*
X78762313Y-86359428D01*
X78609960Y-86322098D01*
X78483012Y-86263450D01*
X78377236Y-86184211D01*
X78289178Y-86083532D01*
X78226665Y-85970310D01*
X78188329Y-85842032D01*
X78175003Y-85695114D01*
X78175249Y-85692428D01*
X78380167Y-85692428D01*
X78392947Y-85800821D01*
X78430007Y-85894598D01*
X78491908Y-85977215D01*
X78572750Y-86041540D01*
X78670831Y-86084287D01*
X78790495Y-86104954D01*
X78790495Y-85294800D01*
X78672548Y-85314346D01*
X78584583Y-85346083D01*
X78520118Y-85387735D01*
X78458505Y-85451329D01*
X78415378Y-85522162D01*
X78389211Y-85601752D01*
X78380167Y-85692428D01*
X78175249Y-85692428D01*
X78188003Y-85553007D01*
X78225464Y-85428508D01*
X78286678Y-85318200D01*
X78373084Y-85219696D01*
X78476673Y-85142173D01*
X78601069Y-85084777D01*
X78750436Y-85048232D01*
X78930080Y-85035170D01*
X78995659Y-85036636D01*
G37*
G36*
X79068959Y-83485106D02*
G01*
X79201950Y-83512062D01*
X79323189Y-83555791D01*
X79434444Y-83618285D01*
X79524667Y-83695436D01*
X79596374Y-83788066D01*
X79649664Y-83892775D01*
X79680888Y-83998984D01*
X79691263Y-84108391D01*
X79677771Y-84226341D01*
X79638628Y-84328942D01*
X79578283Y-84418767D01*
X79505516Y-84489532D01*
X80214919Y-84489532D01*
X80214919Y-84735484D01*
X78206266Y-84735484D01*
X78206266Y-84511392D01*
X78395188Y-84511392D01*
X78297095Y-84425076D01*
X78230080Y-84332484D01*
X78200343Y-84263902D01*
X78181619Y-84184002D01*
X78176646Y-84113764D01*
X78366489Y-84113764D01*
X78375203Y-84188229D01*
X78401330Y-84258353D01*
X78446263Y-84325863D01*
X78513157Y-84391835D01*
X78588667Y-84441610D01*
X78682197Y-84479356D01*
X78797528Y-84503860D01*
X78939239Y-84512735D01*
X79082065Y-84504150D01*
X79195022Y-84480772D01*
X79283637Y-84445351D01*
X79352498Y-84399406D01*
X79428003Y-84316591D01*
X79471476Y-84226188D01*
X79486099Y-84124755D01*
X79477577Y-84046260D01*
X79452402Y-83974390D01*
X79409890Y-83907347D01*
X79347735Y-83843998D01*
X79276465Y-83796664D01*
X79184591Y-83760132D01*
X79067311Y-83735996D01*
X78918845Y-83727128D01*
X78777777Y-83735674D01*
X78664887Y-83759074D01*
X78575110Y-83794753D01*
X78504242Y-83841311D01*
X78425971Y-83924743D01*
X78381371Y-84014434D01*
X78366489Y-84113764D01*
X78176646Y-84113764D01*
X78175003Y-84090561D01*
X78185986Y-83969678D01*
X78217941Y-83861252D01*
X78270624Y-83762787D01*
X78342054Y-83676789D01*
X78431137Y-83605468D01*
X78540390Y-83548220D01*
X78658445Y-83508451D01*
X78785258Y-83484127D01*
X78922264Y-83475802D01*
X79068959Y-83485106D01*
G37*
G36*
X79435296Y-82643178D02*
G01*
X79660000Y-82607641D01*
X79675631Y-82793509D01*
X79663761Y-82918513D01*
X79633377Y-83001116D01*
X79583503Y-83064757D01*
X79522124Y-83104919D01*
X79434196Y-83125258D01*
X79231964Y-83134961D01*
X78397752Y-83134961D01*
X78397752Y-83315334D01*
X78206266Y-83315334D01*
X78206266Y-83134961D01*
X77846130Y-83134961D01*
X77698241Y-82890474D01*
X78206266Y-82890474D01*
X78206266Y-82643178D01*
X78397752Y-82643178D01*
X78397752Y-82890474D01*
X79249305Y-82890474D01*
X79345618Y-82886220D01*
X79385104Y-82877529D01*
X79412056Y-82860514D01*
X79433098Y-82835153D01*
X79445909Y-82801975D01*
X79450928Y-82751133D01*
X79435296Y-82643178D01*
G37*
G36*
X78995659Y-81148290D02*
G01*
X78995659Y-82230285D01*
X79114665Y-82215299D01*
X79212821Y-82186904D01*
X79293616Y-82146662D01*
X79359825Y-82095097D01*
X79429970Y-82007344D01*
X79471724Y-81907530D01*
X79486099Y-81791747D01*
X79477876Y-81703860D01*
X79454262Y-81627649D01*
X79415757Y-81560816D01*
X79362886Y-81504359D01*
X79289522Y-81453654D01*
X79191053Y-81409141D01*
X79222438Y-81155006D01*
X79363075Y-81208094D01*
X79476967Y-81282220D01*
X79568286Y-81377756D01*
X79620491Y-81461487D01*
X79658801Y-81557158D01*
X79682824Y-81666846D01*
X79691263Y-81793091D01*
X79677960Y-81950023D01*
X79640157Y-82083838D01*
X79579447Y-82198780D01*
X79495258Y-82297941D01*
X79392431Y-82376501D01*
X79269403Y-82434472D01*
X79122143Y-82471285D01*
X78945467Y-82484420D01*
X78762313Y-82471081D01*
X78609960Y-82433752D01*
X78483012Y-82375104D01*
X78377236Y-82295865D01*
X78289178Y-82195186D01*
X78226665Y-82081964D01*
X78188329Y-81953686D01*
X78175003Y-81806768D01*
X78175249Y-81804082D01*
X78380167Y-81804082D01*
X78392947Y-81912475D01*
X78430007Y-82006252D01*
X78491908Y-82088869D01*
X78572750Y-82153194D01*
X78670831Y-82195941D01*
X78790495Y-82216608D01*
X78790495Y-81406454D01*
X78672548Y-81426000D01*
X78584583Y-81457737D01*
X78520118Y-81499389D01*
X78458505Y-81562983D01*
X78415378Y-81633816D01*
X78389211Y-81713406D01*
X78380167Y-81804082D01*
X78175249Y-81804082D01*
X78188003Y-81664661D01*
X78225464Y-81540162D01*
X78286678Y-81429853D01*
X78373084Y-81331350D01*
X78476673Y-81253827D01*
X78601069Y-81196430D01*
X78750436Y-81159886D01*
X78930080Y-81146824D01*
X78995659Y-81148290D01*
G37*
G36*
X79660000Y-80847138D02*
G01*
X78206266Y-80847138D01*
X78206266Y-80627075D01*
X78409232Y-80627075D01*
X78314312Y-80547934D01*
X78239361Y-80445481D01*
X78204033Y-80367586D01*
X78182439Y-80282030D01*
X78175003Y-80187194D01*
X78183140Y-80081482D01*
X78205831Y-79994549D01*
X78241437Y-79922923D01*
X78291454Y-79860952D01*
X78352737Y-79812744D01*
X78426939Y-79777355D01*
X78332966Y-79701166D01*
X78263160Y-79619369D01*
X78214405Y-79531229D01*
X78185043Y-79435224D01*
X78175003Y-79329169D01*
X78183420Y-79221727D01*
X78206984Y-79132700D01*
X78244134Y-79058721D01*
X78294682Y-78997243D01*
X78357296Y-78949499D01*
X78436838Y-78913319D01*
X78537167Y-78889717D01*
X78663122Y-78881105D01*
X79660000Y-78881105D01*
X79660000Y-79125593D01*
X78743600Y-79125593D01*
X78606056Y-79132814D01*
X78530621Y-79149528D01*
X78472342Y-79182822D01*
X78425840Y-79236357D01*
X78396311Y-79303413D01*
X78386029Y-79383879D01*
X78397753Y-79481628D01*
X78431630Y-79565229D01*
X78488122Y-79638014D01*
X78562802Y-79690821D01*
X78668240Y-79725889D01*
X78814797Y-79739131D01*
X79660000Y-79739131D01*
X79660000Y-79984961D01*
X78714780Y-79984961D01*
X78606316Y-79992887D01*
X78526317Y-80013917D01*
X78468217Y-80045167D01*
X78424193Y-80091218D01*
X78396318Y-80154787D01*
X78386029Y-80241904D01*
X78399736Y-80341797D01*
X78440861Y-80433879D01*
X78482497Y-80486720D01*
X78535325Y-80529113D01*
X78601085Y-80561618D01*
X78718595Y-80589755D01*
X78905167Y-80601186D01*
X79660000Y-80601186D01*
X79660000Y-80847138D01*
G37*
G36*
X79098431Y-77272254D02*
G01*
X79253353Y-77308986D01*
X79381656Y-77366431D01*
X79487808Y-77443614D01*
X79578567Y-77542760D01*
X79641214Y-77648240D01*
X79678571Y-77761826D01*
X79691263Y-77886182D01*
X79677357Y-78008990D01*
X79637188Y-78114817D01*
X79570512Y-78207541D01*
X79473764Y-78289305D01*
X79660000Y-78289305D01*
X79660000Y-78517428D01*
X77651346Y-78517428D01*
X77651346Y-78271475D01*
X78373206Y-78271475D01*
X78284918Y-78186356D01*
X78224010Y-78093152D01*
X78187512Y-77990029D01*
X78177359Y-77895830D01*
X78380167Y-77895830D01*
X78388668Y-77972796D01*
X78413883Y-78043842D01*
X78456668Y-78110713D01*
X78519508Y-78174511D01*
X78591439Y-78223043D01*
X78680095Y-78259698D01*
X78788954Y-78283419D01*
X78922264Y-78291992D01*
X79095749Y-78282113D01*
X79216335Y-78256752D01*
X79297299Y-78220917D01*
X79382695Y-78155003D01*
X79440339Y-78081873D01*
X79474436Y-78000101D01*
X79486099Y-77906699D01*
X79477603Y-77829725D01*
X79452407Y-77758677D01*
X79409659Y-77691808D01*
X79346880Y-77628017D01*
X79275016Y-77579899D01*
X79184707Y-77543214D01*
X79071925Y-77519258D01*
X78931789Y-77510537D01*
X78787226Y-77519105D01*
X78673141Y-77542409D01*
X78583882Y-77577650D01*
X78514745Y-77623255D01*
X78438575Y-77705663D01*
X78394847Y-77795377D01*
X78380167Y-77895830D01*
X78177359Y-77895830D01*
X78175003Y-77873970D01*
X78188567Y-77743281D01*
X78228981Y-77620446D01*
X78294374Y-77510854D01*
X78380655Y-77423708D01*
X78486117Y-77356036D01*
X78616228Y-77302808D01*
X78757523Y-77270237D01*
X78911273Y-77259089D01*
X79098431Y-77272254D01*
G37*
G36*
X78995659Y-75706559D02*
G01*
X78995659Y-76788555D01*
X79114665Y-76773569D01*
X79212821Y-76745173D01*
X79293616Y-76704932D01*
X79359825Y-76653366D01*
X79429970Y-76565613D01*
X79471724Y-76465800D01*
X79486099Y-76350017D01*
X79477876Y-76262129D01*
X79454262Y-76185918D01*
X79415757Y-76119085D01*
X79362886Y-76062628D01*
X79289522Y-76011923D01*
X79191053Y-75967410D01*
X79222438Y-75713276D01*
X79363075Y-75766364D01*
X79476967Y-75840490D01*
X79568286Y-75936025D01*
X79620491Y-76019756D01*
X79658801Y-76115427D01*
X79682824Y-76225115D01*
X79691263Y-76351360D01*
X79677960Y-76508293D01*
X79640157Y-76642107D01*
X79579447Y-76757049D01*
X79495258Y-76856210D01*
X79392431Y-76934770D01*
X79269403Y-76992741D01*
X79122143Y-77029554D01*
X78945467Y-77042690D01*
X78762313Y-77029351D01*
X78609960Y-76992021D01*
X78483012Y-76933373D01*
X78377236Y-76854134D01*
X78289178Y-76753455D01*
X78226665Y-76640233D01*
X78188329Y-76511955D01*
X78175003Y-76365038D01*
X78175249Y-76362351D01*
X78380167Y-76362351D01*
X78392947Y-76470744D01*
X78430007Y-76564521D01*
X78491908Y-76647138D01*
X78572750Y-76711463D01*
X78670831Y-76754210D01*
X78790495Y-76774877D01*
X78790495Y-75964724D01*
X78672548Y-75984269D01*
X78584583Y-76016007D01*
X78520118Y-76057658D01*
X78458505Y-76121252D01*
X78415378Y-76192086D01*
X78389211Y-76271675D01*
X78380167Y-76362351D01*
X78175249Y-76362351D01*
X78188003Y-76222930D01*
X78225464Y-76098431D01*
X78286678Y-75988123D01*
X78373084Y-75889619D01*
X78476673Y-75812097D01*
X78601069Y-75754700D01*
X78750436Y-75718155D01*
X78930080Y-75705094D01*
X78995659Y-75706559D01*
G37*
G36*
X79660000Y-75408094D02*
G01*
X78206266Y-75408094D01*
X78206266Y-75186810D01*
X78425718Y-75186810D01*
X78289497Y-75098060D01*
X78223852Y-75030373D01*
X78187184Y-74954924D01*
X78175003Y-74872592D01*
X78183251Y-74791645D01*
X78208800Y-74707888D01*
X78253771Y-74619800D01*
X78480429Y-74704431D01*
X78439903Y-74796355D01*
X78427062Y-74884804D01*
X78439215Y-74961318D01*
X78475666Y-75029640D01*
X78532712Y-75083979D01*
X78610610Y-75121231D01*
X78746063Y-75151593D01*
X78898328Y-75162142D01*
X79660000Y-75162142D01*
X79660000Y-75408094D01*
G37*
G36*
X79427480Y-72471563D02*
G01*
X79660000Y-72471563D01*
X79660000Y-73795359D01*
X79572929Y-73789568D01*
X79489518Y-73766660D01*
X79358521Y-73702710D01*
X79223660Y-73604849D01*
X79091403Y-73478110D01*
X78920921Y-73283059D01*
X78733967Y-73066951D01*
X78595278Y-72926159D01*
X78494717Y-72841835D01*
X78385622Y-72775000D01*
X78287484Y-72738475D01*
X78197351Y-72727041D01*
X78103908Y-72738838D01*
X78022367Y-72773305D01*
X77949689Y-72831576D01*
X77894460Y-72906626D01*
X77860613Y-72996086D01*
X77848695Y-73104029D01*
X77861438Y-73218035D01*
X77897455Y-73311256D01*
X77956039Y-73388328D01*
X78033671Y-73446010D01*
X78130860Y-73482459D01*
X78253161Y-73496161D01*
X78227027Y-73748953D01*
X78086153Y-73725252D01*
X77969371Y-73684049D01*
X77872624Y-73626821D01*
X77792885Y-73553558D01*
X77729624Y-73465263D01*
X77683172Y-73362025D01*
X77653894Y-73241017D01*
X77643531Y-73098656D01*
X77654625Y-72955446D01*
X77685988Y-72834040D01*
X77735893Y-72730626D01*
X77804242Y-72642288D01*
X77889893Y-72568388D01*
X77983507Y-72516495D01*
X78086827Y-72485057D01*
X78202358Y-72474249D01*
X78321438Y-72486410D01*
X78439884Y-72523464D01*
X78554769Y-72585628D01*
X78685715Y-72686740D01*
X78823644Y-72822477D01*
X79039867Y-73065805D01*
X79213614Y-73266360D01*
X79293513Y-73350104D01*
X79361554Y-73408391D01*
X79427480Y-73453785D01*
X79427480Y-72471563D01*
G37*
G36*
X78904074Y-70911892D02*
G01*
X79091259Y-70937211D01*
X79237826Y-70974964D01*
X79375955Y-71033612D01*
X79486247Y-71105901D01*
X79572927Y-71191486D01*
X79637418Y-71293316D01*
X79677246Y-71413122D01*
X79691263Y-71555530D01*
X79677474Y-71696460D01*
X79638072Y-71816723D01*
X79573958Y-71920510D01*
X79483290Y-72010554D01*
X79384456Y-72074679D01*
X79259247Y-72128574D01*
X79102367Y-72170689D01*
X78907638Y-72198497D01*
X78668129Y-72208635D01*
X78430184Y-72199186D01*
X78242165Y-72173631D01*
X78095624Y-72135606D01*
X77957507Y-72076499D01*
X77847478Y-72003964D01*
X77761256Y-71918352D01*
X77697057Y-71816513D01*
X77657452Y-71697077D01*
X77643807Y-71558338D01*
X77848695Y-71558338D01*
X77857788Y-71639360D01*
X77884175Y-71710026D01*
X77928115Y-71772733D01*
X77991943Y-71828837D01*
X78083304Y-71876949D01*
X78217198Y-71916985D01*
X78406792Y-71945077D01*
X78667397Y-71955844D01*
X78930419Y-71945710D01*
X79115838Y-71919642D01*
X79241609Y-71883208D01*
X79323066Y-71840439D01*
X79397281Y-71776279D01*
X79447124Y-71708351D01*
X79476274Y-71635491D01*
X79486099Y-71555530D01*
X79476244Y-71475675D01*
X79446990Y-71402872D01*
X79396932Y-71334949D01*
X79322334Y-71270743D01*
X79240529Y-71227874D01*
X79114635Y-71191403D01*
X78929501Y-71165339D01*
X78667397Y-71155216D01*
X78403545Y-71165379D01*
X78217884Y-71191501D01*
X78092243Y-71227975D01*
X78011116Y-71270743D01*
X77937405Y-71334843D01*
X77887720Y-71403174D01*
X77858554Y-71476935D01*
X77848695Y-71558338D01*
X77643807Y-71558338D01*
X77643531Y-71555530D01*
X77651164Y-71449680D01*
X77673098Y-71356095D01*
X77708499Y-71272819D01*
X77757814Y-71196935D01*
X77819893Y-71130195D01*
X77895956Y-71071929D01*
X78027515Y-71002974D01*
X78194176Y-70947609D01*
X78385242Y-70915326D01*
X78668129Y-70902546D01*
X78904074Y-70911892D01*
G37*
G36*
X79427480Y-69360886D02*
G01*
X79660000Y-69360886D01*
X79660000Y-70684682D01*
X79572929Y-70678891D01*
X79489518Y-70655983D01*
X79358521Y-70592033D01*
X79223660Y-70494172D01*
X79091403Y-70367433D01*
X78920921Y-70172382D01*
X78733967Y-69956274D01*
X78595278Y-69815482D01*
X78494717Y-69731158D01*
X78385622Y-69664323D01*
X78287484Y-69627798D01*
X78197351Y-69616364D01*
X78103908Y-69628161D01*
X78022367Y-69662628D01*
X77949689Y-69720900D01*
X77894460Y-69795949D01*
X77860613Y-69885409D01*
X77848695Y-69993352D01*
X77861438Y-70107358D01*
X77897455Y-70200579D01*
X77956039Y-70277651D01*
X78033671Y-70335333D01*
X78130860Y-70371782D01*
X78253161Y-70385484D01*
X78227027Y-70638276D01*
X78086153Y-70614575D01*
X77969371Y-70573373D01*
X77872624Y-70516144D01*
X77792885Y-70442881D01*
X77729624Y-70354586D01*
X77683172Y-70251348D01*
X77653894Y-70130340D01*
X77643531Y-69987979D01*
X77654625Y-69844769D01*
X77685988Y-69723363D01*
X77735893Y-69619949D01*
X77804242Y-69531611D01*
X77889893Y-69457711D01*
X77983507Y-69405818D01*
X78086827Y-69374380D01*
X78202358Y-69363572D01*
X78321438Y-69375733D01*
X78439884Y-69412787D01*
X78554769Y-69474951D01*
X78685715Y-69576064D01*
X78823644Y-69711800D01*
X79039867Y-69955128D01*
X79213614Y-70155683D01*
X79293513Y-70239427D01*
X79361554Y-70297714D01*
X79427480Y-70343108D01*
X79427480Y-69360886D01*
G37*
G36*
X79128527Y-69097958D02*
G01*
X79106667Y-68839793D01*
X79228201Y-68810169D01*
X79321042Y-68765283D01*
X79390966Y-68706559D01*
X79443723Y-68632268D01*
X79475266Y-68549166D01*
X79486099Y-68454500D01*
X79477599Y-68368578D01*
X79452727Y-68290996D01*
X79411318Y-68219877D01*
X79351765Y-68153960D01*
X79281414Y-68101522D01*
X79200061Y-68063323D01*
X79105626Y-68039408D01*
X78995415Y-68030983D01*
X78890616Y-68039153D01*
X78801961Y-68062230D01*
X78726607Y-68098932D01*
X78662390Y-68149197D01*
X78595402Y-68234676D01*
X78554676Y-68336213D01*
X78540390Y-68458530D01*
X78554387Y-68572647D01*
X78595345Y-68673098D01*
X78658938Y-68759070D01*
X78737739Y-68823307D01*
X78707697Y-69054239D01*
X77674794Y-68860188D01*
X77674794Y-67864288D01*
X77907313Y-67864288D01*
X77907313Y-68663450D01*
X78452219Y-68771405D01*
X78379441Y-68646418D01*
X78337372Y-68521086D01*
X78323503Y-68392951D01*
X78335231Y-68265211D01*
X78369381Y-68150507D01*
X78425755Y-68046190D01*
X78505952Y-67950383D01*
X78602461Y-67872272D01*
X78711107Y-67816409D01*
X78834256Y-67781993D01*
X78975143Y-67770010D01*
X79109637Y-67780327D01*
X79231769Y-67810356D01*
X79343671Y-67859556D01*
X79447020Y-67928523D01*
X79535113Y-68011377D01*
X79602532Y-68103761D01*
X79650985Y-68206948D01*
X79680874Y-68322975D01*
X79691263Y-68454500D01*
X79680844Y-68589780D01*
X79651081Y-68707342D01*
X79603222Y-68810182D01*
X79537145Y-68900610D01*
X79454730Y-68977049D01*
X79360528Y-69035086D01*
X79252676Y-69075559D01*
X79128527Y-69097958D01*
G37*
G36*
X92255181Y-76314842D02*
G01*
X92412993Y-76327613D01*
X92535050Y-76362340D01*
X92628995Y-76415593D01*
X92708089Y-76489913D01*
X92769436Y-76579617D01*
X92813764Y-76687191D01*
X92852065Y-76863927D01*
X92865544Y-77067965D01*
X92865544Y-77868838D01*
X92859266Y-78021590D01*
X92841534Y-78154220D01*
X92813764Y-78269152D01*
X92769187Y-78376382D01*
X92707816Y-78463617D01*
X92628995Y-78533789D01*
X92535594Y-78583152D01*
X92413548Y-78615598D01*
X92255181Y-78627578D01*
X92114985Y-78617657D01*
X92004503Y-78590577D01*
X91917882Y-78549176D01*
X91842896Y-78489792D01*
X91783461Y-78415849D01*
X91738607Y-78325205D01*
X91709408Y-78226667D01*
X91690688Y-78110920D01*
X91684019Y-77975205D01*
X91684019Y-77796053D01*
X91983583Y-77796053D01*
X91983583Y-77955544D01*
X91986943Y-78077965D01*
X91996161Y-78178171D01*
X92020640Y-78266151D01*
X92064794Y-78328014D01*
X92105781Y-78355434D01*
X92166016Y-78374091D01*
X92252372Y-78381259D01*
X92340356Y-78373688D01*
X92403679Y-78353680D01*
X92448499Y-78323740D01*
X92497991Y-78256888D01*
X92528244Y-78161318D01*
X92541556Y-78052055D01*
X92546441Y-77916343D01*
X92546441Y-77017651D01*
X92538493Y-76855799D01*
X92518475Y-76747397D01*
X92494200Y-76684513D01*
X92463280Y-76638488D01*
X92426029Y-76605980D01*
X92354307Y-76575451D01*
X92252372Y-76563970D01*
X92168384Y-76571557D01*
X92108912Y-76591512D01*
X92067602Y-76621367D01*
X92023156Y-76687207D01*
X91997627Y-76779515D01*
X91987354Y-76884512D01*
X91983583Y-77014842D01*
X91983583Y-77182759D01*
X91684019Y-77182759D01*
X91684019Y-77014842D01*
X91697355Y-76814658D01*
X91734455Y-76649333D01*
X91777049Y-76549968D01*
X91834701Y-76468719D01*
X91907990Y-76403014D01*
X91994639Y-76356597D01*
X92107970Y-76326103D01*
X92255181Y-76314842D01*
G37*
G36*
X91381646Y-76340000D02*
G01*
X91381646Y-78608039D01*
X91065230Y-78608039D01*
X91065230Y-77628014D01*
X90482833Y-77628014D01*
X90482833Y-78608039D01*
X90166416Y-78608039D01*
X90166416Y-76340000D01*
X90482833Y-76340000D01*
X90482833Y-77401235D01*
X91065230Y-77401235D01*
X91065230Y-76340000D01*
X91381646Y-76340000D01*
G37*
G36*
X89874180Y-76340000D02*
G01*
X89874180Y-76552857D01*
X89297400Y-77451549D01*
X89178332Y-77639127D01*
X89128667Y-77728381D01*
X89088817Y-77822554D01*
X89062990Y-77923629D01*
X89053768Y-78045181D01*
X89060264Y-78149078D01*
X89077811Y-78229690D01*
X89104204Y-78291622D01*
X89144835Y-78340361D01*
X89201703Y-78370310D01*
X89280547Y-78381259D01*
X89349098Y-78374068D01*
X89403082Y-78354127D01*
X89445778Y-78322397D01*
X89494610Y-78256110D01*
X89526988Y-78168401D01*
X89543596Y-78071058D01*
X89549337Y-77963970D01*
X89549337Y-77888377D01*
X89849023Y-77888377D01*
X89849023Y-77966779D01*
X89842373Y-78102474D01*
X89823669Y-78218706D01*
X89794434Y-78318122D01*
X89749729Y-78410096D01*
X89691159Y-78485463D01*
X89617969Y-78546367D01*
X89533035Y-78589587D01*
X89426945Y-78617465D01*
X89294591Y-78627578D01*
X89157891Y-78616469D01*
X89047378Y-78585659D01*
X88957951Y-78537468D01*
X88885851Y-78472117D01*
X88829466Y-78391431D01*
X88787592Y-78295073D01*
X88760917Y-78179990D01*
X88751395Y-78042372D01*
X88760706Y-77901982D01*
X88786444Y-77787627D01*
X88826852Y-77681483D01*
X88877424Y-77583196D01*
X89000523Y-77387191D01*
X89521371Y-76592058D01*
X88804518Y-76592058D01*
X88804518Y-76340000D01*
X89874180Y-76340000D01*
G37*
G36*
X88535729Y-76340000D02*
G01*
X88535729Y-76552857D01*
X87958949Y-77451549D01*
X87839881Y-77639127D01*
X87790216Y-77728381D01*
X87750366Y-77822554D01*
X87724539Y-77923629D01*
X87715317Y-78045181D01*
X87721813Y-78149078D01*
X87739361Y-78229690D01*
X87765753Y-78291622D01*
X87806384Y-78340361D01*
X87863253Y-78370310D01*
X87942096Y-78381259D01*
X88010648Y-78374068D01*
X88064631Y-78354127D01*
X88107327Y-78322397D01*
X88156159Y-78256110D01*
X88188538Y-78168401D01*
X88205145Y-78071058D01*
X88210886Y-77963970D01*
X88210886Y-77888377D01*
X88510572Y-77888377D01*
X88510572Y-77966779D01*
X88503922Y-78102474D01*
X88485218Y-78218706D01*
X88455983Y-78318122D01*
X88411279Y-78410096D01*
X88352708Y-78485463D01*
X88279518Y-78546367D01*
X88194584Y-78589587D01*
X88088494Y-78617465D01*
X87956140Y-78627578D01*
X87819441Y-78616469D01*
X87708927Y-78585659D01*
X87619500Y-78537468D01*
X87547400Y-78472117D01*
X87491015Y-78391431D01*
X87449142Y-78295073D01*
X87422466Y-78179990D01*
X87412944Y-78042372D01*
X87422255Y-77901982D01*
X87447993Y-77787627D01*
X87488401Y-77681483D01*
X87538974Y-77583196D01*
X87662072Y-77387191D01*
X88182920Y-76592058D01*
X87466067Y-76592058D01*
X87466067Y-76340000D01*
X88535729Y-76340000D01*
G37*
G36*
X112255181Y-116314842D02*
G01*
X112412993Y-116327613D01*
X112535050Y-116362340D01*
X112628995Y-116415593D01*
X112708089Y-116489913D01*
X112769436Y-116579617D01*
X112813764Y-116687191D01*
X112852065Y-116863927D01*
X112865544Y-117067965D01*
X112865544Y-117868838D01*
X112859266Y-118021590D01*
X112841534Y-118154220D01*
X112813764Y-118269152D01*
X112769187Y-118376382D01*
X112707816Y-118463617D01*
X112628995Y-118533789D01*
X112535594Y-118583152D01*
X112413548Y-118615598D01*
X112255181Y-118627578D01*
X112114985Y-118617657D01*
X112004503Y-118590577D01*
X111917882Y-118549176D01*
X111842896Y-118489792D01*
X111783461Y-118415849D01*
X111738607Y-118325205D01*
X111709408Y-118226667D01*
X111690688Y-118110920D01*
X111684019Y-117975205D01*
X111684019Y-117796053D01*
X111983583Y-117796053D01*
X111983583Y-117955544D01*
X111986943Y-118077965D01*
X111996161Y-118178171D01*
X112020640Y-118266151D01*
X112064794Y-118328014D01*
X112105781Y-118355434D01*
X112166016Y-118374091D01*
X112252372Y-118381259D01*
X112340356Y-118373688D01*
X112403679Y-118353680D01*
X112448499Y-118323740D01*
X112497991Y-118256888D01*
X112528244Y-118161318D01*
X112541556Y-118052055D01*
X112546441Y-117916343D01*
X112546441Y-117017651D01*
X112538493Y-116855799D01*
X112518475Y-116747397D01*
X112494200Y-116684513D01*
X112463280Y-116638488D01*
X112426029Y-116605980D01*
X112354307Y-116575451D01*
X112252372Y-116563970D01*
X112168384Y-116571557D01*
X112108912Y-116591512D01*
X112067602Y-116621367D01*
X112023156Y-116687207D01*
X111997627Y-116779515D01*
X111987354Y-116884512D01*
X111983583Y-117014842D01*
X111983583Y-117182759D01*
X111684019Y-117182759D01*
X111684019Y-117014842D01*
X111697355Y-116814658D01*
X111734455Y-116649333D01*
X111777049Y-116549968D01*
X111834701Y-116468719D01*
X111907990Y-116403014D01*
X111994639Y-116356597D01*
X112107970Y-116326103D01*
X112255181Y-116314842D01*
G37*
G36*
X111381646Y-116340000D02*
G01*
X111381646Y-118608039D01*
X111065230Y-118608039D01*
X111065230Y-117628014D01*
X110482833Y-117628014D01*
X110482833Y-118608039D01*
X110166416Y-118608039D01*
X110166416Y-116340000D01*
X110482833Y-116340000D01*
X110482833Y-117401235D01*
X111065230Y-117401235D01*
X111065230Y-116340000D01*
X111381646Y-116340000D01*
G37*
G36*
X109322557Y-116314842D02*
G01*
X109444120Y-116323379D01*
X109545637Y-116347284D01*
X109630547Y-116384818D01*
X109705809Y-116438267D01*
X109767070Y-116504913D01*
X109815439Y-116586318D01*
X109848709Y-116676085D01*
X109869631Y-116778972D01*
X109876988Y-116897240D01*
X109876988Y-116972833D01*
X109580233Y-116972833D01*
X109580233Y-116949019D01*
X109580233Y-116922397D01*
X109572590Y-116824375D01*
X109556420Y-116740436D01*
X109526318Y-116666434D01*
X109480826Y-116611598D01*
X109417583Y-116577018D01*
X109322557Y-116563970D01*
X109251542Y-116570539D01*
X109197842Y-116588329D01*
X109157449Y-116615750D01*
X109111695Y-116676209D01*
X109081856Y-116762784D01*
X109067421Y-116861627D01*
X109062194Y-116981259D01*
X109070358Y-117099283D01*
X109092963Y-117195463D01*
X109128018Y-117273740D01*
X109180722Y-117336265D01*
X109255353Y-117377994D01*
X109358949Y-117398426D01*
X109379954Y-117401235D01*
X109400959Y-117401235D01*
X109400959Y-117700799D01*
X109381420Y-117700799D01*
X109361758Y-117700799D01*
X109258384Y-117714293D01*
X109184296Y-117743131D01*
X109132170Y-117784818D01*
X109096247Y-117841706D01*
X109071659Y-117925345D01*
X109062194Y-118045181D01*
X109068756Y-118147004D01*
X109086673Y-118227789D01*
X109113974Y-118291500D01*
X109156562Y-118340436D01*
X109222088Y-118371956D01*
X109319748Y-118383946D01*
X109416312Y-118370978D01*
X109481515Y-118336499D01*
X109524180Y-118281730D01*
X109562151Y-118171009D01*
X109580233Y-118020024D01*
X109580233Y-117996210D01*
X109580233Y-117972397D01*
X109876988Y-117972397D01*
X109876988Y-118047990D01*
X109869547Y-118168103D01*
X109848549Y-118270818D01*
X109815439Y-118358789D01*
X109767151Y-118438386D01*
X109705497Y-118504205D01*
X109629204Y-118557602D01*
X109543358Y-118595186D01*
X109441307Y-118619069D01*
X109319748Y-118627578D01*
X109196264Y-118618997D01*
X109093886Y-118595051D01*
X109008949Y-118557602D01*
X108933612Y-118504211D01*
X108872405Y-118437946D01*
X108824180Y-118357323D01*
X108791028Y-118268486D01*
X108770049Y-118165286D01*
X108762630Y-118045181D01*
X108773541Y-117911405D01*
X108803715Y-117803927D01*
X108850802Y-117717529D01*
X108916274Y-117644160D01*
X108994452Y-117588561D01*
X109087351Y-117549612D01*
X108991435Y-117507379D01*
X108912473Y-117443244D01*
X108850237Y-117359459D01*
X108801831Y-117251392D01*
X108773014Y-117129741D01*
X108762630Y-116981259D01*
X108769376Y-116847602D01*
X108788503Y-116731198D01*
X108818684Y-116629794D01*
X108864294Y-116536005D01*
X108923773Y-116459278D01*
X108997836Y-116397397D01*
X109083713Y-116353375D01*
X109190301Y-116325079D01*
X109322557Y-116314842D01*
G37*
G36*
X108055497Y-116325356D02*
G01*
X108160049Y-116354841D01*
X108247034Y-116401549D01*
X108322348Y-116465980D01*
X108383720Y-116544663D01*
X108431803Y-116639563D01*
X108464516Y-116742022D01*
X108484912Y-116856236D01*
X108492009Y-116983946D01*
X108492009Y-117961161D01*
X108484988Y-118092770D01*
X108464994Y-118208241D01*
X108433269Y-118309696D01*
X108385929Y-118403538D01*
X108325026Y-118480808D01*
X108249842Y-118543558D01*
X108163007Y-118588649D01*
X108057590Y-118617309D01*
X107929274Y-118627578D01*
X107800961Y-118617281D01*
X107696037Y-118588600D01*
X107610048Y-118543558D01*
X107535703Y-118480894D01*
X107475267Y-118403635D01*
X107428087Y-118309696D01*
X107396295Y-118208235D01*
X107376261Y-118092764D01*
X107369225Y-117961161D01*
X107369225Y-116983946D01*
X107369373Y-116981259D01*
X107671598Y-116981259D01*
X107671598Y-117963970D01*
X107676639Y-118071311D01*
X107691259Y-118169745D01*
X107720534Y-118258900D01*
X107765387Y-118325083D01*
X107805549Y-118356518D01*
X107858811Y-118376584D01*
X107929274Y-118383946D01*
X107999681Y-118376623D01*
X108053457Y-118356581D01*
X108094504Y-118325083D01*
X108140430Y-118258788D01*
X108170097Y-118169745D01*
X108184626Y-118071314D01*
X108189637Y-117963970D01*
X108189637Y-116981259D01*
X108184325Y-116878773D01*
X108168632Y-116780980D01*
X108137739Y-116691531D01*
X108090230Y-116622711D01*
X108048276Y-116589337D01*
X107995678Y-116568595D01*
X107929274Y-116561161D01*
X107860955Y-116568734D01*
X107808515Y-116589582D01*
X107768196Y-116622711D01*
X107722875Y-116691302D01*
X107692602Y-116780980D01*
X107676909Y-116878773D01*
X107671598Y-116981259D01*
X107369373Y-116981259D01*
X107376357Y-116854329D01*
X107396787Y-116739228D01*
X107429431Y-116636755D01*
X107477480Y-116541834D01*
X107538428Y-116463677D01*
X107612857Y-116400205D01*
X107698904Y-116354306D01*
X107802967Y-116325236D01*
X107929274Y-116314842D01*
X108055497Y-116325356D01*
G37*
D11*
X120612610Y-90405782D02*
X120564991Y-90453402D01*
X120564991Y-90453402D02*
X120422134Y-90501021D01*
X120422134Y-90501021D02*
X120326896Y-90501021D01*
X120326896Y-90501021D02*
X120184039Y-90453402D01*
X120184039Y-90453402D02*
X120088801Y-90358163D01*
X120088801Y-90358163D02*
X120041182Y-90262925D01*
X120041182Y-90262925D02*
X119993563Y-90072449D01*
X119993563Y-90072449D02*
X119993563Y-89929592D01*
X119993563Y-89929592D02*
X120041182Y-89739116D01*
X120041182Y-89739116D02*
X120088801Y-89643878D01*
X120088801Y-89643878D02*
X120184039Y-89548640D01*
X120184039Y-89548640D02*
X120326896Y-89501021D01*
X120326896Y-89501021D02*
X120422134Y-89501021D01*
X120422134Y-89501021D02*
X120564991Y-89548640D01*
X120564991Y-89548640D02*
X120612610Y-89596259D01*
X120945944Y-89501021D02*
X121612610Y-89501021D01*
X121612610Y-89501021D02*
X121184039Y-90501021D01*
X120833333Y-70395295D02*
X120785714Y-70442915D01*
X120785714Y-70442915D02*
X120642857Y-70490534D01*
X120642857Y-70490534D02*
X120547619Y-70490534D01*
X120547619Y-70490534D02*
X120404762Y-70442915D01*
X120404762Y-70442915D02*
X120309524Y-70347676D01*
X120309524Y-70347676D02*
X120261905Y-70252438D01*
X120261905Y-70252438D02*
X120214286Y-70061962D01*
X120214286Y-70061962D02*
X120214286Y-69919105D01*
X120214286Y-69919105D02*
X120261905Y-69728629D01*
X120261905Y-69728629D02*
X120309524Y-69633391D01*
X120309524Y-69633391D02*
X120404762Y-69538153D01*
X120404762Y-69538153D02*
X120547619Y-69490534D01*
X120547619Y-69490534D02*
X120642857Y-69490534D01*
X120642857Y-69490534D02*
X120785714Y-69538153D01*
X120785714Y-69538153D02*
X120833333Y-69585772D01*
X121690476Y-69490534D02*
X121500000Y-69490534D01*
X121500000Y-69490534D02*
X121404762Y-69538153D01*
X121404762Y-69538153D02*
X121357143Y-69585772D01*
X121357143Y-69585772D02*
X121261905Y-69728629D01*
X121261905Y-69728629D02*
X121214286Y-69919105D01*
X121214286Y-69919105D02*
X121214286Y-70300057D01*
X121214286Y-70300057D02*
X121261905Y-70395295D01*
X121261905Y-70395295D02*
X121309524Y-70442915D01*
X121309524Y-70442915D02*
X121404762Y-70490534D01*
X121404762Y-70490534D02*
X121595238Y-70490534D01*
X121595238Y-70490534D02*
X121690476Y-70442915D01*
X121690476Y-70442915D02*
X121738095Y-70395295D01*
X121738095Y-70395295D02*
X121785714Y-70300057D01*
X121785714Y-70300057D02*
X121785714Y-70061962D01*
X121785714Y-70061962D02*
X121738095Y-69966724D01*
X121738095Y-69966724D02*
X121690476Y-69919105D01*
X121690476Y-69919105D02*
X121595238Y-69871486D01*
X121595238Y-69871486D02*
X121404762Y-69871486D01*
X121404762Y-69871486D02*
X121309524Y-69919105D01*
X121309524Y-69919105D02*
X121261905Y-69966724D01*
X121261905Y-69966724D02*
X121214286Y-70061962D01*
X120333333Y-100859580D02*
X120285714Y-100907200D01*
X120285714Y-100907200D02*
X120142857Y-100954819D01*
X120142857Y-100954819D02*
X120047619Y-100954819D01*
X120047619Y-100954819D02*
X119904762Y-100907200D01*
X119904762Y-100907200D02*
X119809524Y-100811961D01*
X119809524Y-100811961D02*
X119761905Y-100716723D01*
X119761905Y-100716723D02*
X119714286Y-100526247D01*
X119714286Y-100526247D02*
X119714286Y-100383390D01*
X119714286Y-100383390D02*
X119761905Y-100192914D01*
X119761905Y-100192914D02*
X119809524Y-100097676D01*
X119809524Y-100097676D02*
X119904762Y-100002438D01*
X119904762Y-100002438D02*
X120047619Y-99954819D01*
X120047619Y-99954819D02*
X120142857Y-99954819D01*
X120142857Y-99954819D02*
X120285714Y-100002438D01*
X120285714Y-100002438D02*
X120333333Y-100050057D01*
X120904762Y-100383390D02*
X120809524Y-100335771D01*
X120809524Y-100335771D02*
X120761905Y-100288152D01*
X120761905Y-100288152D02*
X120714286Y-100192914D01*
X120714286Y-100192914D02*
X120714286Y-100145295D01*
X120714286Y-100145295D02*
X120761905Y-100050057D01*
X120761905Y-100050057D02*
X120809524Y-100002438D01*
X120809524Y-100002438D02*
X120904762Y-99954819D01*
X120904762Y-99954819D02*
X121095238Y-99954819D01*
X121095238Y-99954819D02*
X121190476Y-100002438D01*
X121190476Y-100002438D02*
X121238095Y-100050057D01*
X121238095Y-100050057D02*
X121285714Y-100145295D01*
X121285714Y-100145295D02*
X121285714Y-100192914D01*
X121285714Y-100192914D02*
X121238095Y-100288152D01*
X121238095Y-100288152D02*
X121190476Y-100335771D01*
X121190476Y-100335771D02*
X121095238Y-100383390D01*
X121095238Y-100383390D02*
X120904762Y-100383390D01*
X120904762Y-100383390D02*
X120809524Y-100431009D01*
X120809524Y-100431009D02*
X120761905Y-100478628D01*
X120761905Y-100478628D02*
X120714286Y-100573866D01*
X120714286Y-100573866D02*
X120714286Y-100764342D01*
X120714286Y-100764342D02*
X120761905Y-100859580D01*
X120761905Y-100859580D02*
X120809524Y-100907200D01*
X120809524Y-100907200D02*
X120904762Y-100954819D01*
X120904762Y-100954819D02*
X121095238Y-100954819D01*
X121095238Y-100954819D02*
X121190476Y-100907200D01*
X121190476Y-100907200D02*
X121238095Y-100859580D01*
X121238095Y-100859580D02*
X121285714Y-100764342D01*
X121285714Y-100764342D02*
X121285714Y-100573866D01*
X121285714Y-100573866D02*
X121238095Y-100478628D01*
X121238095Y-100478628D02*
X121190476Y-100431009D01*
X121190476Y-100431009D02*
X121095238Y-100383390D01*
X120675281Y-57973255D02*
X120627662Y-58020875D01*
X120627662Y-58020875D02*
X120484805Y-58068494D01*
X120484805Y-58068494D02*
X120389567Y-58068494D01*
X120389567Y-58068494D02*
X120246710Y-58020875D01*
X120246710Y-58020875D02*
X120151472Y-57925636D01*
X120151472Y-57925636D02*
X120103853Y-57830398D01*
X120103853Y-57830398D02*
X120056234Y-57639922D01*
X120056234Y-57639922D02*
X120056234Y-57497065D01*
X120056234Y-57497065D02*
X120103853Y-57306589D01*
X120103853Y-57306589D02*
X120151472Y-57211351D01*
X120151472Y-57211351D02*
X120246710Y-57116113D01*
X120246710Y-57116113D02*
X120389567Y-57068494D01*
X120389567Y-57068494D02*
X120484805Y-57068494D01*
X120484805Y-57068494D02*
X120627662Y-57116113D01*
X120627662Y-57116113D02*
X120675281Y-57163732D01*
X121580043Y-57068494D02*
X121103853Y-57068494D01*
X121103853Y-57068494D02*
X121056234Y-57544684D01*
X121056234Y-57544684D02*
X121103853Y-57497065D01*
X121103853Y-57497065D02*
X121199091Y-57449446D01*
X121199091Y-57449446D02*
X121437186Y-57449446D01*
X121437186Y-57449446D02*
X121532424Y-57497065D01*
X121532424Y-57497065D02*
X121580043Y-57544684D01*
X121580043Y-57544684D02*
X121627662Y-57639922D01*
X121627662Y-57639922D02*
X121627662Y-57878017D01*
X121627662Y-57878017D02*
X121580043Y-57973255D01*
X121580043Y-57973255D02*
X121532424Y-58020875D01*
X121532424Y-58020875D02*
X121437186Y-58068494D01*
X121437186Y-58068494D02*
X121199091Y-58068494D01*
X121199091Y-58068494D02*
X121103853Y-58020875D01*
X121103853Y-58020875D02*
X121056234Y-57973255D01*
X109666666Y-62454819D02*
X109666666Y-63169104D01*
X109666666Y-63169104D02*
X109619047Y-63311961D01*
X109619047Y-63311961D02*
X109523809Y-63407200D01*
X109523809Y-63407200D02*
X109380952Y-63454819D01*
X109380952Y-63454819D02*
X109285714Y-63454819D01*
X110571428Y-62454819D02*
X110380952Y-62454819D01*
X110380952Y-62454819D02*
X110285714Y-62502438D01*
X110285714Y-62502438D02*
X110238095Y-62550057D01*
X110238095Y-62550057D02*
X110142857Y-62692914D01*
X110142857Y-62692914D02*
X110095238Y-62883390D01*
X110095238Y-62883390D02*
X110095238Y-63264342D01*
X110095238Y-63264342D02*
X110142857Y-63359580D01*
X110142857Y-63359580D02*
X110190476Y-63407200D01*
X110190476Y-63407200D02*
X110285714Y-63454819D01*
X110285714Y-63454819D02*
X110476190Y-63454819D01*
X110476190Y-63454819D02*
X110571428Y-63407200D01*
X110571428Y-63407200D02*
X110619047Y-63359580D01*
X110619047Y-63359580D02*
X110666666Y-63264342D01*
X110666666Y-63264342D02*
X110666666Y-63026247D01*
X110666666Y-63026247D02*
X110619047Y-62931009D01*
X110619047Y-62931009D02*
X110571428Y-62883390D01*
X110571428Y-62883390D02*
X110476190Y-62835771D01*
X110476190Y-62835771D02*
X110285714Y-62835771D01*
X110285714Y-62835771D02*
X110190476Y-62883390D01*
X110190476Y-62883390D02*
X110142857Y-62931009D01*
X110142857Y-62931009D02*
X110095238Y-63026247D01*
X89666666Y-42454819D02*
X89666666Y-43169104D01*
X89666666Y-43169104D02*
X89619047Y-43311961D01*
X89619047Y-43311961D02*
X89523809Y-43407200D01*
X89523809Y-43407200D02*
X89380952Y-43454819D01*
X89380952Y-43454819D02*
X89285714Y-43454819D01*
X90666666Y-43454819D02*
X90095238Y-43454819D01*
X90380952Y-43454819D02*
X90380952Y-42454819D01*
X90380952Y-42454819D02*
X90285714Y-42597676D01*
X90285714Y-42597676D02*
X90190476Y-42692914D01*
X90190476Y-42692914D02*
X90095238Y-42740533D01*
X120443376Y-64561098D02*
X120395757Y-64608718D01*
X120395757Y-64608718D02*
X120252900Y-64656337D01*
X120252900Y-64656337D02*
X120157662Y-64656337D01*
X120157662Y-64656337D02*
X120014805Y-64608718D01*
X120014805Y-64608718D02*
X119919567Y-64513479D01*
X119919567Y-64513479D02*
X119871948Y-64418241D01*
X119871948Y-64418241D02*
X119824329Y-64227765D01*
X119824329Y-64227765D02*
X119824329Y-64084908D01*
X119824329Y-64084908D02*
X119871948Y-63894432D01*
X119871948Y-63894432D02*
X119919567Y-63799194D01*
X119919567Y-63799194D02*
X120014805Y-63703956D01*
X120014805Y-63703956D02*
X120157662Y-63656337D01*
X120157662Y-63656337D02*
X120252900Y-63656337D01*
X120252900Y-63656337D02*
X120395757Y-63703956D01*
X120395757Y-63703956D02*
X120443376Y-63751575D01*
X121395757Y-64656337D02*
X120824329Y-64656337D01*
X121110043Y-64656337D02*
X121110043Y-63656337D01*
X121110043Y-63656337D02*
X121014805Y-63799194D01*
X121014805Y-63799194D02*
X120919567Y-63894432D01*
X120919567Y-63894432D02*
X120824329Y-63942051D01*
X89416666Y-62954819D02*
X89416666Y-63669104D01*
X89416666Y-63669104D02*
X89369047Y-63811961D01*
X89369047Y-63811961D02*
X89273809Y-63907200D01*
X89273809Y-63907200D02*
X89130952Y-63954819D01*
X89130952Y-63954819D02*
X89035714Y-63954819D01*
X89845238Y-63050057D02*
X89892857Y-63002438D01*
X89892857Y-63002438D02*
X89988095Y-62954819D01*
X89988095Y-62954819D02*
X90226190Y-62954819D01*
X90226190Y-62954819D02*
X90321428Y-63002438D01*
X90321428Y-63002438D02*
X90369047Y-63050057D01*
X90369047Y-63050057D02*
X90416666Y-63145295D01*
X90416666Y-63145295D02*
X90416666Y-63240533D01*
X90416666Y-63240533D02*
X90369047Y-63383390D01*
X90369047Y-63383390D02*
X89797619Y-63954819D01*
X89797619Y-63954819D02*
X90416666Y-63954819D01*
X89666666Y-102454819D02*
X89666666Y-103169104D01*
X89666666Y-103169104D02*
X89619047Y-103311961D01*
X89619047Y-103311961D02*
X89523809Y-103407200D01*
X89523809Y-103407200D02*
X89380952Y-103454819D01*
X89380952Y-103454819D02*
X89285714Y-103454819D01*
X90571428Y-102788152D02*
X90571428Y-103454819D01*
X90333333Y-102407200D02*
X90095238Y-103121485D01*
X90095238Y-103121485D02*
X90714285Y-103121485D01*
X109666666Y-102454819D02*
X109666666Y-103169104D01*
X109666666Y-103169104D02*
X109619047Y-103311961D01*
X109619047Y-103311961D02*
X109523809Y-103407200D01*
X109523809Y-103407200D02*
X109380952Y-103454819D01*
X109380952Y-103454819D02*
X109285714Y-103454819D01*
X110285714Y-102883390D02*
X110190476Y-102835771D01*
X110190476Y-102835771D02*
X110142857Y-102788152D01*
X110142857Y-102788152D02*
X110095238Y-102692914D01*
X110095238Y-102692914D02*
X110095238Y-102645295D01*
X110095238Y-102645295D02*
X110142857Y-102550057D01*
X110142857Y-102550057D02*
X110190476Y-102502438D01*
X110190476Y-102502438D02*
X110285714Y-102454819D01*
X110285714Y-102454819D02*
X110476190Y-102454819D01*
X110476190Y-102454819D02*
X110571428Y-102502438D01*
X110571428Y-102502438D02*
X110619047Y-102550057D01*
X110619047Y-102550057D02*
X110666666Y-102645295D01*
X110666666Y-102645295D02*
X110666666Y-102692914D01*
X110666666Y-102692914D02*
X110619047Y-102788152D01*
X110619047Y-102788152D02*
X110571428Y-102835771D01*
X110571428Y-102835771D02*
X110476190Y-102883390D01*
X110476190Y-102883390D02*
X110285714Y-102883390D01*
X110285714Y-102883390D02*
X110190476Y-102931009D01*
X110190476Y-102931009D02*
X110142857Y-102978628D01*
X110142857Y-102978628D02*
X110095238Y-103073866D01*
X110095238Y-103073866D02*
X110095238Y-103264342D01*
X110095238Y-103264342D02*
X110142857Y-103359580D01*
X110142857Y-103359580D02*
X110190476Y-103407200D01*
X110190476Y-103407200D02*
X110285714Y-103454819D01*
X110285714Y-103454819D02*
X110476190Y-103454819D01*
X110476190Y-103454819D02*
X110571428Y-103407200D01*
X110571428Y-103407200D02*
X110619047Y-103359580D01*
X110619047Y-103359580D02*
X110666666Y-103264342D01*
X110666666Y-103264342D02*
X110666666Y-103073866D01*
X110666666Y-103073866D02*
X110619047Y-102978628D01*
X110619047Y-102978628D02*
X110571428Y-102931009D01*
X110571428Y-102931009D02*
X110476190Y-102883390D01*
X120333333Y-80859580D02*
X120285714Y-80907200D01*
X120285714Y-80907200D02*
X120142857Y-80954819D01*
X120142857Y-80954819D02*
X120047619Y-80954819D01*
X120047619Y-80954819D02*
X119904762Y-80907200D01*
X119904762Y-80907200D02*
X119809524Y-80811961D01*
X119809524Y-80811961D02*
X119761905Y-80716723D01*
X119761905Y-80716723D02*
X119714286Y-80526247D01*
X119714286Y-80526247D02*
X119714286Y-80383390D01*
X119714286Y-80383390D02*
X119761905Y-80192914D01*
X119761905Y-80192914D02*
X119809524Y-80097676D01*
X119809524Y-80097676D02*
X119904762Y-80002438D01*
X119904762Y-80002438D02*
X120047619Y-79954819D01*
X120047619Y-79954819D02*
X120142857Y-79954819D01*
X120142857Y-79954819D02*
X120285714Y-80002438D01*
X120285714Y-80002438D02*
X120333333Y-80050057D01*
X120666667Y-79954819D02*
X121285714Y-79954819D01*
X121285714Y-79954819D02*
X120952381Y-80335771D01*
X120952381Y-80335771D02*
X121095238Y-80335771D01*
X121095238Y-80335771D02*
X121190476Y-80383390D01*
X121190476Y-80383390D02*
X121238095Y-80431009D01*
X121238095Y-80431009D02*
X121285714Y-80526247D01*
X121285714Y-80526247D02*
X121285714Y-80764342D01*
X121285714Y-80764342D02*
X121238095Y-80859580D01*
X121238095Y-80859580D02*
X121190476Y-80907200D01*
X121190476Y-80907200D02*
X121095238Y-80954819D01*
X121095238Y-80954819D02*
X120809524Y-80954819D01*
X120809524Y-80954819D02*
X120714286Y-80907200D01*
X120714286Y-80907200D02*
X120666667Y-80859580D01*
X89416666Y-82954819D02*
X89416666Y-83669104D01*
X89416666Y-83669104D02*
X89369047Y-83811961D01*
X89369047Y-83811961D02*
X89273809Y-83907200D01*
X89273809Y-83907200D02*
X89130952Y-83954819D01*
X89130952Y-83954819D02*
X89035714Y-83954819D01*
X89797619Y-82954819D02*
X90416666Y-82954819D01*
X90416666Y-82954819D02*
X90083333Y-83335771D01*
X90083333Y-83335771D02*
X90226190Y-83335771D01*
X90226190Y-83335771D02*
X90321428Y-83383390D01*
X90321428Y-83383390D02*
X90369047Y-83431009D01*
X90369047Y-83431009D02*
X90416666Y-83526247D01*
X90416666Y-83526247D02*
X90416666Y-83764342D01*
X90416666Y-83764342D02*
X90369047Y-83859580D01*
X90369047Y-83859580D02*
X90321428Y-83907200D01*
X90321428Y-83907200D02*
X90226190Y-83954819D01*
X90226190Y-83954819D02*
X89940476Y-83954819D01*
X89940476Y-83954819D02*
X89845238Y-83907200D01*
X89845238Y-83907200D02*
X89797619Y-83859580D01*
X109666666Y-42454819D02*
X109666666Y-43169104D01*
X109666666Y-43169104D02*
X109619047Y-43311961D01*
X109619047Y-43311961D02*
X109523809Y-43407200D01*
X109523809Y-43407200D02*
X109380952Y-43454819D01*
X109380952Y-43454819D02*
X109285714Y-43454819D01*
X110619047Y-42454819D02*
X110142857Y-42454819D01*
X110142857Y-42454819D02*
X110095238Y-42931009D01*
X110095238Y-42931009D02*
X110142857Y-42883390D01*
X110142857Y-42883390D02*
X110238095Y-42835771D01*
X110238095Y-42835771D02*
X110476190Y-42835771D01*
X110476190Y-42835771D02*
X110571428Y-42883390D01*
X110571428Y-42883390D02*
X110619047Y-42931009D01*
X110619047Y-42931009D02*
X110666666Y-43026247D01*
X110666666Y-43026247D02*
X110666666Y-43264342D01*
X110666666Y-43264342D02*
X110619047Y-43359580D01*
X110619047Y-43359580D02*
X110571428Y-43407200D01*
X110571428Y-43407200D02*
X110476190Y-43454819D01*
X110476190Y-43454819D02*
X110238095Y-43454819D01*
X110238095Y-43454819D02*
X110142857Y-43407200D01*
X110142857Y-43407200D02*
X110095238Y-43359580D01*
X110166666Y-82954819D02*
X110166666Y-83669104D01*
X110166666Y-83669104D02*
X110119047Y-83811961D01*
X110119047Y-83811961D02*
X110023809Y-83907200D01*
X110023809Y-83907200D02*
X109880952Y-83954819D01*
X109880952Y-83954819D02*
X109785714Y-83954819D01*
X110547619Y-82954819D02*
X111214285Y-82954819D01*
X111214285Y-82954819D02*
X110785714Y-83954819D01*
X120333333Y-95888152D02*
X120285714Y-95935772D01*
X120285714Y-95935772D02*
X120142857Y-95983391D01*
X120142857Y-95983391D02*
X120047619Y-95983391D01*
X120047619Y-95983391D02*
X119904762Y-95935772D01*
X119904762Y-95935772D02*
X119809524Y-95840533D01*
X119809524Y-95840533D02*
X119761905Y-95745295D01*
X119761905Y-95745295D02*
X119714286Y-95554819D01*
X119714286Y-95554819D02*
X119714286Y-95411962D01*
X119714286Y-95411962D02*
X119761905Y-95221486D01*
X119761905Y-95221486D02*
X119809524Y-95126248D01*
X119809524Y-95126248D02*
X119904762Y-95031010D01*
X119904762Y-95031010D02*
X120047619Y-94983391D01*
X120047619Y-94983391D02*
X120142857Y-94983391D01*
X120142857Y-94983391D02*
X120285714Y-95031010D01*
X120285714Y-95031010D02*
X120333333Y-95078629D01*
X121190476Y-95316724D02*
X121190476Y-95983391D01*
X120952381Y-94935772D02*
X120714286Y-95650057D01*
X120714286Y-95650057D02*
X121333333Y-95650057D01*
X120333333Y-76859580D02*
X120285714Y-76907200D01*
X120285714Y-76907200D02*
X120142857Y-76954819D01*
X120142857Y-76954819D02*
X120047619Y-76954819D01*
X120047619Y-76954819D02*
X119904762Y-76907200D01*
X119904762Y-76907200D02*
X119809524Y-76811961D01*
X119809524Y-76811961D02*
X119761905Y-76716723D01*
X119761905Y-76716723D02*
X119714286Y-76526247D01*
X119714286Y-76526247D02*
X119714286Y-76383390D01*
X119714286Y-76383390D02*
X119761905Y-76192914D01*
X119761905Y-76192914D02*
X119809524Y-76097676D01*
X119809524Y-76097676D02*
X119904762Y-76002438D01*
X119904762Y-76002438D02*
X120047619Y-75954819D01*
X120047619Y-75954819D02*
X120142857Y-75954819D01*
X120142857Y-75954819D02*
X120285714Y-76002438D01*
X120285714Y-76002438D02*
X120333333Y-76050057D01*
X120714286Y-76050057D02*
X120761905Y-76002438D01*
X120761905Y-76002438D02*
X120857143Y-75954819D01*
X120857143Y-75954819D02*
X121095238Y-75954819D01*
X121095238Y-75954819D02*
X121190476Y-76002438D01*
X121190476Y-76002438D02*
X121238095Y-76050057D01*
X121238095Y-76050057D02*
X121285714Y-76145295D01*
X121285714Y-76145295D02*
X121285714Y-76240533D01*
X121285714Y-76240533D02*
X121238095Y-76383390D01*
X121238095Y-76383390D02*
X120666667Y-76954819D01*
X120666667Y-76954819D02*
X121285714Y-76954819D01*
D12*
X123659420Y-89490000D02*
X123940580Y-89490000D01*
X123659420Y-90510000D02*
X123940580Y-90510000D01*
X123659420Y-69490000D02*
X123940580Y-69490000D01*
X123659420Y-70510000D02*
X123940580Y-70510000D01*
X123659420Y-99890000D02*
X123940580Y-99890000D01*
X123659420Y-100910000D02*
X123940580Y-100910000D01*
X123659420Y-57090000D02*
X123940580Y-57090000D01*
X123659420Y-58110000D02*
X123940580Y-58110000D01*
X105250000Y-71750000D02*
G75*
G02*
X105236411Y-68287337I4749999J1749999D01*
G01*
X108250000Y-65250000D02*
G75*
G02*
X111712663Y-65236411I1749999J-4749999D01*
G01*
X111750000Y-74750000D02*
G75*
G02*
X108287337Y-74763589I-1750000J4750000D01*
G01*
X114750000Y-68250000D02*
G75*
G02*
X114763589Y-71712663I-4750000J-1750000D01*
G01*
X85250000Y-51750000D02*
G75*
G02*
X85236411Y-48287337I4749999J1749999D01*
G01*
X88250000Y-45250000D02*
G75*
G02*
X91712663Y-45236411I1749999J-4749999D01*
G01*
X91750000Y-54750000D02*
G75*
G02*
X88287337Y-54763589I-1750000J4750000D01*
G01*
X94750000Y-48250000D02*
G75*
G02*
X94763589Y-51712663I-4750000J-1750000D01*
G01*
X123234420Y-63690000D02*
X123515580Y-63690000D01*
X123234420Y-64710000D02*
X123515580Y-64710000D01*
X85250000Y-71750000D02*
G75*
G02*
X85236411Y-68287337I4749999J1749999D01*
G01*
X88250000Y-65250000D02*
G75*
G02*
X91712663Y-65236411I1749999J-4749999D01*
G01*
X91750000Y-74750000D02*
G75*
G02*
X88287337Y-74763589I-1750000J4750000D01*
G01*
X94750000Y-68250000D02*
G75*
G02*
X94763589Y-71712663I-4750000J-1750000D01*
G01*
X85250000Y-111750000D02*
G75*
G02*
X85236411Y-108287337I4749999J1749999D01*
G01*
X88250000Y-105250000D02*
G75*
G02*
X91712663Y-105236411I1749999J-4749999D01*
G01*
X91750000Y-114750000D02*
G75*
G02*
X88287337Y-114763589I-1750000J4750000D01*
G01*
X94750000Y-108250000D02*
G75*
G02*
X94763589Y-111712663I-4750000J-1750000D01*
G01*
X105250000Y-111750000D02*
G75*
G02*
X105236411Y-108287337I4749999J1749999D01*
G01*
X108250000Y-105250000D02*
G75*
G02*
X111712663Y-105236411I1749999J-4749999D01*
G01*
X111750000Y-114750000D02*
G75*
G02*
X108287337Y-114763589I-1750000J4750000D01*
G01*
X114750000Y-108250000D02*
G75*
G02*
X114763589Y-111712663I-4750000J-1750000D01*
G01*
X123234420Y-79890000D02*
X123515580Y-79890000D01*
X123234420Y-80910000D02*
X123515580Y-80910000D01*
X85250000Y-91750000D02*
G75*
G02*
X85236411Y-88287337I4749999J1749999D01*
G01*
X88250000Y-85250000D02*
G75*
G02*
X91712663Y-85236411I1749999J-4749999D01*
G01*
X91750000Y-94750000D02*
G75*
G02*
X88287337Y-94763589I-1750000J4750000D01*
G01*
X94750000Y-88250000D02*
G75*
G02*
X94763589Y-91712663I-4750000J-1750000D01*
G01*
X105250000Y-51750000D02*
G75*
G02*
X105236411Y-48287337I4749999J1749999D01*
G01*
X108250000Y-45250000D02*
G75*
G02*
X111712663Y-45236411I1749999J-4749999D01*
G01*
X111750000Y-54750000D02*
G75*
G02*
X108287337Y-54763589I-1750000J4750000D01*
G01*
X114750000Y-48250000D02*
G75*
G02*
X114763589Y-51712663I-4750000J-1750000D01*
G01*
X105250000Y-91750000D02*
G75*
G02*
X105236411Y-88287337I4749999J1749999D01*
G01*
X108250000Y-85250000D02*
G75*
G02*
X111712663Y-85236411I1749999J-4749999D01*
G01*
X111750000Y-94750000D02*
G75*
G02*
X108287337Y-94763589I-1750000J4750000D01*
G01*
X114750000Y-88250000D02*
G75*
G02*
X114763589Y-91712663I-4750000J-1750000D01*
G01*
X123234420Y-95090000D02*
X123515580Y-95090000D01*
X123234420Y-96110000D02*
X123515580Y-96110000D01*
X123234420Y-76090000D02*
X123515580Y-76090000D01*
X123234420Y-77110000D02*
X123515580Y-77110000D01*
D13*
G36*
X137821212Y-113379752D02*
G01*
X137883500Y-113404245D01*
X137966240Y-113438502D01*
X138161307Y-113500145D01*
X138353209Y-113521593D01*
X138530250Y-113501880D01*
X138575472Y-113488884D01*
X138656043Y-113457222D01*
X138717865Y-113424162D01*
X138737709Y-113407866D01*
X138790596Y-113378506D01*
X138865041Y-113372426D01*
X138935575Y-113391104D01*
X138943877Y-113395899D01*
X138964068Y-113435666D01*
X138976500Y-113519632D01*
X138981335Y-113640770D01*
X138978733Y-113792052D01*
X138968853Y-113966448D01*
X138951856Y-114156930D01*
X138927903Y-114356470D01*
X138920818Y-114407143D01*
X138894997Y-114589314D01*
X138874718Y-114724603D01*
X138856369Y-114817152D01*
X138836341Y-114871099D01*
X138811021Y-114890587D01*
X138776801Y-114879757D01*
X138730067Y-114842747D01*
X138667211Y-114783700D01*
X138626219Y-114744973D01*
X138530379Y-114652771D01*
X138441868Y-114560817D01*
X138354571Y-114461606D01*
X138262375Y-114347632D01*
X138159166Y-114211388D01*
X138038832Y-114045369D01*
X137922765Y-113881286D01*
X137671786Y-113523899D01*
X137726433Y-113447154D01*
X137765224Y-113396825D01*
X137790732Y-113371225D01*
X137793056Y-113370409D01*
X137821212Y-113379752D01*
G37*
G36*
X140757312Y-110843368D02*
G01*
X141032963Y-111219593D01*
X141265585Y-111624230D01*
X141454417Y-112055684D01*
X141598700Y-112512360D01*
X141644050Y-112703036D01*
X141664680Y-112805846D01*
X141679826Y-112903124D01*
X141690286Y-113005902D01*
X141696853Y-113125211D01*
X141700323Y-113272082D01*
X141701492Y-113457547D01*
X141701520Y-113500000D01*
X141698583Y-113752128D01*
X141688409Y-113966361D01*
X141668954Y-114156378D01*
X141638174Y-114335860D01*
X141594024Y-114518489D01*
X141534460Y-114717943D01*
X141506900Y-114802373D01*
X141343047Y-115215395D01*
X141131939Y-115614913D01*
X140877485Y-115995725D01*
X140583598Y-116352635D01*
X140254189Y-116680440D01*
X139893168Y-116973944D01*
X139849825Y-117005246D01*
X139676373Y-117118833D01*
X139467732Y-117239407D01*
X139238547Y-117359679D01*
X139003461Y-117472358D01*
X138777117Y-117570156D01*
X138574159Y-117645783D01*
X138542142Y-117656194D01*
X138046039Y-117786876D01*
X137545678Y-117866886D01*
X137044192Y-117896467D01*
X136544716Y-117875863D01*
X136050383Y-117805317D01*
X135564327Y-117685075D01*
X135089681Y-117515379D01*
X134754014Y-117361331D01*
X134333763Y-117122391D01*
X133945472Y-116846271D01*
X133591588Y-116535896D01*
X133274559Y-116194190D01*
X132996830Y-115824079D01*
X132760849Y-115428485D01*
X132569063Y-115010335D01*
X132425424Y-114578094D01*
X132331704Y-114136846D01*
X132287800Y-113689047D01*
X132292931Y-113239400D01*
X132346311Y-112792612D01*
X132447158Y-112353386D01*
X132594690Y-111926427D01*
X132788122Y-111516440D01*
X132991061Y-111180306D01*
X133190062Y-110911789D01*
X133425595Y-110640783D01*
X133590008Y-110475650D01*
X134551139Y-110475650D01*
X134553341Y-110493545D01*
X134566979Y-110512909D01*
X134591387Y-110542525D01*
X134645327Y-110607013D01*
X134724843Y-110701678D01*
X134825983Y-110821821D01*
X134944791Y-110962745D01*
X135077314Y-111119755D01*
X135219597Y-111288151D01*
X135227026Y-111296939D01*
X135368332Y-111464739D01*
X135522580Y-111649070D01*
X135686633Y-111846091D01*
X135857350Y-112051962D01*
X136031595Y-112262844D01*
X136206228Y-112474895D01*
X136378110Y-112684275D01*
X136544104Y-112887144D01*
X136701070Y-113079662D01*
X136845870Y-113257988D01*
X136975366Y-113418283D01*
X137086418Y-113556705D01*
X137175888Y-113669415D01*
X137240639Y-113752572D01*
X137277530Y-113802336D01*
X137285102Y-113815161D01*
X137269945Y-113838538D01*
X137226196Y-113899841D01*
X137156437Y-113995581D01*
X137063253Y-114122270D01*
X136949225Y-114276418D01*
X136816936Y-114454539D01*
X136668970Y-114653142D01*
X136507910Y-114868739D01*
X136336337Y-115097842D01*
X136267557Y-115189533D01*
X136044008Y-115487428D01*
X135849579Y-115746593D01*
X135682266Y-115969751D01*
X135540065Y-116159624D01*
X135420973Y-116318938D01*
X135322987Y-116450413D01*
X135244103Y-116556775D01*
X135182318Y-116640746D01*
X135135628Y-116705050D01*
X135102029Y-116752410D01*
X135079519Y-116785549D01*
X135066094Y-116807190D01*
X135059751Y-116820057D01*
X135058486Y-116826874D01*
X135060295Y-116830363D01*
X135060386Y-116830455D01*
X135087246Y-116829977D01*
X135151137Y-116822637D01*
X135238044Y-116810592D01*
X135333953Y-116795998D01*
X135424848Y-116781013D01*
X135496715Y-116767794D01*
X135535539Y-116758497D01*
X135538609Y-116756852D01*
X135556314Y-116737461D01*
X135602951Y-116686936D01*
X135672180Y-116612130D01*
X135757663Y-116519897D01*
X135794103Y-116480613D01*
X136235293Y-116035672D01*
X136725505Y-115599191D01*
X137265724Y-115170315D01*
X137530487Y-114975926D01*
X137858751Y-114740557D01*
X137941263Y-114803771D01*
X138012511Y-114863494D01*
X138112171Y-114954186D01*
X138233292Y-115068915D01*
X138368925Y-115200749D01*
X138512118Y-115342755D01*
X138655922Y-115488000D01*
X138793388Y-115629551D01*
X138917563Y-115760476D01*
X139021500Y-115873843D01*
X139073469Y-115933138D01*
X139171963Y-116046828D01*
X139242874Y-116124148D01*
X139290832Y-116169339D01*
X139320467Y-116186646D01*
X139336407Y-116180309D01*
X139338568Y-116176088D01*
X139343869Y-116152745D01*
X139351141Y-116102405D01*
X139360574Y-116023023D01*
X139372356Y-115912554D01*
X139386675Y-115768953D01*
X139403722Y-115590175D01*
X139423684Y-115374177D01*
X139446750Y-115118912D01*
X139473109Y-114822337D01*
X139502950Y-114482407D01*
X139536462Y-114097077D01*
X139573833Y-113664302D01*
X139615253Y-113182038D01*
X139617989Y-113150102D01*
X139641251Y-112879971D01*
X139665087Y-112605726D01*
X139688744Y-112335845D01*
X139711472Y-112078806D01*
X139732518Y-111843087D01*
X139751132Y-111637166D01*
X139766560Y-111469522D01*
X139773728Y-111393438D01*
X139789093Y-111231400D01*
X139802624Y-111086840D01*
X139813590Y-110967720D01*
X139821260Y-110882002D01*
X139824903Y-110837651D01*
X139825102Y-110833696D01*
X139803156Y-110829747D01*
X139746442Y-110841625D01*
X139689030Y-110859464D01*
X139606148Y-110885912D01*
X139539446Y-110903347D01*
X139513828Y-110907318D01*
X139488007Y-110931595D01*
X139444483Y-111002596D01*
X139384147Y-111118656D01*
X139307885Y-111278111D01*
X139258159Y-111386608D01*
X139179165Y-111556434D01*
X139093784Y-111731999D01*
X139008989Y-111899497D01*
X138931750Y-112045118D01*
X138876544Y-112142558D01*
X138802436Y-112262286D01*
X138718649Y-112389741D01*
X138630604Y-112517549D01*
X138543721Y-112638337D01*
X138463420Y-112744734D01*
X138395122Y-112829366D01*
X138344247Y-112884860D01*
X138316823Y-112903878D01*
X138288118Y-112889879D01*
X138223913Y-112850925D01*
X138131322Y-112791576D01*
X138017456Y-112716395D01*
X137889428Y-112629943D01*
X137885064Y-112626964D01*
X137575554Y-112413783D01*
X137302124Y-112220877D01*
X137056527Y-112041648D01*
X136830517Y-111869497D01*
X136615847Y-111697827D01*
X136404269Y-111520038D01*
X136187538Y-111329533D01*
X135957406Y-111119713D01*
X135705628Y-110883980D01*
X135700026Y-110878683D01*
X135320155Y-110519388D01*
X135090945Y-110517467D01*
X134969863Y-110514132D01*
X134853107Y-110506996D01*
X134761750Y-110497441D01*
X134745102Y-110494793D01*
X134639579Y-110477031D01*
X134577405Y-110470398D01*
X134551139Y-110475650D01*
X133590008Y-110475650D01*
X133684782Y-110380461D01*
X133954740Y-110143998D01*
X134150175Y-109994755D01*
X134323627Y-109881168D01*
X134532267Y-109760594D01*
X134761452Y-109640322D01*
X134996538Y-109527643D01*
X135222882Y-109429845D01*
X135425840Y-109354218D01*
X135457857Y-109343807D01*
X135949911Y-109214142D01*
X136449996Y-109133447D01*
X136952219Y-109102382D01*
X137445140Y-109121110D01*
X137919797Y-109187828D01*
X138390536Y-109301690D01*
X138849834Y-109459809D01*
X139290164Y-109659302D01*
X139704001Y-109897281D01*
X139988710Y-110096430D01*
X140121139Y-110204659D01*
X140272763Y-110340828D01*
X140430554Y-110492275D01*
X140581480Y-110646335D01*
X140712513Y-110790347D01*
X140749140Y-110833696D01*
X140757312Y-110843368D01*
G37*
%LPC*%
D14*
X123025000Y-90000000D03*
X124575000Y-90000000D03*
X123025000Y-70000000D03*
X124575000Y-70000000D03*
X123025000Y-100400000D03*
X124575000Y-100400000D03*
X123025000Y-57600000D03*
X124575000Y-57600000D03*
D15*
X110000000Y-70000000D03*
D16*
X106825000Y-66825000D03*
X106825000Y-73175000D03*
X113175000Y-66825000D03*
X113175000Y-73175000D03*
D15*
X90000000Y-50000000D03*
D16*
X86825000Y-46825000D03*
X86825000Y-53175000D03*
X93175000Y-46825000D03*
X93175000Y-53175000D03*
D14*
X122600000Y-64200000D03*
X124150000Y-64200000D03*
D15*
X90000000Y-70000000D03*
D16*
X86825000Y-66825000D03*
X86825000Y-73175000D03*
X93175000Y-66825000D03*
X93175000Y-73175000D03*
D15*
X90000000Y-110000000D03*
D16*
X86825000Y-106825000D03*
X86825000Y-113175000D03*
X93175000Y-106825000D03*
X93175000Y-113175000D03*
D15*
X110000000Y-110000000D03*
D16*
X106825000Y-106825000D03*
X106825000Y-113175000D03*
X113175000Y-106825000D03*
X113175000Y-113175000D03*
D14*
X122600000Y-80400000D03*
X124150000Y-80400000D03*
D15*
X90000000Y-90000000D03*
D16*
X86825000Y-86825000D03*
X86825000Y-93175000D03*
X93175000Y-86825000D03*
X93175000Y-93175000D03*
D15*
X110000000Y-50000000D03*
D16*
X106825000Y-46825000D03*
X106825000Y-53175000D03*
X113175000Y-46825000D03*
X113175000Y-53175000D03*
D15*
X110000000Y-90000000D03*
D16*
X106825000Y-86825000D03*
X106825000Y-93175000D03*
X113175000Y-86825000D03*
X113175000Y-93175000D03*
D14*
X122600000Y-95600000D03*
X124150000Y-95600000D03*
X122600000Y-76600000D03*
X124150000Y-76600000D03*
D17*
X145000000Y-90000000D03*
D18*
X145000000Y-92540000D03*
X145000000Y-95080000D03*
X145000000Y-97620000D03*
X145000000Y-100160000D03*
X145000000Y-102700000D03*
X145000000Y-105240000D03*
X145000000Y-107780000D03*
D19*
X132000000Y-60000000D03*
D20*
X129460000Y-60000000D03*
X132000000Y-62540000D03*
X129460000Y-62540000D03*
X132000000Y-65080000D03*
X129460000Y-65080000D03*
X132000000Y-67620000D03*
X129460000Y-67620000D03*
X132000000Y-70160000D03*
X129460000Y-70160000D03*
X132000000Y-72700000D03*
X129460000Y-72700000D03*
X132000000Y-75240000D03*
X129460000Y-75240000D03*
X132000000Y-77780000D03*
X129460000Y-77780000D03*
X132000000Y-80320000D03*
X129460000Y-80320000D03*
X132000000Y-82860000D03*
X129460000Y-82860000D03*
X132000000Y-85400000D03*
X129460000Y-85400000D03*
X132000000Y-87940000D03*
X129460000Y-87940000D03*
X132000000Y-90480000D03*
X129460000Y-90480000D03*
X132000000Y-93020000D03*
X129460000Y-93020000D03*
X132000000Y-95560000D03*
X129460000Y-95560000D03*
X132000000Y-98100000D03*
X129460000Y-98100000D03*
X132000000Y-100640000D03*
X129460000Y-100640000D03*
D17*
X145000000Y-50000000D03*
D18*
X145000000Y-52540000D03*
X145000000Y-55080000D03*
X145000000Y-57620000D03*
X145000000Y-60160000D03*
X145000000Y-62700000D03*
X145000000Y-65240000D03*
X145000000Y-67780000D03*
D21*
X80494681Y-118087945D03*
X147494681Y-118087945D03*
X147494681Y-43087945D03*
X80494681Y-43087945D03*
%LPD*%
M02*
